<svg width="20" height="20" viewBox="0 0 20 20" xmlns="http://www.w3.org/2000/svg"><path fill-rule="evenodd" clip-rule="evenodd" d="M5.83333 3.2C5.57696 3.2 5.33108 3.30184 5.1498 3.48313C4.96851 3.66441 4.86667 3.91029 4.86667 4.16667V16.3674L9.68695 13.9572C9.88402 13.8587 10.116 13.8587 10.3131 13.9572L15.1333 16.3674V4.16667C15.1333 3.91029 15.0315 3.66441 14.8502 3.48313C14.6689 3.30184 14.423 3.2 14.1667 3.2H5.83333ZM4.15985 2.49318C4.60368 2.04934 5.20566 1.8 5.83333 1.8H14.1667C14.7943 1.8 15.3963 2.04934 15.8402 2.49318C16.284 2.93702 16.5333 3.53899 16.5333 4.16667V17.5C16.5333 17.7426 16.4077 17.9679 16.2013 18.0955C15.995 18.223 15.7373 18.2346 15.5203 18.1261L10 15.366L4.47972 18.1261C4.26272 18.2346 4.00503 18.223 3.79866 18.0955C3.59228 17.9679 3.46667 17.7426 3.46667 17.5V4.16667C3.46667 3.53899 3.71601 2.93702 4.15985 2.49318Z"/></svg>