<svg width="32" height="32" viewBox="0 0 32 32" xmlns="http://www.w3.org/2000/svg"><path fill-rule="evenodd" clip-rule="evenodd" d="M16 29C19.4478 29 22.7544 27.6304 25.1924 25.1924C27.6304 22.7544 29 19.4478 29 16C29 12.5522 27.6304 9.24559 25.1924 6.80761C22.7544 4.36964 19.4478 3 16 3C12.5522 3 9.24559 4.36964 6.80761 6.80761C4.36964 9.24559 3 12.5522 3 16C3 19.4478 4.36964 22.7544 6.80761 25.1924C9.24559 27.6304 12.5522 29 16 29V29ZM15.2769 11.398C15.0321 11.2347 14.7477 11.1409 14.4538 11.1267C14.16 11.1124 13.8678 11.1782 13.6084 11.317C13.349 11.4557 13.1321 11.6624 12.981 11.9147C12.8298 12.1671 12.75 12.4558 12.75 12.75V19.25C12.75 19.5442 12.8298 19.8329 12.981 20.0853C13.1321 20.3376 13.349 20.5443 13.6084 20.683C13.8678 20.8218 14.16 20.8876 14.4538 20.8733C14.7477 20.8591 15.0321 20.7653 15.2769 20.602L20.1519 17.352C20.3744 17.2036 20.5569 17.0026 20.6831 16.7667C20.8093 16.5309 20.8754 16.2675 20.8754 16C20.8754 15.7325 20.8093 15.4691 20.6831 15.2333C20.5569 14.9974 20.3744 14.7964 20.1519 14.648L15.2769 11.398V11.398Z"/></svg>