<svg width="24" height="24" viewBox="0 0 24 24" xmlns="http://www.w3.org/2000/svg"><path fill-rule="evenodd" clip-rule="evenodd" d="M12 3.7C9.7987 3.7 7.68757 4.57446 6.13101 6.13101C4.57446 7.68757 3.7 9.7987 3.7 12C3.7 13.09 3.91469 14.1693 4.3318 15.1763C4.74891 16.1833 5.36029 17.0983 6.13101 17.869C6.90174 18.6397 7.81673 19.2511 8.82373 19.6682C9.83073 20.0853 10.91 20.3 12 20.3C13.09 20.3 14.1693 20.0853 15.1763 19.6682C16.1833 19.2511 17.0983 18.6397 17.869 17.869C18.6397 17.0983 19.2511 16.1833 19.6682 15.1763C20.0853 14.1693 20.3 13.09 20.3 12C20.3 9.7987 19.4255 7.68757 17.869 6.13101C16.3124 4.57446 14.2013 3.7 12 3.7ZM5.14106 5.14106C6.96017 3.32196 9.4274 2.3 12 2.3C14.5726 2.3 17.0398 3.32196 18.8589 5.14106C20.678 6.96017 21.7 9.4274 21.7 12C21.7 13.2738 21.4491 14.5352 20.9616 15.712C20.4742 16.8889 19.7597 17.9582 18.8589 18.8589C17.9582 19.7597 16.8889 20.4742 15.712 20.9616C14.5352 21.4491 13.2738 21.7 12 21.7C10.7262 21.7 9.46483 21.4491 8.28797 20.9616C7.11111 20.4742 6.04179 19.7597 5.14106 18.8589C4.24034 17.9582 3.52584 16.8889 3.03837 15.712C2.5509 14.5352 2.3 13.2738 2.3 12C2.3 9.4274 3.32196 6.96017 5.14106 5.14106ZM15.495 9.50503C15.7683 9.77839 15.7683 10.2216 15.495 10.495L11.495 14.495C11.2216 14.7683 10.7784 14.7683 10.505 14.495L8.50503 12.495C8.23166 12.2216 8.23166 11.7784 8.50503 11.505C8.77839 11.2317 9.22161 11.2317 9.49497 11.505L11 13.01L14.505 9.50503C14.7784 9.23166 15.2216 9.23166 15.495 9.50503Z"/></svg>