<svg width="24" height="24" viewBox="0 0 24 24" xmlns="http://www.w3.org/2000/svg"><path fill-rule="evenodd" clip-rule="evenodd" d="M4.50503 4.50503C4.7784 4.23166 5.22161 4.23166 5.49498 4.50503L12 11.0101L18.505 4.50503C18.7784 4.23166 19.2216 4.23166 19.495 4.50503C19.7683 4.7784 19.7683 5.22161 19.495 5.49498L12.99 12L19.495 18.505C19.7683 18.7784 19.7683 19.2216 19.495 19.495C19.2216 19.7683 18.7784 19.7683 18.505 19.495L12 12.99L5.49498 19.495C5.22161 19.7683 4.7784 19.7683 4.50503 19.495C4.23166 19.2216 4.23166 18.7784 4.50503 18.505L11.0101 12L4.50503 5.49498C4.23166 5.22161 4.23166 4.7784 4.50503 4.50503Z"/></svg>