<svg width="20" height="20" viewBox="0 0 20 20" xmlns="http://www.w3.org/2000/svg"><path fill-rule="evenodd" clip-rule="evenodd" d="M10 4.03331C6.16514 4.03331 3.20001 6.78015 3.20001 9.99998C3.20001 11.1557 3.57508 12.2386 4.2324 13.1602C4.36766 13.3498 4.39973 13.5943 4.31794 13.8124L3.59763 15.7333L6.31689 15.1894C6.46451 15.1599 6.61772 15.1787 6.75378 15.2432C7.76756 15.7233 8.87591 15.9705 9.99762 15.9666L10 15.9666C13.8349 15.9666 16.8 13.2198 16.8 9.99998C16.8 6.78015 13.8349 4.03331 10 4.03331ZM1.80001 9.99998C1.80001 5.85647 5.55154 2.63331 10 2.63331C14.4485 2.63331 18.2 5.85647 18.2 9.99998C18.2 14.1431 14.4491 17.3661 10.0012 17.3666H10L10.0024 17.3666L10.0012 17.3666C8.74979 17.3707 7.51242 17.1115 6.36924 16.6067L2.63729 17.353C2.38806 17.4029 2.1314 17.3137 1.96675 17.1201C1.8021 16.9265 1.75533 16.6588 1.84457 16.4209L2.88042 13.6586C2.19582 12.5843 1.80001 11.3351 1.80001 9.99998ZM5.96667 9.99998C5.96667 9.61338 6.28007 9.29998 6.66667 9.29998H6.67501C7.0616 9.29998 7.37501 9.61338 7.37501 9.99998C7.37501 10.3866 7.0616 10.7 6.67501 10.7H6.66667C6.28007 10.7 5.96667 10.3866 5.96667 9.99998ZM9.30001 9.99998C9.30001 9.61338 9.61341 9.29998 10 9.29998H10.0083C10.3949 9.29998 10.7083 9.61338 10.7083 9.99998C10.7083 10.3866 10.3949 10.7 10.0083 10.7H10C9.61341 10.7 9.30001 10.3866 9.30001 9.99998ZM12.6333 9.99998C12.6333 9.61338 12.9467 9.29998 13.3333 9.29998H13.3417C13.7283 9.29998 14.0417 9.61338 14.0417 9.99998C14.0417 10.3866 13.7283 10.7 13.3417 10.7H13.3333C12.9467 10.7 12.6333 10.3866 12.6333 9.99998Z"/></svg>