<svg width="20" height="20" viewBox="0 0 20 20" xmlns="http://www.w3.org/2000/svg"><path fill-rule="evenodd" clip-rule="evenodd" d="M11.3647 2.9322C12.1254 2.1975 13.1442 1.79096 14.2017 1.80015C15.2592 1.80934 16.2709 2.23352 17.0187 2.98134C17.7665 3.72915 18.1907 4.74076 18.1998 5.79829C18.209 6.85581 17.8025 7.87464 17.0678 8.63534L17.0593 8.64409L13.7259 11.9773C12.9696 12.7335 11.9438 13.1583 10.8743 13.1583C9.8048 13.1583 8.77909 12.7336 8.02273 11.9774C7.74932 11.7041 7.74925 11.2609 8.02258 10.9875C8.2959 10.7141 8.73912 10.714 9.01253 10.9873C9.50635 11.481 10.176 11.7583 10.8743 11.7583C11.5725 11.7583 12.2422 11.481 12.736 10.9874C12.736 10.9874 12.736 10.9874 12.736 10.9874L16.0648 7.65863C16.5419 7.16242 16.8059 6.499 16.7999 5.81045C16.7939 5.12 16.517 4.45953 16.0287 3.97129C15.5405 3.48304 14.88 3.2061 14.1895 3.2001C13.501 3.19412 12.8376 3.45806 12.3414 3.93523L11.4293 4.84735C11.1559 5.12071 10.7127 5.12071 10.4393 4.84735C10.166 4.57398 10.166 4.13076 10.4393 3.8574L11.3647 2.9322ZM6.35606 7.94066C7.11242 7.18452 8.13813 6.75975 9.20763 6.75975C10.2771 6.75975 11.3028 7.18452 12.0592 7.94066C12.3326 8.21398 12.3327 8.6572 12.0593 8.93061C11.786 9.20401 11.3428 9.20408 11.0694 8.93076C10.5756 8.43708 9.90589 8.15975 9.20763 8.15975C8.5094 8.15975 7.83975 8.43705 7.34594 8.93068C7.34591 8.93071 7.34596 8.93066 7.34594 8.93068L4.004 12.2726C3.75249 12.5155 3.5518 12.806 3.41379 13.1273C3.27578 13.4486 3.20314 13.7941 3.2001 14.1438C3.19706 14.4934 3.26369 14.8402 3.3961 15.1638C3.5285 15.4874 3.72403 15.7815 3.97129 16.0287C4.21854 16.276 4.51255 16.4715 4.83618 16.6039C5.15981 16.7363 5.50656 16.8029 5.85622 16.7999C6.20587 16.7969 6.55141 16.7242 6.87269 16.5862C7.19397 16.4482 7.48454 16.2476 7.72746 15.9961L7.73613 15.9871L8.65454 15.0697C8.92804 14.7964 9.37125 14.7966 9.64449 15.0701C9.91774 15.3436 9.91754 15.7868 9.64404 16.0601L8.72991 16.9734C8.35877 17.3564 7.91534 17.662 7.42526 17.8725C6.93318 18.0839 6.40392 18.1952 5.86838 18.1998C5.33284 18.2045 4.80173 18.1025 4.30605 17.8997C3.81037 17.6969 3.36004 17.3974 2.98134 17.0187C2.60264 16.64 2.30315 16.1896 2.10035 15.694C1.89755 15.1983 1.7955 14.6672 1.80015 14.1316C1.80481 13.5961 1.91607 13.0668 2.12745 12.5747C2.338 12.0846 2.64368 11.6411 3.02677 11.2699L6.35606 7.94066Z"/></svg>