<svg width="20" height="20" viewBox="0 0 20 20" xmlns="http://www.w3.org/2000/svg"><path fill-rule="evenodd" clip-rule="evenodd" d="M10.4883 3.48313C10.4883 3.48313 5.33109 3.30185 5.1498 3.48313C4.96852 3.66442 4.86667 3.91029 4.86667 4.16667V15.8333C4.86667 16.0897 4.96852 16.3356 5.1498 16.5169C5.33109 16.6982 5.57697 16.8 5.83334 16.8H14.1667C14.4231 16.8 14.6689 16.6982 14.8502 16.5169C15.0315 16.3356 15.1333 16.0897 15.1333 15.8333V7.84515M4.15986 2.49318C4.60369 2.04935 5.20566 1.8 5.83334 1.8H10.4883C10.8949 1.80009 11.285 1.96167 11.5725 2.24919M11.5725 2.24919L16.0841 6.76079C16.3716 7.04827 16.5333 7.43826 16.5333 7.84485V15.8333C16.5333 16.461 16.284 17.063 15.8402 17.5068C15.3963 17.9507 14.7944 18.2 14.1667 18.2H5.83334C5.20566 18.2 4.60369 17.9507 4.15986 17.5068C3.71602 17.063 3.46667 16.461 3.46667 15.8333V4.16667C3.46667 3.53899 3.71602 2.93702 4.15986 2.49318M10 7.63334C10.3866 7.63334 10.7 7.94674 10.7 8.33334V11.6434L12.005 10.3384C12.2784 10.065 12.7216 10.065 12.995 10.3384C13.2684 10.6117 13.2684 11.0549 12.995 11.3283L10.495 13.8283C10.3599 13.9634 10.1835 14.0317 10.0065 14.0333C10.0043 14.0333 10.0022 14.0333 10 14.0333C9.99785 14.0333 9.9957 14.0333 9.99355 14.0333C9.90099 14.0325 9.81272 14.0137 9.73206 13.9802C9.6495 13.9461 9.57215 13.8954 9.50503 13.8283L7.00503 11.3283C6.73167 11.0549 6.73167 10.6117 7.00503 10.3384C7.2784 10.065 7.72162 10.065 7.99498 10.3384L9.30001 11.6434V8.33334C9.30001 7.94674 9.61341 7.63334 10 7.63334Z"/></svg>