<svg width="40" height="40" viewBox="0 0 40 40" xmlns="http://www.w3.org/2000/svg"><path fill-rule="evenodd" clip-rule="evenodd" d="M20.4947 4.50503L32.1613 16.1717C32.4346 16.4451 32.4346 16.8883 32.1613 17.1617C31.8879 17.435 31.4447 17.435 31.1713 17.1617L20.6997 6.68996V35C20.6997 35.3866 20.3863 35.7 19.9997 35.7C19.6131 35.7 19.2997 35.3866 19.2997 35V6.68995L8.82799 17.1617C8.55462 17.435 8.1114 17.435 7.83804 17.1617C7.56467 16.8883 7.56467 16.4451 7.83804 16.1717L19.5047 4.50502C19.5063 4.5035 19.5078 4.50198 19.5093 4.50047C19.5754 4.43562 19.6511 4.3865 19.7318 4.35311C19.8143 4.31889 19.9048 4.3 19.9997 4.3C20.0946 4.3 20.1851 4.31889 20.2677 4.35311C20.3483 4.3865 20.424 4.43562 20.4901 4.50048C20.4916 4.50198 20.4932 4.5035 20.4947 4.50503Z"/></svg>