<svg width="16" height="16" viewBox="0 0 16 16" xmlns="http://www.w3.org/2000/svg"><path fill-rule="evenodd" clip-rule="evenodd" d="M5.88192 2.63447C6.4256 2.01234 7.18483 1.64098 8.00001 1.64098C8.81519 1.64098 9.57442 2.01234 10.1181 2.63447C10.6591 3.2536 10.95 4.07537 10.95 4.91569V6.1927H11.375C11.8918 6.1927 12.3649 6.42843 12.6976 6.80914C13.0277 7.18684 13.2 7.68117 13.2 8.18006L13.2 12.3717C13.2 12.8706 13.0276 13.3649 12.6976 13.7426C12.3649 14.1233 11.8918 14.359 11.375 14.359H4.62499C4.10818 14.359 3.63509 14.1233 3.3024 13.7426C2.97233 13.3649 2.79999 12.8706 2.79999 12.3717L2.80001 8.18006C2.80001 7.68117 2.97235 7.18684 3.30242 6.80914C3.63511 6.42843 4.1082 6.1927 4.62501 6.1927H5.05001V4.91569C5.05001 4.07537 5.34088 3.2536 5.88192 2.63447ZM6.45001 6.1927H9.55001V4.91569C9.55001 4.39029 9.36677 3.90229 9.0639 3.55571C8.76366 3.21214 8.3783 3.04098 8.00001 3.04098C7.62171 3.04098 7.23635 3.21214 6.93611 3.55571C6.63325 3.90229 6.45001 4.39029 6.45001 4.91569V6.1927ZM4.62501 7.5927C4.54508 7.5927 4.44587 7.62824 4.35661 7.73038C4.26472 7.83553 4.20001 7.99609 4.20001 8.18006L4.19999 12.3717C4.19999 12.5556 4.2647 12.7162 4.35659 12.8213C4.44585 12.9235 4.54506 12.959 4.62499 12.959H11.375C11.4549 12.959 11.5541 12.9235 11.6434 12.8213C11.7353 12.7162 11.8 12.5556 11.8 12.3717L11.8 8.18006C11.8 7.99609 11.7353 7.83553 11.6434 7.73038C11.5541 7.62823 11.4549 7.5927 11.375 7.5927H4.62501ZM8.01007 9.35505C8.39667 9.35505 8.71007 9.66845 8.71007 10.0551V10.6425C8.71007 11.0291 8.39667 11.3425 8.01007 11.3425C7.62347 11.3425 7.31007 11.0291 7.31007 10.6425V10.0551C7.31007 9.66845 7.62347 9.35505 8.01007 9.35505Z"/></svg>