<svg width="24" height="24" viewBox="0 0 24 24" xmlns="http://www.w3.org/2000/svg"><path fill-rule="evenodd" clip-rule="evenodd" d="M18 19.3C18.61 19.3 19.195 19.0577 19.6263 18.6263C20.0577 18.195 20.3 17.61 20.3 17L20.3 7C20.3 6.39 20.0577 5.80499 19.6263 5.37366C19.195 4.94232 18.61 4.7 18 4.7L11 4.7C10.39 4.7 9.80499 4.94232 9.37366 5.37365C8.94232 5.80499 8.7 6.39 8.7 7L8.7 8C8.7 8.3866 8.3866 8.7 8 8.7C7.6134 8.7 7.3 8.3866 7.3 8L7.3 7C7.3 6.0187 7.68982 5.07759 8.38371 4.3837C9.07759 3.68982 10.0187 3.3 11 3.3L18 3.3C18.9813 3.3 19.9224 3.68982 20.6163 4.38371C21.3102 5.07759 21.7 6.0187 21.7 7L21.7 17C21.7 17.9813 21.3102 18.9224 20.6163 19.6163C19.9224 20.3102 18.9813 20.7 18 20.7L11 20.7C10.0187 20.7 9.07759 20.3102 8.38371 19.6163C7.68982 18.9224 7.3 17.9813 7.3 17L7.3 16C7.3 15.6134 7.6134 15.3 8 15.3C8.3866 15.3 8.7 15.6134 8.7 16L8.7 17C8.7 17.61 8.94232 18.195 9.37366 18.6263C9.80499 19.0577 10.39 19.3 11 19.3L18 19.3ZM12.505 16.495C12.2317 16.2216 12.2317 15.7784 12.505 15.505L15.3101 12.7L3 12.7C2.6134 12.7 2.3 12.3866 2.3 12C2.3 11.6134 2.6134 11.3 3 11.3L15.3101 11.3L12.505 8.49498C12.2317 8.22161 12.2317 7.77839 12.505 7.50503C12.7784 7.23166 13.2216 7.23166 13.495 7.50503L17.495 11.505C17.5621 11.5721 17.6127 11.6495 17.6469 11.7321C17.6811 11.8146 17.7 11.9051 17.7 12C17.7 12.0949 17.6811 12.1854 17.6469 12.2679C17.6127 12.3505 17.5621 12.4279 17.495 12.495C17.4949 12.495 17.4949 12.495 17.4949 12.4951L13.495 16.495C13.2216 16.7683 12.7784 16.7683 12.505 16.495Z"/></svg>