<svg width="24" height="24" viewBox="0 0 24 24" xmlns="http://www.w3.org/2000/svg"><path fill-rule="evenodd" clip-rule="evenodd" d="M10.0908 3.09081C10.5972 2.58446 11.2839 2.3 12 2.3C12.7161 2.3 13.4028 2.58446 13.9092 3.09081C14.3835 3.56515 14.6631 4.19781 14.6966 4.86458C15.807 5.35302 16.7671 6.13519 17.4709 7.13084C18.2707 8.26247 18.7002 9.61422 18.7 11C18.7 11 18.7 11 18.7 11V14.158C18.7 14.3329 18.7344 14.5063 18.8013 14.6679C18.8682 14.8295 18.9663 14.9763 19.09 15.1C19.09 15.1 19.09 15.1 19.09 15.1L20.495 16.505C20.6952 16.7052 20.7551 17.0063 20.6467 17.2679C20.5384 17.5295 20.2831 17.7 20 17.7H15.7V18C15.7 18.9813 15.3102 19.9224 14.6163 20.6163C13.9224 21.3102 12.9813 21.7 12 21.7C11.0187 21.7 10.0776 21.3102 9.3837 20.6163C8.68982 19.9224 8.3 18.9813 8.3 18V17.7H4C3.71688 17.7 3.46163 17.5295 3.35328 17.2679C3.24494 17.0063 3.30483 16.7052 3.50503 16.505L4.91003 15.1C5.15976 14.8503 5.3 14.5113 5.3 14.159V11C5.3 8.25843 6.94711 5.90232 9.30339 4.86467C9.33683 4.19786 9.61645 3.56517 10.0908 3.09081ZM9.7 17.7V18C9.7 18.61 9.94232 19.195 10.3737 19.6263C10.805 20.0577 11.39 20.3 12 20.3C12.61 20.3 13.195 20.0577 13.6263 19.6263C14.0577 19.195 14.3 18.61 14.3 18V17.7H9.7ZM12 3.7C11.6552 3.7 11.3246 3.83696 11.0808 4.08076C10.837 4.32456 10.7 4.65522 10.7 5V5.341C10.7 5.63763 10.513 5.90205 10.2334 6.00095C8.17419 6.72918 6.7 8.6939 6.7 11V14.159C6.7 14.8827 6.41224 15.5777 5.89997 16.09L5.68995 16.3H18.3101L18.1 16.09C17.8463 15.8362 17.6451 15.535 17.5078 15.2035C17.3706 14.872 17.3 14.5168 17.3 14.158C17.3 14.158 17.3 14.158 17.3 14.158V11C17.3001 9.90368 16.9604 8.83419 16.3276 7.93893C15.6948 7.04368 14.8 6.3666 13.7665 6.00091C13.4869 5.90198 13.3 5.63759 13.3 5.341V5C13.3 4.65522 13.163 4.32456 12.9192 4.08076C12.6754 3.83696 12.3448 3.7 12 3.7Z"/></svg>