<svg width="20" height="20" viewBox="0 0 20 20" xmlns="http://www.w3.org/2000/svg"><path fill-rule="evenodd" clip-rule="evenodd" d="M10.0001 3.3C10.3867 3.3 10.7001 3.6134 10.7001 4V9.30008H16.0002C16.3868 9.30008 16.7002 9.61348 16.7002 10.0001C16.7002 10.3867 16.3868 10.7001 16.0002 10.7001H10.7001V16.0002C10.7001 16.3868 10.3867 16.7002 10.0001 16.7002C9.61348 16.7002 9.30008 16.3868 9.30008 16.0002V10.7001H4C3.6134 10.7001 3.3 10.3867 3.3 10.0001C3.3 9.61348 3.6134 9.30008 4 9.30008H9.30008V4C9.30008 3.6134 9.61348 3.3 10.0001 3.3Z"/></svg>