<svg width="20" height="20" viewBox="0 0 20 20" xmlns="http://www.w3.org/2000/svg"><path fill-rule="evenodd" clip-rule="evenodd" d="M3.08211 3.08113C3.36967 2.79358 3.75968 2.63203 4.16634 2.63203H5.83301C6.23967 2.63203 6.62968 2.79358 6.91724 3.08113C7.20479 3.36869 7.36634 3.7587 7.36634 4.16536V5.83203C7.36634 6.2387 7.20479 6.62871 6.91724 6.91626C6.62968 7.20382 6.23967 7.36536 5.83301 7.36536H4.16634C3.75968 7.36536 3.36967 7.20382 3.08211 6.91626C2.79456 6.62871 2.63301 6.2387 2.63301 5.83203V4.16536C2.63301 3.7587 2.79456 3.36869 3.08211 3.08113ZM4.16634 4.03203C4.13098 4.03203 4.09707 4.04608 4.07206 4.07108C4.04706 4.09609 4.03301 4.13 4.03301 4.16536V5.83203C4.03301 5.86739 4.04706 5.90131 4.07206 5.92631C4.09707 5.95132 4.13098 5.96536 4.16634 5.96536H5.83301C5.86837 5.96536 5.90228 5.95132 5.92729 5.92631C5.95229 5.90131 5.96634 5.86739 5.96634 5.83203V4.16536C5.96634 4.13 5.95229 4.09609 5.92729 4.07108C5.90228 4.04608 5.86837 4.03203 5.83301 4.03203H4.16634ZM9.99967 2.63203C10.3863 2.63203 10.6997 2.94543 10.6997 3.33203V4.16536C10.6997 4.55196 10.3863 4.86536 9.99967 4.86536C9.61307 4.86536 9.29967 4.55196 9.29967 4.16536V3.33203C9.29967 2.94543 9.61307 2.63203 9.99967 2.63203ZM13.0821 3.08113C13.3697 2.79358 13.7597 2.63203 14.1663 2.63203H15.833C16.2397 2.63203 16.6297 2.79358 16.9172 3.08113C17.2048 3.36869 17.3663 3.7587 17.3663 4.16536V5.83203C17.3663 6.2387 17.2048 6.6287 16.9172 6.91626C16.6297 7.20382 16.2397 7.36536 15.833 7.36536H14.1663C13.7597 7.36536 13.3697 7.20382 13.0821 6.91626C12.7946 6.6287 12.633 6.2387 12.633 5.83203V4.16536C12.633 3.7587 12.7946 3.36869 13.0821 3.08113ZM14.1663 4.03203C14.131 4.03203 14.0971 4.04608 14.0721 4.07108C14.0471 4.09609 14.033 4.13 14.033 4.16536V5.83203C14.033 5.86739 14.0471 5.90131 14.0721 5.92631C14.0971 5.95132 14.131 5.96536 14.1663 5.96536H15.833C15.8684 5.96536 15.9023 5.95132 15.9273 5.92631C15.9523 5.90131 15.9663 5.86739 15.9663 5.83203V4.16536C15.9663 4.13 15.9523 4.09609 15.9273 4.07108C15.9023 4.04608 15.8684 4.03203 15.833 4.03203H14.1663ZM9.99967 6.7987C10.3863 6.7987 10.6997 7.1121 10.6997 7.4987V9.2987H13.3413C13.7279 9.2987 14.0413 9.6121 14.0413 9.9987C14.0413 10.3853 13.7279 10.6987 13.3413 10.6987H9.99967C9.61307 10.6987 9.29967 10.3853 9.29967 9.9987V7.4987C9.29967 7.1121 9.61307 6.7987 9.99967 6.7987ZM2.63301 9.9987C2.63301 9.6121 2.94641 9.2987 3.33301 9.2987H6.66634C7.05294 9.2987 7.36634 9.6121 7.36634 9.9987C7.36634 10.3853 7.05294 10.6987 6.66634 10.6987H3.33301C2.94641 10.6987 2.63301 10.3853 2.63301 9.9987ZM15.9663 9.9987C15.9663 9.6121 16.2797 9.2987 16.6663 9.2987H16.6747C17.0613 9.2987 17.3747 9.6121 17.3747 9.9987C17.3747 10.3853 17.0613 10.6987 16.6747 10.6987H16.6663C16.2797 10.6987 15.9663 10.3853 15.9663 9.9987ZM3.08211 13.0811C3.36967 12.7936 3.75968 12.632 4.16634 12.632H5.83301C6.23967 12.632 6.62968 12.7936 6.91724 13.0811C7.20479 13.3687 7.36634 13.7587 7.36634 14.1654V15.832C7.36634 16.2387 7.20479 16.6287 6.91724 16.9163C6.62968 17.2038 6.23967 17.3654 5.83301 17.3654H4.16634C3.75968 17.3654 3.36967 17.2038 3.08211 16.9163C2.79456 16.6287 2.63301 16.2387 2.63301 15.832V14.1654C2.63301 13.7587 2.79456 13.3687 3.08211 13.0811ZM4.16634 14.032C4.13098 14.032 4.09706 14.0461 4.07206 14.0711C4.04706 14.0961 4.03301 14.13 4.03301 14.1654V15.832C4.03301 15.8674 4.04706 15.9013 4.07206 15.9263C4.09706 15.9513 4.13098 15.9654 4.16634 15.9654H5.83301C5.86837 15.9654 5.90228 15.9513 5.92729 15.9263C5.95229 15.9013 5.96634 15.8674 5.96634 15.832V14.1654C5.96634 14.13 5.95229 14.0961 5.92729 14.0711C5.90228 14.0461 5.86837 14.032 5.83301 14.032H4.16634ZM9.29967 13.332C9.29967 12.9454 9.61307 12.632 9.99967 12.632H11.6663C12.0529 12.632 12.3663 12.9454 12.3663 13.332C12.3663 13.7186 12.0529 14.032 11.6663 14.032H10.6997V16.6654C10.6997 17.052 10.3863 17.3654 9.99967 17.3654C9.61307 17.3654 9.29967 17.052 9.29967 16.6654V13.332ZM14.2997 13.332C14.2997 12.9454 14.6131 12.632 14.9997 12.632H16.6663C17.0529 12.632 17.3663 12.9454 17.3663 13.332C17.3663 13.7186 17.0529 14.032 16.6663 14.032H14.9997C14.6131 14.032 14.2997 13.7186 14.2997 13.332ZM12.633 16.6654C12.633 16.2788 12.9464 15.9654 13.333 15.9654H16.6663C17.0529 15.9654 17.3663 16.2788 17.3663 16.6654C17.3663 17.052 17.0529 17.3654 16.6663 17.3654H13.333C12.9464 17.3654 12.633 17.052 12.633 16.6654Z"/></svg>