<svg width="24" height="24" viewBox="0 0 24 24" xmlns="http://www.w3.org/2000/svg"><path fill-rule="evenodd" clip-rule="evenodd" d="M10.3333 5.2C8.97189 5.2 7.66621 5.74083 6.70352 6.70352C5.74083 7.66621 5.2 8.97189 5.2 10.3333C5.2 11.0075 5.33278 11.675 5.59075 12.2978C5.84873 12.9206 6.22684 13.4865 6.70352 13.9631C7.18019 14.4398 7.74609 14.8179 8.36889 15.0759C8.9917 15.3339 9.65921 15.4667 10.3333 15.4667C11.0075 15.4667 11.675 15.3339 12.2978 15.0759C12.9206 14.8179 13.4865 14.4398 13.9631 13.9631C14.4398 13.4865 14.8179 12.9206 15.0759 12.2978C15.3339 11.675 15.4667 11.0075 15.4667 10.3333C15.4667 8.97189 14.9258 7.66621 13.9631 6.70352C13.0005 5.74083 11.6948 5.2 10.3333 5.2ZM5.71357 5.71357C6.93881 4.48833 8.60059 3.8 10.3333 3.8C12.0661 3.8 13.7279 4.48833 14.9531 5.71357C16.1783 6.93881 16.8667 8.60059 16.8667 10.3333C16.8667 11.1913 16.6977 12.0409 16.3693 12.8335C16.1307 13.4097 15.8112 13.9477 15.4215 14.4315L19.995 19.005C20.2683 19.2784 20.2683 19.7216 19.995 19.995C19.7216 20.2683 19.2784 20.2683 19.005 19.995L14.4315 15.4215C13.9477 15.8112 13.4097 16.1307 12.8335 16.3693C12.0409 16.6977 11.1913 16.8667 10.3333 16.8667C9.47536 16.8667 8.6258 16.6977 7.83313 16.3693C7.04047 16.041 6.32024 15.5598 5.71357 14.9531C5.10689 14.3464 4.62565 13.6262 4.29732 12.8335C3.96899 12.0409 3.8 11.1913 3.8 10.3333C3.8 8.60059 4.48833 6.93881 5.71357 5.71357Z"/></svg>