<svg width="20" height="20" viewBox="0 0 20 20" xmlns="http://www.w3.org/2000/svg"><path fill-rule="evenodd" clip-rule="evenodd" d="M13.6204 2.24232C14.3519 1.87652 15.1987 1.81628 15.9746 2.07484C16.7504 2.3334 17.3918 2.88959 17.7576 3.62105C17.9388 3.98323 18.0468 4.37755 18.0755 4.78147C18.1042 5.1854 18.0531 5.59103 17.9251 5.97521C17.7971 6.35939 17.5946 6.71459 17.3293 7.02053C17.064 7.32646 16.7411 7.57715 16.3789 7.75828C16.0167 7.9394 15.6224 8.04742 15.2185 8.07615C14.8145 8.10489 14.4089 8.05379 14.0247 7.92576C13.6406 7.79773 13.2854 7.59529 12.9794 7.32999C12.8217 7.19325 12.6787 7.04119 12.5524 6.87634L7.96947 9.16778C8.04368 9.43296 8.0834 9.71232 8.0834 10.0003C8.0834 10.2883 8.04368 10.5676 7.96947 10.8328L12.5523 13.1242C12.9245 12.6386 13.4359 12.2708 14.0248 12.0746C14.409 11.9465 14.8147 11.8953 15.2187 11.9241C15.6227 11.9528 16.017 12.0608 16.3793 12.2419C17.1109 12.6077 17.6672 13.2491 17.9258 14.0251C18.1845 14.801 18.1243 15.6479 17.7585 16.3795C17.3927 17.1111 16.7513 17.6674 15.9753 17.926C15.1994 18.1847 14.3524 18.1245 13.6209 17.7587C12.8893 17.3929 12.333 16.7515 12.0743 15.9755C11.878 15.3867 11.8654 14.7569 12.0306 14.1677L7.44775 11.8763C7.1484 12.2668 6.7581 12.5823 6.30732 12.7931C5.67821 13.0874 4.96816 13.1607 4.29221 13.0011C3.61625 12.8415 3.01399 12.4583 2.58298 11.9137C2.15198 11.369 1.91748 10.6948 1.91748 10.0003C1.91748 9.30575 2.15198 8.63155 2.58298 8.08691C3.01399 7.54228 3.61625 7.15911 4.29221 6.9995C4.96816 6.83988 5.67821 6.91315 6.30732 7.20745C6.7581 7.41833 7.1484 7.73383 7.44775 8.12427L12.0305 5.83288C11.8654 5.24381 11.878 4.61417 12.0742 4.02539C12.3327 3.24951 12.8889 2.60812 13.6204 2.24232ZM6.71498 9.14284C6.52184 8.75673 6.20401 8.44714 5.81297 8.26421C5.4219 8.08126 4.98052 8.03571 4.56033 8.13493C4.14014 8.23416 3.76576 8.47234 3.49784 8.8109C3.22992 9.14946 3.08415 9.56855 3.08415 10.0003C3.08415 10.432 3.22992 10.8511 3.49784 11.1897C3.76576 11.5283 4.14014 11.7664 4.56033 11.8657C4.98052 11.9649 5.4219 11.9193 5.81297 11.7364C6.20401 11.5535 6.52184 11.2439 6.71498 10.8578M6.71502 10.8577C6.84388 10.5999 6.91673 10.3091 6.91673 10.0003C6.91673 9.69154 6.84388 9.40066 6.71502 9.14291M15.6057 3.18166C15.1234 3.02092 14.5969 3.05838 14.1422 3.28578C13.6875 3.51318 13.3417 3.9119 13.181 4.39424C13.0203 4.87657 13.0577 5.403 13.2851 5.85772C13.3977 6.08287 13.5536 6.28364 13.7438 6.44857C13.9339 6.6135 14.1548 6.73935 14.3936 6.81893C14.6324 6.89852 14.8846 6.93029 15.1357 6.91243C15.3868 6.89457 15.6319 6.82742 15.8571 6.71482C16.0822 6.60222 16.283 6.44638 16.4479 6.25619C16.6128 6.066 16.7387 5.84519 16.8183 5.60636C16.8979 5.36753 16.9296 5.11537 16.9118 4.86426C16.8939 4.61316 16.8268 4.36803 16.7142 4.14288C16.4868 3.68816 16.088 3.3424 15.6057 3.18166ZM15.136 13.0878C14.8848 13.0699 14.6326 13.1017 14.3938 13.1814C13.9113 13.3422 13.5126 13.688 13.2851 14.1428C13.0577 14.5977 13.0203 15.1242 13.1811 15.6066C13.3419 16.089 13.6878 16.4878 14.1426 16.7152C14.5974 16.9426 15.124 16.98 15.6064 16.8192C16.0888 16.6584 16.4876 16.3126 16.715 15.8578C16.9424 15.4029 16.9798 14.8764 16.819 14.394C16.6582 13.9116 16.3123 13.5128 15.8575 13.2854C15.6323 13.1728 15.3871 13.1056 15.136 13.0878Z"/></svg>