<svg width="24" height="24" viewBox="0 0 24 24" fill="none" xmlns="http://www.w3.org/2000/svg">
<path fill-rule="evenodd" clip-rule="evenodd" d="M3.37529 11.8899C8.74399 9.63188 12.324 8.14329 14.1152 7.42407C19.2296 5.37057 20.2923 5.01386 20.985 5.00208C21.1373 4.99949 21.478 5.03593 21.6986 5.20877C21.8849 5.35471 21.9362 5.55185 21.9607 5.69021C21.9852 5.82858 22.0158 6.14378 21.9915 6.39007C21.7144 9.20115 20.5151 16.0229 19.905 19.1714C19.6469 20.5036 19.1386 20.9503 18.6465 20.994C17.577 21.089 16.7649 20.3118 15.7291 19.6563C14.1082 18.6306 13.1925 17.9921 11.6192 16.9913C9.80093 15.8346 10.9796 15.1989 12.0158 14.1599C12.287 13.888 16.9991 9.75063 17.0903 9.3753C17.1017 9.32836 17.1123 9.15338 17.0046 9.06099C16.8969 8.9686 16.738 9.00019 16.6233 9.02532C16.4608 9.06094 13.8714 10.7131 8.85526 13.9817C8.12028 14.4689 7.45456 14.7063 6.8581 14.6939C6.20054 14.6802 4.93567 14.335 3.99537 14.0399C2.84206 13.678 1.92542 13.4867 2.00524 12.872C2.04682 12.5519 2.5035 12.2245 3.37529 11.8899Z" fill="#26A5E4"/>
</svg>
