<svg width="24" height="24" viewBox="0 0 24 24" fill="none" xmlns="http://www.w3.org/2000/svg">
<path fill-rule="evenodd" clip-rule="evenodd" d="M18.6293 4.76265C16.8427 2.98408 14.4711 2.00451 11.9408 2C6.72601 2 2.48615 6.22523 2.48162 11.412C2.48162 13.0732 2.91694 14.6892 3.74224 16.1202L2.39999 21L7.41527 19.6909C8.79832 20.4402 10.3537 20.8375 11.9363 20.8375H11.9408C17.1511 20.8375 21.3955 16.6123 21.4 11.421C21.4 8.90663 20.416 6.54122 18.6293 4.76265ZM16.5661 14.7795C16.3711 15.3302 15.4234 15.8313 14.9699 15.899C14.5618 15.9577 14.0494 15.9848 13.4826 15.8042C13.1379 15.6959 12.6981 15.5514 12.1358 15.3077C9.76419 14.2875 8.21789 11.913 8.09999 11.755C7.98209 11.5971 7.13412 10.4775 7.13412 9.32193C7.13412 8.16631 7.74629 7.59302 7.95942 7.35828C8.17708 7.12355 8.43102 7.06486 8.58973 7.06486C8.74844 7.06486 8.90715 7.06486 9.04319 7.07389C9.1883 7.08292 9.38329 7.01972 9.57374 7.47565C9.76873 7.94512 10.2449 9.10525 10.3038 9.22262C10.3628 9.33999 10.4036 9.47992 10.322 9.6334C10.2449 9.7914 10.2041 9.89071 10.0862 10.0261C9.96825 10.1616 9.83675 10.3331 9.73245 10.4369C9.61455 10.5543 9.49212 10.6807 9.62815 10.9154C9.76419 11.1502 10.2403 11.9221 10.9432 12.545C11.8456 13.3485 12.6074 13.5968 12.8432 13.7142C13.079 13.8316 13.2196 13.8135 13.3556 13.6555C13.4916 13.4975 13.9451 12.9694 14.1038 12.7346C14.2625 12.4999 14.4167 12.5405 14.6344 12.6172C14.852 12.694 16.0129 13.2628 16.2487 13.3847C16.4845 13.502 16.6432 13.5607 16.7021 13.66C16.7656 13.7593 16.7656 14.2288 16.5661 14.7795Z" fill="#25D366"/>
</svg>
