<svg width="24" height="24" viewBox="0 0 24 24" fill="none" xmlns="http://www.w3.org/2000/svg">
<path d="M22.4997 12.2388C22.4997 11.4713 22.4296 10.737 22.2994 10.0309H12.2237V14.0764L18.0265 14.0777C17.7911 15.4237 17.0337 16.5712 15.8731 17.3362V19.9609H19.3273C21.3442 18.133 22.4997 15.4311 22.4997 12.2388Z" fill="#4285F4"/>
<path d="M15.8742 17.3376C14.9127 17.9726 13.6745 18.3441 12.226 18.3441C9.42784 18.3441 7.05413 16.4978 6.20405 14.0092H2.64099V16.716C4.40625 20.1462 8.03441 22.5 12.226 22.5C15.123 22.5 17.5568 21.5671 19.3283 19.9611L15.8742 17.3376Z" fill="#34A853"/>
<path d="M5.86837 11.9991C5.86837 11.3003 5.98731 10.6248 6.2039 9.9898V7.28294H2.64083C1.91094 8.70134 1.50031 10.3024 1.50031 11.9991C1.50031 13.6958 1.9122 15.2969 2.64083 16.7153L6.2039 14.0084C5.98731 13.3734 5.86837 12.6979 5.86837 11.9991Z" fill="#FABB05"/>
<path d="M12.226 5.65591C13.8072 5.65591 15.2231 6.1892 16.3411 7.23124L19.4022 4.23628C17.543 2.54082 15.1192 1.5 12.226 1.5C8.03566 1.5 4.40625 3.85379 2.64099 7.28395L6.20405 9.99082C7.05413 7.50217 9.42784 5.65591 12.226 5.65591Z" fill="#E94235"/>
</svg>
