<svg width="20" height="20" viewBox="0 0 20 20" xmlns="http://www.w3.org/2000/svg"><path fill-rule="evenodd" clip-rule="evenodd" d="M2.81274 9.90788C7.28665 8.02624 10.27 6.78575 11.7627 6.1864C16.0247 4.47515 16.9103 4.17789 17.4875 4.16807C17.6144 4.16591 17.8983 4.19629 18.0822 4.34032C18.2374 4.46193 18.2801 4.62621 18.3006 4.74152C18.321 4.85682 18.3465 5.11949 18.3263 5.32473C18.0953 7.6673 17.0959 13.3521 16.5875 15.9758C16.3724 17.086 15.9488 17.4583 15.5387 17.4947C14.6475 17.5739 13.9707 16.9261 13.1076 16.3799C11.7568 15.5252 10.9938 14.9931 9.68265 14.1591C8.16744 13.1952 9.14968 12.6654 10.0132 11.7996C10.2392 11.573 14.1659 8.1252 14.2419 7.81242C14.2514 7.77331 14.2603 7.62749 14.1705 7.5505C14.0808 7.47351 13.9483 7.49983 13.8528 7.52077C13.7173 7.55046 11.5595 8.92724 7.37938 11.6511C6.7669 12.0571 6.21213 12.2549 5.71508 12.2446C5.16711 12.2331 4.11306 11.9455 3.32947 11.6996C2.36838 11.398 1.60451 11.2386 1.67103 10.7264C1.70568 10.4596 2.08624 10.1868 2.81274 9.90788Z"/></svg>