<svg width="10" height="11" viewBox="0 0 10 11" fill="none" xmlns="http://www.w3.org/2000/svg">
<path d="M5 5.78947C6.53413 5.78947 7.77778 4.49346 7.77778 2.89474C7.77778 1.29602 6.53413 0 5 0C3.46588 0 2.22222 1.29602 2.22222 2.89474C2.22222 4.49346 3.46588 5.78947 5 5.78947Z" fill="white"/>
<path d="M5 5.78947C4.34339 5.78947 3.69321 5.92425 3.08658 6.1861C2.47995 6.44795 1.92876 6.83176 1.46447 7.3156C1.00017 7.79944 0.631876 8.37385 0.380603 9.00602V9.00602C-0.0359823 10.0541 0.914285 11 2.04211 11H7.95789C9.08572 11 10.036 10.0541 9.6194 9.00602V9.00602C9.36812 8.37385 8.99983 7.79944 8.53553 7.3156C8.07124 6.83176 7.52005 6.44795 6.91342 6.1861C6.30679 5.92425 5.65661 5.78947 5 5.78947Z" fill="white"/>
</svg>
