<svg width="162" height="36" viewBox="0 0 162 36" fill="none" xmlns="http://www.w3.org/2000/svg">
<path d="M20.8775 11.6991L15.1327 25.1528H11.385L8.55826 14.4181C8.38688 13.7563 8.23834 13.514 7.71504 13.2358C6.86268 12.7827 5.45502 12.3564 4.21875 12.0917L4.3033 11.7014H10.3361C11.1039 11.7014 11.7963 12.2039 11.97 13.0743L13.4622 20.8589L17.1527 11.7014L20.8775 11.6991ZM35.5597 20.7625C35.5757 17.2112 30.5575 17.016 30.5917 15.4299C30.6032 14.9476 31.0716 14.4338 32.0954 14.3037C32.6027 14.2387 34.0035 14.1893 35.5894 14.9049L36.2109 12.0513C35.3586 11.7485 34.2594 11.4546 32.8952 11.4546C29.392 11.4546 26.9241 13.283 26.9035 15.901C26.8806 17.8371 28.6631 18.9184 30.0067 19.5622C31.3893 20.2218 31.8531 20.6458 31.8463 21.2336C31.8371 22.1354 30.7448 22.5347 29.7234 22.5505C27.941 22.5774 26.9081 22.0771 26.0831 21.7002L25.441 24.648C26.2682 25.0204 27.7993 25.3457 29.3829 25.3637C33.1123 25.3659 35.5482 23.5577 35.5597 20.7625ZM44.8146 25.155H48.0937L45.2304 11.6991H42.2049C41.5239 11.6991 40.9504 12.0872 40.6967 12.6862L35.3769 25.1528H39.0994L39.8375 23.1427H44.3872L44.8146 25.155ZM40.8589 20.3878L42.7259 15.3357L43.7999 20.3878H40.8589ZM25.9414 11.6991L23.0096 25.1528H19.4653L22.3972 11.6991H25.9414Z" fill="#1434CB"/>
<path d="M97.4531 17.9976C97.4531 23.4223 92.9066 27.8112 87.2871 27.8112C84.9998 27.8112 82.7971 27.0752 81.0181 25.7122C85.4233 22.3592 86.1858 16.1984 82.7124 11.9185C82.2041 11.3188 81.6393 10.7464 81.0181 10.2829C85.4233 6.92994 91.8336 7.66597 95.2787 11.9458C96.6906 13.6632 97.4531 15.7895 97.4531 17.9976Z" fill="#F79E1B"/>
<path d="M82.7119 11.9188C82.2036 11.3191 81.6388 10.7466 81.0176 10.2832C78.5608 12.1369 77.1206 14.9992 77.1206 17.9978C77.1206 20.9964 78.5608 23.8587 80.9893 25.7124C85.4228 22.3594 86.1853 16.1986 82.7119 11.9188Z" fill="#FF5F00"/>
<path d="M77.121 17.9975C77.121 14.9989 78.5612 12.1366 80.9897 10.2829C76.5845 6.92994 70.1742 7.66597 66.7009 11.9458C63.2557 16.1984 64.0182 22.3592 68.4517 25.7122C72.151 28.52 77.3187 28.52 81.018 25.7122C78.5612 23.8585 77.121 20.9962 77.121 17.9975Z" fill="#EB001B"/>
<path d="M123.978 12.958L122.411 18.2199H122.143L120.577 12.958C120.309 12.0676 119.468 11.4546 118.507 11.4546H114.75V22.9091H118.511V16.1393H118.779L120.933 22.9091H123.622L125.77 16.1393H126.038V22.9091H129.8V11.4546H126.043C125.087 11.4546 124.246 12.0676 123.978 12.958ZM144.803 22.9091H148.588V19.522H152.395C154.387 19.522 156.083 18.4302 156.739 16.8955H144.803V22.9091ZM138.099 12.6627L135.451 18.2244H135.183V11.4546H131.422V22.9091H134.615C135.456 22.9091 136.218 22.4348 136.569 21.701L139.217 16.1438H139.485V22.9091H143.246V11.4546H140.053C139.212 11.4546 138.45 11.9289 138.099 12.6627Z" fill="#006848"/>
<path d="M152.77 11.4546C153.856 11.4546 154.84 11.8573 155.584 12.5195C156.415 13.2533 156.938 14.3093 156.938 15.4861C156.938 15.7277 156.91 15.9648 156.868 16.1975H149.882C147.516 16.1975 145.51 14.6941 144.836 12.6179C144.827 12.5956 144.822 12.5687 144.813 12.5419C144.794 12.4792 144.78 12.4121 144.762 12.3495C144.693 12.0586 144.646 11.7633 144.628 11.4546H152.77Z" fill="url(#paint0_linear_1114_8163)"/>
<defs>
<linearGradient id="paint0_linear_1114_8163" x1="156.938" y1="26.2881" x2="144.703" y2="26.2881" gradientUnits="userSpaceOnUse">
<stop stop-color="#1E5CD8"/>
<stop offset="1" stop-color="#02AFFF"/>
</linearGradient>
</defs>
</svg>
