<svg width="20" height="20" viewBox="0 0 20 20" fill="none" xmlns="http://www.w3.org/2000/svg">
<path d="M16.9995 10.1604C16.9995 9.64877 16.9528 9.15923 16.866 8.68848H10.1489V11.3855L14.0174 11.3863C13.8605 12.2837 13.3555 13.0486 12.5818 13.5586V15.3084H14.8846C16.2291 14.0898 16.9995 12.2886 16.9995 10.1604Z" fill="#4285F4"/>
<path d="M12.5827 13.5587C11.9417 13.9821 11.1163 14.2297 10.1506 14.2297C8.28522 14.2297 6.70278 12.9989 6.13607 11.3398H3.76074V13.1444C4.93756 15.4311 7.35629 17.0003 10.1506 17.0003C12.0819 17.0003 13.7044 16.3783 14.8854 15.3077L12.5827 13.5587Z" fill="#34A853"/>
<path d="M5.91248 10.0005C5.91248 9.53465 5.99177 9.08433 6.13616 8.66099V6.85645H3.76083C3.27424 7.80203 3.00049 8.86939 3.00049 10.0005C3.00049 11.1316 3.27508 12.199 3.76083 13.1445L6.13616 11.34C5.99177 10.9167 5.91248 10.4663 5.91248 10.0005Z" fill="#FABB05"/>
<path d="M10.1506 5.77153C11.2047 5.77153 12.1487 6.12705 12.894 6.82173L14.9346 4.82513C13.6952 3.69484 12.0794 3.00098 10.1506 3.00098C7.35712 3.00098 4.93756 4.57014 3.76074 6.85687L6.13607 8.66142C6.70278 7.00235 8.28522 5.77153 10.1506 5.77153Z" fill="#E94235"/>
</svg>
