<svg width="108" height="21" viewBox="0 0 108 21" fill="none" xmlns="http://www.w3.org/2000/svg">
<path d="M0 7.97326C0 3.36898 3.16367 0 7.45723 0C9.717 0 11.5248 0.898396 12.6547 2.58289V1.0107C12.6547 0.673797 12.9937 0.336898 13.3326 0.336898H15.7054C16.0444 0.336898 16.3833 0.673797 16.3833 1.0107V14.9358C16.3833 15.2727 16.0444 15.6096 15.7054 15.6096H13.3326C12.9937 15.6096 12.6547 15.2727 12.6547 14.9358V13.4759C11.4118 15.1604 9.60401 16.0588 7.45723 16.0588C3.16367 16.0588 0 12.6898 0 7.97326ZM12.7677 7.97326C12.7677 5.39037 10.7339 3.36898 8.24815 3.36898C5.64942 3.36898 3.72862 5.39037 3.72862 7.97326C3.72862 10.5561 5.76241 12.5775 8.24815 12.5775C10.7339 12.5775 12.7677 10.5561 12.7677 7.97326Z" fill="#111827"/>
<path d="M19.66 15.0481V1.0107C19.66 0.673797 19.9989 0.336899 20.3379 0.336899H33.3316C33.6705 0.336899 34.0095 0.673797 34.0095 1.0107V14.9358C34.0095 15.2727 33.6705 15.6096 33.3316 15.6096H30.9588C30.6199 15.6096 30.2809 15.2727 30.2809 14.9358V3.70588H23.1626V14.9358C23.1626 15.2727 22.8237 15.6096 22.4847 15.6096H20.3379C19.886 15.6096 19.66 15.385 19.66 15.0481Z" fill="#111827"/>
<path d="M37.2862 15.0481V1.0107C37.2862 0.673797 37.6251 0.336899 37.9641 0.336899H50.9578C51.2967 0.336899 51.6357 0.673797 51.6357 1.0107V14.9358C51.6357 15.2727 51.2967 15.6096 50.9578 15.6096H48.585C48.246 15.6096 47.9071 15.2727 47.9071 14.9358V3.70588H40.7888V14.9358C40.7888 15.2727 40.4498 15.6096 40.1109 15.6096H37.7381C37.5121 15.6096 37.2862 15.385 37.2862 15.0481Z" fill="#111827"/>
<path d="M54.0088 7.97326C54.0088 3.48128 57.6244 0 62.144 0C66.6635 0 70.2791 3.48128 70.2791 7.97326C70.2791 12.4652 66.6635 15.9465 62.144 15.9465C57.5114 16.0588 54.0088 12.4652 54.0088 7.97326ZM66.6635 7.97326C66.6635 5.39037 64.7427 3.36898 62.144 3.36898C59.5452 3.36898 57.6244 5.39037 57.6244 7.97326C57.6244 10.5561 59.6582 12.5775 62.144 12.5775C64.7427 12.5775 66.6635 10.5561 66.6635 7.97326Z" fill="#111827"/>
<path d="M72.6515 20.4385V1.0107C72.6515 0.673797 72.9905 0.336898 73.3295 0.336898H75.7022C76.0412 0.336898 76.3801 0.673797 76.3801 1.0107V2.47059C77.51 0.898396 79.3178 0 81.5776 0C85.8712 0 89.0349 3.36898 89.0349 7.97326C89.0349 12.5775 85.8712 15.9465 81.5776 15.9465C79.3178 15.9465 77.51 15.0481 76.3801 13.3636V20.2139C76.3801 20.5508 76.0412 20.8877 75.7022 20.8877H73.3295C72.9905 21 72.6515 20.7754 72.6515 20.4385ZM85.4192 7.97326C85.4192 5.39037 83.3854 3.36898 80.8997 3.36898C78.3009 3.36898 76.3801 5.39037 76.3801 7.97326C76.3801 10.5561 78.4139 12.5775 80.8997 12.5775C83.3854 12.5775 85.4192 10.5561 85.4192 7.97326Z" fill="#111827"/>
<path d="M90.6162 7.97326C90.6162 3.36898 93.8929 0 98.1864 0C100.446 0 102.254 0.898396 103.384 2.58289V1.0107C103.384 0.673797 103.723 0.336898 104.062 0.336898H106.435C106.774 0.336898 107.113 0.673797 107.113 1.0107V14.9358C107.113 15.2727 106.774 15.6096 106.435 15.6096H104.062C103.723 15.6096 103.384 15.2727 103.384 14.9358V13.4759C102.141 15.1604 100.333 16.0588 98.1864 16.0588C93.8929 16.0588 90.6162 12.6898 90.6162 7.97326ZM103.384 7.97326C103.384 5.39037 101.35 3.36898 98.8644 3.36898C96.2656 3.36898 94.3448 5.39037 94.3448 7.97326C94.3448 10.5561 96.3786 12.5775 98.8644 12.5775C101.35 12.5775 103.384 10.5561 103.384 7.97326Z" fill="#111827"/>
</svg>
