<svg width="143" height="25" viewBox="0 0 143 25" fill="none" xmlns="http://www.w3.org/2000/svg">
<path d="M34.6667 12.0426C34.6667 16.6223 31.5556 19.9734 27.3333 19.9734C25.1111 19.9734 23.3333 19.0798 22.2222 17.4043V24.3298C22.2222 24.6649 21.8889 25 21.5556 25H19.2222C18.8889 25 18.5556 24.6649 18.5556 24.3298V5.00532C18.5556 4.67021 18.8889 4.33511 19.2222 4.33511H21.5556C21.8889 4.33511 22.2222 4.67021 22.2222 5.00532V6.56915C23.4444 4.89362 25.2222 4 27.3333 4C31.5556 4.1117 34.6667 7.46276 34.6667 12.0426ZM31.1111 12.0426C31.1111 9.4734 29.1111 7.46277 26.6667 7.46277C24.1111 7.46277 22.2222 9.4734 22.2222 12.0426C22.2222 14.6117 24.2222 16.6223 26.6667 16.6223C29.2222 16.6223 31.1111 14.6117 31.1111 12.0426ZM100 5.00532V18.9681C100 19.3032 99.6667 19.6383 99.3333 19.6383H97C96.6667 19.6383 96.3333 19.3032 96.3333 18.9681V17.4043C95.1111 19.0798 93.3333 19.9734 91.2222 19.9734C87 19.9734 83.8889 16.6223 83.8889 12.0426C83.8889 7.46276 87 4.1117 91.2222 4.1117C93.4445 4.1117 95.2222 5.00532 96.3333 6.68085V5.00532C96.3333 4.67021 96.6667 4.33511 97 4.33511H99.3333C99.7778 4.44681 100 4.67021 100 5.00532ZM96.4445 12.0426C96.4445 9.4734 94.4445 7.46277 92 7.46277C89.4445 7.46277 87.5556 9.4734 87.5556 12.0426C87.5556 14.6117 89.5556 16.6223 92 16.6223C94.4445 16.6223 96.4445 14.6117 96.4445 12.0426ZM80.5556 4.1117C79.1111 4.1117 77.8889 5.22872 77.8889 6.79255C77.8889 8.35638 79 9.4734 80.5556 9.4734C82.1111 9.4734 83.2222 8.24468 83.2222 6.79255C83.2222 5.34043 82 4.1117 80.5556 4.1117ZM75.8889 4.44681H73.5556C73.2222 4.44681 72.8889 4.78191 72.8889 5.11702V19.0798C72.8889 19.4149 73.2222 19.75 73.5556 19.75H75.8889C76.2222 19.75 76.5555 19.4149 76.5555 19.0798V5.00532C76.5555 4.67021 76.2222 4.44681 75.8889 4.44681ZM53.1111 12.0426C53.1111 16.6223 50 19.9734 45.7778 19.9734C43.5556 19.9734 41.7778 19.0798 40.6667 17.4043V24.3298C40.6667 24.6649 40.3333 25 40 25H37.6667C37.3333 25 37 24.6649 37 24.3298V5.00532C37 4.67021 37.3333 4.33511 37.6667 4.33511H40C40.3333 4.33511 40.6667 4.67021 40.6667 5.00532V6.56915C41.8889 4.89362 43.6667 4 45.7778 4C50 4.1117 53.1111 7.46276 53.1111 12.0426ZM49.5556 12.0426C49.5556 9.4734 47.5556 7.46277 45.1111 7.46277C42.5556 7.46277 40.6667 9.4734 40.6667 12.0426C40.6667 14.6117 42.6667 16.6223 45.1111 16.6223C47.5556 16.6223 49.5556 14.6117 49.5556 12.0426ZM70.7778 12.0426C70.7778 16.5106 67.2222 19.9734 62.7778 19.9734C58.2222 19.9734 54.7778 16.5106 54.7778 12.0426C54.7778 7.57447 58.3333 4.1117 62.7778 4.1117C67.1111 4.1117 70.7778 7.57447 70.7778 12.0426ZM67.1111 12.0426C67.1111 9.4734 65.1111 7.46277 62.6667 7.46277C60.1111 7.46277 58.2222 9.4734 58.2222 12.0426C58.2222 14.6117 60.2222 16.6223 62.6667 16.6223C65.2222 16.6223 67.1111 14.6117 67.1111 12.0426ZM7.77778 20.0851C3.44444 20.0851 0 16.6223 0 12.3777V5.11702C0 4.78191 0.333334 4.44681 0.666667 4.44681H3C3.33333 4.44681 3.66667 4.78191 3.66667 5.11702V12.3777C3.66667 14.6117 5.55556 16.5106 7.88889 16.5106C10.2222 16.5106 12.1111 14.6117 12.1111 12.3777V5.11702C12.1111 4.78191 12.4444 4.44681 12.7778 4.44681H15.1111C15.4444 4.44681 15.7778 4.78191 15.7778 5.11702V12.3777C15.5556 16.6223 12.1111 20.0851 7.77778 20.0851Z" fill="#111827"/>
<path d="M7.77799 9.47339C6.33355 9.47339 5.11133 10.5904 5.11133 12.1542C5.11133 13.6064 6.22244 14.8351 7.77799 14.8351C9.33355 14.8351 10.4447 13.6064 10.4447 12.1542C10.4447 10.5904 9.22244 9.47339 7.77799 9.47339Z" fill="#16A34A"/>
<path d="M106 4C106 1.79086 107.791 0 110 0H139C141.209 0 143 1.79086 143 4V12C143 14.2091 141.209 16 139 16H110C107.791 16 106 14.2091 106 12V4Z" fill="#F1F5F9"/>
<path d="M112.664 11.6364V4.36365H115.207C115.713 4.36365 116.131 4.45124 116.46 4.62643C116.789 4.79925 117.034 5.03244 117.195 5.32601C117.356 5.6172 117.437 5.94035 117.437 6.29547C117.437 6.60797 117.381 6.86601 117.27 7.06961C117.161 7.27321 117.017 7.4342 116.837 7.55257C116.659 7.67094 116.466 7.75853 116.258 7.81535V7.88637C116.48 7.90058 116.704 7.9787 116.929 8.12075C117.154 8.2628 117.342 8.46639 117.494 8.73155C117.645 8.9967 117.721 9.32103 117.721 9.70456C117.721 10.0691 117.638 10.397 117.472 10.6882C117.307 10.9794 117.045 11.2102 116.688 11.3807C116.33 11.5511 115.865 11.6364 115.292 11.6364H112.664ZM113.545 10.8551H115.292C115.867 10.8551 116.276 10.7439 116.517 10.5213C116.761 10.2964 116.883 10.0242 116.883 9.70456C116.883 9.45834 116.82 9.23107 116.695 9.02274C116.569 8.81204 116.39 8.64395 116.158 8.51848C115.926 8.39064 115.652 8.32672 115.335 8.32672H113.545V10.8551ZM113.545 7.55967H115.178C115.443 7.55967 115.683 7.50759 115.896 7.40342C116.111 7.29925 116.281 7.15247 116.407 6.96308C116.535 6.77369 116.599 6.55115 116.599 6.29547C116.599 5.97586 116.487 5.70479 116.265 5.48226C116.042 5.25735 115.69 5.1449 115.207 5.1449H113.545V7.55967Z" fill="#6B7280"/>
<path d="M119.168 11.6364V4.36365H123.557V5.1449H120.049V7.60228H123.33V8.38353H120.049V10.8551H123.614V11.6364H119.168Z" fill="#6B7280"/>
<path d="M124.747 5.1449V4.36365H130.201V5.1449H127.914V11.6364H127.034V5.1449H124.747Z" fill="#6B7280"/>
<path d="M131.009 11.6364H130.086L132.756 4.36365H133.665L136.336 11.6364H135.413L133.239 5.51422H133.183L131.009 11.6364ZM131.35 8.79547H135.072V9.57672H131.35V8.79547Z" fill="#6B7280"/>
</svg>
