<svg width="144" height="32" viewBox="0 0 144 32" fill="none" xmlns="http://www.w3.org/2000/svg">
<path d="M124.671 2.50085V3.0951C125.215 3.0951 125.832 3.11986 126.129 3.29319C127.561 4.01124 127.487 6.80916 127.487 7.99766V26.9394C127.487 28.1526 127.512 30.0592 124.795 30.0592H124.424V30.5544H133.243V30.0592H132.872C130.501 30.0592 130.649 27.9298 130.649 26.9394V20.5264H130.847L136.232 28.2764C136.355 28.4745 136.602 28.8954 136.602 29.3659C136.602 29.8858 135.96 30.0344 135.738 30.0344H135.268V30.5296H143.025V30.0344C141.246 29.762 140.357 28.7221 139.393 27.385L133.44 19.0408L137.442 14.6334C139.393 12.4793 140.95 12.2069 141.839 12.2069V11.687H134.626V12.2069C135.639 12.2317 136.454 12.2812 136.454 13.1478C136.454 13.8164 135.861 14.2373 134.379 15.8962L130.822 19.9322H130.624V2.52561L124.671 2.50085Z" fill="#111827"/>
<path d="M105.601 11.7364V12.2564H105.972C108.714 12.2564 108.664 14.1629 108.664 15.3762V26.9641C108.664 28.1773 108.689 30.0839 105.972 30.0839H105.601V30.5791H114.42V30.0839H114.049C111.949 30.0839 111.826 28.1773 111.826 27.8059L119.681 16.639V26.9641C119.681 27.9545 119.829 30.0839 117.458 30.0839H117.088V30.5791H125.906V30.0839H125.536C122.794 30.0839 122.843 28.1773 122.843 26.9641V15.3514C122.843 14.1382 122.818 12.2316 125.536 12.2316H125.906V11.7117H117.088V12.2316H117.458C118.767 12.2316 119.755 13.123 119.657 14.4353L111.851 25.6518V15.3514C111.851 14.361 111.702 12.2316 114.074 12.2316H114.444V11.7117H105.601V11.7364Z" fill="#111827"/>
<path d="M86.1112 11.7364V12.2564H86.4817C89.2237 12.2564 89.199 14.1629 89.199 15.3762V26.9641C89.199 28.1773 89.2237 30.0839 86.4817 30.0839H86.1112V30.5791H94.9298V30.0839H94.5593C92.1879 30.0839 92.3361 27.9545 92.3361 26.9641V21.3682H100.636V26.9393C100.636 27.9297 100.76 30.0591 98.4128 30.0591H98.0423V30.5543H106.861V30.0591H106.466C103.724 30.0591 103.773 28.1526 103.773 26.9393V15.3514C103.773 14.1382 103.748 12.2316 106.466 12.2316H106.836V11.7117H98.0176V12.2316H98.3881C100.759 12.2316 100.611 14.361 100.611 15.3514V19.9569H92.3114V15.3514C92.3114 14.361 92.1632 12.2316 94.5346 12.2316H94.9051V11.7117H86.1112V11.7364Z" fill="#111827"/>
<path d="M66.3249 13.1478V26.9393C66.3249 27.9297 66.4732 30.0591 64.1018 30.0591H63.7312V30.5543H72.5499V30.0591H72.1793C69.4374 30.0591 69.4868 28.1526 69.4868 26.9393V15.3515C69.4868 14.1382 69.4374 12.2317 72.1793 12.2317H72.5499V11.7365H56.6418V12.2317H57.1605C59.2355 12.2317 59.8036 13.0488 59.8036 16.6885C59.8036 18.0503 59.6554 20.9968 59.5072 22.7796C59.112 27.5336 58.3215 28.1278 57.5063 28.1278C56.5676 28.1278 56.5182 27.3355 55.3078 27.3355C54.5421 27.3355 53.5293 27.8059 53.5293 29.0192C53.5293 29.8363 53.9245 31 55.9748 31C59.6307 31 60.3471 26.5432 60.5941 24.4138C60.7423 23.3243 61.0881 20.5016 61.0881 16.5895C61.0881 15.4505 61.0881 14.262 61.0634 13.123H66.3249V13.1478Z" fill="#111827"/>
<path d="M22.8247 11.7365L22.8494 17.4313H23.3187C24.1339 13.024 25.7889 13.123 27.2217 13.123H28.7038V26.9146C28.7038 28.1278 28.7285 30.0344 26.0113 30.0344H25.6407V30.5296H34.9287V30.0344H34.5582C31.8162 30.0344 31.8656 28.1278 31.8656 26.9146V13.1478H33.3231C34.7805 13.1478 36.4355 13.0488 37.2507 17.4561H37.72V11.7612H22.8247V11.7365Z" fill="#111827"/>
<path d="M24.9243 0.222843H24.4303C24.4056 1.48562 23.6151 1.80751 23.0964 1.80751C22.5282 1.80751 21.8366 1.46086 20.5027 0.990415C18.4771 0.272364 16.9209 0 15.0435 0C4.9157 0 0 8.07189 0 15.3019C0 24.3642 6.57074 30.9505 14.8212 30.9505C18.3042 30.9505 22.7012 29.7867 26.4559 24.1414L25.616 23.2748C22.133 27.7564 18.403 28.6973 16.0069 28.6973C11.0418 28.6973 4.9157 25.4784 4.9157 15.1534C4.9157 6.48722 9.58438 1.65895 15.4388 1.65895C19.2923 1.65895 23.6151 3.86262 24.8502 9.87939L25.3937 9.80511L24.9243 0.222843Z" fill="#111827"/>
<path d="M46.6374 30.9257V29.5143C43.3026 29.0191 41.5981 24.4632 41.5981 20.9473C41.5981 17.5551 42.2651 12.7516 46.0939 12.7516C46.2915 12.7516 46.4644 12.7763 46.6621 12.8011V11.3898C41.5734 11.464 37.9917 15.8714 37.9917 21.1949C37.9422 25.7013 40.5607 30.9257 46.6374 30.9257ZM46.6374 30.9257C51.6766 30.9257 55.2831 26.6917 55.2831 21.1206C55.2831 14.3115 50.6144 11.365 46.7362 11.365H46.6374V12.7763C49.6263 13.222 51.6766 17.2332 51.6766 20.9225C51.6766 24.1413 51.1578 29.5391 47.2302 29.5391C47.0326 29.5391 46.835 29.5143 46.6374 29.4896V30.9257Z" fill="#111827"/>
<path d="M71.3147 30.5791H80.3062C80.4791 30.5791 80.6521 30.5791 80.8003 30.5543V29.0935C80.4544 29.1678 80.0345 29.1925 79.6146 29.1925C79.2687 29.1925 78.503 29.143 77.5149 28.8954V20.9721C77.9595 20.8978 78.5524 20.8483 79.0711 20.8483C79.7381 20.8483 80.3062 20.9226 80.8003 21.0464V19.6103H80.2815C79.9357 19.6103 78.8735 19.6103 77.5396 19.7588V15.3515C77.5396 14.1382 77.5149 12.2317 80.2321 12.2317H80.6026V11.7365H71.3147V12.2317H71.6605C74.4024 12.2317 74.3777 14.1382 74.3777 15.3515V26.9393C74.3777 28.1526 74.4024 30.0591 71.6605 30.0591H71.3147V30.5791ZM80.825 30.5543C85.5925 30.381 87.618 27.8059 87.618 24.9833C87.618 21.6406 84.7773 19.7836 80.825 19.6103V21.0464C83.147 21.5911 84.135 23.25 84.135 25.2556C84.135 27.3355 82.9493 28.7221 80.825 29.0935V30.5543Z" fill="#111827"/>
</svg>
