<svg width="18" height="18" viewBox="0 0 18 18" fill="none" xmlns="http://www.w3.org/2000/svg">
<path d="M6.23665 10.1186C6.40498 9.78197 6.49998 9.40197 6.49998 9.0003C6.49998 8.59863 6.40498 8.21863 6.23665 7.88197M6.23665 10.1186C5.98474 10.6223 5.57015 11.0261 5.06006 11.2648C4.54997 11.5034 3.97426 11.5628 3.42619 11.4334C2.87812 11.304 2.38979 10.9933 2.04033 10.5517C1.69087 10.1101 1.50073 9.56344 1.50073 9.0003C1.50073 8.43715 1.69087 7.8905 2.04033 7.44891C2.38979 7.00731 2.87812 6.69664 3.42619 6.56721C3.97426 6.43779 4.54997 6.49721 5.06006 6.73583C5.57015 6.97445 5.98474 7.37831 6.23665 7.88197M6.23665 10.1186L11.7633 12.882M6.23665 7.88197L11.7633 5.11863M11.7633 12.882C11.4667 13.4752 11.4179 14.1619 11.6276 14.7911C11.8374 15.4203 12.2885 15.9404 12.8817 16.237C13.4749 16.5336 14.1616 16.5824 14.7908 16.3726C15.4199 16.1629 15.94 15.7118 16.2367 15.1186C16.5333 14.5254 16.5821 13.8387 16.3723 13.2095C16.1626 12.5803 15.7115 12.0602 15.1183 11.7636C14.8246 11.6168 14.5048 11.5292 14.1773 11.5059C13.8497 11.4826 13.5207 11.5241 13.2092 11.628C12.58 11.8377 12.0599 12.2888 11.7633 12.882ZM11.7633 5.11863C11.9102 5.4123 12.1134 5.67417 12.3615 5.88928C12.6096 6.10439 12.8976 6.26854 13.2091 6.37235C13.5206 6.47616 13.8495 6.51759 14.177 6.49429C14.5045 6.47099 14.8242 6.38341 15.1179 6.23655C15.4116 6.08969 15.6734 5.88642 15.8885 5.63836C16.1037 5.39029 16.2678 5.10229 16.3716 4.79079C16.4754 4.47928 16.5169 4.15039 16.4936 3.82287C16.4703 3.49535 16.3827 3.17563 16.2358 2.88197C15.9392 2.28888 15.4192 1.8379 14.7901 1.62825C14.1609 1.4186 13.4743 1.46745 12.8812 1.76405C12.2881 2.06065 11.8372 2.58071 11.6275 3.20981C11.4179 3.83892 11.4667 4.52554 11.7633 5.11863Z" stroke="#6B7280" stroke-width="1.4" stroke-linecap="round" stroke-linejoin="round"/>
</svg>
