<svg width="0" height="0" class="hidden">
  <symbol xmlns="http://www.w3.org/2000/svg" viewBox="0 0 20 20" id="telegram-social">
    <path fill-rule="evenodd" clip-rule="evenodd" d="M2.81274 9.90788C7.28665 8.02624 10.27 6.78575 11.7627 6.1864C16.0247 4.47515 16.9103 4.17789 17.4875 4.16807C17.6144 4.16591 17.8983 4.19629 18.0822 4.34032C18.2374 4.46193 18.2801 4.62621 18.3006 4.74152C18.321 4.85682 18.3465 5.11949 18.3263 5.32473C18.0953 7.6673 17.0959 13.3521 16.5875 15.9758C16.3724 17.086 15.9488 17.4583 15.5387 17.4947C14.6475 17.5739 13.9707 16.9261 13.1076 16.3799C11.7568 15.5252 10.9938 14.9931 9.68265 14.1591C8.16744 13.1952 9.14968 12.6654 10.0132 11.7996C10.2392 11.573 14.1659 8.1252 14.2419 7.81242C14.2514 7.77331 14.2603 7.62749 14.1705 7.5505C14.0808 7.47351 13.9483 7.49983 13.8528 7.52077C13.7173 7.55046 11.5595 8.92724 7.37938 11.6511C6.7669 12.0571 6.21213 12.2549 5.71508 12.2446C5.16711 12.2331 4.11306 11.9455 3.32947 11.6996C2.36838 11.398 1.60451 11.2386 1.67103 10.7264C1.70568 10.4596 2.08624 10.1868 2.81274 9.90788Z"></path>
  </symbol>
  <symbol xmlns="http://www.w3.org/2000/svg" viewBox="0 0 24 24" id="check">
    <path fill-rule="evenodd" clip-rule="evenodd" d="M12 3.7C9.7987 3.7 7.68757 4.57446 6.13101 6.13101C4.57446 7.68757 3.7 9.7987 3.7 12C3.7 13.09 3.91469 14.1693 4.3318 15.1763C4.74891 16.1833 5.36029 17.0983 6.13101 17.869C6.90174 18.6397 7.81673 19.2511 8.82373 19.6682C9.83073 20.0853 10.91 20.3 12 20.3C13.09 20.3 14.1693 20.0853 15.1763 19.6682C16.1833 19.2511 17.0983 18.6397 17.869 17.869C18.6397 17.0983 19.2511 16.1833 19.6682 15.1763C20.0853 14.1693 20.3 13.09 20.3 12C20.3 9.7987 19.4255 7.68757 17.869 6.13101C16.3124 4.57446 14.2013 3.7 12 3.7ZM5.14106 5.14106C6.96017 3.32196 9.4274 2.3 12 2.3C14.5726 2.3 17.0398 3.32196 18.8589 5.14106C20.678 6.96017 21.7 9.4274 21.7 12C21.7 13.2738 21.4491 14.5352 20.9616 15.712C20.4742 16.8889 19.7597 17.9582 18.8589 18.8589C17.9582 19.7597 16.8889 20.4742 15.712 20.9616C14.5352 21.4491 13.2738 21.7 12 21.7C10.7262 21.7 9.46483 21.4491 8.28797 20.9616C7.11111 20.4742 6.04179 19.7597 5.14106 18.8589C4.24034 17.9582 3.52584 16.8889 3.03837 15.712C2.5509 14.5352 2.3 13.2738 2.3 12C2.3 9.4274 3.32196 6.96017 5.14106 5.14106ZM15.495 9.50503C15.7683 9.77839 15.7683 10.2216 15.495 10.495L11.495 14.495C11.2216 14.7683 10.7784 14.7683 10.505 14.495L8.50503 12.495C8.23166 12.2216 8.23166 11.7784 8.50503 11.505C8.77839 11.2317 9.22161 11.2317 9.49497 11.505L11 13.01L14.505 9.50503C14.7784 9.23166 15.2216 9.23166 15.495 9.50503Z"></path>
  </symbol>
  <symbol fill="none" xmlns="http://www.w3.org/2000/svg" viewBox="0 0 24 24" id="error">
    <path fill-rule="evenodd" clip-rule="evenodd" d="M12 3.7C9.7987 3.7 7.68757 4.57446 6.13101 6.13101C4.57446 7.68757 3.7 9.7987 3.7 12C3.7 13.09 3.91469 14.1693 4.3318 15.1763C4.74891 16.1833 5.36029 17.0983 6.13101 17.869C6.90174 18.6397 7.81673 19.2511 8.82373 19.6682C9.83073 20.0853 10.91 20.3 12 20.3C13.09 20.3 14.1693 20.0853 15.1763 19.6682C16.1833 19.2511 17.0983 18.6397 17.869 17.869C18.6397 17.0983 19.2511 16.1833 19.6682 15.1763C20.0853 14.1693 20.3 13.09 20.3 12C20.3 9.7987 19.4255 7.68757 17.869 6.13101C16.3124 4.57446 14.2013 3.7 12 3.7ZM5.14106 5.14106C6.96017 3.32196 9.4274 2.3 12 2.3C14.5726 2.3 17.0398 3.32196 18.8589 5.14106C20.678 6.96017 21.7 9.4274 21.7 12C21.7 13.2738 21.4491 14.5352 20.9616 15.712C20.4742 16.8889 19.7597 17.9582 18.8589 18.8589C17.9582 19.7597 16.8889 20.4742 15.712 20.9616C14.5352 21.4491 13.2738 21.7 12 21.7C10.7262 21.7 9.46483 21.4491 8.28797 20.9616C7.11111 20.4742 6.04179 19.7597 5.14106 18.8589C4.24034 17.9582 3.52584 16.8889 3.03837 15.712C2.5509 14.5352 2.3 13.2738 2.3 12C2.3 9.4274 3.32196 6.96017 5.14106 5.14106ZM12 7.3C12.3866 7.3 12.7 7.6134 12.7 8V12C12.7 12.3866 12.3866 12.7 12 12.7C11.6134 12.7 11.3 12.3866 11.3 12V8C11.3 7.6134 11.6134 7.3 12 7.3ZM11.3 16C11.3 15.6134 11.6134 15.3 12 15.3H12.01C12.3966 15.3 12.71 15.6134 12.71 16C12.71 16.3866 12.3966 16.7 12.01 16.7H12C11.6134 16.7 11.3 16.3866 11.3 16Z" fill="#EF4444"></path>
  </symbol>
  <symbol xmlns="http://www.w3.org/2000/svg" viewBox="0 0 24 24" id="clock">
    <path fill-rule="evenodd" clip-rule="evenodd" d="M12 3.7C9.7987 3.7 7.68757 4.57446 6.13101 6.13101C4.57446 7.68757 3.7 9.7987 3.7 12C3.7 13.09 3.91469 14.1693 4.3318 15.1763C4.74891 16.1833 5.36029 17.0983 6.13101 17.869C6.90174 18.6397 7.81673 19.2511 8.82373 19.6682C9.83073 20.0853 10.91 20.3 12 20.3C13.09 20.3 14.1693 20.0853 15.1763 19.6682C16.1833 19.2511 17.0983 18.6397 17.869 17.869C18.6397 17.0983 19.2511 16.1833 19.6682 15.1763C20.0853 14.1693 20.3 13.09 20.3 12C20.3 9.7987 19.4255 7.68757 17.869 6.13101C16.3124 4.57446 14.2013 3.7 12 3.7ZM5.14106 5.14106C6.96017 3.32196 9.4274 2.3 12 2.3C14.5726 2.3 17.0398 3.32196 18.8589 5.14106C20.678 6.96017 21.7 9.4274 21.7 12C21.7 13.2738 21.4491 14.5352 20.9616 15.712C20.4742 16.8889 19.7597 17.9582 18.8589 18.8589C17.9582 19.7597 16.8889 20.4742 15.712 20.9616C14.5352 21.4491 13.2738 21.7 12 21.7C10.7262 21.7 9.46483 21.4491 8.28797 20.9616C7.11111 20.4742 6.04179 19.7597 5.14106 18.8589C4.24034 17.9582 3.52584 16.8889 3.03837 15.712C2.5509 14.5352 2.3 13.2738 2.3 12C2.3 9.4274 3.32196 6.96017 5.14106 5.14106ZM12 7.3C12.3866 7.3 12.7 7.6134 12.7 8V11.71L15.495 14.505C15.7683 14.7784 15.7683 15.2216 15.495 15.495C15.2216 15.7683 14.7784 15.7683 14.505 15.495L11.505 12.495C11.3737 12.3637 11.3 12.1857 11.3 12V8C11.3 7.6134 11.6134 7.3 12 7.3Z"></path>
  </symbol>
  <symbol xmlns="http://www.w3.org/2000/svg" viewBox="0 0 20 20" id="question">
    <path fill-rule="evenodd" clip-rule="evenodd" d="M18 10C18 12.1217 17.1571 14.1566 15.6569 15.6569C14.1566 17.1571 12.1217 18 10 18C7.87827 18 5.84344 17.1571 4.34315 15.6569C2.84285 14.1566 2 12.1217 2 10C2 7.87827 2.84285 5.84344 4.34315 4.34315C5.84344 2.84285 7.87827 2 10 2C12.1217 2 14.1566 2.84285 15.6569 4.34315C17.1571 5.84344 18 7.87827 18 10V10ZM10 7C9.8243 6.99983 9.65165 7.04595 9.49945 7.13373C9.34724 7.22151 9.22085 7.34784 9.133 7.5C9.06957 7.61788 8.98311 7.72182 8.87876 7.80566C8.77441 7.8895 8.65429 7.95154 8.52552 7.9881C8.39675 8.02466 8.26194 8.03499 8.12911 8.01849C7.99627 8.00198 7.86809 7.95897 7.75218 7.89201C7.63628 7.82505 7.53499 7.7355 7.45433 7.62867C7.37367 7.52184 7.31529 7.3999 7.28263 7.27008C7.24997 7.14027 7.24371 7.00522 7.26421 6.87294C7.28472 6.74065 7.33157 6.61384 7.402 6.5C7.73222 5.92811 8.24191 5.48116 8.85203 5.22846C9.46214 4.97576 10.1386 4.93144 10.7765 5.10236C11.4143 5.27328 11.978 5.64989 12.38 6.1738C12.782 6.6977 13 7.33962 13 8C13.0002 8.62062 12.8079 9.22603 12.4498 9.73285C12.0916 10.2397 11.5851 10.623 11 10.83V11C11 11.2652 10.8946 11.5196 10.7071 11.7071C10.5196 11.8946 10.2652 12 10 12C9.73478 12 9.48043 11.8946 9.29289 11.7071C9.10536 11.5196 9 11.2652 9 11V10C9 9.73478 9.10536 9.48043 9.29289 9.29289C9.48043 9.10536 9.73478 9 10 9C10.2652 9 10.5196 8.89464 10.7071 8.70711C10.8946 8.51957 11 8.26522 11 8C11 7.73478 10.8946 7.48043 10.7071 7.29289C10.5196 7.10536 10.2652 7 10 7ZM10 15C10.2652 15 10.5196 14.8946 10.7071 14.7071C10.8946 14.5196 11 14.2652 11 14C11 13.7348 10.8946 13.4804 10.7071 13.2929C10.5196 13.1054 10.2652 13 10 13C9.73478 13 9.48043 13.1054 9.29289 13.2929C9.10536 13.4804 9 13.7348 9 14C9 14.2652 9.10536 14.5196 9.29289 14.7071C9.48043 14.8946 9.73478 15 10 15V15Z"></path>
  </symbol>
  <symbol xmlns="http://www.w3.org/2000/svg" viewBox="0 0 20 20" id="dotted">
    <path d="M6 9.5C6 10.3284 5.32843 11 4.5 11C3.67157 11 3 10.3284 3 9.5C3 8.67157 3.67157 8 4.5 8C5.32843 8 6 8.67157 6 9.5Z"></path>
    <path d="M12 9.5C12 10.3284 11.3284 11 10.5 11C9.67157 11 9 10.3284 9 9.5C9 8.67157 9.67157 8 10.5 8C11.3284 8 12 8.67157 12 9.5Z"></path>
    <path d="M18 9.5C18 10.3284 17.3284 11 16.5 11C15.6716 11 15 10.3284 15 9.5C15 8.67157 15.6716 8 16.5 8C17.3284 8 18 8.67157 18 9.5Z"></path>
  </symbol>
  <symbol xmlns="http://www.w3.org/2000/svg" viewBox="0 0 20 20" id="comment-outline">
    <path fill-rule="evenodd" clip-rule="evenodd" d="M10 4.03331C6.16514 4.03331 3.20001 6.78015 3.20001 9.99998C3.20001 11.1557 3.57508 12.2386 4.2324 13.1602C4.36766 13.3498 4.39973 13.5943 4.31794 13.8124L3.59763 15.7333L6.31689 15.1894C6.46451 15.1599 6.61772 15.1787 6.75378 15.2432C7.76756 15.7233 8.87591 15.9705 9.99762 15.9666L10 15.9666C13.8349 15.9666 16.8 13.2198 16.8 9.99998C16.8 6.78015 13.8349 4.03331 10 4.03331ZM1.80001 9.99998C1.80001 5.85647 5.55154 2.63331 10 2.63331C14.4485 2.63331 18.2 5.85647 18.2 9.99998C18.2 14.1431 14.4491 17.3661 10.0012 17.3666H10L10.0024 17.3666L10.0012 17.3666C8.74979 17.3707 7.51242 17.1115 6.36924 16.6067L2.63729 17.353C2.38806 17.4029 2.1314 17.3137 1.96675 17.1201C1.8021 16.9265 1.75533 16.6588 1.84457 16.4209L2.88042 13.6586C2.19582 12.5843 1.80001 11.3351 1.80001 9.99998ZM5.96667 9.99998C5.96667 9.61338 6.28007 9.29998 6.66667 9.29998H6.67501C7.0616 9.29998 7.37501 9.61338 7.37501 9.99998C7.37501 10.3866 7.0616 10.7 6.67501 10.7H6.66667C6.28007 10.7 5.96667 10.3866 5.96667 9.99998ZM9.30001 9.99998C9.30001 9.61338 9.61341 9.29998 10 9.29998H10.0083C10.3949 9.29998 10.7083 9.61338 10.7083 9.99998C10.7083 10.3866 10.3949 10.7 10.0083 10.7H10C9.61341 10.7 9.30001 10.3866 9.30001 9.99998ZM12.6333 9.99998C12.6333 9.61338 12.9467 9.29998 13.3333 9.29998H13.3417C13.7283 9.29998 14.0417 9.61338 14.0417 9.99998C14.0417 10.3866 13.7283 10.7 13.3417 10.7H13.3333C12.9467 10.7 12.6333 10.3866 12.6333 9.99998Z"></path>
  </symbol>
  <symbol xmlns="http://www.w3.org/2000/svg" viewBox="0 0 20 20" id="comment-fill">
    <path fill-rule="evenodd" clip-rule="evenodd" d="M18 10C18 13.866 14.418 17 10 17C8.58005 17.006 7.17955 16.6698 5.917 16.02L2 17L3.338 13.877C2.493 12.767 2 11.434 2 10C2 6.134 5.582 3 10 3C14.418 3 18 6.134 18 10ZM7 9H5V11H7V9ZM15 9H13V11H15V9ZM9 9H11V11H9V9Z"></path>
  </symbol>
  <symbol xmlns="http://www.w3.org/2000/svg" viewBox="0 0 20 20" id="checked">
    <path fill-rule="evenodd" clip-rule="evenodd" d="M16.3283 5.33836C16.6017 5.61173 16.6017 6.05494 16.3283 6.32831L7.99497 14.6616C7.72161 14.935 7.27839 14.935 7.00503 14.6616L3.67169 11.3283C3.39832 11.0549 3.39832 10.6117 3.67169 10.3384C3.94506 10.065 4.38827 10.065 4.66164 10.3384L7.5 13.1767L15.3384 5.33836C15.6117 5.06499 16.0549 5.06499 16.3283 5.33836Z"></path>
  </symbol>
  <symbol xmlns="http://www.w3.org/2000/svg" viewBox="0 0 24 24" id="notification">
    <path fill-rule="evenodd" clip-rule="evenodd" d="M10.0908 3.09081C10.5972 2.58446 11.2839 2.3 12 2.3C12.7161 2.3 13.4028 2.58446 13.9092 3.09081C14.3835 3.56515 14.6631 4.19781 14.6966 4.86458C15.807 5.35302 16.7671 6.13519 17.4709 7.13084C18.2707 8.26247 18.7002 9.61422 18.7 11C18.7 11 18.7 11 18.7 11V14.158C18.7 14.3329 18.7344 14.5063 18.8013 14.6679C18.8682 14.8295 18.9663 14.9763 19.09 15.1C19.09 15.1 19.09 15.1 19.09 15.1L20.495 16.505C20.6952 16.7052 20.7551 17.0063 20.6467 17.2679C20.5384 17.5295 20.2831 17.7 20 17.7H15.7V18C15.7 18.9813 15.3102 19.9224 14.6163 20.6163C13.9224 21.3102 12.9813 21.7 12 21.7C11.0187 21.7 10.0776 21.3102 9.3837 20.6163C8.68982 19.9224 8.3 18.9813 8.3 18V17.7H4C3.71688 17.7 3.46163 17.5295 3.35328 17.2679C3.24494 17.0063 3.30483 16.7052 3.50503 16.505L4.91003 15.1C5.15976 14.8503 5.3 14.5113 5.3 14.159V11C5.3 8.25843 6.94711 5.90232 9.30339 4.86467C9.33683 4.19786 9.61645 3.56517 10.0908 3.09081ZM9.7 17.7V18C9.7 18.61 9.94232 19.195 10.3737 19.6263C10.805 20.0577 11.39 20.3 12 20.3C12.61 20.3 13.195 20.0577 13.6263 19.6263C14.0577 19.195 14.3 18.61 14.3 18V17.7H9.7ZM12 3.7C11.6552 3.7 11.3246 3.83696 11.0808 4.08076C10.837 4.32456 10.7 4.65522 10.7 5V5.341C10.7 5.63763 10.513 5.90205 10.2334 6.00095C8.17419 6.72918 6.7 8.6939 6.7 11V14.159C6.7 14.8827 6.41224 15.5777 5.89997 16.09L5.68995 16.3H18.3101L18.1 16.09C17.8463 15.8362 17.6451 15.535 17.5078 15.2035C17.3706 14.872 17.3 14.5168 17.3 14.158C17.3 14.158 17.3 14.158 17.3 14.158V11C17.3001 9.90368 16.9604 8.83419 16.3276 7.93893C15.6948 7.04368 14.8 6.3666 13.7665 6.00091C13.4869 5.90198 13.3 5.63759 13.3 5.341V5C13.3 4.65522 13.163 4.32456 12.9192 4.08076C12.6754 3.83696 12.3448 3.7 12 3.7Z"></path>
  </symbol>
  <symbol xmlns="http://www.w3.org/2000/svg" viewBox="0 0 20 20" id="arrow-down">
    <path fill-rule="evenodd" clip-rule="evenodd" d="M4.50503 7.42299C4.77839 7.14963 5.22161 7.14963 5.49497 7.42299L9.99992 11.9279L14.5049 7.42299C14.7782 7.14963 15.2214 7.14963 15.4948 7.42299C15.7682 7.69636 15.7682 8.13958 15.4948 8.41294L10.4949 13.4129C10.2215 13.6862 9.77831 13.6862 9.50494 13.4129L4.50503 8.41294C4.23166 8.13958 4.23166 7.69636 4.50503 7.42299Z"></path>
  </symbol>
  <symbol xmlns="http://www.w3.org/2000/svg" viewBox="0 0 24 24" id="login">
    <path fill-rule="evenodd" clip-rule="evenodd" d="M18 19.3C18.61 19.3 19.195 19.0577 19.6263 18.6263C20.0577 18.195 20.3 17.61 20.3 17L20.3 7C20.3 6.39 20.0577 5.80499 19.6263 5.37366C19.195 4.94232 18.61 4.7 18 4.7L11 4.7C10.39 4.7 9.80499 4.94232 9.37366 5.37365C8.94232 5.80499 8.7 6.39 8.7 7L8.7 8C8.7 8.3866 8.3866 8.7 8 8.7C7.6134 8.7 7.3 8.3866 7.3 8L7.3 7C7.3 6.0187 7.68982 5.07759 8.38371 4.3837C9.07759 3.68982 10.0187 3.3 11 3.3L18 3.3C18.9813 3.3 19.9224 3.68982 20.6163 4.38371C21.3102 5.07759 21.7 6.0187 21.7 7L21.7 17C21.7 17.9813 21.3102 18.9224 20.6163 19.6163C19.9224 20.3102 18.9813 20.7 18 20.7L11 20.7C10.0187 20.7 9.07759 20.3102 8.38371 19.6163C7.68982 18.9224 7.3 17.9813 7.3 17L7.3 16C7.3 15.6134 7.6134 15.3 8 15.3C8.3866 15.3 8.7 15.6134 8.7 16L8.7 17C8.7 17.61 8.94232 18.195 9.37366 18.6263C9.80499 19.0577 10.39 19.3 11 19.3L18 19.3ZM12.505 16.495C12.2317 16.2216 12.2317 15.7784 12.505 15.505L15.3101 12.7L3 12.7C2.6134 12.7 2.3 12.3866 2.3 12C2.3 11.6134 2.6134 11.3 3 11.3L15.3101 11.3L12.505 8.49498C12.2317 8.22161 12.2317 7.77839 12.505 7.50503C12.7784 7.23166 13.2216 7.23166 13.495 7.50503L17.495 11.505C17.5621 11.5721 17.6127 11.6495 17.6469 11.7321C17.6811 11.8146 17.7 11.9051 17.7 12C17.7 12.0949 17.6811 12.1854 17.6469 12.2679C17.6127 12.3505 17.5621 12.4279 17.495 12.495C17.4949 12.495 17.4949 12.495 17.4949 12.4951L13.495 16.495C13.2216 16.7683 12.7784 16.7683 12.505 16.495Z"></path>
  </symbol>
  <symbol xmlns="http://www.w3.org/2000/svg" viewBox="0 0 24 24" id="search">
    <path fill-rule="evenodd" clip-rule="evenodd" d="M10.3333 5.2C8.97189 5.2 7.66621 5.74083 6.70352 6.70352C5.74083 7.66621 5.2 8.97189 5.2 10.3333C5.2 11.0075 5.33278 11.675 5.59075 12.2978C5.84873 12.9206 6.22684 13.4865 6.70352 13.9631C7.18019 14.4398 7.74609 14.8179 8.36889 15.0759C8.9917 15.3339 9.65921 15.4667 10.3333 15.4667C11.0075 15.4667 11.675 15.3339 12.2978 15.0759C12.9206 14.8179 13.4865 14.4398 13.9631 13.9631C14.4398 13.4865 14.8179 12.9206 15.0759 12.2978C15.3339 11.675 15.4667 11.0075 15.4667 10.3333C15.4667 8.97189 14.9258 7.66621 13.9631 6.70352C13.0005 5.74083 11.6948 5.2 10.3333 5.2ZM5.71357 5.71357C6.93881 4.48833 8.60059 3.8 10.3333 3.8C12.0661 3.8 13.7279 4.48833 14.9531 5.71357C16.1783 6.93881 16.8667 8.60059 16.8667 10.3333C16.8667 11.1913 16.6977 12.0409 16.3693 12.8335C16.1307 13.4097 15.8112 13.9477 15.4215 14.4315L19.995 19.005C20.2683 19.2784 20.2683 19.7216 19.995 19.995C19.7216 20.2683 19.2784 20.2683 19.005 19.995L14.4315 15.4215C13.9477 15.8112 13.4097 16.1307 12.8335 16.3693C12.0409 16.6977 11.1913 16.8667 10.3333 16.8667C9.47536 16.8667 8.6258 16.6977 7.83313 16.3693C7.04047 16.041 6.32024 15.5598 5.71357 14.9531C5.10689 14.3464 4.62565 13.6262 4.29732 12.8335C3.96899 12.0409 3.8 11.1913 3.8 10.3333C3.8 8.60059 4.48833 6.93881 5.71357 5.71357Z"></path>
  </symbol>
  <symbol xmlns="http://www.w3.org/2000/svg" viewBox="0 0 20 20" id="plus">
    <path fill-rule="evenodd" clip-rule="evenodd" d="M10.0001 3.3C10.3867 3.3 10.7001 3.6134 10.7001 4V9.30008H16.0002C16.3868 9.30008 16.7002 9.61348 16.7002 10.0001C16.7002 10.3867 16.3868 10.7001 16.0002 10.7001H10.7001V16.0002C10.7001 16.3868 10.3867 16.7002 10.0001 16.7002C9.61348 16.7002 9.30008 16.3868 9.30008 16.0002V10.7001H4C3.6134 10.7001 3.3 10.3867 3.3 10.0001C3.3 9.61348 3.6134 9.30008 4 9.30008H9.30008V4C9.30008 3.6134 9.61348 3.3 10.0001 3.3Z"></path>
  </symbol>
  <symbol xmlns="http://www.w3.org/2000/svg" viewBox="0 0 40 40" id="download-arrow">
    <path fill-rule="evenodd" clip-rule="evenodd" d="M20.4947 4.50503L32.1613 16.1717C32.4346 16.4451 32.4346 16.8883 32.1613 17.1617C31.8879 17.435 31.4447 17.435 31.1713 17.1617L20.6997 6.68996V35C20.6997 35.3866 20.3863 35.7 19.9997 35.7C19.6131 35.7 19.2997 35.3866 19.2997 35V6.68995L8.82799 17.1617C8.55462 17.435 8.1114 17.435 7.83804 17.1617C7.56467 16.8883 7.56467 16.4451 7.83804 16.1717L19.5047 4.50502C19.5063 4.5035 19.5078 4.50198 19.5093 4.50047C19.5754 4.43562 19.6511 4.3865 19.7318 4.35311C19.8143 4.31889 19.9048 4.3 19.9997 4.3C20.0946 4.3 20.1851 4.31889 20.2677 4.35311C20.3483 4.3865 20.424 4.43562 20.4901 4.50048C20.4916 4.50198 20.4932 4.5035 20.4947 4.50503Z"></path>
  </symbol>
  <symbol fill="none" xmlns="http://www.w3.org/2000/svg" viewBox="0 0 20 20" id="map-marker">
    <path d="M14.7148 13.8808L11.179 17.4167C11.0244 17.5715 10.8407 17.6942 10.6386 17.778C10.4365 17.8618 10.2199 17.9049 10.0011 17.9049C9.78228 17.9049 9.56564 17.8618 9.36352 17.778C9.16141 17.6942 8.97779 17.5715 8.82315 17.4167L5.28649 13.8808C4.35417 12.9485 3.71927 11.7606 3.46206 10.4674C3.20485 9.17419 3.3369 7.83376 3.84149 6.61561C4.34608 5.39745 5.20057 4.35628 6.29689 3.62376C7.39321 2.89123 8.68213 2.50024 10.0007 2.50024C11.3192 2.50024 12.6081 2.89123 13.7044 3.62376C14.8007 4.35628 15.6552 5.39745 16.1598 6.61561C16.6644 7.83376 16.7965 9.17419 16.5392 10.4674C16.282 11.7606 15.6471 12.9485 14.7148 13.8808V13.8808Z" stroke="#9CA3AF" stroke-width="1.4" stroke-linecap="round" stroke-linejoin="round"></path>
    <path d="M12.5 9.16663C12.5 9.82967 12.2366 10.4656 11.7678 10.9344C11.2989 11.4032 10.663 11.6666 10 11.6666C9.33696 11.6666 8.70107 11.4032 8.23223 10.9344C7.76339 10.4656 7.5 9.82967 7.5 9.16663C7.5 8.50358 7.76339 7.8677 8.23223 7.39886C8.70107 6.93002 9.33696 6.66663 10 6.66663C10.663 6.66663 11.2989 6.93002 11.7678 7.39886C12.2366 7.8677 12.5 8.50358 12.5 9.16663V9.16663Z" stroke="#9CA3AF" stroke-width="1.4" stroke-linecap="round" stroke-linejoin="round"></path>
  </symbol>
  <symbol xmlns="http://www.w3.org/2000/svg" viewBox="0 0 24 24" id="close">
    <path fill-rule="evenodd" clip-rule="evenodd" d="M4.50503 4.50503C4.7784 4.23166 5.22161 4.23166 5.49498 4.50503L12 11.0101L18.505 4.50503C18.7784 4.23166 19.2216 4.23166 19.495 4.50503C19.7683 4.7784 19.7683 5.22161 19.495 5.49498L12.99 12L19.495 18.505C19.7683 18.7784 19.7683 19.2216 19.495 19.495C19.2216 19.7683 18.7784 19.7683 18.505 19.495L12 12.99L5.49498 19.495C5.22161 19.7683 4.7784 19.7683 4.50503 19.495C4.23166 19.2216 4.23166 18.7784 4.50503 18.505L11.0101 12L4.50503 5.49498C4.23166 5.22161 4.23166 4.7784 4.50503 4.50503Z"></path>
  </symbol>
  <symbol xmlns="http://www.w3.org/2000/svg" viewBox="0 0 20 20" id="bookmarks">
    <path fill-rule="evenodd" clip-rule="evenodd" d="M5.83333 3.2C5.57696 3.2 5.33108 3.30184 5.1498 3.48313C4.96851 3.66441 4.86667 3.91029 4.86667 4.16667V16.3674L9.68695 13.9572C9.88402 13.8587 10.116 13.8587 10.3131 13.9572L15.1333 16.3674V4.16667C15.1333 3.91029 15.0315 3.66441 14.8502 3.48313C14.6689 3.30184 14.423 3.2 14.1667 3.2H5.83333ZM4.15985 2.49318C4.60368 2.04934 5.20566 1.8 5.83333 1.8H14.1667C14.7943 1.8 15.3963 2.04934 15.8402 2.49318C16.284 2.93702 16.5333 3.53899 16.5333 4.16667V17.5C16.5333 17.7426 16.4077 17.9679 16.2013 18.0955C15.995 18.223 15.7373 18.2346 15.5203 18.1261L10 15.366L4.47972 18.1261C4.26272 18.2346 4.00503 18.223 3.79866 18.0955C3.59228 17.9679 3.46667 17.7426 3.46667 17.5V4.16667C3.46667 3.53899 3.71601 2.93702 4.15985 2.49318Z"></path>
  </symbol>
  <symbol xmlns="http://www.w3.org/2000/svg" viewBox="0 0 32 32" id="btn-play">
    <path fill-rule="evenodd" clip-rule="evenodd" d="M16 29C19.4478 29 22.7544 27.6304 25.1924 25.1924C27.6304 22.7544 29 19.4478 29 16C29 12.5522 27.6304 9.24559 25.1924 6.80761C22.7544 4.36964 19.4478 3 16 3C12.5522 3 9.24559 4.36964 6.80761 6.80761C4.36964 9.24559 3 12.5522 3 16C3 19.4478 4.36964 22.7544 6.80761 25.1924C9.24559 27.6304 12.5522 29 16 29V29ZM15.2769 11.398C15.0321 11.2347 14.7477 11.1409 14.4538 11.1267C14.16 11.1124 13.8678 11.1782 13.6084 11.317C13.349 11.4557 13.1321 11.6624 12.981 11.9147C12.8298 12.1671 12.75 12.4558 12.75 12.75V19.25C12.75 19.5442 12.8298 19.8329 12.981 20.0853C13.1321 20.3376 13.349 20.5443 13.6084 20.683C13.8678 20.8218 14.16 20.8876 14.4538 20.8733C14.7477 20.8591 15.0321 20.7653 15.2769 20.602L20.1519 17.352C20.3744 17.2036 20.5569 17.0026 20.6831 16.7667C20.8093 16.5309 20.8754 16.2675 20.8754 16C20.8754 15.7325 20.8093 15.4691 20.6831 15.2333C20.5569 14.9974 20.3744 14.7964 20.1519 14.648L15.2769 11.398V11.398Z"></path>
  </symbol>
  <symbol xmlns="http://www.w3.org/2000/svg" viewBox="0 0 16 16" id="lock">
    <path fill-rule="evenodd" clip-rule="evenodd" d="M5.88192 2.63447C6.4256 2.01234 7.18483 1.64098 8.00001 1.64098C8.81519 1.64098 9.57442 2.01234 10.1181 2.63447C10.6591 3.2536 10.95 4.07537 10.95 4.91569V6.1927H11.375C11.8918 6.1927 12.3649 6.42843 12.6976 6.80914C13.0277 7.18684 13.2 7.68117 13.2 8.18006L13.2 12.3717C13.2 12.8706 13.0276 13.3649 12.6976 13.7426C12.3649 14.1233 11.8918 14.359 11.375 14.359H4.62499C4.10818 14.359 3.63509 14.1233 3.3024 13.7426C2.97233 13.3649 2.79999 12.8706 2.79999 12.3717L2.80001 8.18006C2.80001 7.68117 2.97235 7.18684 3.30242 6.80914C3.63511 6.42843 4.1082 6.1927 4.62501 6.1927H5.05001V4.91569C5.05001 4.07537 5.34088 3.2536 5.88192 2.63447ZM6.45001 6.1927H9.55001V4.91569C9.55001 4.39029 9.36677 3.90229 9.0639 3.55571C8.76366 3.21214 8.3783 3.04098 8.00001 3.04098C7.62171 3.04098 7.23635 3.21214 6.93611 3.55571C6.63325 3.90229 6.45001 4.39029 6.45001 4.91569V6.1927ZM4.62501 7.5927C4.54508 7.5927 4.44587 7.62824 4.35661 7.73038C4.26472 7.83553 4.20001 7.99609 4.20001 8.18006L4.19999 12.3717C4.19999 12.5556 4.2647 12.7162 4.35659 12.8213C4.44585 12.9235 4.54506 12.959 4.62499 12.959H11.375C11.4549 12.959 11.5541 12.9235 11.6434 12.8213C11.7353 12.7162 11.8 12.5556 11.8 12.3717L11.8 8.18006C11.8 7.99609 11.7353 7.83553 11.6434 7.73038C11.5541 7.62823 11.4549 7.5927 11.375 7.5927H4.62501ZM8.01007 9.35505C8.39667 9.35505 8.71007 9.66845 8.71007 10.0551V10.6425C8.71007 11.0291 8.39667 11.3425 8.01007 11.3425C7.62347 11.3425 7.31007 11.0291 7.31007 10.6425V10.0551C7.31007 9.66845 7.62347 9.35505 8.01007 9.35505Z"></path>
  </symbol>
  <symbol xmlns="http://www.w3.org/2000/svg" viewBox="0 0 24 24" id="view-on">
    <path fill-rule="evenodd" clip-rule="evenodd" d="M3.51202 12C4.74752 15.4964 8.08323 18 12 18C15.9177 18 19.2525 15.4965 20.488 12C19.2525 8.50354 15.9177 6 12 6C8.08323 6 4.74752 8.50359 3.51202 12ZM1.50394 11.7004C2.90509 7.23851 7.07378 4 12 4C16.9273 4 21.0949 7.23856 22.4961 11.7004C22.5573 11.8954 22.5573 12.1046 22.4961 12.2996C21.0949 16.7614 16.9273 20 12 20C7.07378 20 2.90509 16.7615 1.50394 12.2996C1.4427 12.1046 1.4427 11.8954 1.50394 11.7004Z"></path>
    <path fill-rule="evenodd" clip-rule="evenodd" d="M12 14C13.1046 14 14 13.1046 14 12C14 10.8954 13.1046 10 12 10C10.8954 10 10 10.8954 10 12C10 13.1046 10.8954 14 12 14ZM12 16C14.2091 16 16 14.2091 16 12C16 9.79086 14.2091 8 12 8C9.79087 8 8 9.79086 8 12C8 14.2091 9.79087 16 12 16Z"></path>
  </symbol>
  <symbol xmlns="http://www.w3.org/2000/svg" viewBox="0 0 24 24" id="view-off">
    <path d="M12 5.97505C15.79 5.97505 19.17 8.10505 20.82 11.475C20.23 12.695 19.4 13.745 18.41 14.595L19.82 16.005C21.21 14.775 22.31 13.235 23 11.475C21.27 7.08505 17 3.97505 12 3.97505C10.73 3.97505 9.51 4.17505 8.36 4.54505L10.01 6.19505C10.66 6.06505 11.32 5.97505 12 5.97505ZM10.93 7.11505L13 9.18505C13.57 9.43505 14.03 9.89505 14.28 10.465L16.35 12.535C16.43 12.195 16.49 11.835 16.49 11.465C16.5 8.98505 14.48 6.97505 12 6.97505C11.63 6.97505 11.28 7.02505 10.93 7.11505ZM2.01 3.84505L4.69 6.52505C3.06 7.80505 1.77 9.50505 1 11.475C2.73 15.865 7 18.975 12 18.975C13.52 18.975 14.98 18.685 16.32 18.155L19.74 21.575L21.15 20.165L3.42 2.42505L2.01 3.84505ZM9.51 11.345L12.12 13.955C12.08 13.965 12.04 13.975 12 13.975C10.62 13.975 9.5 12.855 9.5 11.475C9.5 11.425 9.51 11.395 9.51 11.345V11.345ZM6.11 7.94505L7.86 9.69505C7.63 10.245 7.5 10.845 7.5 11.475C7.5 13.955 9.52 15.975 12 15.975C12.63 15.975 13.23 15.845 13.77 15.615L14.75 16.595C13.87 16.835 12.95 16.975 12 16.975C8.21 16.975 4.83 14.845 3.18 11.475C3.88 10.045 4.9 8.86505 6.11 7.94505Z"></path>
  </symbol>
  <symbol xmlns="http://www.w3.org/2000/svg" viewBox="0 0 20 20" id="share">
    <path fill-rule="evenodd" clip-rule="evenodd" d="M13.6204 2.24232C14.3519 1.87652 15.1987 1.81628 15.9746 2.07484C16.7504 2.3334 17.3918 2.88959 17.7576 3.62105C17.9388 3.98323 18.0468 4.37755 18.0755 4.78147C18.1042 5.1854 18.0531 5.59103 17.9251 5.97521C17.7971 6.35939 17.5946 6.71459 17.3293 7.02053C17.064 7.32646 16.7411 7.57715 16.3789 7.75828C16.0167 7.9394 15.6224 8.04742 15.2185 8.07615C14.8145 8.10489 14.4089 8.05379 14.0247 7.92576C13.6406 7.79773 13.2854 7.59529 12.9794 7.32999C12.8217 7.19325 12.6787 7.04119 12.5524 6.87634L7.96947 9.16778C8.04368 9.43296 8.0834 9.71232 8.0834 10.0003C8.0834 10.2883 8.04368 10.5676 7.96947 10.8328L12.5523 13.1242C12.9245 12.6386 13.4359 12.2708 14.0248 12.0746C14.409 11.9465 14.8147 11.8953 15.2187 11.9241C15.6227 11.9528 16.017 12.0608 16.3793 12.2419C17.1109 12.6077 17.6672 13.2491 17.9258 14.0251C18.1845 14.801 18.1243 15.6479 17.7585 16.3795C17.3927 17.1111 16.7513 17.6674 15.9753 17.926C15.1994 18.1847 14.3524 18.1245 13.6209 17.7587C12.8893 17.3929 12.333 16.7515 12.0743 15.9755C11.878 15.3867 11.8654 14.7569 12.0306 14.1677L7.44775 11.8763C7.1484 12.2668 6.7581 12.5823 6.30732 12.7931C5.67821 13.0874 4.96816 13.1607 4.29221 13.0011C3.61625 12.8415 3.01399 12.4583 2.58298 11.9137C2.15198 11.369 1.91748 10.6948 1.91748 10.0003C1.91748 9.30575 2.15198 8.63155 2.58298 8.08691C3.01399 7.54228 3.61625 7.15911 4.29221 6.9995C4.96816 6.83988 5.67821 6.91315 6.30732 7.20745C6.7581 7.41833 7.1484 7.73383 7.44775 8.12427L12.0305 5.83288C11.8654 5.24381 11.878 4.61417 12.0742 4.02539C12.3327 3.24951 12.8889 2.60812 13.6204 2.24232ZM6.71498 9.14284C6.52184 8.75673 6.20401 8.44714 5.81297 8.26421C5.4219 8.08126 4.98052 8.03571 4.56033 8.13493C4.14014 8.23416 3.76576 8.47234 3.49784 8.8109C3.22992 9.14946 3.08415 9.56855 3.08415 10.0003C3.08415 10.432 3.22992 10.8511 3.49784 11.1897C3.76576 11.5283 4.14014 11.7664 4.56033 11.8657C4.98052 11.9649 5.4219 11.9193 5.81297 11.7364C6.20401 11.5535 6.52184 11.2439 6.71498 10.8578M6.71502 10.8577C6.84388 10.5999 6.91673 10.3091 6.91673 10.0003C6.91673 9.69154 6.84388 9.40066 6.71502 9.14291M15.6057 3.18166C15.1234 3.02092 14.5969 3.05838 14.1422 3.28578C13.6875 3.51318 13.3417 3.9119 13.181 4.39424C13.0203 4.87657 13.0577 5.403 13.2851 5.85772C13.3977 6.08287 13.5536 6.28364 13.7438 6.44857C13.9339 6.6135 14.1548 6.73935 14.3936 6.81893C14.6324 6.89852 14.8846 6.93029 15.1357 6.91243C15.3868 6.89457 15.6319 6.82742 15.8571 6.71482C16.0822 6.60222 16.283 6.44638 16.4479 6.25619C16.6128 6.066 16.7387 5.84519 16.8183 5.60636C16.8979 5.36753 16.9296 5.11537 16.9118 4.86426C16.8939 4.61316 16.8268 4.36803 16.7142 4.14288C16.4868 3.68816 16.088 3.3424 15.6057 3.18166ZM15.136 13.0878C14.8848 13.0699 14.6326 13.1017 14.3938 13.1814C13.9113 13.3422 13.5126 13.688 13.2851 14.1428C13.0577 14.5977 13.0203 15.1242 13.1811 15.6066C13.3419 16.089 13.6878 16.4878 14.1426 16.7152C14.5974 16.9426 15.124 16.98 15.6064 16.8192C16.0888 16.6584 16.4876 16.3126 16.715 15.8578C16.9424 15.4029 16.9798 14.8764 16.819 14.394C16.6582 13.9116 16.3123 13.5128 15.8575 13.2854C15.6323 13.1728 15.3871 13.1056 15.136 13.0878Z"></path>
  </symbol>
  <symbol xmlns="http://www.w3.org/2000/svg" viewBox="0 0 20 20" id="copy-link">
    <path fill-rule="evenodd" clip-rule="evenodd" d="M11.3647 2.9322C12.1254 2.1975 13.1442 1.79096 14.2017 1.80015C15.2592 1.80934 16.2709 2.23352 17.0187 2.98134C17.7665 3.72915 18.1907 4.74076 18.1998 5.79829C18.209 6.85581 17.8025 7.87464 17.0678 8.63534L17.0593 8.64409L13.7259 11.9773C12.9696 12.7335 11.9438 13.1583 10.8743 13.1583C9.8048 13.1583 8.77909 12.7336 8.02273 11.9774C7.74932 11.7041 7.74925 11.2609 8.02258 10.9875C8.2959 10.7141 8.73912 10.714 9.01253 10.9873C9.50635 11.481 10.176 11.7583 10.8743 11.7583C11.5725 11.7583 12.2422 11.481 12.736 10.9874C12.736 10.9874 12.736 10.9874 12.736 10.9874L16.0648 7.65863C16.5419 7.16242 16.8059 6.499 16.7999 5.81045C16.7939 5.12 16.517 4.45953 16.0287 3.97129C15.5405 3.48304 14.88 3.2061 14.1895 3.2001C13.501 3.19412 12.8376 3.45806 12.3414 3.93523L11.4293 4.84735C11.1559 5.12071 10.7127 5.12071 10.4393 4.84735C10.166 4.57398 10.166 4.13076 10.4393 3.8574L11.3647 2.9322ZM6.35606 7.94066C7.11242 7.18452 8.13813 6.75975 9.20763 6.75975C10.2771 6.75975 11.3028 7.18452 12.0592 7.94066C12.3326 8.21398 12.3327 8.6572 12.0593 8.93061C11.786 9.20401 11.3428 9.20408 11.0694 8.93076C10.5756 8.43708 9.90589 8.15975 9.20763 8.15975C8.5094 8.15975 7.83975 8.43705 7.34594 8.93068C7.34591 8.93071 7.34596 8.93066 7.34594 8.93068L4.004 12.2726C3.75249 12.5155 3.5518 12.806 3.41379 13.1273C3.27578 13.4486 3.20314 13.7941 3.2001 14.1438C3.19706 14.4934 3.26369 14.8402 3.3961 15.1638C3.5285 15.4874 3.72403 15.7815 3.97129 16.0287C4.21854 16.276 4.51255 16.4715 4.83618 16.6039C5.15981 16.7363 5.50656 16.8029 5.85622 16.7999C6.20587 16.7969 6.55141 16.7242 6.87269 16.5862C7.19397 16.4482 7.48454 16.2476 7.72746 15.9961L7.73613 15.9871L8.65454 15.0697C8.92804 14.7964 9.37125 14.7966 9.64449 15.0701C9.91774 15.3436 9.91754 15.7868 9.64404 16.0601L8.72991 16.9734C8.35877 17.3564 7.91534 17.662 7.42526 17.8725C6.93318 18.0839 6.40392 18.1952 5.86838 18.1998C5.33284 18.2045 4.80173 18.1025 4.30605 17.8997C3.81037 17.6969 3.36004 17.3974 2.98134 17.0187C2.60264 16.64 2.30315 16.1896 2.10035 15.694C1.89755 15.1983 1.7955 14.6672 1.80015 14.1316C1.80481 13.5961 1.91607 13.0668 2.12745 12.5747C2.338 12.0846 2.64368 11.6411 3.02677 11.2699L6.35606 7.94066Z"></path>
  </symbol>
  <symbol xmlns="http://www.w3.org/2000/svg" viewBox="0 0 20 20" id="qrcode">
    <path fill-rule="evenodd" clip-rule="evenodd" d="M3.08211 3.08113C3.36967 2.79358 3.75968 2.63203 4.16634 2.63203H5.83301C6.23967 2.63203 6.62968 2.79358 6.91724 3.08113C7.20479 3.36869 7.36634 3.7587 7.36634 4.16536V5.83203C7.36634 6.2387 7.20479 6.62871 6.91724 6.91626C6.62968 7.20382 6.23967 7.36536 5.83301 7.36536H4.16634C3.75968 7.36536 3.36967 7.20382 3.08211 6.91626C2.79456 6.62871 2.63301 6.2387 2.63301 5.83203V4.16536C2.63301 3.7587 2.79456 3.36869 3.08211 3.08113ZM4.16634 4.03203C4.13098 4.03203 4.09707 4.04608 4.07206 4.07108C4.04706 4.09609 4.03301 4.13 4.03301 4.16536V5.83203C4.03301 5.86739 4.04706 5.90131 4.07206 5.92631C4.09707 5.95132 4.13098 5.96536 4.16634 5.96536H5.83301C5.86837 5.96536 5.90228 5.95132 5.92729 5.92631C5.95229 5.90131 5.96634 5.86739 5.96634 5.83203V4.16536C5.96634 4.13 5.95229 4.09609 5.92729 4.07108C5.90228 4.04608 5.86837 4.03203 5.83301 4.03203H4.16634ZM9.99967 2.63203C10.3863 2.63203 10.6997 2.94543 10.6997 3.33203V4.16536C10.6997 4.55196 10.3863 4.86536 9.99967 4.86536C9.61307 4.86536 9.29967 4.55196 9.29967 4.16536V3.33203C9.29967 2.94543 9.61307 2.63203 9.99967 2.63203ZM13.0821 3.08113C13.3697 2.79358 13.7597 2.63203 14.1663 2.63203H15.833C16.2397 2.63203 16.6297 2.79358 16.9172 3.08113C17.2048 3.36869 17.3663 3.7587 17.3663 4.16536V5.83203C17.3663 6.2387 17.2048 6.6287 16.9172 6.91626C16.6297 7.20382 16.2397 7.36536 15.833 7.36536H14.1663C13.7597 7.36536 13.3697 7.20382 13.0821 6.91626C12.7946 6.6287 12.633 6.2387 12.633 5.83203V4.16536C12.633 3.7587 12.7946 3.36869 13.0821 3.08113ZM14.1663 4.03203C14.131 4.03203 14.0971 4.04608 14.0721 4.07108C14.0471 4.09609 14.033 4.13 14.033 4.16536V5.83203C14.033 5.86739 14.0471 5.90131 14.0721 5.92631C14.0971 5.95132 14.131 5.96536 14.1663 5.96536H15.833C15.8684 5.96536 15.9023 5.95132 15.9273 5.92631C15.9523 5.90131 15.9663 5.86739 15.9663 5.83203V4.16536C15.9663 4.13 15.9523 4.09609 15.9273 4.07108C15.9023 4.04608 15.8684 4.03203 15.833 4.03203H14.1663ZM9.99967 6.7987C10.3863 6.7987 10.6997 7.1121 10.6997 7.4987V9.2987H13.3413C13.7279 9.2987 14.0413 9.6121 14.0413 9.9987C14.0413 10.3853 13.7279 10.6987 13.3413 10.6987H9.99967C9.61307 10.6987 9.29967 10.3853 9.29967 9.9987V7.4987C9.29967 7.1121 9.61307 6.7987 9.99967 6.7987ZM2.63301 9.9987C2.63301 9.6121 2.94641 9.2987 3.33301 9.2987H6.66634C7.05294 9.2987 7.36634 9.6121 7.36634 9.9987C7.36634 10.3853 7.05294 10.6987 6.66634 10.6987H3.33301C2.94641 10.6987 2.63301 10.3853 2.63301 9.9987ZM15.9663 9.9987C15.9663 9.6121 16.2797 9.2987 16.6663 9.2987H16.6747C17.0613 9.2987 17.3747 9.6121 17.3747 9.9987C17.3747 10.3853 17.0613 10.6987 16.6747 10.6987H16.6663C16.2797 10.6987 15.9663 10.3853 15.9663 9.9987ZM3.08211 13.0811C3.36967 12.7936 3.75968 12.632 4.16634 12.632H5.83301C6.23967 12.632 6.62968 12.7936 6.91724 13.0811C7.20479 13.3687 7.36634 13.7587 7.36634 14.1654V15.832C7.36634 16.2387 7.20479 16.6287 6.91724 16.9163C6.62968 17.2038 6.23967 17.3654 5.83301 17.3654H4.16634C3.75968 17.3654 3.36967 17.2038 3.08211 16.9163C2.79456 16.6287 2.63301 16.2387 2.63301 15.832V14.1654C2.63301 13.7587 2.79456 13.3687 3.08211 13.0811ZM4.16634 14.032C4.13098 14.032 4.09706 14.0461 4.07206 14.0711C4.04706 14.0961 4.03301 14.13 4.03301 14.1654V15.832C4.03301 15.8674 4.04706 15.9013 4.07206 15.9263C4.09706 15.9513 4.13098 15.9654 4.16634 15.9654H5.83301C5.86837 15.9654 5.90228 15.9513 5.92729 15.9263C5.95229 15.9013 5.96634 15.8674 5.96634 15.832V14.1654C5.96634 14.13 5.95229 14.0961 5.92729 14.0711C5.90228 14.0461 5.86837 14.032 5.83301 14.032H4.16634ZM9.29967 13.332C9.29967 12.9454 9.61307 12.632 9.99967 12.632H11.6663C12.0529 12.632 12.3663 12.9454 12.3663 13.332C12.3663 13.7186 12.0529 14.032 11.6663 14.032H10.6997V16.6654C10.6997 17.052 10.3863 17.3654 9.99967 17.3654C9.61307 17.3654 9.29967 17.052 9.29967 16.6654V13.332ZM14.2997 13.332C14.2997 12.9454 14.6131 12.632 14.9997 12.632H16.6663C17.0529 12.632 17.3663 12.9454 17.3663 13.332C17.3663 13.7186 17.0529 14.032 16.6663 14.032H14.9997C14.6131 14.032 14.2997 13.7186 14.2997 13.332ZM12.633 16.6654C12.633 16.2788 12.9464 15.9654 13.333 15.9654H16.6663C17.0529 15.9654 17.3663 16.2788 17.3663 16.6654C17.3663 17.052 17.0529 17.3654 16.6663 17.3654H13.333C12.9464 17.3654 12.633 17.052 12.633 16.6654Z"></path>
  </symbol>
  <symbol xmlns="http://www.w3.org/2000/svg" viewBox="0 0 20 20" id="vk-social">
    <path d="M10.8038 15.5C4.65391 15.5 1.14616 11.3709 1 4.5H4.08057C4.18176 9.54304 6.45279 11.6792 8.25166 12.1196V4.5H11.1525V8.84935C12.9289 8.66216 14.795 6.68018 15.4246 4.5H18.3253C17.8419 7.18669 15.8181 9.16867 14.379 9.98348C15.8181 10.6441 18.123 12.3729 19 15.5H15.8069C15.1211 13.4079 13.4123 11.7893 11.1525 11.5691V15.5H10.8038Z"></path>
  </symbol>
</svg>