<svg width="126" height="32" viewBox="0 0 126 32" fill="none" xmlns="http://www.w3.org/2000/svg">
<g clip-path="url(#clip0_1114_8167)">
<path d="M32.9295 11.311C33.0569 11.3548 33.187 11.3746 33.3157 11.3746C33.8715 11.3746 34.4091 11.0158 34.5944 10.6049C34.5944 10.6049 33.5745 10.5428 32.4783 9.4314C32.129 9.0712 31.7598 8.96387 31.443 8.96387C30.9507 8.96387 30.5815 9.2237 30.5815 9.2237C31.9055 9.92704 32.1756 11.0568 32.9295 11.311Z" fill="white"/>
<path d="M2.5263 11.3746C2.65497 11.3746 2.78512 11.3548 2.90964 11.311C3.66631 11.0568 3.93789 9.92704 5.26185 9.2237C5.26185 9.2237 4.89118 8.96387 4.40182 8.96387C4.08357 8.96387 3.71438 9.0712 3.36358 9.4314C2.26886 10.5428 1.24902 10.6049 1.24902 10.6049C1.43149 11.0158 1.97039 11.3746 2.5263 11.3746Z" fill="white"/>
<path d="M14.5184 17.9574C14.7405 18.0379 15.0092 18.0549 15.1464 18.0549C15.1521 18.0379 15.1591 18.0167 15.1662 17.9913C15.1789 17.9503 15.1903 17.9109 15.1988 17.8656C15.237 17.6679 15.2511 17.4433 15.2539 17.2993C15.1605 17.2415 15.029 17.1383 14.9555 16.9844C14.8707 16.8065 14.7504 16.7246 14.5735 16.7246C14.3444 16.7246 14.0983 16.8616 13.9936 16.9265C13.9103 17.4194 14.2737 17.867 14.5184 17.9574Z" fill="white"/>
<path d="M14.0898 24.6923C14.0898 24.6923 14.5269 24.5129 14.5664 24.3844L14.5085 24.2389C14.4674 24.1443 14.4731 24.0412 14.5523 23.9847L15.0247 23.6585L15.814 23.8096C15.814 23.8096 15.6711 23.6316 15.6853 23.3931L14.9328 23.2334L14.2227 23.6655C13.9186 23.8929 13.896 24.2644 13.9964 24.4847L14.0898 24.6923Z" fill="white"/>
<path d="M19.668 26.745C19.8094 26.7393 19.965 26.7364 20.1362 26.7364C20.1362 26.7364 20.5421 25.5516 20.5647 25.5135C20.337 25.4132 19.8646 25.1633 19.6821 25.0488C19.8023 25.2283 20.0951 25.4345 20.0372 25.5926L19.668 26.745Z" fill="white"/>
<path d="M23.5318 19.7188H12.311V23.9328C12.311 25.6557 13.5601 26.7345 15.403 26.7345C16.9434 26.7345 17.3492 26.7939 17.9222 27.3617C18.3168 26.9689 18.6436 26.8221 19.314 26.767L19.3295 26.7021L19.6831 25.6105C19.6633 25.5865 19.0849 24.9297 19.0849 24.9297C18.8557 25.006 18.6634 25.0187 18.3395 25.0187C18.007 25.0187 17.6322 24.9806 17.2263 24.9044C17.1852 24.8944 17.1471 24.8916 17.1088 24.8916C17.0593 24.8916 17.0551 24.8959 17.0424 24.9199L16.9716 25.0357L16.8429 25.2476L16.6011 25.1925L15.5247 24.9397L15.3775 25.1825L15.4002 25.208L15.5317 25.352L15.4738 25.5398C15.3945 25.7855 15.1371 26.0723 15.0593 26.1513L14.7905 26.4394L14.5459 26.1302L14.362 25.9C14.1682 25.6839 14.123 25.352 14.2319 25.0046C14.229 25.0075 14.2247 25.0089 14.2206 25.0089L13.9165 25.1345L13.7792 24.838L13.6831 24.6275C13.5176 24.2576 13.5783 23.7168 14.024 23.3905L14.8911 22.9019L15.7157 23.0643C15.7355 22.9852 15.7651 22.7027 15.7892 22.6307C15.7736 22.6293 15.7581 22.6251 15.7425 22.6251L15.2673 22.8016L14.8089 22.4853C14.8089 22.4853 14.6293 22.313 14.7919 22.1407L15.2361 21.4698L14.1116 20.0605L15.84 20.7694L15.9547 20.6267L16.188 20.3486L16.4525 20.5999C16.5275 20.6719 16.5699 20.7609 16.5911 20.8499C17.0678 21.0349 17.9207 21.5814 17.9956 22.4697L17.7284 22.5771V22.5842C17.7892 22.6561 17.8401 22.6857 17.8556 22.6886L19.0891 22.81C19.1202 22.8044 19.1598 22.7903 19.2037 22.7776C19.3564 22.7253 19.587 22.6505 19.8599 22.6505C20.082 22.6505 20.2969 22.7013 20.5035 22.7973C20.5799 22.7691 20.6733 22.7479 20.7808 22.7408L20.8401 22.7394C21.5007 22.7394 21.8288 23.2323 22.092 23.6249C22.1358 23.6927 22.1796 23.7577 22.2249 23.8212C22.4554 24.146 22.7566 24.622 22.7694 24.6416L22.9052 24.8535L22.7383 25.0469C22.6096 25.1953 22.4172 25.3689 22.0863 25.3689C22.0184 25.3689 21.9434 25.3619 21.8628 25.3464C21.7921 25.3337 21.7284 25.3125 21.6662 25.287C21.6563 25.352 21.6436 25.4297 21.6308 25.4961L21.4144 26.623C22.7086 26.3053 23.5304 25.3295 23.5304 23.9342L23.5318 19.7188Z" fill="#FFDD2D"/>
<path d="M12.3116 19.3798H21.0373C20.6016 18.9307 20.6073 18.3616 20.7191 17.9916C20.5918 17.9308 20.4871 17.8574 20.3938 17.7783C20.0529 18.0297 19.0118 18.7867 18.7403 18.9758L18.6823 19.0155L15.2579 18.3969H15.1886C15.1066 18.3969 14.9864 18.3941 14.8548 18.3785C14.818 18.5325 14.6851 18.6384 14.5323 18.6384C14.5153 18.6384 14.4955 18.637 14.4771 18.6327C14.388 18.6172 14.3103 18.5719 14.2579 18.4972C14.2042 18.4237 14.183 18.3361 14.1985 18.2458L14.2112 18.1723C13.8576 17.9238 13.5323 17.3688 13.6766 16.7841L13.6907 16.722L13.7402 16.6867C13.7473 16.6811 13.8067 16.6415 13.8944 16.5907L13.6454 16.5525C13.5521 16.5356 13.4899 16.4494 13.5041 16.3577C13.5196 16.2645 13.6073 16.1981 13.6992 16.2164L14.2919 16.3096L14.3456 14.2252L15.2283 13.2931L15.7785 14.4498L15.1971 16.4551L15.7205 16.537C15.8124 16.5511 15.8761 16.6373 15.8619 16.7319C15.8477 16.8152 15.7771 16.8731 15.6936 16.8731C15.6851 16.8731 15.6752 16.8731 15.6667 16.8717L15.2409 16.8025C15.2466 16.8152 15.255 16.8223 15.2608 16.8365C15.306 16.9296 15.4065 16.9974 15.4658 17.0256L18.077 17.0666C18.1872 16.9592 18.4617 16.6909 18.7431 16.4071C18.101 16.1642 17.8676 15.6106 17.8279 15.2434C17.4687 15.0909 17.2212 14.8621 17.084 14.5641C16.917 14.1956 16.9765 13.827 17.0203 13.6476C16.6724 13.5205 16.3061 13.289 15.9326 12.9189H12.0005C12.1688 13.3709 12.3116 13.8609 12.3116 14.3481V19.3798Z" fill="#FFDD2D"/>
<path d="M15.9056 21.5473C15.8419 21.5416 15.7882 21.591 15.784 21.6532C15.7797 21.7181 15.8278 21.7732 15.8929 21.7746C15.955 21.7802 16.0103 21.7322 16.0159 21.6687C16.0159 21.6065 15.9707 21.5487 15.9056 21.5473Z" fill="#111827"/>
<path d="M23.5166 29.1888L22.8702 28.9417L23.0484 28.2751L23.245 27.5479C23.245 27.5479 22.0992 28.1677 20.4854 28.6338C20.0271 28.7651 19.6806 28.8244 19.6806 28.8244V29.3187C19.6806 29.3187 18.8178 29.4684 17.9451 29.4684H17.9351H17.9224H17.9054H17.8955C17.0229 29.4684 16.16 29.3187 16.16 29.3187V28.8244C16.16 28.8244 15.812 28.7651 15.3552 28.6338C13.7413 28.1677 12.597 27.5479 12.597 27.5479L12.7908 28.2751L12.9732 28.9417L12.3254 29.1888L11.6069 29.4571C12.4315 29.854 13.5729 30.4329 14.6183 30.7183L14.3722 31.3905C14.3722 31.3905 15.6975 31.9935 17.9054 31.9991V32.0005H17.9126H17.9224H17.931H17.9365V31.9991C20.1474 31.9935 21.4712 31.3905 21.4712 31.3905L21.2237 30.7183C22.2689 30.4329 23.4133 29.854 24.2337 29.4571L23.5166 29.1888ZM12.3735 29.5024L13.4372 29.1492L13.1232 28.1254C13.5913 28.3909 14.6424 28.7892 15.2505 28.9742L14.7371 30.3821C13.7978 30.1237 13.0157 29.8229 12.3735 29.5024ZM17.9224 31.646C16.6876 31.646 15.2774 31.3622 14.863 31.2153L15.4938 29.5108C16.0171 29.6633 17.1063 29.8258 17.8969 29.8201H17.8984H17.9224H17.9436H17.9465C18.7372 29.8258 19.8234 29.6633 20.3496 29.5108L20.979 31.2153C20.5646 31.3636 19.1558 31.646 17.9224 31.646ZM21.1049 30.3821L20.5929 28.9742C21.2025 28.7892 22.2505 28.3909 22.7202 28.1254L22.4076 29.1492L23.4699 29.5024C22.8263 29.8229 22.0483 30.1237 21.1049 30.3821Z" fill="#111827"/>
<path d="M17.9211 2.5829C19.2365 2.5829 20.2888 3.01782 20.8702 3.48247C20.8702 3.48247 21.0427 2.44452 21.6326 1.52796L20.5731 1.64804L20.0187 0.47161L18.9536 1.01957L17.9211 0L16.8914 1.01957L15.8249 0.47161L15.2718 1.64804L14.2124 1.52796C14.8022 2.44452 14.9748 3.48247 14.9748 3.48247C15.5575 3.01782 16.607 2.5829 17.9211 2.5829ZM15.2237 2.0604L15.5179 2.09141L15.6452 1.82459L16.0158 1.03369L16.7032 1.38818L16.9692 1.52378L17.1813 1.31472L17.9225 0.580367L18.6651 1.31472L18.8773 1.52378L19.1431 1.38818L19.8264 1.03369L20.2012 1.82459L20.3256 2.09141L20.6198 2.0604L20.8999 2.0265C20.7712 2.31598 20.6764 2.58996 20.6084 2.81731C19.8673 2.40496 18.9026 2.17054 17.9197 2.17054C16.9409 2.17054 15.9776 2.40496 15.2336 2.81731C15.1644 2.58996 15.071 2.31459 14.9422 2.0265L15.2237 2.0604Z" fill="#111827"/>
<path d="M33.3539 16.356C35.0555 16.356 35.6241 14.6275 35.6481 14.554L35.8376 13.9454L35.1997 13.9651H35.197C34.972 13.9651 33.0951 13.9157 31.7641 12.2268L31.6382 12.07C30.7683 10.9656 29.9437 9.91632 28.4698 9.43755C28.5123 9.39948 28.5731 9.35143 28.6566 9.29777C29.4387 8.78373 29.8942 8.15955 30.0087 7.43514C30.1757 6.3449 29.4798 5.47633 29.4487 5.44103L28.9748 4.85639L28.6792 5.54979C28.6594 5.59353 28.1614 6.70356 27.1148 6.70356H27.037C26.9649 6.69928 26.8969 6.69647 26.8291 6.69085C26.8659 6.19514 26.7753 5.42831 26.0795 4.70957C25.2435 3.8438 24.2166 3.71387 23.6792 3.71387C23.392 3.71387 23.2011 3.74926 23.1812 3.75204L22.4656 3.8933L22.9069 4.47366C23.2534 4.92131 23.5674 5.74751 23.1954 6.17962C23.0766 6.31666 22.8319 6.42821 22.5971 6.53975C22.1148 6.76151 21.457 7.06932 21.457 7.85456C21.457 8.36291 21.8517 8.89387 22.5674 9.34581C24.6863 10.6761 25.9931 12.0643 26.5575 13.5965C27.4302 15.9536 26.2916 17.298 25.1855 18.0055L24.6891 18.3246L25.1233 18.7229C25.1812 18.7737 25.7131 19.2412 26.4981 19.309C26.6467 19.3188 26.7894 19.3274 26.9225 19.3274C27.426 19.3274 27.8546 19.2482 28.2025 19.1424C28.1063 19.3104 27.9889 19.4812 27.8404 19.6535C27.2082 20.3851 26.4302 20.7183 25.3114 20.7353L24.8955 20.7424L24.863 21.1589C24.8587 21.2423 24.8277 22.0147 25.5603 22.6714C25.6721 22.7731 25.8079 22.8564 25.9493 22.9256C25.4528 23.3719 24.9479 24.1486 24.8503 25.4803C24.7683 26.5917 24.5023 27.0027 24.4995 27.007L24.0399 27.7074L24.8701 27.7187C26.2422 27.7187 27.2931 27.3402 28.0214 26.5917C28.4514 26.1482 28.6976 25.6484 28.8433 25.2049C29.0823 25.4083 29.3907 25.5863 29.7923 25.6808C29.9451 25.7161 30.1121 25.7359 30.2917 25.7359C30.6792 25.7359 31.0032 25.654 31.0399 25.6455L31.5703 25.5044L31.3355 25.0101C31.3185 24.9705 30.8758 23.9791 31.3524 22.5641C31.5576 21.9526 31.6622 21.4047 31.7131 20.9782C32.0469 21.1519 32.494 21.2959 33.0724 21.2974C34.385 21.2974 34.9635 20.3187 34.9904 20.2777L35.2492 19.8287L34.7698 19.631C33.2054 18.9827 32.8589 17.2415 32.7895 16.2981C32.931 16.3249 33.0923 16.3504 33.2747 16.356H33.3539ZM34.5944 20.0475C34.5944 20.0475 34.136 20.8426 33.0851 20.8426H33.0724C31.8108 20.8355 31.3015 20.0672 31.3015 20.0672C31.3015 20.0672 31.3751 21.0672 30.9197 22.4159C30.3723 24.0412 30.9239 25.2035 30.9239 25.2035C30.9239 25.2035 30.6297 25.2826 30.2903 25.2826C30.1602 25.2826 30.0243 25.2698 29.8971 25.2359C28.8433 24.986 28.5802 24.0286 28.5802 24.0286C28.5802 24.0286 28.6777 27.2639 24.8998 27.2639H24.8701C24.8701 27.2639 25.2025 26.812 25.3015 25.5114C25.4811 23.1107 27.1092 22.7816 27.1092 22.7816C27.1092 22.7816 26.2407 22.6728 25.8644 22.3353C25.276 21.8029 25.317 21.1872 25.317 21.1872C26.6467 21.1689 27.5166 20.7169 28.1799 19.9501C28.8985 19.1197 29.0172 18.2258 29.0172 18.2258C29.0172 18.2258 28.3029 18.8726 26.9211 18.8726C26.7994 18.8726 26.6693 18.8669 26.5363 18.8542C25.8828 18.802 25.4302 18.3868 25.4302 18.3868C26.8686 17.466 27.8786 15.8589 26.9833 13.4384C26.2662 11.4995 24.5434 10.0505 22.8093 8.95892C22.2321 8.59871 21.911 8.1991 21.911 7.85456C21.911 7.04396 23.0653 7.01846 23.5391 6.47345C24.085 5.84066 23.7427 4.81404 23.2689 4.19691C23.2689 4.19691 23.4288 4.1644 23.6806 4.1644C24.1798 4.1644 25.0441 4.29005 25.7541 5.02441C26.6976 5.99883 26.3057 7.05941 26.3057 7.05941L26.5589 7.10886C26.7104 7.14138 26.8602 7.147 27.0158 7.1541C27.0498 7.1541 27.0837 7.1555 27.1176 7.1555C28.4882 7.1555 29.1007 5.72485 29.1007 5.72485C29.1007 5.72485 30.5576 7.51416 28.4133 8.91508C28.0441 9.1551 27.8814 9.37693 27.9239 9.61414L27.9579 9.76952L28.1105 9.79635C29.665 10.2171 30.4515 11.2876 31.4119 12.5049C32.8701 14.3563 34.9339 14.4157 35.1884 14.4157H35.2153C35.2153 14.4157 34.7443 15.8999 33.3567 15.8999C33.3341 15.8999 33.3143 15.8999 33.2902 15.8985C32.6524 15.8759 32.3256 15.6316 32.3256 15.6316C32.3256 15.6316 32.0753 19.0025 34.5944 20.0475Z" fill="#111827"/>
<path d="M30.3655 9.62355C31.0005 9.96099 31.3697 10.4129 31.6936 10.8141C32.0118 11.2053 32.3145 11.5822 32.7868 11.739C32.9552 11.7969 33.1334 11.8238 33.3145 11.8238C34.0245 11.8238 34.7375 11.3902 35.0075 10.79L35.2791 10.1884L34.6215 10.1489C34.5903 10.1474 33.7445 10.0711 32.8025 9.10944C32.4149 8.71552 31.9467 8.50781 31.4417 8.50781C30.8251 8.50781 30.3682 8.81569 30.3173 8.8468L29.7119 9.27191L30.3655 9.62355ZM31.4432 8.96263C31.76 8.96263 32.1292 9.06989 32.4786 9.43003C33.5747 10.5415 34.5946 10.6036 34.5946 10.6036C34.4093 11.0132 33.8718 11.3732 33.3159 11.3732C33.1872 11.3732 33.0585 11.3535 32.9297 11.3097C32.1759 11.0555 31.9057 9.92573 30.5804 9.22246C30.5804 9.22246 30.951 8.96263 31.4432 8.96263Z" fill="#111827"/>
<path d="M30.6622 15.624V15.6466C30.2804 12.5708 28.0427 10.3494 25.5533 8.99783C25.3228 8.87498 25.1106 8.77052 24.9041 8.67022C25.6622 8.78738 26.8828 8.8015 27.8248 7.98535C27.8248 7.98535 26.3835 9.04447 23.4302 8.08278C24.2478 8.61234 25.8362 9.35944 27.286 10.5697C30.9112 13.7499 28.3171 16.8526 28.3171 16.8526C29.6198 15.4954 29.6735 14.0409 29.2903 12.8532C29.9762 13.9929 30.4147 15.3768 30.3468 17.0828C30.2464 19.5273 28.9013 21.6413 27.4853 23.3403C26.805 24.165 26.6523 25.1776 26.6523 25.1776C26.6523 25.1776 26.9267 24.2836 27.7145 23.3642C29.2322 21.5905 30.5292 19.7476 30.699 17.0927C30.856 17.5743 31.5024 18.9144 32.5279 19.4185C32.5307 19.42 31.2421 18.6447 30.6622 15.624Z" fill="#111827"/>
<path d="M11.3423 27.0059C11.3409 27.0017 11.0779 26.5908 10.993 25.4793C10.8941 24.1476 10.3904 23.3709 9.89257 22.9247C10.0369 22.8569 10.1698 22.7736 10.2816 22.6705C11.0128 22.0138 10.9817 21.2412 10.9774 21.1579L10.9491 20.7413L10.5304 20.7342C9.41451 20.7159 8.63506 20.3826 8.00285 19.6525C7.85575 19.4802 7.73697 19.3094 7.64077 19.1413C7.98865 19.2472 8.41442 19.3263 8.91939 19.3263C9.05523 19.3263 9.19526 19.3178 9.34376 19.308C10.1287 19.2402 10.6606 18.7742 10.72 18.7219L11.1542 18.3236L10.6578 18.0045C9.54741 17.2955 8.41302 15.9512 9.28433 13.5955C9.84866 12.0633 11.1542 10.6752 13.2759 9.34484C13.9916 8.89289 14.3834 8.36193 14.3834 7.85358C14.3834 7.06834 13.7271 6.75906 13.2448 6.53878C13.0099 6.42723 12.7653 6.31569 12.6465 6.17864C12.2731 5.74793 12.5884 4.92034 12.9336 4.47269L13.3777 3.89223L12.6592 3.75106C12.638 3.74818 12.4499 3.71289 12.1613 3.71289C11.6238 3.71289 10.5998 3.84282 9.76239 4.70849C9.06509 5.42872 8.97322 6.19557 9.00853 6.68987C8.94065 6.69549 8.87276 6.6983 8.80201 6.70258H8.72567C7.67615 6.70258 7.1797 5.59255 7.15992 5.54881L6.86419 4.85542L6.38613 5.44006C6.35929 5.47535 5.66058 6.34526 5.8303 7.43416C5.94344 8.15858 6.39886 8.78275 7.18103 9.29679C7.2659 9.35046 7.32533 9.3985 7.36777 9.43657C5.89537 9.91535 5.07214 10.966 4.20222 12.0704L4.07633 12.2272C2.74682 13.9162 0.865566 13.9655 0.640673 13.9655L0 13.9457L0.195131 14.5545C0.217776 14.6279 0.784964 16.3565 2.48791 16.3565L2.56999 16.3536C2.74959 16.3479 2.91089 16.3239 3.05519 16.2957C2.98438 17.2377 2.63784 18.9789 1.07207 19.6285L0.593993 19.8263L0.852905 20.2754C0.878325 20.3163 1.45826 21.2949 2.77363 21.2949C3.34793 21.2936 3.79486 21.1495 4.13012 20.9758C4.18105 21.4023 4.28569 21.9503 4.49081 22.5617C4.9675 23.9768 4.52334 24.9681 4.50633 25.0076L4.27155 25.5019L4.80342 25.6431C4.83874 25.6516 5.1655 25.7335 5.5516 25.7335C5.73268 25.7335 5.89962 25.7137 6.04958 25.6785C6.45269 25.5838 6.7638 25.4058 6.99996 25.2026C7.14426 25.6459 7.39182 26.1459 7.82045 26.5894C8.55019 27.3378 9.59971 27.7163 10.9718 27.7163L11.8035 27.705L11.3423 27.0059ZM10.9406 27.2643C7.16265 27.2643 7.25891 24.029 7.25891 24.029C7.25891 24.029 6.99583 24.9864 5.94205 25.2363C5.81616 25.2703 5.68175 25.283 5.55022 25.283C5.21079 25.283 4.91795 25.204 4.91795 25.204C4.91795 25.204 5.46675 24.0417 4.91934 22.4162C4.46678 21.0676 4.54035 20.0677 4.54035 20.0677C4.54035 20.0677 4.03251 20.8359 2.76947 20.843H2.75671C1.70581 20.843 1.24752 20.0479 1.24752 20.0479C3.76519 19.0043 3.51765 15.6347 3.51765 15.6347C3.51765 15.6347 3.19098 15.8777 2.5516 15.9016C2.52895 15.9032 2.50778 15.9032 2.48514 15.9032C1.0961 15.9032 0.62653 14.4189 0.62653 14.4189H0.654816C0.910861 14.4189 2.97172 14.3596 4.42998 12.5081C5.39039 11.2909 6.17821 10.2218 7.72984 9.79952L7.88539 9.77268L7.91944 9.61738C7.96188 9.3801 7.80059 9.15841 7.43146 8.91832C5.28715 7.51593 6.74401 5.72815 6.74401 5.72815C6.74401 5.72815 7.35364 7.15727 8.72706 7.15727C8.76097 7.15727 8.79215 7.15586 8.82746 7.15586C8.98161 7.14743 9.13444 7.14174 9.28433 7.10929L9.53755 7.05984C9.53755 7.05984 9.1457 5.99925 10.0906 5.02491C10.8007 4.28908 11.6648 4.16481 12.1627 4.16481C12.4159 4.16481 12.5729 4.19732 12.5729 4.19732C12.1005 4.81586 11.7582 5.84108 12.3041 6.4738C12.7766 7.01748 13.9294 7.04432 13.9294 7.85492C13.9294 8.19812 13.6083 8.59914 13.0313 8.95927C11.2956 10.0509 9.57293 11.4999 8.85717 13.4388C7.96328 15.8593 8.97176 17.465 10.4131 18.3871C10.4131 18.3871 9.96045 18.8024 9.30559 18.8547C9.17261 18.8673 9.04391 18.873 8.91939 18.873C7.53891 18.873 6.82462 18.2262 6.82462 18.2262C6.82462 18.2262 6.9434 19.1201 7.65776 19.9505C8.32535 20.7174 9.19526 21.1693 10.5248 21.1876C10.5248 21.1876 10.5673 21.8033 9.97884 22.3357C9.60124 22.6719 8.73266 22.782 8.73266 22.782C8.73266 22.782 10.3622 23.1111 10.5404 25.5118C10.638 26.8125 10.9675 27.2643 10.9675 27.2643H10.9406Z" fill="#111827"/>
<path d="M2.52631 11.8262C2.70878 11.8262 2.88699 11.7994 3.05523 11.7415C3.53053 11.5847 3.83178 11.2076 4.15003 10.8165C4.47541 10.4154 4.84173 9.96357 5.47677 9.62605L6.1303 9.27582L5.52345 8.85071C5.47252 8.81819 5.01708 8.51172 4.40183 8.51172C3.89547 8.51172 3.42589 8.71795 3.0397 9.11335C2.09768 10.0737 1.25328 10.1513 1.22213 10.1527L0.564453 10.1909L0.834642 10.7939C1.10612 11.3913 1.8176 11.8262 2.52631 11.8262ZM3.36359 9.43246C3.71438 9.0724 4.08357 8.96507 4.40183 8.96507C4.89118 8.96507 5.26176 9.22489 5.26176 9.22489C3.93789 9.92964 3.66632 11.0579 2.90955 11.3122C2.78513 11.356 2.65498 11.3758 2.52631 11.3758C1.9704 11.3758 1.43289 11.017 1.24903 10.606C1.24903 10.6047 2.2674 10.5425 3.36359 9.43246Z" fill="#111827"/>
<path d="M5.49549 17.0847C5.42478 15.3788 5.8633 13.9948 6.55066 12.8552C6.16733 14.0429 6.2197 15.4974 7.52383 16.8546C7.52383 16.8546 4.92969 13.752 8.55629 10.5716C10.0076 9.36139 11.5946 8.61429 12.4107 8.08473C9.45878 9.04642 8.01741 7.9873 8.01741 7.9873C8.9594 8.8036 10.1801 8.78941 10.9383 8.67077C10.7332 8.77107 10.5182 8.87559 10.2904 8.99845C7.79824 10.3499 5.56196 12.5713 5.17862 15.6471V15.6231C4.60016 18.6438 3.31299 19.4191 3.31299 19.4191C4.33709 18.915 4.98211 17.5762 5.13906 17.0932C5.31025 19.7481 6.60722 21.5911 8.12494 23.3648C8.91277 24.2842 9.19004 25.1781 9.19004 25.1781C9.19004 25.1781 9.03589 24.1655 8.35271 23.3408C6.93965 21.6448 5.59449 19.5292 5.49549 17.0847Z" fill="#111827"/>
<path d="M17.0684 10.8604V11.4704C17.2791 11.2148 17.6865 11.267 17.6865 11.267V12.1468C17.6865 12.1468 17.6723 12.5789 17.5182 12.7668H17.9595H18.3993C18.2481 12.5805 18.2324 12.1468 18.2324 12.1468V11.267C18.2324 11.267 18.6398 11.2148 18.8492 11.4704V10.8604H17.9595H17.0684Z" fill="#111827"/>
<path d="M16.6891 7.24262C16.9705 7.46571 17.1332 7.50252 17.1389 7.50667L17.2492 7.55759V6.98279L16.2139 6.54785C16.2139 6.54926 16.2237 6.88108 16.6891 7.24262Z" fill="#111827"/>
<path d="M19.1519 7.24262C19.6201 6.88108 19.6286 6.54785 19.6286 6.54785L18.5933 6.98279V7.55759L18.7021 7.50667C18.7092 7.50252 18.8705 7.46571 19.1519 7.24262Z" fill="#111827"/>
<path d="M21.0168 4.90323C21.0168 4.0319 19.5472 3.24805 17.9248 3.24805H17.9234H17.9192H17.915C16.2926 3.24805 14.823 4.0319 14.823 4.90323L14.8556 5.11787L15.5033 8.83055L14.8528 9.20761L13.1695 10.1891H13.1752C13.1752 10.1891 12.7962 10.3826 12.6207 10.5025C11.98 10.9475 11.8443 11.5957 12.2162 11.864C12.3082 11.3358 12.7268 10.7822 13.5104 10.7822C14.0748 10.7822 14.5048 11.0732 14.8528 11.5095C14.9418 11.6197 15.0267 11.7368 15.1059 11.864C15.2035 12.0236 15.301 12.1634 15.3987 12.2989H11.0635C11.3817 12.9386 11.6844 13.6165 11.6844 14.3523V23.9327C11.6844 26.2515 13.4708 27.3588 15.4029 27.3588C16.8966 27.3588 17.0975 27.291 17.9221 28.11C18.7425 27.2896 18.9433 27.3588 20.4384 27.3588C22.3719 27.3588 24.1555 26.2515 24.1555 23.9327V14.3523C24.1555 13.6165 24.4583 12.9386 24.7779 12.2989H20.4412C20.5374 12.1648 20.635 12.0236 20.7325 11.864C20.8132 11.7368 20.8966 11.6197 20.9843 11.5095C21.3351 11.0717 21.7636 10.7822 22.328 10.7822C23.1116 10.7822 23.5289 11.3344 23.6222 11.864C23.9943 11.5957 23.8599 10.9475 23.2149 10.5025C23.0423 10.3826 22.6632 10.1891 22.6632 10.1891H22.6689L20.9857 9.20761L20.3379 8.83055L20.9857 5.11787L21.0168 4.90323ZM15.4609 5.33537L17.7382 6.10639V9.67782L16.0621 8.79529L15.4609 5.33537ZM15.9319 12.9217C16.3054 13.2931 16.6717 13.5234 17.0196 13.6504C16.9743 13.8297 16.915 14.1998 17.0833 14.5684C17.2205 14.8649 17.4694 15.0937 17.8272 15.2462C17.8669 15.6134 18.0989 16.1656 18.7425 16.4099C18.461 16.6938 18.1865 16.9606 18.0748 17.0693L15.4651 17.0284C15.4058 16.9988 15.3053 16.9323 15.2601 16.8378C15.2544 16.8251 15.246 16.8181 15.2418 16.8039L15.6674 16.8731C15.6774 16.8745 15.6858 16.8745 15.6943 16.8745C15.7764 16.8745 15.8485 16.8181 15.8626 16.7333C15.8768 16.6387 15.8132 16.5525 15.7212 16.5384L15.1979 16.4565L15.7792 14.4526L15.229 13.2959L14.3464 14.228L14.2926 16.3125L13.7 16.2192C13.608 16.2009 13.5203 16.2687 13.5048 16.3604C13.4906 16.4522 13.5528 16.5384 13.6462 16.5553L13.8951 16.5935C13.8061 16.6443 13.7481 16.6838 13.741 16.6895L13.69 16.7248L13.6759 16.7869C13.5316 17.3716 13.8583 17.9266 14.2106 18.1751L14.1978 18.2486C14.1837 18.339 14.2035 18.4265 14.2573 18.5C14.3082 18.5748 14.3874 18.62 14.475 18.6356C14.4935 18.6383 14.5132 18.6397 14.5303 18.6397C14.683 18.6397 14.816 18.5339 14.8542 18.3799C14.9857 18.3955 15.1059 18.3982 15.1879 18.3982H15.2573L18.6816 19.0154L18.7396 18.9773C19.0125 18.7867 20.0522 18.0297 20.3931 17.7798C20.4864 17.8603 20.5911 17.9337 20.7184 17.9944C20.6081 18.3644 20.601 18.9335 21.0381 19.3826H12.311V14.3537C12.311 13.8665 12.1682 13.3765 11.9998 12.9245H15.9319V12.9217ZM20.1639 17.5227C19.8174 17.7769 18.9263 18.4265 18.6038 18.6525L15.492 18.0947C15.4992 18.0664 15.5062 18.0396 15.5133 18.0114C15.5543 17.8504 15.5953 17.63 15.5982 17.3716L18.2134 17.414L18.2629 17.3632C18.3026 17.3235 19.1315 16.5243 19.5543 16.0639C19.6547 16.1896 19.7806 16.3096 19.9447 16.4155C19.8881 16.7205 19.9122 17.1555 20.1639 17.5227ZM14.9546 16.9847C15.0281 17.1386 15.161 17.2416 15.253 17.2996C15.2502 17.4436 15.236 17.6682 15.1979 17.8658C15.1893 17.9097 15.1781 17.9507 15.1653 17.9916C15.1583 18.017 15.1512 18.0381 15.1455 18.0551C15.0083 18.0551 14.7381 18.0381 14.5175 17.9577C14.2729 17.8674 13.9079 17.4196 13.9927 16.9268C14.0988 16.8618 14.3435 16.7248 14.5727 16.7248C14.7495 16.7234 14.8697 16.8067 14.9546 16.9847ZM14.6307 16.3647L14.683 14.3636L15.1328 13.8877L15.4157 14.478L14.8584 16.3986L14.6307 16.3647ZM20.1357 26.7387C19.9659 26.7387 19.8089 26.7416 19.6675 26.7472L20.0381 25.5963C20.0961 25.4368 19.8032 25.232 19.683 25.0526C19.8655 25.167 20.3379 25.417 20.5657 25.5172C20.5416 25.5539 20.1357 26.7387 20.1357 26.7387ZM21.2983 25.4311L21.0565 26.6908C20.9023 26.7119 20.7382 26.7233 20.5699 26.7303L20.8245 25.5186C20.9009 25.1586 19.932 25.047 19.454 24.3395C19.2205 24.6021 18.7806 24.6798 18.3393 24.6798C17.9362 24.6798 17.5331 24.6149 17.2884 24.5668C17.2261 24.5569 17.1667 24.5498 17.1088 24.5498C16.9673 24.5498 16.8386 24.5937 16.7495 24.7433L16.6787 24.862L15.3591 24.5513L15.031 25.0936C14.9843 25.1811 14.9814 25.256 15.0564 25.3379L15.1455 25.4353C15.0847 25.6274 14.8103 25.9168 14.8103 25.9168L14.6137 25.6726C14.458 25.4989 14.4836 25.1825 14.6463 24.8888L15.1695 24.0061L16.287 24.1672L16.113 23.7717C15.8796 23.2492 16.2347 22.5841 16.2728 22.2013C16.2601 22.3172 16.154 22.3426 16.0295 22.3426C15.9164 22.3426 15.7905 22.3214 15.707 22.3214C15.6745 22.3214 15.6462 22.3243 15.6307 22.3356L15.328 22.519L15.0889 22.3087C15.0606 22.2678 15.0508 22.1731 15.1214 22.1025L15.6745 21.484L15.0211 20.7228L15.9362 21.1818L16.2148 20.8442C16.2913 20.919 16.2587 21.1154 16.2587 21.1154C16.5444 21.1225 17.3449 21.5644 17.3874 22.5954C17.3902 22.6264 17.3902 22.6617 17.3902 22.6956C17.3902 22.6956 17.3974 22.7083 17.4115 22.7295C17.468 22.8072 17.6236 23.0063 17.8216 23.0246L19.0861 23.1489H19.0917C19.2304 23.1489 19.5063 22.9866 19.8598 22.9866C20.0522 22.9866 20.2672 23.036 20.4963 23.18C20.4963 23.18 20.6109 23.0897 20.7976 23.0797C20.8117 23.0784 20.8274 23.0784 20.8415 23.0784C21.4087 23.0784 21.6435 23.5895 21.9476 24.0146C22.1767 24.338 22.4823 24.8182 22.4823 24.8182C22.3691 24.9523 22.2643 25.0258 22.089 25.0258C22.041 25.0258 21.9857 25.0215 21.9263 25.0102C21.3181 24.8987 21.2305 23.6503 20.8839 23.5515C20.8655 23.5458 20.8458 23.5444 20.8287 23.5444C20.717 23.5444 20.6676 23.6432 20.6676 23.6432C20.8258 24.0683 20.734 24.2405 20.9037 24.5682C21.031 24.8111 21.2573 25.0117 21.3506 25.1062C21.3506 25.1091 21.3252 25.2927 21.2983 25.4311ZM14.5076 24.2391L14.5656 24.3846C14.5274 24.5118 14.089 24.6925 14.089 24.6925L13.9941 24.4863C13.8937 24.266 13.9149 23.8946 14.2205 23.6672L14.9305 23.2351L15.683 23.3947C15.6689 23.6334 15.8117 23.8113 15.8117 23.8113L15.0224 23.6602L14.5501 23.9863C14.4708 24.0415 14.4652 24.1445 14.5076 24.2391ZM21.4172 26.6216L21.6336 25.4947C21.6449 25.4282 21.659 25.3506 21.6689 25.2857C21.7297 25.311 21.7948 25.3322 21.8655 25.3449C21.9461 25.3604 22.0211 25.3675 22.089 25.3675C22.42 25.3675 22.6124 25.1938 22.7411 25.0456L22.908 24.852L22.7722 24.6402C22.7595 24.619 22.4596 24.1445 22.2276 23.8197C22.1823 23.7562 22.1384 23.6926 22.0947 23.6234C21.8316 23.2309 21.502 22.738 20.8415 22.738L20.7821 22.7394C20.6731 22.7465 20.5798 22.7677 20.5049 22.7959C20.2969 22.6985 20.0833 22.649 19.8612 22.649C19.5883 22.649 19.3577 22.7239 19.2049 22.7761C19.1611 22.7888 19.1215 22.803 19.0904 22.8086L17.8556 22.6872C17.84 22.6843 17.7891 22.6547 17.7282 22.5812V22.5757L17.9956 22.4683C17.9206 21.58 17.0663 21.0335 16.5897 20.8485C16.5685 20.7595 16.526 20.6705 16.4511 20.5985L16.1852 20.3471L15.9517 20.6268L15.8372 20.7694L14.1088 20.0604L15.2332 21.4699L14.7891 22.1406C14.6264 22.3129 14.8061 22.4852 14.8061 22.4852L15.2643 22.8001L15.7396 22.6236C15.7565 22.6236 15.7707 22.6278 15.7862 22.6293C15.7637 22.7013 15.7339 22.9837 15.7141 23.0629L14.8895 22.9004L14.0224 23.389C13.5769 23.7153 13.5161 24.2561 13.6816 24.6261L13.7777 24.8366L13.9149 25.1331L14.2176 25.0074C14.2219 25.0061 14.2262 25.0047 14.2289 25.0018C14.12 25.3492 14.1639 25.6796 14.3591 25.8972L14.5429 26.1287L14.7877 26.438L15.0564 26.1499C15.1356 26.0708 15.3917 25.7841 15.4709 25.5384L15.5288 25.3506L15.3973 25.2065L15.3761 25.1811L15.5232 24.9382L16.5995 25.191L16.8414 25.2461L16.9701 25.0343L17.0409 24.9185C17.0536 24.8945 17.0578 24.8902 17.1074 24.8902C17.1455 24.8902 17.1837 24.8945 17.2247 24.9029C17.6307 24.9792 18.0055 25.0173 18.3379 25.0173C18.6604 25.0173 18.8527 25.0046 19.0833 24.9283C19.0833 24.9283 19.6618 25.5836 19.6816 25.6091L19.328 26.6992L19.3124 26.7656C18.642 26.8193 18.3153 26.9661 17.9206 27.3602C17.3478 26.7925 16.9418 26.7331 15.4016 26.7331C13.5585 26.7331 12.3096 25.6542 12.3096 23.9313V19.7187H23.5289L23.5318 23.9313C23.5331 25.3294 22.7114 26.3039 21.4172 26.6216ZM23.8429 12.9217C23.6718 13.3736 23.5289 13.8637 23.5289 14.3509L23.5304 17.4944C22.8726 17.3843 22.7948 16.6768 22.792 16.6458L22.7792 16.5017L22.6378 16.489C22.3521 16.4621 22.1626 16.3407 22.0027 16.1853C21.6802 15.8634 21.6788 15.3408 21.6802 15.3366C21.676 15.3635 21.3252 15.8535 21.7326 16.3887C21.9037 16.6146 22.1512 16.753 22.4723 16.8081C22.5473 17.2007 22.8401 17.7543 23.5304 17.839V19.3783H21.5897C20.6943 18.8812 21.0734 18.0057 21.0918 17.9689L21.1682 17.8023L20.9971 17.7374C20.0281 17.3786 20.2941 16.4128 20.3082 16.3718L20.3478 16.2306L20.2163 16.1684C19.4156 15.7984 19.5246 14.8 19.5346 14.759C19.2884 14.9582 19.1993 15.3649 19.369 15.7631C19.2771 15.8676 19.1541 15.9947 19.0197 16.1331C18.1908 15.9227 18.1654 15.1615 18.1654 15.1262L18.1639 15.009L18.055 14.9666C17.7311 14.8466 17.509 14.6672 17.4001 14.4257C17.2771 14.1588 17.3209 13.8792 17.3549 13.7451C17.4497 13.7662 17.5444 13.7818 17.6349 13.7888C17.7282 13.7987 17.8244 13.8044 17.9206 13.8044H17.9263H17.9334C18.0296 13.8044 18.1244 13.7987 18.2177 13.7888C18.7339 13.738 19.3125 13.5163 19.915 12.9204H23.8429V12.9217ZM20.8188 9.74427L21.5854 10.1891H21.5968L21.7892 10.3007C21.3563 10.4208 21.0254 10.6368 20.7482 10.9206C20.7382 10.9291 20.7284 10.9404 20.7184 10.9503C20.6548 11.0181 20.5911 11.0915 20.5317 11.1663C20.5204 11.1805 20.5091 11.196 20.4963 11.2116C20.4369 11.2878 20.3818 11.3655 20.328 11.4474C20.3195 11.4615 20.3096 11.4756 20.2998 11.4883C20.2361 11.5829 20.1753 11.6847 20.1145 11.7892C19.5685 12.7283 18.6972 13.2889 17.9221 13.2903C17.1484 13.2889 16.2771 12.7283 15.7311 11.7892C15.6717 11.6875 15.6123 11.5886 15.5486 11.4926C15.5359 11.4742 15.5246 11.4558 15.5133 11.4403C15.4595 11.3627 15.4058 11.2864 15.3506 11.2144C15.3365 11.1946 15.3237 11.179 15.3096 11.1622C15.2502 11.09 15.1893 11.0181 15.1285 10.9517C15.1159 10.9418 15.1073 10.9291 15.0946 10.9178C14.816 10.634 14.4864 10.4192 14.0521 10.3007L14.2473 10.1891H14.2558L15.0224 9.74427L15.8103 9.29373L17.915 10.4376L17.9192 10.4333L17.9248 10.4376L20.0295 9.29373L20.8188 9.74427ZM19.7806 8.79669L18.1031 9.67922V6.10639L20.379 5.33537L19.7806 8.79669ZM17.9206 5.71384L15.4256 4.72947C15.6377 4.22814 16.6165 3.80167 17.9206 3.80027C19.2262 3.80167 20.2049 4.22814 20.4157 4.72947L17.9206 5.71384Z" fill="#111827"/>
<path d="M48.8128 20.645V15.031H52.1039V12.9881H43.1255V15.031H46.4165V20.645H48.8128ZM55.3794 17.4439V12.9881H53.0629V20.645H55.1079L59.1017 16.1892V20.645H61.4183V12.9881H59.3733L55.3794 17.4439ZM69.2115 17.7978V20.645H71.528V12.9881H69.2115V15.7869H65.4891V12.9881H63.1727V20.645H65.4891V17.7978H69.2115ZM77.9792 20.645C78.5064 20.645 78.9857 20.5968 79.433 20.468C80.6312 20.1302 81.4141 19.149 81.4141 17.8138C81.4141 16.5431 80.743 15.6584 79.6727 15.2561C79.1615 15.0632 78.5544 15.047 77.9792 15.047H75.5988V12.9881H73.2823V20.645H77.9792ZM77.5799 16.8487C77.8993 16.8487 78.2028 16.8487 78.4745 16.9453C78.8579 17.0739 79.0815 17.3956 79.0815 17.7817C79.0815 18.1839 78.8579 18.5217 78.4904 18.6825C78.2348 18.7951 77.9792 18.7951 77.5799 18.7951H75.5988V16.8487H77.5799ZM85.5675 17.7495L88.3313 20.645H91.4146L87.5645 16.6557L91.2708 12.9881H88.3633L85.5675 15.8675H84.9285V12.9881H82.6119V20.645H84.9285V17.7495H85.5675ZM96.1812 12.7789C93.0659 12.7789 91.1967 14.5483 91.1967 16.8326C91.1967 19.1169 93.0659 20.8863 96.1812 20.8863C99.2804 20.8863 101.15 19.1169 101.15 16.8326C101.15 14.5483 99.2804 12.7789 96.1812 12.7789ZM96.1812 19.0204C94.6315 19.0204 93.641 18.0873 93.641 16.8326C93.641 15.5779 94.6315 14.661 96.1812 14.661C97.7148 14.661 98.7213 15.5779 98.7213 16.8326C98.7213 18.0873 97.7148 19.0204 96.1812 19.0204ZM108.864 12.5537H106.548V13.3258C103.64 13.3902 101.899 14.6288 101.899 16.8165C101.899 19.0042 103.64 20.1464 106.548 20.2107V20.9828H108.864V20.2107C111.788 20.1464 113.529 19.0042 113.529 16.8165C113.529 14.6288 111.788 13.3902 108.864 13.3258V12.5537ZM106.548 18.5699C104.95 18.5055 104.247 17.8461 104.247 16.8165C104.247 15.7869 104.95 15.047 106.548 14.9827V18.5699ZM108.864 14.9827C110.478 15.047 111.165 15.7869 111.165 16.8165C111.165 17.8461 110.478 18.5055 108.864 18.5699V14.9827ZM121.236 12.5537H118.92V13.3258C116.012 13.3902 114.271 14.6288 114.271 16.8165C114.271 19.0042 116.012 20.1464 118.92 20.2107V20.9828H121.236V20.2107C124.159 20.1464 125.901 19.0042 125.901 16.8165C125.901 14.6288 124.159 13.3902 121.236 13.3258V12.5537ZM118.92 18.5699C117.322 18.5055 116.619 17.8461 116.619 16.8165C116.619 15.7869 117.322 15.047 118.92 14.9827V18.5699ZM121.236 14.9827C122.85 15.047 123.537 15.7869 123.537 16.8165C123.537 17.8461 122.85 18.5055 121.236 18.5699V14.9827Z" fill="#111827"/>
</g>
<defs>
<clipPath id="clip0_1114_8167">
<rect width="126" height="32" fill="white"/>
</clipPath>
</defs>
</svg>
