<svg width="14" height="14" viewBox="0 0 14 14" fill="none" xmlns="http://www.w3.org/2000/svg">
<path d="M6.90141 14C3.05634 14 0 10.902 0 7.10435V0.60844C0 0.308629 0.295775 0.00881742 0.59155 0.00881742H2.40845C2.70423 0.00881742 3 0.308629 3 0.60844V7.10435C3 9.10309 4.92958 11.0019 7 11.0019C9.07042 11.0019 11 9.10309 11 7.10435V0.599589C11 0.299778 11.2958 -3.3896e-05 11.5915 -3.3896e-05L13.4085 0.00881742C13.7042 0.00881742 14 0.308629 14 0.60844V7.10435C13.8028 10.902 10.7465 14 6.90141 14Z" fill="white"/>
<path d="M9 7.00437C9 8.10825 8.10457 9.00311 7 9.00311C5.89543 9.00311 5 8.10825 5 7.00437C5 5.9005 5.89543 5.00563 7 5.00563C8.10457 5.00563 9 5.9005 9 7.00437Z" fill="white"/>
</svg>
