<svg width="348" height="240" viewBox="0 0 348 240" fill="none" xmlns="http://www.w3.org/2000/svg">
<rect width="348" height="240" rx="16" fill="white"/>
<rect x="24" y="157" width="300" height="59" rx="19" fill="#EDEDF2"/>
<path d="M19 216.309C24 211.309 24 208.5 24 197.5L31.5 211.872C30.0068 213.306 27.6006 216.309 19 216.309Z" fill="#EDEDF2"/>
<path d="M41.6709 181H43.4346V172.619H46.4766V171.136H38.6357V172.619H41.6709V181Z" fill="#111827"/>
<path d="M48.3828 172.277C48.9365 172.277 49.3945 171.833 49.3945 171.272C49.3945 170.719 48.9365 170.268 48.3828 170.268C47.8223 170.268 47.3643 170.719 47.3643 171.272C47.3643 171.833 47.8223 172.277 48.3828 172.277ZM47.5283 181H49.2305V173.528H47.5283V181Z" fill="#111827"/>
<path d="M50.8223 181H52.5244V176.646C52.5244 175.524 53.1533 174.813 54.165 174.813C55.1973 174.813 55.6689 175.401 55.6689 176.563V181H57.3711V176.167C57.3711 174.39 56.4619 173.385 54.7939 173.385C53.7139 173.385 52.9961 173.87 52.6406 174.67H52.5244V173.528H50.8223V181Z" fill="#111827"/>
<path d="M58.9492 181H60.6514V178.375L61.2461 177.767L63.6455 181H65.6963L62.4834 176.687L65.4912 173.528H63.5225L60.7676 176.591H60.6514V170.637H58.9492V181Z" fill="#111827"/>
<path d="M69.3184 181.15C71.5537 181.15 72.9141 179.688 72.9141 177.268V177.254C72.9141 174.848 71.5469 173.385 69.3184 173.385C67.0967 173.385 65.7227 174.854 65.7227 177.254V177.268C65.7227 179.688 67.0762 181.15 69.3184 181.15ZM69.3184 179.77C68.1357 179.77 67.459 178.847 67.459 177.274V177.261C67.459 175.688 68.1357 174.759 69.3184 174.759C70.4941 174.759 71.1709 175.688 71.1709 177.261V177.274C71.1709 178.847 70.501 179.77 69.3184 179.77Z" fill="#111827"/>
<path d="M74.6699 181H76.3721V174.848H77.9648V173.528H76.3447V172.886C76.3447 172.175 76.6523 171.792 77.4521 171.792C77.6914 171.792 77.9033 171.806 78.0332 171.826V170.637C77.7598 170.589 77.4521 170.568 77.0898 170.568C75.4287 170.568 74.6699 171.3 74.6699 172.79V173.528H73.4463V174.848H74.6699V181Z" fill="#111827"/>
<path d="M79.6934 181H81.3955V174.848H82.9883V173.528H81.3682V172.886C81.3682 172.175 81.6758 171.792 82.4756 171.792C82.7148 171.792 82.9268 171.806 83.0566 171.826V170.637C82.7832 170.589 82.4756 170.568 82.1133 170.568C80.4521 170.568 79.6934 171.3 79.6934 172.79V173.528H78.4697V174.848H79.6934V181Z" fill="#111827"/>
<path d="M87.5391 181H91.7568C93.8623 181 95.1475 179.934 95.1475 178.204V178.19C95.1475 176.912 94.2314 175.955 92.9053 175.832V175.709C93.8965 175.552 94.6621 174.636 94.6621 173.604V173.59C94.6621 172.079 93.5342 171.136 91.6611 171.136H87.5391V181ZM91.2305 172.51C92.2969 172.51 92.9189 173.022 92.9189 173.897V173.911C92.9189 174.807 92.2559 175.292 91.0049 175.292H89.3027V172.51H91.2305ZM91.2852 176.543C92.6318 176.543 93.3428 177.069 93.3428 178.067V178.081C93.3428 179.086 92.6523 179.626 91.3535 179.626H89.3027V176.543H91.2852Z" fill="#111827"/>
<path d="M98.4277 181.123C99.4121 181.123 100.205 180.699 100.615 179.975H100.731V181H102.413V175.894C102.413 174.314 101.333 173.385 99.4121 173.385C97.6348 173.385 96.4316 174.219 96.2676 175.477L96.2607 175.538H97.8672L97.874 175.511C98.0449 175.019 98.5508 174.738 99.3301 174.738C100.246 174.738 100.731 175.148 100.731 175.894V176.536L98.8105 176.652C96.9922 176.762 95.9736 177.541 95.9736 178.874V178.888C95.9736 180.248 97.0059 181.123 98.4277 181.123ZM97.6553 178.806V178.792C97.6553 178.177 98.0996 177.828 99.0498 177.767L100.731 177.657V178.259C100.731 179.147 99.9727 179.817 98.9473 179.817C98.1953 179.817 97.6553 179.441 97.6553 178.806Z" fill="#111827"/>
<path d="M103.957 181H105.659V176.646C105.659 175.524 106.288 174.813 107.3 174.813C108.332 174.813 108.804 175.401 108.804 176.563V181H110.506V176.167C110.506 174.39 109.597 173.385 107.929 173.385C106.849 173.385 106.131 173.87 105.775 174.67H105.659V173.528H103.957V181Z" fill="#111827"/>
<path d="M112.084 181H113.786V178.375L114.381 177.767L116.78 181H118.831L115.618 176.687L118.626 173.528H116.657L113.902 176.591H113.786V170.637H112.084V181Z" fill="#111827"/>
<path d="M42.1084 201H43.3252L46.9619 191.136H45.6699L42.7715 199.407H42.6621L39.7637 191.136H38.4717L42.1084 201Z" fill="#111827"/>
<path d="M48.4514 201H49.6819V191.136H48.4514V201Z" fill="#111827"/>
<path d="M55.1909 201.232C57.3921 201.232 58.8345 200.084 58.8345 198.238V198.231C58.8345 196.81 58.021 195.982 55.9634 195.524L54.8696 195.278C53.5298 194.984 52.9897 194.451 52.9897 193.665V193.658C52.9897 192.626 53.9399 192.045 55.1704 192.038C56.4555 192.031 57.2759 192.674 57.4126 193.542L57.4263 193.631H58.6567L58.6499 193.535C58.5473 192.065 57.1733 190.903 55.2046 190.903C53.1675 190.903 51.7388 192.059 51.7319 193.692V193.699C51.7319 195.128 52.5864 196.037 54.562 196.475L55.6557 196.714C57.0093 197.015 57.5766 197.575 57.5766 198.396V198.402C57.5766 199.407 56.5991 200.098 55.2593 200.098C53.8374 200.098 52.812 199.476 52.7231 198.491L52.7163 198.416H51.4858L51.4927 198.491C51.6362 200.098 53.0307 201.232 55.1909 201.232Z" fill="#111827"/>
<path d="M59.8591 201H61.1511L62.1423 198.177H66.0661L67.0573 201H68.3493L64.7126 191.136H63.4958L59.8591 201ZM64.0495 192.729H64.1589L65.7038 197.131H62.5046L64.0495 192.729Z" fill="#111827"/>
<path d="M75.7922 201H77.0227V191.136H75.799L73.174 193.022V194.321L75.6828 192.503H75.7922V201Z" fill="#111827"/>
<path d="M79.6332 201H86.018V199.893H81.3422V199.783L83.5844 197.466C85.3686 195.627 85.8539 194.807 85.8539 193.679V193.665C85.8539 192.072 84.5346 190.903 82.812 190.903C80.9252 190.903 79.5717 192.161 79.5649 193.911L79.5786 193.918L80.7543 193.925L80.7612 193.911C80.7612 192.749 81.5473 191.977 82.7299 191.977C83.892 191.977 84.5961 192.756 84.5961 193.795V193.809C84.5961 194.67 84.227 195.183 82.9692 196.543L79.6332 200.152V201Z" fill="#111827"/>
<path d="M91.1989 201.164C93.1745 201.164 94.6237 199.947 94.6237 198.3V198.286C94.6237 196.885 93.6462 195.989 92.2106 195.866V195.839C93.4411 195.579 94.3024 194.745 94.3024 193.528V193.515C94.3024 192.018 93.0651 190.972 91.1852 190.972C89.3395 190.972 88.068 192.045 87.9108 193.651L87.904 193.72H89.0866L89.0934 193.651C89.196 192.653 90.0231 192.038 91.1852 192.038C92.3884 192.038 93.0651 192.633 93.0651 193.665V193.679C93.0651 194.663 92.2448 195.388 91.069 195.388H89.8864V196.427H91.1237C92.5046 196.427 93.3727 197.104 93.3727 198.313V198.327C93.3727 199.373 92.4909 200.098 91.1989 200.098C89.8864 200.098 88.9909 199.428 88.8952 198.457L88.8884 198.389H87.7057L87.7126 198.471C87.8425 200.029 89.1618 201.164 91.1989 201.164Z" fill="#111827"/>
<path d="M100.885 201H102.088V198.956H103.489V197.855H102.088V191.136H100.304C98.9228 193.193 97.412 195.6 96.079 197.835V198.956H100.885V201ZM97.3368 197.862V197.78C98.4101 195.969 99.7021 193.932 100.809 192.277H100.892V197.862H97.3368Z" fill="#111827"/>
<path d="M104.377 203.509H105.259L106.332 199.619H104.972L104.377 203.509Z" fill="#111827"/>
<path d="M114.862 201.137C116.578 201.137 117.76 200.2 117.76 198.833V198.819C117.76 197.999 117.248 197.411 116.277 197.199V197.09C117.008 196.919 117.494 196.242 117.494 195.497V195.483C117.494 194.308 116.55 193.494 114.903 193.494C113.399 193.494 112.319 194.246 112.148 195.429L112.141 195.477H113.303L113.31 195.442C113.426 194.854 114.062 194.479 114.903 194.479C115.846 194.479 116.332 194.943 116.332 195.572V195.586C116.332 196.352 115.805 196.728 114.862 196.728H113.714V197.712H114.862C115.99 197.712 116.591 198.081 116.591 198.881V198.895C116.591 199.626 115.949 200.152 114.862 200.152C113.966 200.152 113.31 199.77 113.16 199.168L113.146 199.113H111.936L111.943 199.168C112.093 200.357 113.29 201.137 114.862 201.137Z" fill="#111827"/>
<path d="M121.526 201.13C122.517 201.13 123.29 200.699 123.755 199.913H123.864V201H125.054V195.955C125.054 194.424 124.049 193.501 122.251 193.501C120.679 193.501 119.558 194.28 119.366 195.436L119.359 195.477H120.549L120.556 195.456C120.747 194.882 121.328 194.554 122.21 194.554C123.31 194.554 123.864 195.046 123.864 195.955V196.625L121.752 196.755C120.036 196.857 119.065 197.616 119.065 198.929V198.942C119.065 200.282 120.125 201.13 121.526 201.13ZM120.282 198.915V198.901C120.282 198.17 120.774 197.773 121.895 197.705L123.864 197.582V198.252C123.864 199.305 122.982 200.098 121.772 200.098C120.918 200.098 120.282 199.66 120.282 198.915Z" fill="#111827"/>
<path d="M132.736 201V193.631H131.547V196.741C131.239 197.083 130.604 197.322 129.681 197.322C128.676 197.322 128.17 196.707 128.17 195.736V193.631H126.981V195.736C126.981 197.309 127.903 198.375 129.681 198.375C130.474 198.375 131.041 198.211 131.438 197.931H131.547V201H132.736Z" fill="#111827"/>
<path d="M134.834 201H136.024L139.667 195.504H139.777V201H140.966V193.631H139.777L136.133 199.127H136.024V193.631H134.834V201Z" fill="#111827"/>
<path d="M146.092 201.13C147.863 201.13 148.854 200.18 149.155 198.847L149.169 198.771L147.993 198.778L147.979 198.819C147.706 199.64 147.077 200.077 146.086 200.077C144.773 200.077 143.925 198.99 143.925 197.295V197.281C143.925 195.62 144.759 194.554 146.086 194.554C147.145 194.554 147.801 195.142 147.986 195.866L147.993 195.887H149.175L149.169 195.846C148.95 194.533 147.877 193.501 146.086 193.501C144.021 193.501 142.709 194.991 142.709 197.281V197.295C142.709 199.633 144.028 201.13 146.092 201.13Z" fill="#111827"/>
<path d="M152.531 198.115L152.805 194.615H155.368V201H156.557V193.631H151.738L151.424 198.02C151.348 199.113 151.075 199.968 150.398 199.968C150.221 199.968 150.036 199.94 149.974 199.92V200.993C150.07 201.027 150.262 201.068 150.514 201.068C151.745 201.068 152.374 200.146 152.531 198.115Z" fill="#111827"/>
<path d="M161.67 201.13C163.406 201.13 164.459 200.146 164.712 199.147L164.726 199.093H163.536L163.509 199.154C163.311 199.599 162.695 200.07 161.697 200.07C160.385 200.07 159.544 199.182 159.51 197.657H164.815V197.192C164.815 194.991 163.598 193.501 161.595 193.501C159.592 193.501 158.293 195.06 158.293 197.336V197.343C158.293 199.653 159.565 201.13 161.67 201.13ZM161.588 194.561C162.675 194.561 163.482 195.251 163.605 196.707H159.53C159.66 195.306 160.494 194.561 161.588 194.561Z" fill="#111827"/>
<path d="M171.39 201H172.579V193.631H171.39V196.68H167.74V193.631H166.55V201H167.74V197.664H171.39V201Z" fill="#111827"/>
<path d="M174.677 201H175.867L179.51 195.504H179.62V201H180.809V193.631H179.62L175.976 199.127H175.867V193.631H174.677V201Z" fill="#111827"/>
<path d="M185.929 201.13C187.665 201.13 188.718 200.146 188.971 199.147L188.984 199.093H187.795L187.767 199.154C187.569 199.599 186.954 200.07 185.956 200.07C184.643 200.07 183.803 199.182 183.768 197.657H189.073V197.192C189.073 194.991 187.856 193.501 185.853 193.501C183.85 193.501 182.552 195.06 182.552 197.336V197.343C182.552 199.653 183.823 201.13 185.929 201.13ZM185.846 194.561C186.933 194.561 187.74 195.251 187.863 196.707H183.789C183.919 195.306 184.753 194.561 185.846 194.561Z" fill="#111827"/>
<path d="M191.718 195.777C192.21 195.777 192.606 195.374 192.606 194.889C192.606 194.396 192.21 194 191.718 194C191.232 194 190.829 194.396 190.829 194.889C190.829 195.374 191.232 195.777 191.718 195.777ZM191.718 201.068C192.21 201.068 192.606 200.665 192.606 200.18C192.606 199.688 192.21 199.291 191.718 199.291C191.232 199.291 190.829 199.688 190.829 200.18C190.829 200.665 191.232 201.068 191.718 201.068Z" fill="#111827"/>
<path d="M201.581 190.903C199.591 190.903 198.128 192.332 198.128 194.301V194.314C198.128 196.208 199.509 197.616 201.362 197.616C202.695 197.616 203.625 196.898 203.987 196.092H204.117C204.117 196.167 204.117 196.249 204.11 196.324C204.035 198.382 203.303 200.132 201.512 200.132C200.514 200.132 199.824 199.619 199.523 198.792L199.496 198.717H198.258L198.279 198.806C198.614 200.262 199.844 201.232 201.499 201.232C203.891 201.232 205.292 199.264 205.292 195.9V195.887C205.292 192.175 203.385 190.903 201.581 190.903ZM201.574 196.543C200.295 196.543 199.366 195.6 199.366 194.287V194.273C199.366 192.995 200.357 191.99 201.594 191.99C202.845 191.99 203.823 193.016 203.823 194.314V194.321C203.823 195.606 202.852 196.543 201.574 196.543Z" fill="#111827"/>
<path d="M210.255 190.903C208.265 190.903 206.803 192.332 206.803 194.301V194.314C206.803 196.208 208.183 197.616 210.036 197.616C211.369 197.616 212.299 196.898 212.661 196.092H212.791C212.791 196.167 212.791 196.249 212.784 196.324C212.709 198.382 211.977 200.132 210.186 200.132C209.188 200.132 208.498 199.619 208.197 198.792L208.17 198.717H206.932L206.953 198.806C207.288 200.262 208.518 201.232 210.173 201.232C212.565 201.232 213.967 199.264 213.967 195.9V195.887C213.967 192.175 212.059 190.903 210.255 190.903ZM210.248 196.543C208.969 196.543 208.04 195.6 208.04 194.287V194.273C208.04 192.995 209.031 191.99 210.268 191.99C211.519 191.99 212.497 193.016 212.497 194.314V194.321C212.497 195.606 211.526 196.543 210.248 196.543Z" fill="#111827"/>
<path d="M219.004 201.232C221.185 201.232 222.497 199.243 222.497 196.071V196.058C222.497 192.886 221.185 190.903 219.004 190.903C216.823 190.903 215.524 192.886 215.524 196.058V196.071C215.524 199.243 216.823 201.232 219.004 201.232ZM219.004 200.159C217.589 200.159 216.762 198.587 216.762 196.071V196.058C216.762 193.542 217.589 191.983 219.004 191.983C220.419 191.983 221.26 193.542 221.26 196.058V196.071C221.26 198.587 220.419 200.159 219.004 200.159Z" fill="#111827"/>
<path d="M227.582 201.232C229.763 201.232 231.075 199.243 231.075 196.071V196.058C231.075 192.886 229.763 190.903 227.582 190.903C225.402 190.903 224.103 192.886 224.103 196.058V196.071C224.103 199.243 225.402 201.232 227.582 201.232ZM227.582 200.159C226.167 200.159 225.34 198.587 225.34 196.071V196.058C225.34 193.542 226.167 191.983 227.582 191.983C228.997 191.983 229.838 193.542 229.838 196.058V196.071C229.838 198.587 228.997 200.159 227.582 200.159Z" fill="#111827"/>
<path d="M236.105 199.455H237.472V200.795H238.703V199.455H241.54V198.635H238.703V197.322H240.583C242.435 197.322 243.638 196.085 243.638 194.342V194.328C243.638 192.605 242.449 191.341 240.596 191.341H237.472V196.502H236.105V197.322H237.472V198.635H236.105V199.455ZM238.703 196.229V192.435H240.275C241.69 192.435 242.374 193.159 242.374 194.328V194.342C242.374 195.518 241.683 196.229 240.275 196.229H238.703Z" fill="#111827"/>
<path d="M268.209 181.13C269.979 181.13 270.971 180.18 271.271 178.847L271.285 178.771L270.109 178.778L270.096 178.819C269.822 179.64 269.193 180.077 268.202 180.077C266.89 180.077 266.042 178.99 266.042 177.295V177.281C266.042 175.62 266.876 174.554 268.202 174.554C269.262 174.554 269.918 175.142 270.103 175.866L270.109 175.887H271.292L271.285 175.846C271.066 174.533 269.993 173.501 268.202 173.501C266.138 173.501 264.825 174.991 264.825 177.281V177.295C264.825 179.633 266.145 181.13 268.209 181.13Z" fill="#3C3C43" fill-opacity="0.6"/>
<path d="M276.095 181.13C277.831 181.13 278.884 180.146 279.137 179.147L279.151 179.093H277.961L277.934 179.154C277.735 179.599 277.12 180.07 276.122 180.07C274.81 180.07 273.969 179.182 273.935 177.657H279.239V177.192C279.239 174.991 278.023 173.501 276.02 173.501C274.017 173.501 272.718 175.06 272.718 177.336V177.343C272.718 179.653 273.989 181.13 276.095 181.13ZM276.013 174.561C277.1 174.561 277.906 175.251 278.029 176.707H273.955C274.085 175.306 274.919 174.561 276.013 174.561Z" fill="#3C3C43" fill-opacity="0.6"/>
<path d="M284.206 172.605C285.615 172.605 286.551 171.635 286.551 170.363H285.485C285.485 171.108 285.013 171.799 284.206 171.799C283.413 171.799 282.928 171.108 282.928 170.363H281.862C281.862 171.635 282.798 172.605 284.206 172.605ZM281.137 181H282.326L285.97 175.504H286.079V181H287.269V173.631H286.079L282.436 179.127H282.326V173.631H281.137V181Z" fill="#3C3C43" fill-opacity="0.6"/>
<path d="M295.155 181V173.631H293.965V176.741C293.658 177.083 293.022 177.322 292.099 177.322C291.094 177.322 290.588 176.707 290.588 175.736V173.631H289.399V175.736C289.399 177.309 290.322 178.375 292.099 178.375C292.892 178.375 293.459 178.211 293.856 177.931H293.965V181H295.155Z" fill="#3C3C43" fill-opacity="0.6"/>
<path d="M299.445 181.13C300.436 181.13 301.209 180.699 301.673 179.913H301.783V181H302.972V175.955C302.972 174.424 301.967 173.501 300.169 173.501C298.597 173.501 297.476 174.28 297.285 175.436L297.278 175.477H298.467L298.474 175.456C298.666 174.882 299.247 174.554 300.128 174.554C301.229 174.554 301.783 175.046 301.783 175.955V176.625L299.67 176.755C297.955 176.857 296.984 177.616 296.984 178.929V178.942C296.984 180.282 298.043 181.13 299.445 181.13ZM298.201 178.915V178.901C298.201 178.17 298.693 177.773 299.814 177.705L301.783 177.582V178.252C301.783 179.305 300.901 180.098 299.691 180.098C298.836 180.098 298.201 179.66 298.201 178.915Z" fill="#3C3C43" fill-opacity="0.6"/>
<path d="M308.219 181.13C309.99 181.13 310.981 180.18 311.282 178.847L311.296 178.771L310.12 178.778L310.106 178.819C309.833 179.64 309.204 180.077 308.213 180.077C306.9 180.077 306.052 178.99 306.052 177.295V177.281C306.052 175.62 306.886 174.554 308.213 174.554C309.272 174.554 309.928 175.142 310.113 175.866L310.12 175.887H311.302L311.296 175.846C311.077 174.533 310.004 173.501 308.213 173.501C306.148 173.501 304.836 174.991 304.836 177.281V177.295C304.836 179.633 306.155 181.13 308.219 181.13Z" fill="#3C3C43" fill-opacity="0.6"/>
<path d="M25.4346 39.0002V24.4547H34.7883V26.6635H28.0695V30.0726H30.8749C31.9876 30.0726 32.9417 30.2549 33.7371 30.6195C34.5373 30.9793 35.1505 31.4883 35.5766 32.1465C36.0028 32.8046 36.2158 33.5788 36.2158 34.4689C36.2158 35.3638 36.0028 36.1522 35.5766 36.834C35.1505 37.5111 34.5373 38.0414 33.7371 38.4249C32.9417 38.8084 31.9876 39.0002 30.8749 39.0002H25.4346ZM28.0695 36.8411H30.8749C31.462 36.8411 31.9592 36.7298 32.3664 36.5073C32.7736 36.2847 33.0814 35.9912 33.2897 35.6266C33.5028 35.262 33.6093 34.8667 33.6093 34.4405C33.6093 33.825 33.3725 33.3018 32.8991 32.8709C32.4303 32.4353 31.7556 32.2175 30.8749 32.2175H28.0695V36.8411Z" fill="#1E293B"/>
<path d="M41.5461 39.2203C40.8548 39.2203 40.2322 39.0972 39.6782 38.851C39.1289 38.6001 38.6933 38.2308 38.3714 37.7431C38.0541 37.2554 37.8955 36.6541 37.8955 35.9391C37.8955 35.3236 38.0091 34.8146 38.2364 34.4121C38.4637 34.0096 38.7738 33.6877 39.1668 33.4462C39.5598 33.2047 40.0025 33.0224 40.4949 32.8993C40.9921 32.7715 41.5058 32.6792 42.0361 32.6223C42.6753 32.556 43.1938 32.4969 43.5915 32.4448C43.9893 32.388 44.2781 32.3027 44.458 32.1891C44.6427 32.0707 44.735 31.8884 44.735 31.6422V31.5996C44.735 31.0646 44.5764 30.6503 44.2591 30.3567C43.9419 30.0632 43.485 29.9164 42.8884 29.9164C42.2587 29.9164 41.7591 30.0537 41.3898 30.3283C41.0252 30.6029 40.779 30.9273 40.6512 31.3013L38.2506 30.9604C38.44 30.2975 38.7525 29.7435 39.1881 29.2985C39.6237 28.8487 40.1564 28.5125 40.7861 28.29C41.4159 28.0627 42.1119 27.949 42.8742 27.949C43.3998 27.949 43.923 28.0106 44.4438 28.1337C44.9646 28.2568 45.4405 28.4604 45.8714 28.7445C46.3022 29.0239 46.6479 29.405 46.9083 29.888C47.1734 30.3709 47.306 30.9746 47.306 31.699V39.0002H44.8344V37.5016H44.7492C44.593 37.8046 44.3728 38.0887 44.0887 38.3539C43.8093 38.6143 43.4566 38.825 43.0305 38.986C42.6091 39.1422 42.1143 39.2203 41.5461 39.2203ZM42.2137 37.3311C42.7298 37.3311 43.1772 37.2293 43.556 37.0257C43.9348 36.8174 44.226 36.5428 44.4296 36.2019C44.6379 35.861 44.7421 35.4893 44.7421 35.0868V33.8013C44.6616 33.8676 44.5243 33.9292 44.3302 33.986C44.1408 34.0428 43.9277 34.0925 43.691 34.1351C43.4542 34.1777 43.2198 34.2156 42.9878 34.2488C42.7558 34.2819 42.5546 34.3103 42.3841 34.334C42.0006 34.3861 41.6573 34.4713 41.3543 34.5897C41.0513 34.708 40.8122 34.8738 40.637 35.0868C40.4618 35.2952 40.3742 35.565 40.3742 35.8965C40.3742 36.37 40.547 36.7275 40.8927 36.9689C41.2383 37.2104 41.6787 37.3311 42.2137 37.3311Z" fill="#1E293B"/>
<path d="M49.1384 39.0002L49.1242 36.8837H49.5006C49.7847 36.8837 50.0238 36.8198 50.218 36.6919C50.4121 36.5641 50.5731 36.351 50.7009 36.0527C50.8287 35.7497 50.9282 35.3425 50.9992 34.8311C51.0702 34.3198 51.1199 33.6829 51.1483 32.9206L51.3401 28.0911H59.2947V39.0002H56.8089V30.2005H53.6768L53.5063 33.7161C53.4637 34.6252 53.3619 35.4135 53.2009 36.0811C53.0447 36.744 52.8221 37.2909 52.5333 37.7218C52.2492 38.1526 51.8917 38.4746 51.4608 38.6877C51.03 38.896 50.521 39.0002 49.9339 39.0002H49.1384Z" fill="#1E293B"/>
<path d="M65.0226 39.2203C64.3314 39.2203 63.7087 39.0972 63.1547 38.851C62.6055 38.6001 62.1699 38.2308 61.8479 37.7431C61.5307 37.2554 61.3721 36.6541 61.3721 35.9391C61.3721 35.3236 61.4857 34.8146 61.713 34.4121C61.9403 34.0096 62.2504 33.6877 62.6434 33.4462C63.0364 33.2047 63.4791 33.0224 63.9715 32.8993C64.4687 32.7715 64.9824 32.6792 65.5127 32.6223C66.1519 32.556 66.6704 32.4969 67.0681 32.4448C67.4658 32.388 67.7546 32.3027 67.9346 32.1891C68.1192 32.0707 68.2116 31.8884 68.2116 31.6422V31.5996C68.2116 31.0646 68.0529 30.6503 67.7357 30.3567C67.4185 30.0632 66.9616 29.9164 66.365 29.9164C65.7352 29.9164 65.2357 30.0537 64.8664 30.3283C64.5018 30.6029 64.2556 30.9273 64.1278 31.3013L61.7272 30.9604C61.9166 30.2975 62.2291 29.7435 62.6647 29.2985C63.1003 28.8487 63.633 28.5125 64.2627 28.29C64.8924 28.0627 65.5885 27.949 66.3508 27.949C66.8763 27.949 67.3995 28.0106 67.9204 28.1337C68.4412 28.2568 68.9171 28.4604 69.3479 28.7445C69.7788 29.0239 70.1244 29.405 70.3849 29.888C70.65 30.3709 70.7826 30.9746 70.7826 31.699V39.0002H68.311V37.5016H68.2258C68.0695 37.8046 67.8493 38.0887 67.5653 38.3539C67.2859 38.6143 66.9332 38.825 66.507 38.986C66.0856 39.1422 65.5908 39.2203 65.0226 39.2203ZM65.6903 37.3311C66.2064 37.3311 66.6538 37.2293 67.0326 37.0257C67.4114 36.8174 67.7026 36.5428 67.9062 36.2019C68.1145 35.861 68.2187 35.4893 68.2187 35.0868V33.8013C68.1382 33.8676 68.0009 33.9292 67.8067 33.986C67.6173 34.0428 67.4043 34.0925 67.1675 34.1351C66.9308 34.1777 66.6964 34.2156 66.4644 34.2488C66.2324 34.2819 66.0312 34.3103 65.8607 34.334C65.4772 34.3861 65.1339 34.4713 64.8309 34.5897C64.5278 34.708 64.2887 34.8738 64.1135 35.0868C63.9384 35.2952 63.8508 35.565 63.8508 35.8965C63.8508 36.37 64.0236 36.7275 64.3692 36.9689C64.7149 37.2104 65.1552 37.3311 65.6903 37.3311Z" fill="#1E293B"/>
<path d="M80.8607 32.4803V34.5897H75.051V32.4803H80.8607ZM75.8465 28.0911V39.0002H73.3678V28.0911H75.8465ZM82.5439 28.0911V39.0002H80.0724V28.0911H82.5439Z" fill="#1E293B"/>
<path d="M89.9037 39.2132C88.8147 39.2132 87.8795 38.9741 87.0983 38.4959C86.3218 38.0177 85.7228 37.3572 85.3014 36.5144C84.8847 35.6668 84.6764 34.6915 84.6764 33.5882C84.6764 32.4803 84.8895 31.5025 85.3156 30.655C85.7417 29.8027 86.3431 29.1399 87.1196 28.6664C87.9008 28.1882 88.8241 27.949 89.8895 27.949C90.7749 27.949 91.5585 28.1124 92.2403 28.4391C92.9269 28.7611 93.4737 29.218 93.8809 29.8098C94.2881 30.397 94.5201 31.0835 94.577 31.8695H92.1196C92.0202 31.3439 91.7834 30.906 91.4094 30.5556C91.04 30.2005 90.5452 30.0229 89.925 30.0229C89.3994 30.0229 88.9378 30.165 88.54 30.449C88.1423 30.7284 87.8322 31.1309 87.6096 31.6564C87.3918 32.182 87.2829 32.8117 87.2829 33.5456C87.2829 34.289 87.3918 34.9282 87.6096 35.4632C87.8274 35.9935 88.1328 36.4031 88.5258 36.6919C88.9236 36.976 89.3899 37.1181 89.925 37.1181C90.3038 37.1181 90.6423 37.0471 90.9406 36.905C91.2436 36.7582 91.4969 36.5475 91.7005 36.2729C91.9041 35.9983 92.0438 35.6645 92.1196 35.2715H94.577C94.5154 36.0433 94.2881 36.7275 93.8951 37.324C93.5022 37.9159 92.9671 38.3799 92.29 38.7161C91.613 39.0475 90.8175 39.2132 89.9037 39.2132Z" fill="#1E293B"/>
<path d="M98.2719 39.1564C97.8411 39.1564 97.4717 39.0049 97.164 38.7019C96.8562 38.3989 96.7047 38.0295 96.7094 37.5939C96.7047 37.1678 96.8562 36.8032 97.164 36.5002C97.4717 36.1971 97.8411 36.0456 98.2719 36.0456C98.6886 36.0456 99.0508 36.1971 99.3586 36.5002C99.6711 36.8032 99.8297 37.1678 99.8344 37.5939C99.8297 37.8828 99.7539 38.1455 99.6072 38.3823C99.4651 38.619 99.2757 38.8084 99.039 38.9505C98.807 39.0878 98.5513 39.1564 98.2719 39.1564ZM98.2719 31.3723C97.8411 31.3723 97.4717 31.2208 97.164 30.9178C96.8562 30.61 96.7047 30.2407 96.7094 29.8098C96.7047 29.3837 96.8562 29.0191 97.164 28.7161C97.4717 28.4083 97.8411 28.2544 98.2719 28.2544C98.6886 28.2544 99.0508 28.4083 99.3586 28.7161C99.6711 29.0191 99.8297 29.3837 99.8344 29.8098C99.8297 30.0939 99.7539 30.3543 99.6072 30.5911C99.4651 30.8278 99.2757 31.0172 99.039 31.1593C98.807 31.3013 98.5513 31.3723 98.2719 31.3723Z" fill="#1E293B"/>
<path d="M113.338 24.4547V39.0002H110.703V27.0186H110.617L107.215 29.1919V26.7772L110.831 24.4547H113.338Z" fill="#1E293B"/>
<path d="M122.407 39.2772C121.238 39.2772 120.234 38.9812 119.396 38.3894C118.563 37.7928 117.921 36.9334 117.471 35.8113C117.026 34.6844 116.804 33.3278 116.804 31.7417C116.808 30.1555 117.033 28.806 117.478 27.6934C117.928 26.5759 118.57 25.7237 119.403 25.1365C120.241 24.5494 121.242 24.2559 122.407 24.2559C123.572 24.2559 124.573 24.5494 125.411 25.1365C126.25 25.7237 126.891 26.5759 127.336 27.6934C127.786 28.8108 128.011 30.1602 128.011 31.7417C128.011 33.3326 127.786 34.6915 127.336 35.8184C126.891 36.9405 126.25 37.7975 125.411 38.3894C124.578 38.9812 123.577 39.2772 122.407 39.2772ZM122.407 37.0542C123.316 37.0542 124.034 36.6067 124.559 35.7118C125.09 34.8122 125.355 33.4888 125.355 31.7417C125.355 30.5864 125.234 29.6157 124.992 28.8297C124.751 28.0437 124.41 27.4519 123.97 27.0542C123.529 26.6517 123.009 26.4505 122.407 26.4505C121.503 26.4505 120.788 26.9003 120.262 27.7999C119.737 28.6948 119.472 30.0087 119.467 31.7417C119.462 32.9017 119.578 33.8771 119.815 34.6678C120.056 35.4585 120.397 36.0551 120.838 36.4576C121.278 36.8553 121.801 37.0542 122.407 37.0542Z" fill="#1E293B"/>
<path d="M140.708 39.2772C139.539 39.2772 138.535 38.9812 137.697 38.3894C136.863 37.7928 136.222 36.9334 135.772 35.8113C135.327 34.6844 135.104 33.3278 135.104 31.7417C135.109 30.1555 135.334 28.806 135.779 27.6934C136.229 26.5759 136.87 25.7237 137.704 25.1365C138.542 24.5494 139.543 24.2559 140.708 24.2559C141.873 24.2559 142.874 24.5494 143.712 25.1365C144.55 25.7237 145.192 26.5759 145.637 27.6934C146.087 28.8108 146.312 30.1602 146.312 31.7417C146.312 33.3326 146.087 34.6915 145.637 35.8184C145.192 36.9405 144.55 37.7975 143.712 38.3894C142.879 38.9812 141.878 39.2772 140.708 39.2772ZM140.708 37.0542C141.617 37.0542 142.334 36.6067 142.86 35.7118C143.39 34.8122 143.655 33.4888 143.655 31.7417C143.655 30.5864 143.535 29.6157 143.293 28.8297C143.052 28.0437 142.711 27.4519 142.271 27.0542C141.83 26.6517 141.309 26.4505 140.708 26.4505C139.804 26.4505 139.089 26.9003 138.563 27.7999C138.038 28.6948 137.772 30.0087 137.768 31.7417C137.763 32.9017 137.879 33.8771 138.116 34.6678C138.357 35.4585 138.698 36.0551 139.138 36.4576C139.579 36.8553 140.102 37.0542 140.708 37.0542Z" fill="#1E293B"/>
<path d="M154.048 39.2772C152.878 39.2772 151.875 38.9812 151.036 38.3894C150.203 37.7928 149.562 36.9334 149.112 35.8113C148.667 34.6844 148.444 33.3278 148.444 31.7417C148.449 30.1555 148.674 28.806 149.119 27.6934C149.569 26.5759 150.21 25.7237 151.044 25.1365C151.882 24.5494 152.883 24.2559 154.048 24.2559C155.213 24.2559 156.214 24.5494 157.052 25.1365C157.89 25.7237 158.532 26.5759 158.977 27.6934C159.427 28.8108 159.652 30.1602 159.652 31.7417C159.652 33.3326 159.427 34.6915 158.977 35.8184C158.532 36.9405 157.89 37.7975 157.052 38.3894C156.219 38.9812 155.217 39.2772 154.048 39.2772ZM154.048 37.0542C154.957 37.0542 155.674 36.6067 156.2 35.7118C156.73 34.8122 156.995 33.4888 156.995 31.7417C156.995 30.5864 156.875 29.6157 156.633 28.8297C156.392 28.0437 156.051 27.4519 155.61 27.0542C155.17 26.6517 154.649 26.4505 154.048 26.4505C153.143 26.4505 152.429 26.9003 151.903 27.7999C151.377 28.6948 151.112 30.0087 151.108 31.7417C151.103 32.9017 151.219 33.8771 151.456 34.6678C151.697 35.4585 152.038 36.0551 152.478 36.4576C152.919 36.8553 153.442 37.0542 154.048 37.0542Z" fill="#1E293B"/>
<path d="M167.388 39.2772C166.218 39.2772 165.214 38.9812 164.376 38.3894C163.543 37.7928 162.901 36.9334 162.452 35.8113C162.007 34.6844 161.784 33.3278 161.784 31.7417C161.789 30.1555 162.014 28.806 162.459 27.6934C162.909 26.5759 163.55 25.7237 164.383 25.1365C165.222 24.5494 166.223 24.2559 167.388 24.2559C168.552 24.2559 169.554 24.5494 170.392 25.1365C171.23 25.7237 171.872 26.5759 172.317 27.6934C172.766 28.8108 172.991 30.1602 172.991 31.7417C172.991 33.3326 172.766 34.6915 172.317 35.8184C171.872 36.9405 171.23 37.7975 170.392 38.3894C169.559 38.9812 168.557 39.2772 167.388 39.2772ZM167.388 37.0542C168.297 37.0542 169.014 36.6067 169.54 35.7118C170.07 34.8122 170.335 33.4888 170.335 31.7417C170.335 30.5864 170.214 29.6157 169.973 28.8297C169.731 28.0437 169.391 27.4519 168.95 27.0542C168.51 26.6517 167.989 26.4505 167.388 26.4505C166.483 26.4505 165.768 26.9003 165.243 27.7999C164.717 28.6948 164.452 30.0087 164.447 31.7417C164.443 32.9017 164.559 33.8771 164.795 34.6678C165.037 35.4585 165.378 36.0551 165.818 36.4576C166.258 36.8553 166.782 37.0542 167.388 37.0542Z" fill="#1E293B"/>
<path d="M187.507 33.5243H179.886V31.3581H187.45C188.061 31.3581 188.563 31.2611 188.956 31.0669C189.353 30.8728 189.647 30.6029 189.836 30.2573C190.03 29.9116 190.125 29.5068 190.12 29.0428C190.125 28.5882 190.03 28.181 189.836 27.8212C189.647 27.4566 189.358 27.1702 188.97 26.9618C188.586 26.7488 188.099 26.6422 187.507 26.6422H184.652V39.0002H182.024V24.4547H187.507C188.634 24.4547 189.588 24.6583 190.369 25.0655C191.15 25.468 191.742 26.0149 192.144 26.7061C192.552 27.3927 192.755 28.1645 192.755 29.0215C192.755 29.9116 192.549 30.6953 192.137 31.3723C191.725 32.0447 191.129 32.5726 190.348 32.9561C189.566 33.3349 188.619 33.5243 187.507 33.5243ZM187.84 34.6039V36.7701H179.886V34.6039H187.84Z" fill="#1E293B"/>
<path d="M24.9971 58.9998V51.9089H26.0866V54.9927H26.8067L29.355 51.9089H30.7584L27.8962 55.3251L30.7954 58.9998H29.392L27.0653 56.0083H26.0866V58.9998H24.9971Z" fill="#6B7280"/>
<path d="M34.5682 59.1475C33.928 59.1475 33.3664 58.9952 32.8832 58.6905C32.4031 58.3858 32.0276 57.9596 31.7567 57.4118C31.489 56.8639 31.3551 56.2238 31.3551 55.4913C31.3551 54.7527 31.489 54.1079 31.7567 53.557C32.0276 53.0061 32.4031 52.5783 32.8832 52.2736C33.3664 51.9689 33.928 51.8166 34.5682 51.8166C35.2083 51.8166 35.7685 51.9689 36.2486 52.2736C36.7318 52.5783 37.1072 53.0061 37.375 53.557C37.6458 54.1079 37.7812 54.7527 37.7812 55.4913C37.7812 56.2238 37.6458 56.8639 37.375 57.4118C37.1072 57.9596 36.7318 58.3858 36.2486 58.6905C35.7685 58.9952 35.2083 59.1475 34.5682 59.1475ZM34.5682 58.1689C35.0545 58.1689 35.4545 58.0442 35.7685 57.7949C36.0824 57.5456 36.3147 57.2179 36.4656 56.8116C36.6164 56.4054 36.6918 55.9653 36.6918 55.4913C36.6918 55.0173 36.6164 54.5757 36.4656 54.1664C36.3147 53.757 36.0824 53.4262 35.7685 53.1738C35.4545 52.9215 35.0545 52.7953 34.5682 52.7953C34.0819 52.7953 33.6818 52.9215 33.3679 53.1738C33.054 53.4262 32.8216 53.757 32.6708 54.1664C32.52 54.5757 32.4446 55.0173 32.4446 55.4913C32.4446 55.9653 32.52 56.4054 32.6708 56.8116C32.8216 57.2179 33.054 57.5456 33.3679 57.7949C33.6818 58.0442 34.0819 58.1689 34.5682 58.1689Z" fill="#6B7280"/>
<path d="M43.3222 57.5225L45.7966 51.9089H46.8307L43.7654 58.9998H42.879L39.8691 51.9089H40.8847L43.3222 57.5225ZM40.5338 51.9089V58.9998H39.4443V51.9089H40.5338ZM46.1105 58.9998V51.9089H47.2V58.9998H46.1105Z" fill="#6B7280"/>
<path d="M50.2838 57.3933L53.7 51.9089H54.9557V58.9998H53.8662V53.5154L50.4685 58.9998H49.1943V51.9089H50.2838V57.3933Z" fill="#6B7280"/>
<path d="M59.8319 59.1475C59.1671 59.1475 58.5946 58.9906 58.1145 58.6767C57.6344 58.3627 57.2651 57.9303 57.0066 57.3794C56.748 56.8285 56.6188 56.1992 56.6188 55.4913C56.6188 54.7711 56.7511 54.1356 57.0158 53.5847C57.2836 53.0307 57.656 52.5983 58.133 52.2875C58.6131 51.9735 59.1732 51.8166 59.8134 51.8166C60.312 51.8166 60.7613 51.9089 61.1614 52.0936C61.5615 52.2782 61.8893 52.5368 62.1447 52.8691C62.4002 53.2015 62.5587 53.5893 62.6202 54.0325H61.5307C61.4476 53.7093 61.263 53.4231 60.9767 53.1738C60.6936 52.9215 60.312 52.7953 59.8319 52.7953C59.4071 52.7953 59.0347 52.9061 58.7147 53.1277C58.3977 53.3462 58.1499 53.6555 57.9714 54.0556C57.796 54.4526 57.7083 54.9189 57.7083 55.4544C57.7083 56.0022 57.7944 56.4792 57.9668 56.8855C58.1422 57.2917 58.3884 57.6072 58.7054 57.8319C59.0255 58.0565 59.401 58.1689 59.8319 58.1689C60.115 58.1689 60.372 58.1196 60.6028 58.0211C60.8336 57.9226 61.0291 57.7811 61.1891 57.5964C61.3491 57.4118 61.463 57.1902 61.5307 56.9316H62.6202C62.5587 57.3502 62.4063 57.7272 62.1632 58.0627C61.9231 58.3951 61.6046 58.6597 61.2076 58.8567C60.8136 59.0506 60.3551 59.1475 59.8319 59.1475Z" fill="#6B7280"/>
<path d="M67.0936 59.1475C66.4288 59.1475 65.8564 58.9906 65.3762 58.6767C64.8961 58.3627 64.5268 57.9303 64.2683 57.3794C64.0098 56.8285 63.8805 56.1992 63.8805 55.4913C63.8805 54.7711 64.0128 54.1356 64.2775 53.5847C64.5453 53.0307 64.9177 52.5983 65.3947 52.2875C65.8748 51.9735 66.435 51.8166 67.0751 51.8166C67.5737 51.8166 68.023 51.9089 68.4231 52.0936C68.8232 52.2782 69.151 52.5368 69.4064 52.8691C69.6619 53.2015 69.8204 53.5893 69.8819 54.0325H68.7924C68.7093 53.7093 68.5247 53.4231 68.2385 53.1738C67.9553 52.9215 67.5737 52.7953 67.0936 52.7953C66.6689 52.7953 66.2965 52.9061 65.9764 53.1277C65.6594 53.3462 65.4116 53.6555 65.2331 54.0556C65.0577 54.4526 64.97 54.9189 64.97 55.4544C64.97 56.0022 65.0562 56.4792 65.2285 56.8855C65.4039 57.2917 65.6502 57.6072 65.9672 57.8319C66.2872 58.0565 66.6627 58.1689 67.0936 58.1689C67.3767 58.1689 67.6337 58.1196 67.8645 58.0211C68.0953 57.9226 68.2908 57.7811 68.4508 57.5964C68.6109 57.4118 68.7247 57.1902 68.7924 56.9316H69.8819C69.8204 57.3502 69.668 57.7272 69.4249 58.0627C69.1848 58.3951 68.8663 58.6597 68.4693 58.8567C68.0753 59.0506 67.6168 59.1475 67.0936 59.1475Z" fill="#6B7280"/>
<path d="M72.5641 57.3933L75.9803 51.9089H77.236V58.9998H76.1465V53.5154L72.7488 58.9998H71.4746V51.9089H72.5641V57.3933Z" fill="#6B7280"/>
<path d="M83.4971 58.9998V52.9061H81.6135C81.1888 52.9061 80.8549 53.0046 80.6118 53.2015C80.3686 53.3985 80.2471 53.6693 80.2471 54.014C80.2471 54.3526 80.3563 54.6188 80.5748 54.8127C80.7964 55.0066 81.0996 55.1035 81.4843 55.1035H83.7741V56.1191H81.4843C81.0042 56.1191 80.5902 56.0345 80.2425 55.8652C79.8947 55.696 79.6269 55.4544 79.4392 55.1404C79.2514 54.8234 79.1576 54.448 79.1576 54.014C79.1576 53.577 79.2561 53.2015 79.453 52.8876C79.65 52.5737 79.9316 52.3321 80.2979 52.1628C80.6672 51.9935 81.1057 51.9089 81.6135 51.9089H84.5312V58.9998H83.4971ZM78.7698 58.9998L80.7826 55.4728H81.9644L79.9516 58.9998H78.7698Z" fill="#6B7280"/>
<path d="M87.3253 59.0737C87.0975 59.0737 86.9021 58.9921 86.739 58.829C86.5759 58.6659 86.4943 58.4705 86.4943 58.2427C86.4943 58.015 86.5759 57.8195 86.739 57.6564C86.9021 57.4933 87.0975 57.4118 87.3253 57.4118C87.553 57.4118 87.7485 57.4933 87.9116 57.6564C88.0747 57.8195 88.1563 58.015 88.1563 58.2427C88.1563 58.3935 88.1178 58.532 88.0408 58.6582C87.967 58.7844 87.867 58.8859 87.7408 58.9629C87.6177 59.0368 87.4792 59.0737 87.3253 59.0737ZM87.3253 53.8109C87.0975 53.8109 86.9021 53.7293 86.739 53.5662C86.5759 53.4031 86.4943 53.2077 86.4943 52.9799C86.4943 52.7522 86.5759 52.5568 86.739 52.3936C86.9021 52.2305 87.0975 52.149 87.3253 52.149C87.553 52.149 87.7485 52.2305 87.9116 52.3936C88.0747 52.5568 88.1563 52.7522 88.1563 52.9799C88.1563 53.1307 88.1178 53.2692 88.0408 53.3954C87.967 53.5216 87.867 53.6232 87.7408 53.7001C87.6177 53.774 87.4792 53.8109 87.3253 53.8109Z" fill="#6B7280"/>
<path d="M97.073 49.5453V58.9998H95.9281V50.7456H95.8727L93.5645 52.2782V51.1149L95.9281 49.5453H97.073Z" fill="#6B7280"/>
<path d="M102.876 59.1291C102.18 59.1291 101.588 58.9398 101.099 58.5613C100.609 58.1796 100.235 57.6272 99.9767 56.9039C99.7182 56.1776 99.589 55.3005 99.589 54.2725C99.589 53.2508 99.7182 52.3783 99.9767 51.655C100.238 50.9287 100.614 50.3747 101.103 49.9931C101.596 49.6084 102.186 49.416 102.876 49.416C103.565 49.416 104.155 49.6084 104.644 49.9931C105.136 50.3747 105.512 50.9287 105.77 51.655C106.032 52.3783 106.163 53.2508 106.163 54.2725C106.163 55.3005 106.034 56.1776 105.775 56.9039C105.517 57.6272 105.143 58.1796 104.653 58.5613C104.164 58.9398 103.571 59.1291 102.876 59.1291ZM102.876 58.1135C103.565 58.1135 104.101 57.7811 104.482 57.1163C104.864 56.4515 105.055 55.5036 105.055 54.2725C105.055 53.4539 104.967 52.7568 104.792 52.1813C104.619 51.6058 104.37 51.1672 104.044 50.8656C103.721 50.564 103.331 50.4132 102.876 50.4132C102.193 50.4132 101.659 50.7502 101.274 51.4242C100.889 52.0951 100.697 53.0446 100.697 54.2725C100.697 55.0912 100.783 55.7868 100.955 56.3592C101.128 56.9316 101.376 57.3671 101.699 57.6657C102.025 57.9642 102.417 58.1135 102.876 58.1135Z" fill="#6B7280"/>
<path d="M111.001 59.1291C110.305 59.1291 109.713 58.9398 109.224 58.5613C108.734 58.1796 108.36 57.6272 108.102 56.9039C107.843 56.1776 107.714 55.3005 107.714 54.2725C107.714 53.2508 107.843 52.3783 108.102 51.655C108.363 50.9287 108.739 50.3747 109.228 49.9931C109.721 49.6084 110.311 49.416 111.001 49.416C111.69 49.416 112.28 49.6084 112.769 49.9931C113.261 50.3747 113.637 50.9287 113.895 51.655C114.157 52.3783 114.288 53.2508 114.288 54.2725C114.288 55.3005 114.159 56.1776 113.9 56.9039C113.642 57.6272 113.268 58.1796 112.778 58.5613C112.289 58.9398 111.696 59.1291 111.001 59.1291ZM111.001 58.1135C111.69 58.1135 112.226 57.7811 112.607 57.1163C112.989 56.4515 113.18 55.5036 113.18 54.2725C113.18 53.4539 113.092 52.7568 112.917 52.1813C112.744 51.6058 112.495 51.1672 112.169 50.8656C111.846 50.564 111.456 50.4132 111.001 50.4132C110.318 50.4132 109.784 50.7502 109.399 51.4242C109.014 52.0951 108.822 53.0446 108.822 54.2725C108.822 55.0912 108.908 55.7868 109.08 56.3592C109.253 56.9316 109.501 57.3671 109.824 57.6657C110.15 57.9642 110.542 58.1135 111.001 58.1135Z" fill="#6B7280"/>
<path d="M124.001 55.1589H119.2V54.1433H124.001C124.444 54.1433 124.81 54.0663 125.1 53.9125C125.389 53.7555 125.604 53.5431 125.746 53.2754C125.887 53.0046 125.958 52.6968 125.958 52.3521C125.958 52.0074 125.887 51.7012 125.746 51.4334C125.604 51.1626 125.389 50.9502 125.1 50.7963C124.81 50.6394 124.444 50.5609 124.001 50.5609H121.84V58.9998H120.695V49.5453H124.001C124.703 49.5453 125.281 49.673 125.737 49.9284C126.192 50.1839 126.531 50.524 126.752 50.9487C126.974 51.3734 127.085 51.8412 127.085 52.3521C127.085 52.863 126.974 53.3308 126.752 53.7555C126.531 54.1802 126.192 54.5203 125.737 54.7757C125.281 55.0312 124.703 55.1589 124.001 55.1589ZM123.927 56.0453V57.0609H119.2V56.0453H123.927Z" fill="#6B7280"/>
<path fill-rule="evenodd" clip-rule="evenodd" d="M25 134C25 133.448 25.4477 133 26 133H26.0498C26.6021 133 27.0498 133.448 27.0498 134C27.0498 134.552 26.6021 135 26.0498 135H26C25.4477 135 25 134.552 25 134ZM31.0318 134C31.0318 133.448 31.4795 133 32.0318 133H32.1315C32.6838 133 33.1315 133.448 33.1315 134C33.1315 134.552 32.6838 135 32.1315 135H32.0318C31.4795 135 31.0318 134.552 31.0318 134ZM37.1134 134C37.1134 133.448 37.5611 133 38.1134 133H38.2131C38.7654 133 39.2131 133.448 39.2131 134C39.2131 134.552 38.7654 135 38.2131 135H38.1134C37.5611 135 37.1134 134.552 37.1134 134ZM43.195 134C43.195 133.448 43.6428 133 44.195 133H44.2947C44.847 133 45.2947 133.448 45.2947 134C45.2947 134.552 44.847 135 44.2947 135H44.195C43.6428 135 43.195 134.552 43.195 134ZM49.2767 134C49.2767 133.448 49.7244 133 50.2767 133H50.3764C50.9287 133 51.3764 133.448 51.3764 134C51.3764 134.552 50.9287 135 50.3764 135H50.2767C49.7244 135 49.2767 134.552 49.2767 134ZM55.3583 134C55.3583 133.448 55.806 133 56.3583 133H56.458C57.0103 133 57.458 133.448 57.458 134C57.458 134.552 57.0103 135 56.458 135H56.3583C55.806 135 55.3583 134.552 55.3583 134ZM61.4399 134C61.4399 133.448 61.8877 133 62.4399 133H62.5396C63.0919 133 63.5396 133.448 63.5396 134C63.5396 134.552 63.0919 135 62.5396 135H62.4399C61.8877 135 61.4399 134.552 61.4399 134ZM67.5216 134C67.5216 133.448 67.9693 133 68.5216 133H68.6213C69.1736 133 69.6213 133.448 69.6213 134C69.6213 134.552 69.1736 135 68.6213 135H68.5216C67.9693 135 67.5216 134.552 67.5216 134ZM73.6032 134C73.6032 133.448 74.0509 133 74.6032 133H74.7029C75.2552 133 75.7029 133.448 75.7029 134C75.7029 134.552 75.2552 135 74.7029 135H74.6032C74.0509 135 73.6032 134.552 73.6032 134ZM79.6848 134C79.6848 133.448 80.1326 133 80.6848 133H80.7845C81.3368 133 81.7845 133.448 81.7845 134C81.7845 134.552 81.3368 135 80.7845 135H80.6848C80.1326 135 79.6848 134.552 79.6848 134ZM85.7665 134C85.7665 133.448 86.2142 133 86.7665 133H86.8662C87.4185 133 87.8662 133.448 87.8662 134C87.8662 134.552 87.4185 135 86.8662 135H86.7665C86.2142 135 85.7665 134.552 85.7665 134ZM91.8481 134C91.8481 133.448 92.2958 133 92.8481 133H92.9478C93.5001 133 93.9478 133.448 93.9478 134C93.9478 134.552 93.5001 135 92.9478 135H92.8481C92.2958 135 91.8481 134.552 91.8481 134ZM97.9297 134C97.9297 133.448 98.3775 133 98.9297 133H99.0294C99.5817 133 100.029 133.448 100.029 134C100.029 134.552 99.5817 135 99.0294 135H98.9297C98.3775 135 97.9297 134.552 97.9297 134ZM104.011 134C104.011 133.448 104.459 133 105.011 133H105.111C105.663 133 106.111 133.448 106.111 134C106.111 134.552 105.663 135 105.111 135H105.011C104.459 135 104.011 134.552 104.011 134ZM110.093 134C110.093 133.448 110.541 133 111.093 133H111.193C111.745 133 112.193 133.448 112.193 134C112.193 134.552 111.745 135 111.193 135H111.093C110.541 135 110.093 134.552 110.093 134ZM116.175 134C116.175 133.448 116.622 133 117.175 133H117.274C117.827 133 118.274 133.448 118.274 134C118.274 134.552 117.827 135 117.274 135H117.175C116.622 135 116.175 134.552 116.175 134ZM122.256 134C122.256 133.448 122.704 133 123.256 133H123.356C123.908 133 124.356 133.448 124.356 134C124.356 134.552 123.908 135 123.356 135H123.256C122.704 135 122.256 134.552 122.256 134ZM128.338 134C128.338 133.448 128.786 133 129.338 133H129.438C129.99 133 130.438 133.448 130.438 134C130.438 134.552 129.99 135 129.438 135H129.338C128.786 135 128.338 134.552 128.338 134ZM134.42 134C134.42 133.448 134.867 133 135.42 133H135.519C136.072 133 136.519 133.448 136.519 134C136.519 134.552 136.072 135 135.519 135H135.42C134.867 135 134.42 134.552 134.42 134ZM140.501 134C140.501 133.448 140.949 133 141.501 133H141.601C142.153 133 142.601 133.448 142.601 134C142.601 134.552 142.153 135 141.601 135H141.501C140.949 135 140.501 134.552 140.501 134ZM146.583 134C146.583 133.448 147.031 133 147.583 133H147.683C148.235 133 148.683 133.448 148.683 134C148.683 134.552 148.235 135 147.683 135H147.583C147.031 135 146.583 134.552 146.583 134ZM152.664 134C152.664 133.448 153.112 133 153.664 133H153.764C154.316 133 154.764 133.448 154.764 134C154.764 134.552 154.316 135 153.764 135H153.664C153.112 135 152.664 134.552 152.664 134ZM158.746 134C158.746 133.448 159.194 133 159.746 133H159.846C160.398 133 160.846 133.448 160.846 134C160.846 134.552 160.398 135 159.846 135H159.746C159.194 135 158.746 134.552 158.746 134ZM164.828 134C164.828 133.448 165.275 133 165.828 133H165.927C166.48 133 166.927 133.448 166.927 134C166.927 134.552 166.48 135 165.927 135H165.828C165.275 135 164.828 134.552 164.828 134ZM170.909 134C170.909 133.448 171.357 133 171.909 133H172.009C172.561 133 173.009 133.448 173.009 134C173.009 134.552 172.561 135 172.009 135H171.909C171.357 135 170.909 134.552 170.909 134ZM176.991 134C176.991 133.448 177.439 133 177.991 133H178.091C178.643 133 179.091 133.448 179.091 134C179.091 134.552 178.643 135 178.091 135H177.991C177.439 135 176.991 134.552 176.991 134ZM183.073 134C183.073 133.448 183.52 133 184.073 133H184.172C184.725 133 185.172 133.448 185.172 134C185.172 134.552 184.725 135 184.172 135H184.073C183.52 135 183.073 134.552 183.073 134ZM189.154 134C189.154 133.448 189.602 133 190.154 133H190.254C190.806 133 191.254 133.448 191.254 134C191.254 134.552 190.806 135 190.254 135H190.154C189.602 135 189.154 134.552 189.154 134ZM195.236 134C195.236 133.448 195.684 133 196.236 133H196.336C196.888 133 197.336 133.448 197.336 134C197.336 134.552 196.888 135 196.336 135H196.236C195.684 135 195.236 134.552 195.236 134ZM201.318 134C201.318 133.448 201.765 133 202.318 133H202.417C202.97 133 203.417 133.448 203.417 134C203.417 134.552 202.97 135 202.417 135H202.318C201.765 135 201.318 134.552 201.318 134ZM207.399 134C207.399 133.448 207.847 133 208.399 133H208.499C209.051 133 209.499 133.448 209.499 134C209.499 134.552 209.051 135 208.499 135H208.399C207.847 135 207.399 134.552 207.399 134ZM213.481 134C213.481 133.448 213.929 133 214.481 133H214.581C215.133 133 215.581 133.448 215.581 134C215.581 134.552 215.133 135 214.581 135H214.481C213.929 135 213.481 134.552 213.481 134ZM219.562 134C219.562 133.448 220.01 133 220.562 133H220.662C221.214 133 221.662 133.448 221.662 134C221.662 134.552 221.214 135 220.662 135H220.562C220.01 135 219.562 134.552 219.562 134ZM225.644 134C225.644 133.448 226.092 133 226.644 133H226.744C227.296 133 227.744 133.448 227.744 134C227.744 134.552 227.296 135 226.744 135H226.644C226.092 135 225.644 134.552 225.644 134ZM231.726 134C231.726 133.448 232.173 133 232.726 133H232.825C233.378 133 233.825 133.448 233.825 134C233.825 134.552 233.378 135 232.825 135H232.726C232.173 135 231.726 134.552 231.726 134ZM237.807 134C237.807 133.448 238.255 133 238.807 133H238.907C239.459 133 239.907 133.448 239.907 134C239.907 134.552 239.459 135 238.907 135H238.807C238.255 135 237.807 134.552 237.807 134ZM243.889 134C243.889 133.448 244.337 133 244.889 133H244.989C245.541 133 245.989 133.448 245.989 134C245.989 134.552 245.541 135 244.989 135H244.889C244.337 135 243.889 134.552 243.889 134ZM249.971 134C249.971 133.448 250.418 133 250.971 133H251.07C251.623 133 252.07 133.448 252.07 134C252.07 134.552 251.623 135 251.07 135H250.971C250.418 135 249.971 134.552 249.971 134ZM256.052 134C256.052 133.448 256.5 133 257.052 133H257.152C257.704 133 258.152 133.448 258.152 134C258.152 134.552 257.704 135 257.152 135H257.052C256.5 135 256.052 134.552 256.052 134ZM262.134 134C262.134 133.448 262.582 133 263.134 133H263.234C263.786 133 264.234 133.448 264.234 134C264.234 134.552 263.786 135 263.234 135H263.134C262.582 135 262.134 134.552 262.134 134ZM268.216 134C268.216 133.448 268.663 133 269.216 133H269.315C269.867 133 270.315 133.448 270.315 134C270.315 134.552 269.867 135 269.315 135H269.216C268.663 135 268.216 134.552 268.216 134ZM274.297 134C274.297 133.448 274.745 133 275.297 133H275.397C275.949 133 276.397 133.448 276.397 134C276.397 134.552 275.949 135 275.397 135H275.297C274.745 135 274.297 134.552 274.297 134ZM280.379 134C280.379 133.448 280.827 133 281.379 133H281.478C282.031 133 282.478 133.448 282.478 134C282.478 134.552 282.031 135 281.478 135H281.379C280.827 135 280.379 134.552 280.379 134ZM286.46 134C286.46 133.448 286.908 133 287.46 133H287.56C288.112 133 288.56 133.448 288.56 134C288.56 134.552 288.112 135 287.56 135H287.46C286.908 135 286.46 134.552 286.46 134ZM292.542 134C292.542 133.448 292.99 133 293.542 133H293.642C294.194 133 294.642 133.448 294.642 134C294.642 134.552 294.194 135 293.642 135H293.542C292.99 135 292.542 134.552 292.542 134ZM298.624 134C298.624 133.448 299.071 133 299.624 133H299.723C300.276 133 300.723 133.448 300.723 134C300.723 134.552 300.276 135 299.723 135H299.624C299.071 135 298.624 134.552 298.624 134ZM304.705 134C304.705 133.448 305.153 133 305.705 133H305.805C306.357 133 306.805 133.448 306.805 134C306.805 134.552 306.357 135 305.805 135H305.705C305.153 135 304.705 134.552 304.705 134ZM310.787 134C310.787 133.448 311.235 133 311.787 133H311.887C312.439 133 312.887 133.448 312.887 134C312.887 134.552 312.439 135 311.887 135H311.787C311.235 135 310.787 134.552 310.787 134ZM316.869 134C316.869 133.448 317.316 133 317.869 133H317.968C318.521 133 318.968 133.448 318.968 134C318.968 134.552 318.521 135 317.968 135H317.869C317.316 135 316.869 134.552 316.869 134ZM322.95 134C322.95 133.448 323.398 133 323.95 133H324C324.552 133 325 133.448 325 134C325 134.552 324.552 135 324 135H323.95C323.398 135 322.95 134.552 322.95 134Z" fill="#D1D5DB"/>
<g filter="url(#filter0_d_1413_14819)">
<path d="M24 81C24 77.6863 26.6863 75 30 75H157C160.314 75 163 77.6863 163 81V105C163 108.314 160.314 111 157 111H30C26.6863 111 24 108.314 24 105V81Z" fill="#15803D"/>
<path d="M37.0387 98V88.5455H40.5011C41.172 88.5455 41.7275 88.6562 42.1676 88.8778C42.6077 89.0964 42.937 89.3933 43.1555 89.7688C43.3741 90.1412 43.4833 90.5613 43.4833 91.0291C43.4833 91.4231 43.411 91.7554 43.2663 92.0263C43.1217 92.294 42.9278 92.5095 42.6847 92.6726C42.4446 92.8326 42.1799 92.9496 41.8906 93.0234V93.1158C42.2045 93.1312 42.5108 93.2327 42.8093 93.4205C43.1109 93.6051 43.3602 93.8683 43.5572 94.2099C43.7541 94.5515 43.8526 94.967 43.8526 95.4563C43.8526 95.9395 43.7388 96.3735 43.511 96.7582C43.2863 97.1398 42.9386 97.4429 42.4677 97.6676C41.9968 97.8892 41.3951 98 40.6626 98H37.0387ZM38.4652 96.7766H40.5241C41.2074 96.7766 41.6967 96.6443 41.9922 96.3796C42.2876 96.1149 42.4354 95.7841 42.4354 95.3871C42.4354 95.0885 42.36 94.8146 42.2092 94.5653C42.0584 94.3161 41.8429 94.1175 41.5629 93.9698C41.2859 93.8221 40.9566 93.7482 40.5749 93.7482H38.4652V96.7766ZM38.4652 92.6357H40.3764C40.6965 92.6357 40.9843 92.5741 41.2397 92.451C41.4982 92.3279 41.7029 92.1555 41.8537 91.9339C42.0076 91.7093 42.0845 91.4446 42.0845 91.1399C42.0845 90.7491 41.9476 90.4213 41.6737 90.1566C41.3997 89.8919 40.9796 89.7596 40.4134 89.7596H38.4652V92.6357ZM46.4725 93.3466H48.5314C49.3993 93.3466 50.0672 93.562 50.535 93.9929C51.0028 94.4238 51.2367 94.9793 51.2367 95.6594C51.2367 96.1026 51.132 96.5012 50.9228 96.8551C50.7135 97.209 50.4073 97.4891 50.0041 97.6953C49.6009 97.8984 49.11 98 48.5314 98H45.4338V90.9091H46.7864V96.8089H48.5314C48.9284 96.8089 49.2547 96.7058 49.5101 96.4996C49.7656 96.2904 49.8933 96.0241 49.8933 95.701C49.8933 95.3594 49.7656 95.0808 49.5101 94.8654C49.2547 94.6469 48.9284 94.5376 48.5314 94.5376H46.4725V93.3466ZM52.2431 98V90.9091H53.6234V98H52.2431ZM55.4758 98V90.9091H58.4165C59.2166 90.9091 59.8506 91.0799 60.3184 91.4215C60.7863 91.7601 61.0202 92.2202 61.0202 92.8018C61.0202 93.2173 60.8878 93.5466 60.6231 93.7898C60.3585 94.0329 60.0076 94.196 59.5706 94.2791C59.8876 94.3161 60.1784 94.4115 60.4431 94.5653C60.7078 94.7161 60.9201 94.9193 61.0802 95.1747C61.2433 95.4302 61.3248 95.7348 61.3248 96.0888C61.3248 96.4643 61.2279 96.7966 61.034 97.0859C60.8401 97.3722 60.5585 97.5968 60.1892 97.7599C59.8229 97.92 59.3813 98 58.8643 98H55.4758ZM56.773 96.8459H58.8643C59.2059 96.8459 59.4736 96.7643 59.6675 96.6012C59.8614 96.4381 59.9584 96.2165 59.9584 95.9364C59.9584 95.6071 59.8614 95.3486 59.6675 95.1609C59.4736 94.9701 59.2059 94.8746 58.8643 94.8746H56.773V96.8459ZM56.773 93.8636H58.4303C58.6888 93.8636 58.9104 93.8267 59.0951 93.7528C59.2828 93.679 59.4259 93.5743 59.5244 93.4389C59.626 93.3004 59.6768 93.1373 59.6768 92.9496C59.6768 92.6757 59.5644 92.4618 59.3398 92.3079C59.1151 92.154 58.8073 92.0771 58.4165 92.0771H56.773V93.8636ZM65.8952 98.1431C65.1965 98.1431 64.5948 97.9938 64.0901 97.6953C63.5885 97.3937 63.2007 96.9705 62.9268 96.4258C62.6559 95.878 62.5205 95.2363 62.5205 94.5007C62.5205 93.7744 62.6559 93.1342 62.9268 92.5803C63.2007 92.0263 63.5823 91.5939 64.0716 91.283C64.5641 90.9722 65.1396 90.8168 65.7982 90.8168C66.1983 90.8168 66.5861 90.8829 66.9616 91.0153C67.337 91.1476 67.674 91.3554 67.9726 91.6385C68.2711 91.9216 68.5065 92.2894 68.6789 92.7418C68.8512 93.1912 68.9374 93.7375 68.9374 94.3807V94.87H63.3007V93.8359H67.5848C67.5848 93.4728 67.5109 93.1512 67.3632 92.8711C67.2155 92.5879 67.0077 92.3648 66.74 92.2017C66.4753 92.0386 66.1644 91.957 65.8074 91.957C65.4197 91.957 65.0811 92.0524 64.7918 92.2433C64.5056 92.431 64.284 92.6772 64.127 92.9819C63.9732 93.2835 63.8962 93.6113 63.8962 93.9652V94.7731C63.8962 95.247 63.9793 95.6502 64.1455 95.9826C64.3148 96.315 64.5502 96.5689 64.8518 96.7443C65.1534 96.9167 65.5058 97.0028 65.909 97.0028C66.1706 97.0028 66.4091 96.9659 66.6246 96.892C66.84 96.8151 67.0262 96.7012 67.1831 96.5504C67.3401 96.3996 67.4601 96.2134 67.5432 95.9918L68.8497 96.2273C68.7451 96.612 68.5573 96.949 68.2865 97.2383C68.0187 97.5245 67.6817 97.7476 67.2755 97.9077C66.8723 98.0646 66.4122 98.1431 65.8952 98.1431ZM73.4558 98.1431C72.7695 98.1431 72.1786 97.9877 71.6831 97.6768C71.1906 97.3629 70.8121 96.9305 70.5474 96.3796C70.2827 95.8287 70.1504 95.1978 70.1504 94.4869C70.1504 93.7667 70.2858 93.1312 70.5566 92.5803C70.8275 92.0263 71.2091 91.5939 71.7015 91.283C72.194 90.9722 72.7741 90.8168 73.4419 90.8168C73.9805 90.8168 74.4606 90.9168 74.8823 91.1168C75.3039 91.3138 75.644 91.5908 75.9025 91.9478C76.1641 92.3048 76.3195 92.7218 76.3688 93.1989H75.0254C74.9515 92.8665 74.7823 92.5803 74.5176 92.3402C74.256 92.1001 73.9051 91.9801 73.465 91.9801C73.0803 91.9801 72.7433 92.0817 72.454 92.2848C72.1678 92.4848 71.9447 92.7711 71.7846 93.1435C71.6246 93.5128 71.5446 93.9498 71.5446 94.4545C71.5446 94.9716 71.623 95.4179 71.78 95.7933C71.937 96.1688 72.1586 96.4596 72.4448 96.6658C72.7341 96.872 73.0742 96.9751 73.465 96.9751C73.7266 96.9751 73.9636 96.9274 74.176 96.832C74.3914 96.7335 74.5714 96.5935 74.7161 96.4119C74.8638 96.2304 74.9669 96.0118 75.0254 95.7564H76.3688C76.3195 96.215 76.1703 96.6243 75.921 96.9844C75.6717 97.3445 75.3378 97.6276 74.9192 97.8338C74.5037 98.04 74.0159 98.1431 73.4558 98.1431ZM77.3082 92.1001V90.9091H83.2912V92.1001H80.9783V98H79.6303V92.1001H77.3082ZM86.1038 96.0657L89.2291 90.9091H90.7156V98H89.363V92.8388L86.2515 98H84.7512V90.9091H86.1038V96.0657ZM100.818 93.859V95.0547H96.9767V93.859H100.818ZM97.3645 90.9091V98H96.0119V90.9091H97.3645ZM101.782 90.9091V98H100.434V90.9091H101.782ZM105.693 98.157C105.243 98.157 104.837 98.0739 104.474 97.9077C104.111 97.7384 103.823 97.4937 103.611 97.1737C103.401 96.8536 103.297 96.4612 103.297 95.9964C103.297 95.5964 103.374 95.267 103.528 95.0085C103.681 94.75 103.889 94.5453 104.151 94.3945C104.412 94.2437 104.705 94.1299 105.028 94.0529C105.351 93.976 105.68 93.9175 106.016 93.8775C106.441 93.8282 106.785 93.7882 107.05 93.7575C107.315 93.7236 107.507 93.6697 107.627 93.5959C107.747 93.522 107.807 93.402 107.807 93.2358V93.2035C107.807 92.8003 107.693 92.4879 107.465 92.2663C107.241 92.0447 106.905 91.9339 106.459 91.9339C105.994 91.9339 105.628 92.037 105.36 92.2433C105.096 92.4464 104.912 92.6726 104.811 92.9219L103.514 92.6264C103.668 92.1955 103.892 91.8478 104.188 91.5831C104.486 91.3153 104.829 91.1214 105.217 91.0014C105.605 90.8783 106.013 90.8168 106.441 90.8168C106.724 90.8168 107.024 90.8506 107.341 90.9183C107.661 90.983 107.959 91.103 108.236 91.2784C108.516 91.4538 108.746 91.7047 108.924 92.0309C109.103 92.354 109.192 92.7741 109.192 93.2912V98H107.844V97.0305H107.789C107.699 97.209 107.565 97.3845 107.387 97.5568C107.208 97.7292 106.979 97.8723 106.699 97.9862C106.419 98.1 106.084 98.157 105.693 98.157ZM105.993 97.049C106.374 97.049 106.701 96.9736 106.971 96.8228C107.245 96.672 107.453 96.475 107.595 96.2319C107.739 95.9857 107.812 95.7225 107.812 95.4425V94.5284C107.762 94.5777 107.667 94.6238 107.525 94.6669C107.387 94.7069 107.228 94.7423 107.05 94.7731C106.871 94.8008 106.698 94.8269 106.528 94.8516C106.359 94.8731 106.217 94.8916 106.104 94.907C105.836 94.9408 105.591 94.9978 105.369 95.0778C105.151 95.1578 104.976 95.2732 104.843 95.424C104.714 95.5717 104.649 95.7687 104.649 96.0149C104.649 96.3565 104.776 96.6151 105.028 96.7905C105.28 96.9628 105.602 97.049 105.993 97.049ZM114.471 98V90.9091H115.851V93.8821H116.516L118.857 90.9091H120.565L117.818 94.3576L120.597 98H118.884L116.747 95.1655H115.851V98H114.471ZM123.733 98.157C123.283 98.157 122.877 98.0739 122.514 97.9077C122.151 97.7384 121.863 97.4937 121.651 97.1737C121.441 96.8536 121.337 96.4612 121.337 95.9964C121.337 95.5964 121.414 95.267 121.568 95.0085C121.721 94.75 121.929 94.5453 122.191 94.3945C122.452 94.2437 122.745 94.1299 123.068 94.0529C123.391 93.976 123.72 93.9175 124.056 93.8775C124.481 93.8282 124.825 93.7882 125.09 93.7575C125.355 93.7236 125.547 93.6697 125.667 93.5959C125.787 93.522 125.847 93.402 125.847 93.2358V93.2035C125.847 92.8003 125.733 92.4879 125.505 92.2663C125.281 92.0447 124.945 91.9339 124.499 91.9339C124.034 91.9339 123.668 92.037 123.4 92.2433C123.136 92.4464 122.953 92.6726 122.851 92.9219L121.554 92.6264C121.708 92.1955 121.932 91.8478 122.228 91.5831C122.526 91.3153 122.869 91.1214 123.257 91.0014C123.645 90.8783 124.053 90.8168 124.481 90.8168C124.764 90.8168 125.064 90.8506 125.381 90.9183C125.701 90.983 125.999 91.103 126.276 91.2784C126.556 91.4538 126.786 91.7047 126.964 92.0309C127.143 92.354 127.232 92.7741 127.232 93.2912V98H125.884V97.0305H125.829C125.739 97.209 125.605 97.3845 125.427 97.5568C125.248 97.7292 125.019 97.8723 124.739 97.9862C124.459 98.1 124.124 98.157 123.733 98.157ZM124.033 97.049C124.414 97.049 124.741 96.9736 125.011 96.8228C125.285 96.672 125.493 96.475 125.635 96.2319C125.779 95.9857 125.852 95.7225 125.852 95.4425V94.5284C125.802 94.5777 125.707 94.6238 125.565 94.6669C125.427 94.7069 125.268 94.7423 125.09 94.7731C124.911 94.8008 124.738 94.8269 124.568 94.8516C124.399 94.8731 124.257 94.8916 124.144 94.907C123.876 94.9408 123.631 94.9978 123.41 95.0778C123.191 95.1578 123.016 95.2732 122.883 95.424C122.754 95.5717 122.689 95.7687 122.689 96.0149C122.689 96.3565 122.816 96.6151 123.068 96.7905C123.32 96.9628 123.642 97.049 124.033 97.049ZM129.07 100.659V90.9091H130.419V92.0586H130.534C130.614 91.9109 130.729 91.7401 130.88 91.5462C131.031 91.3523 131.24 91.183 131.508 91.0384C131.776 90.8906 132.13 90.8168 132.57 90.8168C133.142 90.8168 133.653 90.9614 134.102 91.2507C134.552 91.54 134.904 91.957 135.16 92.5018C135.418 93.0465 135.547 93.7021 135.547 94.4684C135.547 95.2347 135.42 95.8918 135.164 96.4396C134.909 96.9844 134.558 97.4045 134.112 97.6999C133.665 97.9923 133.156 98.1385 132.584 98.1385C132.153 98.1385 131.8 98.0662 131.526 97.9215C131.256 97.7769 131.043 97.6076 130.889 97.4137C130.735 97.2198 130.617 97.0475 130.534 96.8967H130.451V100.659H129.07ZM130.423 94.4545C130.423 94.9531 130.495 95.3902 130.64 95.7656C130.785 96.1411 130.994 96.435 131.268 96.6474C131.542 96.8567 131.877 96.9613 132.274 96.9613C132.687 96.9613 133.031 96.852 133.308 96.6335C133.585 96.4119 133.795 96.1119 133.936 95.7333C134.081 95.3548 134.153 94.9285 134.153 94.4545C134.153 93.9867 134.082 93.5666 133.941 93.1942C133.802 92.8219 133.593 92.5279 133.313 92.3125C133.036 92.0971 132.69 91.9893 132.274 91.9893C131.874 91.9893 131.536 92.0924 131.259 92.2987C130.985 92.5049 130.777 92.7926 130.635 93.1619C130.494 93.5312 130.423 93.9621 130.423 94.4545ZM136.24 92.1001V90.9091H142.223V92.1001H139.91V98H138.562V92.1001H136.24ZM144.555 100.659C144.349 100.659 144.161 100.642 143.992 100.608C143.823 100.578 143.697 100.544 143.614 100.507L143.946 99.3757C144.198 99.4434 144.423 99.4727 144.62 99.4634C144.817 99.4542 144.991 99.3803 145.142 99.2418C145.295 99.1033 145.431 98.8771 145.548 98.5632L145.719 98.0923L143.124 90.9091H144.601L146.397 96.4119H146.471L148.267 90.9091H149.749L146.827 98.9464C146.691 99.3157 146.519 99.6281 146.31 99.8835C146.1 100.142 145.851 100.336 145.562 100.465C145.272 100.594 144.937 100.659 144.555 100.659Z" fill="white"/>
</g>
<defs>
<filter id="filter0_d_1413_14819" x="22" y="74" width="143" height="40" filterUnits="userSpaceOnUse" color-interpolation-filters="sRGB">
<feFlood flood-opacity="0" result="BackgroundImageFix"/>
<feColorMatrix in="SourceAlpha" type="matrix" values="0 0 0 0 0 0 0 0 0 0 0 0 0 0 0 0 0 0 127 0" result="hardAlpha"/>
<feOffset dy="1"/>
<feGaussianBlur stdDeviation="1"/>
<feComposite in2="hardAlpha" operator="out"/>
<feColorMatrix type="matrix" values="0 0 0 0 0 0 0 0 0 0 0 0 0 0 0 0 0 0 0.05 0"/>
<feBlend mode="normal" in2="BackgroundImageFix" result="effect1_dropShadow_1413_14819"/>
<feBlend mode="normal" in="SourceGraphic" in2="effect1_dropShadow_1413_14819" result="shape"/>
</filter>
</defs>
</svg>
