<svg width="348" height="240" viewBox="0 0 348 240" fill="none" xmlns="http://www.w3.org/2000/svg">
<rect width="348" height="240" fill="white"/>
<rect x="24" y="157" width="300" height="59" rx="19" fill="#EDEDF2"/>
<path d="M19 216.309C24 211.309 24 208.5 24 197.5L31.5 211.872C30.0068 213.306 27.6006 216.309 19 216.309Z" fill="#EDEDF2"/>
<path d="M41.6709 181H43.4346V172.619H46.4766V171.136H38.6357V172.619H41.6709V181Z" fill="#111827"/>
<path d="M48.3828 172.277C48.9365 172.277 49.3945 171.833 49.3945 171.272C49.3945 170.719 48.9365 170.268 48.3828 170.268C47.8223 170.268 47.3643 170.719 47.3643 171.272C47.3643 171.833 47.8223 172.277 48.3828 172.277ZM47.5283 181H49.2305V173.528H47.5283V181Z" fill="#111827"/>
<path d="M50.8223 181H52.5244V176.646C52.5244 175.524 53.1533 174.813 54.165 174.813C55.1973 174.813 55.6689 175.401 55.6689 176.563V181H57.3711V176.167C57.3711 174.39 56.4619 173.385 54.7939 173.385C53.7139 173.385 52.9961 173.87 52.6406 174.67H52.5244V173.528H50.8223V181Z" fill="#111827"/>
<path d="M58.9492 181H60.6514V178.375L61.2461 177.767L63.6455 181H65.6963L62.4834 176.687L65.4912 173.528H63.5225L60.7676 176.591H60.6514V170.637H58.9492V181Z" fill="#111827"/>
<path d="M69.3184 181.15C71.5537 181.15 72.9141 179.688 72.9141 177.268V177.254C72.9141 174.848 71.5469 173.385 69.3184 173.385C67.0967 173.385 65.7227 174.854 65.7227 177.254V177.268C65.7227 179.688 67.0762 181.15 69.3184 181.15ZM69.3184 179.77C68.1357 179.77 67.459 178.847 67.459 177.274V177.261C67.459 175.688 68.1357 174.759 69.3184 174.759C70.4941 174.759 71.1709 175.688 71.1709 177.261V177.274C71.1709 178.847 70.501 179.77 69.3184 179.77Z" fill="#111827"/>
<path d="M74.6699 181H76.3721V174.848H77.9648V173.528H76.3447V172.886C76.3447 172.175 76.6523 171.792 77.4521 171.792C77.6914 171.792 77.9033 171.806 78.0332 171.826V170.637C77.7598 170.589 77.4521 170.568 77.0898 170.568C75.4287 170.568 74.6699 171.3 74.6699 172.79V173.528H73.4463V174.848H74.6699V181Z" fill="#111827"/>
<path d="M79.6934 181H81.3955V174.848H82.9883V173.528H81.3682V172.886C81.3682 172.175 81.6758 171.792 82.4756 171.792C82.7148 171.792 82.9268 171.806 83.0566 171.826V170.637C82.7832 170.589 82.4756 170.568 82.1133 170.568C80.4521 170.568 79.6934 171.3 79.6934 172.79V173.528H78.4697V174.848H79.6934V181Z" fill="#111827"/>
<path d="M87.5391 181H91.7568C93.8623 181 95.1475 179.934 95.1475 178.204V178.19C95.1475 176.912 94.2314 175.955 92.9053 175.832V175.709C93.8965 175.552 94.6621 174.636 94.6621 173.604V173.59C94.6621 172.079 93.5342 171.136 91.6611 171.136H87.5391V181ZM91.2305 172.51C92.2969 172.51 92.9189 173.022 92.9189 173.897V173.911C92.9189 174.807 92.2559 175.292 91.0049 175.292H89.3027V172.51H91.2305ZM91.2852 176.543C92.6318 176.543 93.3428 177.069 93.3428 178.067V178.081C93.3428 179.086 92.6523 179.626 91.3535 179.626H89.3027V176.543H91.2852Z" fill="#111827"/>
<path d="M98.4277 181.123C99.4121 181.123 100.205 180.699 100.615 179.975H100.731V181H102.413V175.894C102.413 174.314 101.333 173.385 99.4121 173.385C97.6348 173.385 96.4316 174.219 96.2676 175.477L96.2607 175.538H97.8672L97.874 175.511C98.0449 175.019 98.5508 174.738 99.3301 174.738C100.246 174.738 100.731 175.148 100.731 175.894V176.536L98.8105 176.652C96.9922 176.762 95.9736 177.541 95.9736 178.874V178.888C95.9736 180.248 97.0059 181.123 98.4277 181.123ZM97.6553 178.806V178.792C97.6553 178.177 98.0996 177.828 99.0498 177.767L100.731 177.657V178.259C100.731 179.147 99.9727 179.817 98.9473 179.817C98.1953 179.817 97.6553 179.441 97.6553 178.806Z" fill="#111827"/>
<path d="M103.957 181H105.659V176.646C105.659 175.524 106.288 174.813 107.3 174.813C108.332 174.813 108.804 175.401 108.804 176.563V181H110.506V176.167C110.506 174.39 109.597 173.385 107.929 173.385C106.849 173.385 106.131 173.87 105.775 174.67H105.659V173.528H103.957V181Z" fill="#111827"/>
<path d="M112.084 181H113.786V178.375L114.381 177.767L116.78 181H118.831L115.618 176.687L118.626 173.528H116.657L113.902 176.591H113.786V170.637H112.084V181Z" fill="#111827"/>
<path d="M42.1084 201H43.3252L46.9619 191.136H45.6699L42.7715 199.407H42.6621L39.7637 191.136H38.4717L42.1084 201Z" fill="#111827"/>
<path d="M48.4514 201H49.6819V191.136H48.4514V201Z" fill="#111827"/>
<path d="M55.1909 201.232C57.3921 201.232 58.8345 200.084 58.8345 198.238V198.231C58.8345 196.81 58.021 195.982 55.9634 195.524L54.8696 195.278C53.5298 194.984 52.9897 194.451 52.9897 193.665V193.658C52.9897 192.626 53.9399 192.045 55.1704 192.038C56.4555 192.031 57.2759 192.674 57.4126 193.542L57.4263 193.631H58.6567L58.6499 193.535C58.5473 192.065 57.1733 190.903 55.2046 190.903C53.1675 190.903 51.7388 192.059 51.7319 193.692V193.699C51.7319 195.128 52.5864 196.037 54.562 196.475L55.6557 196.714C57.0093 197.015 57.5766 197.575 57.5766 198.396V198.402C57.5766 199.407 56.5991 200.098 55.2593 200.098C53.8374 200.098 52.812 199.476 52.7231 198.491L52.7163 198.416H51.4858L51.4927 198.491C51.6362 200.098 53.0307 201.232 55.1909 201.232Z" fill="#111827"/>
<path d="M59.8591 201H61.1511L62.1423 198.177H66.0661L67.0573 201H68.3493L64.7126 191.136H63.4958L59.8591 201ZM64.0495 192.729H64.1589L65.7038 197.131H62.5046L64.0495 192.729Z" fill="#111827"/>
<path d="M75.7922 201H77.0227V191.136H75.799L73.174 193.022V194.321L75.6828 192.503H75.7922V201Z" fill="#111827"/>
<path d="M79.6332 201H86.018V199.893H81.3422V199.783L83.5844 197.466C85.3686 195.627 85.8539 194.807 85.8539 193.679V193.665C85.8539 192.072 84.5346 190.903 82.812 190.903C80.9252 190.903 79.5717 192.161 79.5649 193.911L79.5786 193.918L80.7543 193.925L80.7612 193.911C80.7612 192.749 81.5473 191.977 82.7299 191.977C83.892 191.977 84.5961 192.756 84.5961 193.795V193.809C84.5961 194.67 84.227 195.183 82.9692 196.543L79.6332 200.152V201Z" fill="#111827"/>
<path d="M91.1989 201.164C93.1745 201.164 94.6237 199.947 94.6237 198.3V198.286C94.6237 196.885 93.6462 195.989 92.2106 195.866V195.839C93.4411 195.579 94.3024 194.745 94.3024 193.528V193.515C94.3024 192.018 93.0651 190.972 91.1852 190.972C89.3395 190.972 88.068 192.045 87.9108 193.651L87.904 193.72H89.0866L89.0934 193.651C89.196 192.653 90.0231 192.038 91.1852 192.038C92.3884 192.038 93.0651 192.633 93.0651 193.665V193.679C93.0651 194.663 92.2448 195.388 91.069 195.388H89.8864V196.427H91.1237C92.5046 196.427 93.3727 197.104 93.3727 198.313V198.327C93.3727 199.373 92.4909 200.098 91.1989 200.098C89.8864 200.098 88.9909 199.428 88.8952 198.457L88.8884 198.389H87.7057L87.7126 198.471C87.8425 200.029 89.1618 201.164 91.1989 201.164Z" fill="#111827"/>
<path d="M100.885 201H102.088V198.956H103.489V197.855H102.088V191.136H100.304C98.9228 193.193 97.412 195.6 96.079 197.835V198.956H100.885V201ZM97.3368 197.862V197.78C98.4101 195.969 99.7021 193.932 100.809 192.277H100.892V197.862H97.3368Z" fill="#111827"/>
<path d="M104.377 203.509H105.259L106.332 199.619H104.972L104.377 203.509Z" fill="#111827"/>
<path d="M114.862 201.137C116.578 201.137 117.76 200.2 117.76 198.833V198.819C117.76 197.999 117.248 197.411 116.277 197.199V197.09C117.008 196.919 117.494 196.242 117.494 195.497V195.483C117.494 194.308 116.55 193.494 114.903 193.494C113.399 193.494 112.319 194.246 112.148 195.429L112.141 195.477H113.303L113.31 195.442C113.426 194.854 114.062 194.479 114.903 194.479C115.846 194.479 116.332 194.943 116.332 195.572V195.586C116.332 196.352 115.805 196.728 114.862 196.728H113.714V197.712H114.862C115.99 197.712 116.591 198.081 116.591 198.881V198.895C116.591 199.626 115.949 200.152 114.862 200.152C113.966 200.152 113.31 199.77 113.16 199.168L113.146 199.113H111.936L111.943 199.168C112.093 200.357 113.29 201.137 114.862 201.137Z" fill="#111827"/>
<path d="M121.526 201.13C122.517 201.13 123.29 200.699 123.755 199.913H123.864V201H125.054V195.955C125.054 194.424 124.049 193.501 122.251 193.501C120.679 193.501 119.558 194.28 119.366 195.436L119.359 195.477H120.549L120.556 195.456C120.747 194.882 121.328 194.554 122.21 194.554C123.31 194.554 123.864 195.046 123.864 195.955V196.625L121.752 196.755C120.036 196.857 119.065 197.616 119.065 198.929V198.942C119.065 200.282 120.125 201.13 121.526 201.13ZM120.282 198.915V198.901C120.282 198.17 120.774 197.773 121.895 197.705L123.864 197.582V198.252C123.864 199.305 122.982 200.098 121.772 200.098C120.918 200.098 120.282 199.66 120.282 198.915Z" fill="#111827"/>
<path d="M132.736 201V193.631H131.547V196.741C131.239 197.083 130.604 197.322 129.681 197.322C128.676 197.322 128.17 196.707 128.17 195.736V193.631H126.981V195.736C126.981 197.309 127.903 198.375 129.681 198.375C130.474 198.375 131.041 198.211 131.438 197.931H131.547V201H132.736Z" fill="#111827"/>
<path d="M134.834 201H136.024L139.667 195.504H139.777V201H140.966V193.631H139.777L136.133 199.127H136.024V193.631H134.834V201Z" fill="#111827"/>
<path d="M146.092 201.13C147.863 201.13 148.854 200.18 149.155 198.847L149.169 198.771L147.993 198.778L147.979 198.819C147.706 199.64 147.077 200.077 146.086 200.077C144.773 200.077 143.925 198.99 143.925 197.295V197.281C143.925 195.62 144.759 194.554 146.086 194.554C147.145 194.554 147.801 195.142 147.986 195.866L147.993 195.887H149.175L149.169 195.846C148.95 194.533 147.877 193.501 146.086 193.501C144.021 193.501 142.709 194.991 142.709 197.281V197.295C142.709 199.633 144.028 201.13 146.092 201.13Z" fill="#111827"/>
<path d="M152.531 198.115L152.805 194.615H155.368V201H156.557V193.631H151.738L151.424 198.02C151.348 199.113 151.075 199.968 150.398 199.968C150.221 199.968 150.036 199.94 149.974 199.92V200.993C150.07 201.027 150.262 201.068 150.514 201.068C151.745 201.068 152.374 200.146 152.531 198.115Z" fill="#111827"/>
<path d="M161.67 201.13C163.406 201.13 164.459 200.146 164.712 199.147L164.726 199.093H163.536L163.509 199.154C163.311 199.599 162.695 200.07 161.697 200.07C160.385 200.07 159.544 199.182 159.51 197.657H164.815V197.192C164.815 194.991 163.598 193.501 161.595 193.501C159.592 193.501 158.293 195.06 158.293 197.336V197.343C158.293 199.653 159.565 201.13 161.67 201.13ZM161.588 194.561C162.675 194.561 163.482 195.251 163.605 196.707H159.53C159.66 195.306 160.494 194.561 161.588 194.561Z" fill="#111827"/>
<path d="M171.39 201H172.579V193.631H171.39V196.68H167.74V193.631H166.55V201H167.74V197.664H171.39V201Z" fill="#111827"/>
<path d="M174.677 201H175.867L179.51 195.504H179.62V201H180.809V193.631H179.62L175.976 199.127H175.867V193.631H174.677V201Z" fill="#111827"/>
<path d="M185.929 201.13C187.665 201.13 188.718 200.146 188.971 199.147L188.984 199.093H187.795L187.767 199.154C187.569 199.599 186.954 200.07 185.956 200.07C184.643 200.07 183.803 199.182 183.768 197.657H189.073V197.192C189.073 194.991 187.856 193.501 185.853 193.501C183.85 193.501 182.552 195.06 182.552 197.336V197.343C182.552 199.653 183.823 201.13 185.929 201.13ZM185.846 194.561C186.933 194.561 187.74 195.251 187.863 196.707H183.789C183.919 195.306 184.753 194.561 185.846 194.561Z" fill="#111827"/>
<path d="M191.718 195.777C192.21 195.777 192.606 195.374 192.606 194.889C192.606 194.396 192.21 194 191.718 194C191.232 194 190.829 194.396 190.829 194.889C190.829 195.374 191.232 195.777 191.718 195.777ZM191.718 201.068C192.21 201.068 192.606 200.665 192.606 200.18C192.606 199.688 192.21 199.291 191.718 199.291C191.232 199.291 190.829 199.688 190.829 200.18C190.829 200.665 191.232 201.068 191.718 201.068Z" fill="#111827"/>
<path d="M201.581 190.903C199.591 190.903 198.128 192.332 198.128 194.301V194.314C198.128 196.208 199.509 197.616 201.362 197.616C202.695 197.616 203.625 196.898 203.987 196.092H204.117C204.117 196.167 204.117 196.249 204.11 196.324C204.035 198.382 203.303 200.132 201.512 200.132C200.514 200.132 199.824 199.619 199.523 198.792L199.496 198.717H198.258L198.279 198.806C198.614 200.262 199.844 201.232 201.499 201.232C203.891 201.232 205.292 199.264 205.292 195.9V195.887C205.292 192.175 203.385 190.903 201.581 190.903ZM201.574 196.543C200.295 196.543 199.366 195.6 199.366 194.287V194.273C199.366 192.995 200.357 191.99 201.594 191.99C202.845 191.99 203.823 193.016 203.823 194.314V194.321C203.823 195.606 202.852 196.543 201.574 196.543Z" fill="#111827"/>
<path d="M207.165 201H208.457L212.845 192.277V191.136H206.317V192.236H211.594V192.332L207.165 201Z" fill="#111827"/>
<path d="M217.582 201.232C219.763 201.232 221.075 199.243 221.075 196.071V196.058C221.075 192.886 219.763 190.903 217.582 190.903C215.401 190.903 214.103 192.886 214.103 196.058V196.071C214.103 199.243 215.401 201.232 217.582 201.232ZM217.582 200.159C216.167 200.159 215.34 198.587 215.34 196.071V196.058C215.34 193.542 216.167 191.983 217.582 191.983C218.997 191.983 219.838 193.542 219.838 196.058V196.071C219.838 198.587 218.997 200.159 217.582 200.159Z" fill="#111827"/>
<path d="M226.16 201.232C228.341 201.232 229.654 199.243 229.654 196.071V196.058C229.654 192.886 228.341 190.903 226.16 190.903C223.98 190.903 222.681 192.886 222.681 196.058V196.071C222.681 199.243 223.98 201.232 226.16 201.232ZM226.16 200.159C224.745 200.159 223.918 198.587 223.918 196.071V196.058C223.918 193.542 224.745 191.983 226.16 191.983C227.575 191.983 228.416 193.542 228.416 196.058V196.071C228.416 198.587 227.575 200.159 226.16 200.159Z" fill="#111827"/>
<path d="M234.683 199.455H236.051V200.795H237.281V199.455H240.118V198.635H237.281V197.322H239.161C241.013 197.322 242.217 196.085 242.217 194.342V194.328C242.217 192.605 241.027 191.341 239.175 191.341H236.051V196.502H234.683V197.322H236.051V198.635H234.683V199.455ZM237.281 196.229V192.435H238.853C240.268 192.435 240.952 193.159 240.952 194.328V194.342C240.952 195.518 240.261 196.229 238.853 196.229H237.281Z" fill="#111827"/>
<path d="M268.209 181.13C269.98 181.13 270.971 180.18 271.272 178.847L271.286 178.771L270.11 178.778L270.096 178.819C269.823 179.64 269.194 180.077 268.202 180.077C266.89 180.077 266.042 178.99 266.042 177.295V177.281C266.042 175.62 266.876 174.554 268.202 174.554C269.262 174.554 269.918 175.142 270.103 175.866L270.11 175.887H271.292L271.286 175.846C271.067 174.533 269.994 173.501 268.202 173.501C266.138 173.501 264.826 174.991 264.826 177.281V177.295C264.826 179.633 266.145 181.13 268.209 181.13Z" fill="#3C3C43" fill-opacity="0.6"/>
<path d="M276.095 181.13C277.832 181.13 278.884 180.146 279.137 179.147L279.151 179.093H277.961L277.934 179.154C277.736 179.599 277.121 180.07 276.123 180.07C274.81 180.07 273.969 179.182 273.935 177.657H279.24V177.192C279.24 174.991 278.023 173.501 276.02 173.501C274.017 173.501 272.718 175.06 272.718 177.336V177.343C272.718 179.653 273.99 181.13 276.095 181.13ZM276.013 174.561C277.1 174.561 277.907 175.251 278.03 176.707H273.956C274.085 175.306 274.919 174.561 276.013 174.561Z" fill="#3C3C43" fill-opacity="0.6"/>
<path d="M284.207 172.605C285.615 172.605 286.551 171.635 286.551 170.363H285.485C285.485 171.108 285.013 171.799 284.207 171.799C283.414 171.799 282.928 171.108 282.928 170.363H281.862C281.862 171.635 282.798 172.605 284.207 172.605ZM281.137 181H282.327L285.97 175.504H286.08V181H287.269V173.631H286.08L282.436 179.127H282.327V173.631H281.137V181Z" fill="#3C3C43" fill-opacity="0.6"/>
<path d="M295.155 181V173.631H293.966V176.741C293.658 177.083 293.022 177.322 292.099 177.322C291.094 177.322 290.589 176.707 290.589 175.736V173.631H289.399V175.736C289.399 177.309 290.322 178.375 292.099 178.375C292.892 178.375 293.46 178.211 293.856 177.931H293.966V181H295.155Z" fill="#3C3C43" fill-opacity="0.6"/>
<path d="M299.445 181.13C300.436 181.13 301.209 180.699 301.674 179.913H301.783V181H302.973V175.955C302.973 174.424 301.968 173.501 300.17 173.501C298.598 173.501 297.476 174.28 297.285 175.436L297.278 175.477H298.468L298.474 175.456C298.666 174.882 299.247 174.554 300.129 174.554C301.229 174.554 301.783 175.046 301.783 175.955V176.625L299.671 176.755C297.955 176.857 296.984 177.616 296.984 178.929V178.942C296.984 180.282 298.044 181.13 299.445 181.13ZM298.201 178.915V178.901C298.201 178.17 298.693 177.773 299.814 177.705L301.783 177.582V178.252C301.783 179.305 300.901 180.098 299.691 180.098C298.837 180.098 298.201 179.66 298.201 178.915Z" fill="#3C3C43" fill-opacity="0.6"/>
<path d="M308.22 181.13C309.99 181.13 310.981 180.18 311.282 178.847L311.296 178.771L310.12 178.778L310.106 178.819C309.833 179.64 309.204 180.077 308.213 180.077C306.9 180.077 306.053 178.99 306.053 177.295V177.281C306.053 175.62 306.887 174.554 308.213 174.554C309.272 174.554 309.929 175.142 310.113 175.866L310.12 175.887H311.303L311.296 175.846C311.077 174.533 310.004 173.501 308.213 173.501C306.148 173.501 304.836 174.991 304.836 177.281V177.295C304.836 179.633 306.155 181.13 308.22 181.13Z" fill="#3C3C43" fill-opacity="0.6"/>
<path d="M25.4347 39V24.4545H34.7884V26.6633H28.0696V30.0724H30.875C31.9877 30.0724 32.9418 30.2547 33.7372 30.6193C34.5374 30.9792 35.1506 31.4882 35.5767 32.1463C36.0028 32.8044 36.2159 33.5786 36.2159 34.4687C36.2159 35.3636 36.0028 36.152 35.5767 36.8338C35.1506 37.5109 34.5374 38.0412 33.7372 38.4247C32.9418 38.8082 31.9877 39 30.875 39H25.4347ZM28.0696 36.8409H30.875C31.4621 36.8409 31.9593 36.7296 32.3665 36.5071C32.7737 36.2846 33.0814 35.991 33.2898 35.6264C33.5028 35.2618 33.6094 34.8665 33.6094 34.4403C33.6094 33.8248 33.3726 33.3016 32.8992 32.8707C32.4304 32.4351 31.7557 32.2173 30.875 32.2173H28.0696V36.8409Z" fill="#1E293B"/>
<path d="M41.5462 39.2202C40.8549 39.2202 40.2322 39.0971 39.6783 38.8508C39.129 38.5999 38.6934 38.2306 38.3715 37.7429C38.0542 37.2552 37.8956 36.6539 37.8956 35.9389C37.8956 35.3234 38.0092 34.8144 38.2365 34.4119C38.4638 34.0095 38.7739 33.6875 39.1669 33.446C39.5599 33.2045 40.0026 33.0222 40.495 32.8991C40.9922 32.7713 41.5059 32.679 42.0362 32.6222C42.6754 32.5559 43.1939 32.4967 43.5916 32.4446C43.9893 32.3878 44.2782 32.3026 44.4581 32.1889C44.6428 32.0705 44.7351 31.8883 44.7351 31.642V31.5994C44.7351 31.0644 44.5765 30.6501 44.2592 30.3565C43.942 30.063 43.4851 29.9162 42.8885 29.9162C42.2588 29.9162 41.7592 30.0535 41.3899 30.3281C41.0253 30.6027 40.7791 30.9271 40.6513 31.3011L38.2507 30.9602C38.4401 30.2973 38.7526 29.7434 39.1882 29.2983C39.6238 28.8485 40.1565 28.5123 40.7862 28.2898C41.416 28.0625 42.112 27.9489 42.8743 27.9489C43.3999 27.9489 43.9231 28.0104 44.4439 28.1335C44.9647 28.2566 45.4406 28.4602 45.8715 28.7443C46.3023 29.0237 46.648 29.4048 46.9084 29.8878C47.1735 30.3707 47.3061 30.9744 47.3061 31.6989V39H44.8345V37.5014H44.7493C44.593 37.8044 44.3729 38.0885 44.0888 38.3537C43.8094 38.6141 43.4567 38.8248 43.0305 38.9858C42.6091 39.142 42.1144 39.2202 41.5462 39.2202ZM42.2138 37.331C42.7299 37.331 43.1773 37.2292 43.5561 37.0256C43.9349 36.8172 44.2261 36.5426 44.4297 36.2017C44.638 35.8608 44.7422 35.4891 44.7422 35.0866V33.8011C44.6617 33.8674 44.5244 33.929 44.3303 33.9858C44.1409 34.0426 43.9278 34.0923 43.6911 34.1349C43.4543 34.1776 43.2199 34.2154 42.9879 34.2486C42.7559 34.2817 42.5547 34.3101 42.3842 34.3338C42.0007 34.3859 41.6574 34.4711 41.3544 34.5895C41.0514 34.7079 40.8123 34.8736 40.6371 35.0866C40.4619 35.295 40.3743 35.5649 40.3743 35.8963C40.3743 36.3698 40.5471 36.7273 40.8928 36.9687C41.2384 37.2102 41.6787 37.331 42.2138 37.331Z" fill="#1E293B"/>
<path d="M49.1385 39L49.1243 36.8835H49.5007C49.7848 36.8835 50.0239 36.8196 50.218 36.6918C50.4122 36.5639 50.5732 36.3508 50.701 36.0526C50.8288 35.7495 50.9283 35.3423 50.9993 34.831C51.0703 34.3196 51.12 33.6828 51.1484 32.9204L51.3402 28.0909H59.2948V39H56.809V30.2003H53.6768L53.5064 33.7159C53.4638 34.625 53.362 35.4133 53.201 36.081C53.0447 36.7438 52.8222 37.2907 52.5334 37.7216C52.2493 38.1525 51.8918 38.4744 51.4609 38.6875C51.0301 38.8958 50.5211 39 49.934 39H49.1385Z" fill="#1E293B"/>
<path d="M65.0227 39.2202C64.3314 39.2202 63.7088 39.0971 63.1548 38.8508C62.6056 38.5999 62.17 38.2306 61.848 37.7429C61.5308 37.2552 61.3722 36.6539 61.3722 35.9389C61.3722 35.3234 61.4858 34.8144 61.7131 34.4119C61.9403 34.0095 62.2505 33.6875 62.6435 33.446C63.0365 33.2045 63.4792 33.0222 63.9716 32.8991C64.4688 32.7713 64.9825 32.679 65.5128 32.6222C66.152 32.5559 66.6705 32.4967 67.0682 32.4446C67.4659 32.3878 67.7547 32.3026 67.9347 32.1889C68.1193 32.0705 68.2117 31.8883 68.2117 31.642V31.5994C68.2117 31.0644 68.053 30.6501 67.7358 30.3565C67.4186 30.063 66.9616 29.9162 66.3651 29.9162C65.7353 29.9162 65.2358 30.0535 64.8665 30.3281C64.5019 30.6027 64.2557 30.9271 64.1278 31.3011L61.7273 30.9602C61.9167 30.2973 62.2292 29.7434 62.6648 29.2983C63.1004 28.8485 63.6331 28.5123 64.2628 28.2898C64.8925 28.0625 65.5885 27.9489 66.3509 27.9489C66.8764 27.9489 67.3996 28.0104 67.9205 28.1335C68.4413 28.2566 68.9171 28.4602 69.348 28.7443C69.7789 29.0237 70.1245 29.4048 70.3849 29.8878C70.6501 30.3707 70.7827 30.9744 70.7827 31.6989V39H68.3111V37.5014H68.2259C68.0696 37.8044 67.8494 38.0885 67.5653 38.3537C67.286 38.6141 66.9332 38.8248 66.5071 38.9858C66.0857 39.142 65.5909 39.2202 65.0227 39.2202ZM65.6903 37.331C66.2064 37.331 66.6539 37.2292 67.0327 37.0256C67.4115 36.8172 67.7027 36.5426 67.9063 36.2017C68.1146 35.8608 68.2188 35.4891 68.2188 35.0866V33.8011C68.1383 33.8674 68.001 33.929 67.8068 33.9858C67.6174 34.0426 67.4044 34.0923 67.1676 34.1349C66.9309 34.1776 66.6965 34.2154 66.4645 34.2486C66.2325 34.2817 66.0313 34.3101 65.8608 34.3338C65.4773 34.3859 65.134 34.4711 64.831 34.5895C64.5279 34.7079 64.2888 34.8736 64.1136 35.0866C63.9385 35.295 63.8509 35.5649 63.8509 35.8963C63.8509 36.3698 64.0237 36.7273 64.3693 36.9687C64.715 37.2102 65.1553 37.331 65.6903 37.331Z" fill="#1E293B"/>
<path d="M80.8608 32.4801V34.5895H75.0511V32.4801H80.8608ZM75.8466 28.0909V39H73.3679V28.0909H75.8466ZM82.544 28.0909V39H80.0724V28.0909H82.544Z" fill="#1E293B"/>
<path d="M89.9038 39.2131C88.8147 39.2131 87.8796 38.974 87.0984 38.4957C86.3219 38.0175 85.7229 37.357 85.3015 36.5142C84.8848 35.6667 84.6765 34.6913 84.6765 33.5881C84.6765 32.4801 84.8896 31.5024 85.3157 30.6548C85.7418 29.8026 86.3432 29.1397 87.1197 28.6662C87.9009 28.188 88.8242 27.9489 89.8896 27.9489C90.775 27.9489 91.5586 28.1122 92.2404 28.4389C92.927 28.7609 93.4738 29.2178 93.881 29.8097C94.2882 30.3968 94.5202 31.0833 94.5771 31.8693H92.1197C92.0202 31.3437 91.7835 30.9058 91.4094 30.5554C91.0401 30.2003 90.5453 30.0227 89.9251 30.0227C89.3995 30.0227 88.9379 30.1648 88.5401 30.4489C88.1424 30.7282 87.8323 31.1307 87.6097 31.6562C87.3919 32.1818 87.283 32.8115 87.283 33.5454C87.283 34.2888 87.3919 34.928 87.6097 35.4631C87.8275 35.9934 88.1329 36.4029 88.5259 36.6918C88.9237 36.9758 89.39 37.1179 89.9251 37.1179C90.3039 37.1179 90.6424 37.0469 90.9407 36.9048C91.2437 36.758 91.497 36.5473 91.7006 36.2727C91.9042 35.9981 92.0439 35.6643 92.1197 35.2713H94.5771C94.5155 36.0431 94.2882 36.7273 93.8952 37.3239C93.5022 37.9157 92.9672 38.3797 92.2901 38.7159C91.613 39.0473 90.8176 39.2131 89.9038 39.2131Z" fill="#1E293B"/>
<path d="M98.272 39.1562C97.8411 39.1562 97.4718 39.0047 97.1641 38.7017C96.8563 38.3987 96.7048 38.0294 96.7095 37.5937C96.7048 37.1676 96.8563 36.803 97.1641 36.5C97.4718 36.197 97.8411 36.0454 98.272 36.0454C98.6887 36.0454 99.0509 36.197 99.3587 36.5C99.6712 36.803 99.8298 37.1676 99.8345 37.5937C99.8298 37.8826 99.754 38.1454 99.6072 38.3821C99.4652 38.6188 99.2758 38.8082 99.0391 38.9503C98.8071 39.0876 98.5514 39.1562 98.272 39.1562ZM98.272 31.3722C97.8411 31.3722 97.4718 31.2206 97.1641 30.9176C96.8563 30.6098 96.7048 30.2405 96.7095 29.8097C96.7048 29.3835 96.8563 29.0189 97.1641 28.7159C97.4718 28.4081 97.8411 28.2543 98.272 28.2543C98.6887 28.2543 99.0509 28.4081 99.3587 28.7159C99.6712 29.0189 99.8298 29.3835 99.8345 29.8097C99.8298 30.0937 99.754 30.3542 99.6072 30.5909C99.4652 30.8276 99.2758 31.017 99.0391 31.1591C98.8071 31.3011 98.5514 31.3722 98.272 31.3722Z" fill="#1E293B"/>
<path d="M113.338 24.4545V39H110.703V27.0185H110.618L107.216 29.1918V26.777L110.831 24.4545H113.338Z" fill="#1E293B"/>
<path d="M122.407 39.277C121.238 39.277 120.234 38.9811 119.396 38.3892C118.563 37.7926 117.921 36.9332 117.471 35.8111C117.026 34.6842 116.804 33.3276 116.804 31.7415C116.808 30.1553 117.033 28.8059 117.478 27.6932C117.928 26.5758 118.57 25.7235 119.403 25.1364C120.241 24.5492 121.243 24.2557 122.407 24.2557C123.572 24.2557 124.574 24.5492 125.412 25.1364C126.25 25.7235 126.891 26.5758 127.336 27.6932C127.786 28.8106 128.011 30.16 128.011 31.7415C128.011 33.3324 127.786 34.6913 127.336 35.8182C126.891 36.9403 126.25 37.7973 125.412 38.3892C124.578 38.9811 123.577 39.277 122.407 39.277ZM122.407 37.054C123.316 37.054 124.034 36.6065 124.559 35.7116C125.09 34.812 125.355 33.4886 125.355 31.7415C125.355 30.5862 125.234 29.6155 124.993 28.8295C124.751 28.0436 124.41 27.4517 123.97 27.054C123.529 26.6515 123.009 26.4503 122.407 26.4503C121.503 26.4503 120.788 26.9001 120.262 27.7997C119.737 28.6946 119.472 30.0085 119.467 31.7415C119.462 32.9015 119.578 33.8769 119.815 34.6676C120.056 35.4583 120.397 36.0549 120.838 36.4574C121.278 36.8551 121.801 37.054 122.407 37.054Z" fill="#1E293B"/>
<path d="M140.708 39.277C139.539 39.277 138.535 38.9811 137.697 38.3892C136.863 37.7926 136.222 36.9332 135.772 35.8111C135.327 34.6842 135.104 33.3276 135.104 31.7415C135.109 30.1553 135.334 28.8059 135.779 27.6932C136.229 26.5758 136.871 25.7235 137.704 25.1364C138.542 24.5492 139.543 24.2557 140.708 24.2557C141.873 24.2557 142.874 24.5492 143.712 25.1364C144.55 25.7235 145.192 26.5758 145.637 27.6932C146.087 28.8106 146.312 30.16 146.312 31.7415C146.312 33.3324 146.087 34.6913 145.637 35.8182C145.192 36.9403 144.55 37.7973 143.712 38.3892C142.879 38.9811 141.878 39.277 140.708 39.277ZM140.708 37.054C141.617 37.054 142.335 36.6065 142.86 35.7116C143.39 34.812 143.656 33.4886 143.656 31.7415C143.656 30.5862 143.535 29.6155 143.293 28.8295C143.052 28.0436 142.711 27.4517 142.271 27.054C141.83 26.6515 141.309 26.4503 140.708 26.4503C139.804 26.4503 139.089 26.9001 138.563 27.7997C138.038 28.6946 137.772 30.0085 137.768 31.7415C137.763 32.9015 137.879 33.8769 138.116 34.6676C138.357 35.4583 138.698 36.0549 139.138 36.4574C139.579 36.8551 140.102 37.054 140.708 37.054Z" fill="#1E293B"/>
<path d="M154.048 39.277C152.878 39.277 151.875 38.9811 151.037 38.3892C150.203 37.7926 149.562 36.9332 149.112 35.8111C148.667 34.6842 148.444 33.3276 148.444 31.7415C148.449 30.1553 148.674 28.8059 149.119 27.6932C149.569 26.5758 150.21 25.7235 151.044 25.1364C151.882 24.5492 152.883 24.2557 154.048 24.2557C155.213 24.2557 156.214 24.5492 157.052 25.1364C157.89 25.7235 158.532 26.5758 158.977 27.6932C159.427 28.8106 159.652 30.16 159.652 31.7415C159.652 33.3324 159.427 34.6913 158.977 35.8182C158.532 36.9403 157.89 37.7973 157.052 38.3892C156.219 38.9811 155.217 39.277 154.048 39.277ZM154.048 37.054C154.957 37.054 155.674 36.6065 156.2 35.7116C156.73 34.812 156.995 33.4886 156.995 31.7415C156.995 30.5862 156.875 29.6155 156.633 28.8295C156.392 28.0436 156.051 27.4517 155.61 27.054C155.17 26.6515 154.649 26.4503 154.048 26.4503C153.144 26.4503 152.429 26.9001 151.903 27.7997C151.377 28.6946 151.112 30.0085 151.108 31.7415C151.103 32.9015 151.219 33.8769 151.456 34.6676C151.697 35.4583 152.038 36.0549 152.478 36.4574C152.919 36.8551 153.442 37.054 154.048 37.054Z" fill="#1E293B"/>
<path d="M167.388 39.277C166.218 39.277 165.214 38.9811 164.376 38.3892C163.543 37.7926 162.902 36.9332 162.452 35.8111C162.007 34.6842 161.784 33.3276 161.784 31.7415C161.789 30.1553 162.014 28.8059 162.459 27.6932C162.909 26.5758 163.55 25.7235 164.384 25.1364C165.222 24.5492 166.223 24.2557 167.388 24.2557C168.553 24.2557 169.554 24.5492 170.392 25.1364C171.23 25.7235 171.872 26.5758 172.317 27.6932C172.767 28.8106 172.991 30.16 172.991 31.7415C172.991 33.3324 172.767 34.6913 172.317 35.8182C171.872 36.9403 171.23 37.7973 170.392 38.3892C169.559 38.9811 168.557 39.277 167.388 39.277ZM167.388 37.054C168.297 37.054 169.014 36.6065 169.54 35.7116C170.07 34.812 170.335 33.4886 170.335 31.7415C170.335 30.5862 170.214 29.6155 169.973 28.8295C169.732 28.0436 169.391 27.4517 168.95 27.054C168.51 26.6515 167.989 26.4503 167.388 26.4503C166.483 26.4503 165.768 26.9001 165.243 27.7997C164.717 28.6946 164.452 30.0085 164.447 31.7415C164.443 32.9015 164.559 33.8769 164.795 34.6676C165.037 35.4583 165.378 36.0549 165.818 36.4574C166.259 36.8551 166.782 37.054 167.388 37.054Z" fill="#1E293B"/>
<path d="M187.507 33.5241H179.886V31.3579H187.45C188.061 31.3579 188.563 31.2609 188.956 31.0668C189.353 30.8726 189.647 30.6027 189.836 30.2571C190.03 29.9115 190.125 29.5066 190.12 29.0426C190.125 28.5881 190.03 28.1809 189.836 27.821C189.647 27.4564 189.358 27.17 188.97 26.9616C188.586 26.7486 188.099 26.642 187.507 26.642H184.652V39H182.024V24.4545H187.507C188.634 24.4545 189.588 24.6581 190.369 25.0653C191.15 25.4678 191.742 26.0147 192.145 26.706C192.552 27.3925 192.755 28.1643 192.755 29.0213C192.755 29.9115 192.549 30.6951 192.137 31.3722C191.726 32.0445 191.129 32.5724 190.348 32.956C189.566 33.3347 188.619 33.5241 187.507 33.5241ZM187.841 34.6037V36.7699H179.886V34.6037H187.841Z" fill="#1E293B"/>
<path d="M24.9972 59V51.9091H26.0867V54.9929H26.8068L29.3551 51.9091H30.7585L27.8963 55.3253L30.7955 59H29.392L27.0653 56.0085H26.0867V59H24.9972Z" fill="#6B7280"/>
<path d="M34.5683 59.1477C33.9281 59.1477 33.3665 58.9954 32.8833 58.6907C32.4031 58.386 32.0277 57.9598 31.7568 57.4119C31.4891 56.8641 31.3552 56.224 31.3552 55.4915C31.3552 54.7528 31.4891 54.1081 31.7568 53.5572C32.0277 53.0063 32.4031 52.5785 32.8833 52.2738C33.3665 51.9691 33.9281 51.8168 34.5683 51.8168C35.2084 51.8168 35.7686 51.9691 36.2487 52.2738C36.7319 52.5785 37.1073 53.0063 37.3751 53.5572C37.6459 54.1081 37.7813 54.7528 37.7813 55.4915C37.7813 56.224 37.6459 56.8641 37.3751 57.4119C37.1073 57.9598 36.7319 58.386 36.2487 58.6907C35.7686 58.9954 35.2084 59.1477 34.5683 59.1477ZM34.5683 58.169C35.0545 58.169 35.4546 58.0444 35.7686 57.7951C36.0825 57.5458 36.3148 57.218 36.4656 56.8118C36.6165 56.4055 36.6919 55.9654 36.6919 55.4915C36.6919 55.0175 36.6165 54.5759 36.4656 54.1665C36.3148 53.7572 36.0825 53.4264 35.7686 53.174C35.4546 52.9216 35.0545 52.7955 34.5683 52.7955C34.082 52.7955 33.6819 52.9216 33.368 53.174C33.0541 53.4264 32.8217 53.7572 32.6709 54.1665C32.5201 54.5759 32.4447 55.0175 32.4447 55.4915C32.4447 55.9654 32.5201 56.4055 32.6709 56.8118C32.8217 57.218 33.0541 57.5458 33.368 57.7951C33.6819 58.0444 34.082 58.169 34.5683 58.169Z" fill="#6B7280"/>
<path d="M43.3223 57.5227L45.7967 51.9091H46.8308L43.7654 59H42.8791L39.8691 51.9091H40.8848L43.3223 57.5227ZM40.5339 51.9091V59H39.4444V51.9091H40.5339ZM46.1106 59V51.9091H47.2001V59H46.1106Z" fill="#6B7280"/>
<path d="M50.2839 57.3935L53.7001 51.9091H54.9558V59H53.8663V53.5156L50.4686 59H49.1944V51.9091H50.2839V57.3935Z" fill="#6B7280"/>
<path d="M59.8319 59.1477C59.1672 59.1477 58.5947 58.9908 58.1146 58.6768C57.6345 58.3629 57.2652 57.9305 57.0067 57.3796C56.7481 56.8287 56.6189 56.1993 56.6189 55.4915C56.6189 54.7713 56.7512 54.1358 57.0159 53.5849C57.2837 53.0309 57.656 52.5985 58.1331 52.2876C58.6132 51.9737 59.1733 51.8168 59.8135 51.8168C60.3121 51.8168 60.7614 51.9091 61.1615 52.0937C61.5616 52.2784 61.8894 52.5369 62.1448 52.8693C62.4002 53.2017 62.5587 53.5895 62.6203 54.0327H61.5308C61.4477 53.7095 61.2631 53.4233 60.9768 53.174C60.6937 52.9216 60.3121 52.7955 59.8319 52.7955C59.4072 52.7955 59.0348 52.9062 58.7148 53.1278C58.3978 53.3464 58.15 53.6557 57.9715 54.0558C57.7961 54.4528 57.7084 54.919 57.7084 55.4545C57.7084 56.0024 57.7945 56.4794 57.9669 56.8857C58.1423 57.2919 58.3885 57.6074 58.7055 57.832C59.0256 58.0567 59.4011 58.169 59.8319 58.169C60.1151 58.169 60.3721 58.1198 60.6029 58.0213C60.8337 57.9228 61.0292 57.7812 61.1892 57.5966C61.3492 57.4119 61.4631 57.1903 61.5308 56.9318H62.6203C62.5587 57.3504 62.4064 57.7274 62.1633 58.0629C61.9232 58.3952 61.6047 58.6599 61.2077 58.8569C60.8137 59.0508 60.3551 59.1477 59.8319 59.1477Z" fill="#6B7280"/>
<path d="M67.0937 59.1477C66.4289 59.1477 65.8564 58.9908 65.3763 58.6768C64.8962 58.3629 64.5269 57.9305 64.2684 57.3796C64.0099 56.8287 63.8806 56.1993 63.8806 55.4915C63.8806 54.7713 64.0129 54.1358 64.2776 53.5849C64.5454 53.0309 64.9178 52.5985 65.3948 52.2876C65.8749 51.9737 66.435 51.8168 67.0752 51.8168C67.5738 51.8168 68.0231 51.9091 68.4232 52.0937C68.8233 52.2784 69.1511 52.5369 69.4065 52.8693C69.662 53.2017 69.8205 53.5895 69.882 54.0327H68.7925C68.7094 53.7095 68.5248 53.4233 68.2386 53.174C67.9554 52.9216 67.5738 52.7955 67.0937 52.7955C66.669 52.7955 66.2966 52.9062 65.9765 53.1278C65.6595 53.3464 65.4117 53.6557 65.2332 54.0558C65.0578 54.4528 64.9701 54.919 64.9701 55.4545C64.9701 56.0024 65.0563 56.4794 65.2286 56.8857C65.404 57.2919 65.6502 57.6074 65.9672 57.832C66.2873 58.0567 66.6628 58.169 67.0937 58.169C67.3768 58.169 67.6338 58.1198 67.8646 58.0213C68.0954 57.9228 68.2909 57.7812 68.4509 57.5966C68.6109 57.4119 68.7248 57.1903 68.7925 56.9318H69.882C69.8205 57.3504 69.6681 57.7274 69.425 58.0629C69.1849 58.3952 68.8664 58.6599 68.4694 58.8569C68.0754 59.0508 67.6169 59.1477 67.0937 59.1477Z" fill="#6B7280"/>
<path d="M72.5642 57.3935L75.9804 51.9091H77.2361V59H76.1466V53.5156L72.7488 59H71.4747V51.9091H72.5642V57.3935Z" fill="#6B7280"/>
<path d="M83.4972 59V52.9062H81.6136C81.1889 52.9062 80.855 53.0047 80.6119 53.2017C80.3687 53.3987 80.2472 53.6695 80.2472 54.0142C80.2472 54.3527 80.3564 54.619 80.5749 54.8129C80.7965 55.0067 81.0997 55.1037 81.4844 55.1037H83.7742V56.1193H81.4844C81.0043 56.1193 80.5903 56.0347 80.2425 55.8654C79.8948 55.6961 79.627 55.4545 79.4393 55.1406C79.2515 54.8236 79.1577 54.4482 79.1577 54.0142C79.1577 53.5772 79.2562 53.2017 79.4531 52.8878C79.6501 52.5739 79.9317 52.3323 80.2979 52.163C80.6673 51.9937 81.1058 51.9091 81.6136 51.9091H84.5313V59H83.4972ZM78.7699 59L80.7827 55.473H81.9645L79.9517 59H78.7699Z" fill="#6B7280"/>
<path d="M87.3254 59.0739C87.0976 59.0739 86.9022 58.9923 86.7391 58.8292C86.576 58.6661 86.4944 58.4706 86.4944 58.2429C86.4944 58.0151 86.576 57.8197 86.7391 57.6566C86.9022 57.4935 87.0976 57.4119 87.3254 57.4119C87.5531 57.4119 87.7486 57.4935 87.9117 57.6566C88.0748 57.8197 88.1563 58.0151 88.1563 58.2429C88.1563 58.3937 88.1179 58.5322 88.0409 58.6584C87.9671 58.7846 87.867 58.8861 87.7409 58.9631C87.6178 59.0369 87.4793 59.0739 87.3254 59.0739ZM87.3254 53.8111C87.0976 53.8111 86.9022 53.7295 86.7391 53.5664C86.576 53.4033 86.4944 53.2079 86.4944 52.9801C86.4944 52.7524 86.576 52.5569 86.7391 52.3938C86.9022 52.2307 87.0976 52.1491 87.3254 52.1491C87.5531 52.1491 87.7486 52.2307 87.9117 52.3938C88.0748 52.5569 88.1563 52.7524 88.1563 52.9801C88.1563 53.1309 88.1179 53.2694 88.0409 53.3956C87.9671 53.5218 87.867 53.6233 87.7409 53.7003C87.6178 53.7741 87.4793 53.8111 87.3254 53.8111Z" fill="#6B7280"/>
<path d="M96.9438 59.1293C96.3344 59.1293 95.7912 59.0246 95.3142 58.8153C94.8402 58.6061 94.4632 58.3152 94.1832 57.9428C93.9062 57.5674 93.7554 57.1319 93.7307 56.6364H94.8941C94.9187 56.941 95.0233 57.2042 95.208 57.4258C95.3927 57.6443 95.6343 57.8136 95.9328 57.9336C96.2313 58.0536 96.5622 58.1136 96.9253 58.1136C97.3316 58.1136 97.6917 58.0428 98.0056 57.9013C98.3195 57.7597 98.5657 57.5627 98.7442 57.3104C98.9227 57.058 99.012 56.7656 99.012 56.4332C99.012 56.0855 98.9258 55.7792 98.7535 55.5146C98.5811 55.2468 98.3287 55.0375 97.9964 54.8867C97.664 54.7359 97.2577 54.6605 96.7776 54.6605H96.0205V53.6449H96.7776C97.1531 53.6449 97.4824 53.5772 97.7655 53.4418C98.0518 53.3063 98.2749 53.1155 98.4349 52.8693C98.598 52.6231 98.6796 52.3338 98.6796 52.0014C98.6796 51.6813 98.6088 51.4028 98.4672 51.1658C98.3257 50.9289 98.1256 50.7442 97.8671 50.6119C97.6117 50.4795 97.31 50.4134 96.9623 50.4134C96.636 50.4134 96.3283 50.4734 96.039 50.5934C95.7527 50.7103 95.5189 50.8812 95.3373 51.1058C95.1557 51.3274 95.0572 51.5952 95.0418 51.9091H93.9339C93.9523 51.4136 94.1016 50.9796 94.3817 50.6072C94.6617 50.2318 95.028 49.9394 95.4804 49.7301C95.9359 49.5208 96.436 49.4162 96.9807 49.4162C97.5655 49.4162 98.0671 49.5347 98.4857 49.7717C98.9043 50.0056 99.2259 50.3149 99.4506 50.6996C99.6752 51.0843 99.7876 51.4998 99.7876 51.946C99.7876 52.4785 99.6475 52.9324 99.3675 53.3079C99.0905 53.6834 98.7135 53.9434 98.2364 54.0881V54.1619C98.8335 54.2604 99.2997 54.5143 99.6352 54.9236C99.9707 55.3299 100.138 55.8331 100.138 56.4332C100.138 56.9472 99.9984 57.4089 99.7183 57.8182C99.4413 58.2244 99.0628 58.5445 98.5826 58.7784C98.1025 59.0123 97.5563 59.1293 96.9438 59.1293Z" fill="#6B7280"/>
<path d="M105.11 59.1293C104.415 59.1293 103.822 58.94 103.333 58.5614C102.844 58.1798 102.47 57.6274 102.211 56.9041C101.953 56.1778 101.823 55.3007 101.823 54.2727C101.823 53.2509 101.953 52.3784 102.211 51.6552C102.473 50.9289 102.848 50.3749 103.338 49.9933C103.83 49.6085 104.421 49.4162 105.11 49.4162C105.8 49.4162 106.389 49.6085 106.878 49.9933C107.371 50.3749 107.746 50.9289 108.005 51.6552C108.266 52.3784 108.397 53.2509 108.397 54.2727C108.397 55.3007 108.268 56.1778 108.009 56.9041C107.751 57.6274 107.377 58.1798 106.888 58.5614C106.398 58.94 105.806 59.1293 105.11 59.1293ZM105.11 58.1136C105.8 58.1136 106.335 57.7812 106.717 57.1165C107.099 56.4517 107.289 55.5038 107.289 54.2727C107.289 53.4541 107.202 52.757 107.026 52.1815C106.854 51.6059 106.605 51.1674 106.278 50.8658C105.955 50.5642 105.566 50.4134 105.11 50.4134C104.427 50.4134 103.893 50.7504 103.508 51.4244C103.124 52.0953 102.931 53.0447 102.931 54.2727C102.931 55.0914 103.018 55.7869 103.19 56.3594C103.362 56.9318 103.61 57.3673 103.933 57.6658C104.259 57.9644 104.652 58.1136 105.11 58.1136Z" fill="#6B7280"/>
<path d="M113.235 59.1293C112.54 59.1293 111.947 58.94 111.458 58.5614C110.969 58.1798 110.595 57.6274 110.336 56.9041C110.078 56.1778 109.948 55.3007 109.948 54.2727C109.948 53.2509 110.078 52.3784 110.336 51.6552C110.598 50.9289 110.973 50.3749 111.463 49.9933C111.955 49.6085 112.546 49.4162 113.235 49.4162C113.925 49.4162 114.514 49.6085 115.003 49.9933C115.496 50.3749 115.871 50.9289 116.13 51.6552C116.391 52.3784 116.522 53.2509 116.522 54.2727C116.522 55.3007 116.393 56.1778 116.134 56.9041C115.876 57.6274 115.502 58.1798 115.013 58.5614C114.523 58.94 113.931 59.1293 113.235 59.1293ZM113.235 58.1136C113.925 58.1136 114.46 57.7812 114.842 57.1165C115.224 56.4517 115.414 55.5038 115.414 54.2727C115.414 53.4541 115.327 52.757 115.151 52.1815C114.979 51.6059 114.73 51.1674 114.403 50.8658C114.08 50.5642 113.691 50.4134 113.235 50.4134C112.552 50.4134 112.018 50.7504 111.633 51.4244C111.249 52.0953 111.056 53.0447 111.056 54.2727C111.056 55.0914 111.143 55.7869 111.315 56.3594C111.487 56.9318 111.735 57.3673 112.058 57.6658C112.384 57.9644 112.777 58.1136 113.235 58.1136Z" fill="#6B7280"/>
<path d="M126.235 55.1591H121.434V54.1435H126.235C126.679 54.1435 127.045 54.0665 127.334 53.9126C127.623 53.7557 127.839 53.5433 127.98 53.2756C128.122 53.0047 128.193 52.697 128.193 52.3523C128.193 52.0076 128.122 51.7013 127.98 51.4336C127.839 51.1628 127.623 50.9504 127.334 50.7965C127.045 50.6396 126.679 50.5611 126.235 50.5611H124.075V59H122.93V49.5455H126.235C126.937 49.5455 127.516 49.6732 127.971 49.9286C128.427 50.1841 128.765 50.5241 128.987 50.9489C129.208 51.3736 129.319 51.8414 129.319 52.3523C129.319 52.8632 129.208 53.331 128.987 53.7557C128.765 54.1804 128.427 54.5205 127.971 54.7759C127.516 55.0314 126.937 55.1591 126.235 55.1591ZM126.161 56.0455V57.0611H121.434V56.0455H126.161Z" fill="#6B7280"/>
<path fill-rule="evenodd" clip-rule="evenodd" d="M25 134C25 133.448 25.4477 133 26 133H26.0498C26.6021 133 27.0498 133.448 27.0498 134C27.0498 134.552 26.6021 135 26.0498 135H26C25.4477 135 25 134.552 25 134ZM31.0318 134C31.0318 133.448 31.4795 133 32.0318 133H32.1315C32.6838 133 33.1315 133.448 33.1315 134C33.1315 134.552 32.6838 135 32.1315 135H32.0318C31.4795 135 31.0318 134.552 31.0318 134ZM37.1134 134C37.1134 133.448 37.5611 133 38.1134 133H38.2131C38.7654 133 39.2131 133.448 39.2131 134C39.2131 134.552 38.7654 135 38.2131 135H38.1134C37.5611 135 37.1134 134.552 37.1134 134ZM43.195 134C43.195 133.448 43.6428 133 44.195 133H44.2947C44.847 133 45.2947 133.448 45.2947 134C45.2947 134.552 44.847 135 44.2947 135H44.195C43.6428 135 43.195 134.552 43.195 134ZM49.2767 134C49.2767 133.448 49.7244 133 50.2767 133H50.3764C50.9287 133 51.3764 133.448 51.3764 134C51.3764 134.552 50.9287 135 50.3764 135H50.2767C49.7244 135 49.2767 134.552 49.2767 134ZM55.3583 134C55.3583 133.448 55.806 133 56.3583 133H56.458C57.0103 133 57.458 133.448 57.458 134C57.458 134.552 57.0103 135 56.458 135H56.3583C55.806 135 55.3583 134.552 55.3583 134ZM61.4399 134C61.4399 133.448 61.8877 133 62.4399 133H62.5396C63.0919 133 63.5396 133.448 63.5396 134C63.5396 134.552 63.0919 135 62.5396 135H62.4399C61.8877 135 61.4399 134.552 61.4399 134ZM67.5216 134C67.5216 133.448 67.9693 133 68.5216 133H68.6213C69.1736 133 69.6213 133.448 69.6213 134C69.6213 134.552 69.1736 135 68.6213 135H68.5216C67.9693 135 67.5216 134.552 67.5216 134ZM73.6032 134C73.6032 133.448 74.0509 133 74.6032 133H74.7029C75.2552 133 75.7029 133.448 75.7029 134C75.7029 134.552 75.2552 135 74.7029 135H74.6032C74.0509 135 73.6032 134.552 73.6032 134ZM79.6848 134C79.6848 133.448 80.1326 133 80.6848 133H80.7845C81.3368 133 81.7845 133.448 81.7845 134C81.7845 134.552 81.3368 135 80.7845 135H80.6848C80.1326 135 79.6848 134.552 79.6848 134ZM85.7665 134C85.7665 133.448 86.2142 133 86.7665 133H86.8662C87.4185 133 87.8662 133.448 87.8662 134C87.8662 134.552 87.4185 135 86.8662 135H86.7665C86.2142 135 85.7665 134.552 85.7665 134ZM91.8481 134C91.8481 133.448 92.2958 133 92.8481 133H92.9478C93.5001 133 93.9478 133.448 93.9478 134C93.9478 134.552 93.5001 135 92.9478 135H92.8481C92.2958 135 91.8481 134.552 91.8481 134ZM97.9297 134C97.9297 133.448 98.3775 133 98.9297 133H99.0294C99.5817 133 100.029 133.448 100.029 134C100.029 134.552 99.5817 135 99.0294 135H98.9297C98.3775 135 97.9297 134.552 97.9297 134ZM104.011 134C104.011 133.448 104.459 133 105.011 133H105.111C105.663 133 106.111 133.448 106.111 134C106.111 134.552 105.663 135 105.111 135H105.011C104.459 135 104.011 134.552 104.011 134ZM110.093 134C110.093 133.448 110.541 133 111.093 133H111.193C111.745 133 112.193 133.448 112.193 134C112.193 134.552 111.745 135 111.193 135H111.093C110.541 135 110.093 134.552 110.093 134ZM116.175 134C116.175 133.448 116.622 133 117.175 133H117.274C117.827 133 118.274 133.448 118.274 134C118.274 134.552 117.827 135 117.274 135H117.175C116.622 135 116.175 134.552 116.175 134ZM122.256 134C122.256 133.448 122.704 133 123.256 133H123.356C123.908 133 124.356 133.448 124.356 134C124.356 134.552 123.908 135 123.356 135H123.256C122.704 135 122.256 134.552 122.256 134ZM128.338 134C128.338 133.448 128.786 133 129.338 133H129.438C129.99 133 130.438 133.448 130.438 134C130.438 134.552 129.99 135 129.438 135H129.338C128.786 135 128.338 134.552 128.338 134ZM134.42 134C134.42 133.448 134.867 133 135.42 133H135.519C136.072 133 136.519 133.448 136.519 134C136.519 134.552 136.072 135 135.519 135H135.42C134.867 135 134.42 134.552 134.42 134ZM140.501 134C140.501 133.448 140.949 133 141.501 133H141.601C142.153 133 142.601 133.448 142.601 134C142.601 134.552 142.153 135 141.601 135H141.501C140.949 135 140.501 134.552 140.501 134ZM146.583 134C146.583 133.448 147.031 133 147.583 133H147.683C148.235 133 148.683 133.448 148.683 134C148.683 134.552 148.235 135 147.683 135H147.583C147.031 135 146.583 134.552 146.583 134ZM152.664 134C152.664 133.448 153.112 133 153.664 133H153.764C154.316 133 154.764 133.448 154.764 134C154.764 134.552 154.316 135 153.764 135H153.664C153.112 135 152.664 134.552 152.664 134ZM158.746 134C158.746 133.448 159.194 133 159.746 133H159.846C160.398 133 160.846 133.448 160.846 134C160.846 134.552 160.398 135 159.846 135H159.746C159.194 135 158.746 134.552 158.746 134ZM164.828 134C164.828 133.448 165.275 133 165.828 133H165.927C166.48 133 166.927 133.448 166.927 134C166.927 134.552 166.48 135 165.927 135H165.828C165.275 135 164.828 134.552 164.828 134ZM170.909 134C170.909 133.448 171.357 133 171.909 133H172.009C172.561 133 173.009 133.448 173.009 134C173.009 134.552 172.561 135 172.009 135H171.909C171.357 135 170.909 134.552 170.909 134ZM176.991 134C176.991 133.448 177.439 133 177.991 133H178.091C178.643 133 179.091 133.448 179.091 134C179.091 134.552 178.643 135 178.091 135H177.991C177.439 135 176.991 134.552 176.991 134ZM183.073 134C183.073 133.448 183.52 133 184.073 133H184.172C184.725 133 185.172 133.448 185.172 134C185.172 134.552 184.725 135 184.172 135H184.073C183.52 135 183.073 134.552 183.073 134ZM189.154 134C189.154 133.448 189.602 133 190.154 133H190.254C190.806 133 191.254 133.448 191.254 134C191.254 134.552 190.806 135 190.254 135H190.154C189.602 135 189.154 134.552 189.154 134ZM195.236 134C195.236 133.448 195.684 133 196.236 133H196.336C196.888 133 197.336 133.448 197.336 134C197.336 134.552 196.888 135 196.336 135H196.236C195.684 135 195.236 134.552 195.236 134ZM201.318 134C201.318 133.448 201.765 133 202.318 133H202.417C202.97 133 203.417 133.448 203.417 134C203.417 134.552 202.97 135 202.417 135H202.318C201.765 135 201.318 134.552 201.318 134ZM207.399 134C207.399 133.448 207.847 133 208.399 133H208.499C209.051 133 209.499 133.448 209.499 134C209.499 134.552 209.051 135 208.499 135H208.399C207.847 135 207.399 134.552 207.399 134ZM213.481 134C213.481 133.448 213.929 133 214.481 133H214.581C215.133 133 215.581 133.448 215.581 134C215.581 134.552 215.133 135 214.581 135H214.481C213.929 135 213.481 134.552 213.481 134ZM219.562 134C219.562 133.448 220.01 133 220.562 133H220.662C221.214 133 221.662 133.448 221.662 134C221.662 134.552 221.214 135 220.662 135H220.562C220.01 135 219.562 134.552 219.562 134ZM225.644 134C225.644 133.448 226.092 133 226.644 133H226.744C227.296 133 227.744 133.448 227.744 134C227.744 134.552 227.296 135 226.744 135H226.644C226.092 135 225.644 134.552 225.644 134ZM231.726 134C231.726 133.448 232.173 133 232.726 133H232.825C233.378 133 233.825 133.448 233.825 134C233.825 134.552 233.378 135 232.825 135H232.726C232.173 135 231.726 134.552 231.726 134ZM237.807 134C237.807 133.448 238.255 133 238.807 133H238.907C239.459 133 239.907 133.448 239.907 134C239.907 134.552 239.459 135 238.907 135H238.807C238.255 135 237.807 134.552 237.807 134ZM243.889 134C243.889 133.448 244.337 133 244.889 133H244.989C245.541 133 245.989 133.448 245.989 134C245.989 134.552 245.541 135 244.989 135H244.889C244.337 135 243.889 134.552 243.889 134ZM249.971 134C249.971 133.448 250.418 133 250.971 133H251.07C251.623 133 252.07 133.448 252.07 134C252.07 134.552 251.623 135 251.07 135H250.971C250.418 135 249.971 134.552 249.971 134ZM256.052 134C256.052 133.448 256.5 133 257.052 133H257.152C257.704 133 258.152 133.448 258.152 134C258.152 134.552 257.704 135 257.152 135H257.052C256.5 135 256.052 134.552 256.052 134ZM262.134 134C262.134 133.448 262.582 133 263.134 133H263.234C263.786 133 264.234 133.448 264.234 134C264.234 134.552 263.786 135 263.234 135H263.134C262.582 135 262.134 134.552 262.134 134ZM268.216 134C268.216 133.448 268.663 133 269.216 133H269.315C269.867 133 270.315 133.448 270.315 134C270.315 134.552 269.867 135 269.315 135H269.216C268.663 135 268.216 134.552 268.216 134ZM274.297 134C274.297 133.448 274.745 133 275.297 133H275.397C275.949 133 276.397 133.448 276.397 134C276.397 134.552 275.949 135 275.397 135H275.297C274.745 135 274.297 134.552 274.297 134ZM280.379 134C280.379 133.448 280.827 133 281.379 133H281.478C282.031 133 282.478 133.448 282.478 134C282.478 134.552 282.031 135 281.478 135H281.379C280.827 135 280.379 134.552 280.379 134ZM286.46 134C286.46 133.448 286.908 133 287.46 133H287.56C288.112 133 288.56 133.448 288.56 134C288.56 134.552 288.112 135 287.56 135H287.46C286.908 135 286.46 134.552 286.46 134ZM292.542 134C292.542 133.448 292.99 133 293.542 133H293.642C294.194 133 294.642 133.448 294.642 134C294.642 134.552 294.194 135 293.642 135H293.542C292.99 135 292.542 134.552 292.542 134ZM298.624 134C298.624 133.448 299.071 133 299.624 133H299.723C300.276 133 300.723 133.448 300.723 134C300.723 134.552 300.276 135 299.723 135H299.624C299.071 135 298.624 134.552 298.624 134ZM304.705 134C304.705 133.448 305.153 133 305.705 133H305.805C306.357 133 306.805 133.448 306.805 134C306.805 134.552 306.357 135 305.805 135H305.705C305.153 135 304.705 134.552 304.705 134ZM310.787 134C310.787 133.448 311.235 133 311.787 133H311.887C312.439 133 312.887 133.448 312.887 134C312.887 134.552 312.439 135 311.887 135H311.787C311.235 135 310.787 134.552 310.787 134ZM316.869 134C316.869 133.448 317.316 133 317.869 133H317.968C318.521 133 318.968 133.448 318.968 134C318.968 134.552 318.521 135 317.968 135H317.869C317.316 135 316.869 134.552 316.869 134ZM322.95 134C322.95 133.448 323.398 133 323.95 133H324C324.552 133 325 133.448 325 134C325 134.552 324.552 135 324 135H323.95C323.398 135 322.95 134.552 322.95 134Z" fill="#D1D5DB"/>
<g filter="url(#filter0_d_2_39)">
<path d="M24 81C24 77.6863 26.6863 75 30 75H157C160.314 75 163 77.6863 163 81V105C163 108.314 160.314 111 157 111H30C26.6863 111 24 108.314 24 105V81Z" fill="#15803D"/>
<path d="M37.0387 98V88.5455H40.5011C41.172 88.5455 41.7275 88.6562 42.1676 88.8778C42.6077 89.0964 42.937 89.3933 43.1555 89.7688C43.3741 90.1412 43.4833 90.5613 43.4833 91.0291C43.4833 91.4231 43.411 91.7554 43.2663 92.0263C43.1217 92.294 42.9278 92.5095 42.6847 92.6726C42.4446 92.8326 42.1799 92.9496 41.8906 93.0234V93.1158C42.2045 93.1312 42.5108 93.2327 42.8093 93.4205C43.1109 93.6051 43.3602 93.8683 43.5572 94.2099C43.7541 94.5515 43.8526 94.967 43.8526 95.4563C43.8526 95.9395 43.7388 96.3735 43.511 96.7582C43.2863 97.1398 42.9386 97.4429 42.4677 97.6676C41.9968 97.8892 41.3951 98 40.6626 98H37.0387ZM38.4652 96.7766H40.5241C41.2074 96.7766 41.6967 96.6443 41.9922 96.3796C42.2876 96.1149 42.4354 95.7841 42.4354 95.3871C42.4354 95.0885 42.36 94.8146 42.2092 94.5653C42.0584 94.3161 41.8429 94.1175 41.5629 93.9698C41.2859 93.8221 40.9566 93.7482 40.5749 93.7482H38.4652V96.7766ZM38.4652 92.6357H40.3764C40.6965 92.6357 40.9843 92.5741 41.2397 92.451C41.4982 92.3279 41.7029 92.1555 41.8537 91.9339C42.0076 91.7093 42.0845 91.4446 42.0845 91.1399C42.0845 90.7491 41.9476 90.4213 41.6737 90.1566C41.3997 89.8919 40.9796 89.7596 40.4134 89.7596H38.4652V92.6357ZM46.4725 93.3466H48.5314C49.3993 93.3466 50.0672 93.562 50.535 93.9929C51.0028 94.4238 51.2367 94.9793 51.2367 95.6594C51.2367 96.1026 51.132 96.5012 50.9228 96.8551C50.7135 97.209 50.4073 97.4891 50.0041 97.6953C49.6009 97.8984 49.11 98 48.5314 98H45.4338V90.9091H46.7864V96.8089H48.5314C48.9284 96.8089 49.2547 96.7058 49.5101 96.4996C49.7656 96.2904 49.8933 96.0241 49.8933 95.701C49.8933 95.3594 49.7656 95.0808 49.5101 94.8654C49.2547 94.6469 48.9284 94.5376 48.5314 94.5376H46.4725V93.3466ZM52.2431 98V90.9091H53.6234V98H52.2431ZM55.4758 98V90.9091H58.4165C59.2166 90.9091 59.8506 91.0799 60.3184 91.4215C60.7863 91.7601 61.0202 92.2202 61.0202 92.8018C61.0202 93.2173 60.8878 93.5466 60.6231 93.7898C60.3585 94.0329 60.0076 94.196 59.5706 94.2791C59.8876 94.3161 60.1784 94.4115 60.4431 94.5653C60.7078 94.7161 60.9201 94.9193 61.0802 95.1747C61.2433 95.4302 61.3248 95.7348 61.3248 96.0888C61.3248 96.4643 61.2279 96.7966 61.034 97.0859C60.8401 97.3722 60.5585 97.5968 60.1892 97.7599C59.8229 97.92 59.3813 98 58.8643 98H55.4758ZM56.773 96.8459H58.8643C59.2059 96.8459 59.4736 96.7643 59.6675 96.6012C59.8614 96.4381 59.9584 96.2165 59.9584 95.9364C59.9584 95.6071 59.8614 95.3486 59.6675 95.1609C59.4736 94.9701 59.2059 94.8746 58.8643 94.8746H56.773V96.8459ZM56.773 93.8636H58.4303C58.6888 93.8636 58.9104 93.8267 59.0951 93.7528C59.2828 93.679 59.4259 93.5743 59.5244 93.4389C59.626 93.3004 59.6768 93.1373 59.6768 92.9496C59.6768 92.6757 59.5644 92.4618 59.3398 92.3079C59.1151 92.154 58.8073 92.0771 58.4165 92.0771H56.773V93.8636ZM65.8952 98.1431C65.1965 98.1431 64.5948 97.9938 64.0901 97.6953C63.5885 97.3937 63.2007 96.9705 62.9268 96.4258C62.6559 95.878 62.5205 95.2363 62.5205 94.5007C62.5205 93.7744 62.6559 93.1342 62.9268 92.5803C63.2007 92.0263 63.5823 91.5939 64.0716 91.283C64.5641 90.9722 65.1396 90.8168 65.7982 90.8168C66.1983 90.8168 66.5861 90.8829 66.9616 91.0153C67.337 91.1476 67.674 91.3554 67.9726 91.6385C68.2711 91.9216 68.5065 92.2894 68.6789 92.7418C68.8512 93.1912 68.9374 93.7375 68.9374 94.3807V94.87H63.3007V93.8359H67.5848C67.5848 93.4728 67.5109 93.1512 67.3632 92.8711C67.2155 92.5879 67.0077 92.3648 66.74 92.2017C66.4753 92.0386 66.1644 91.957 65.8074 91.957C65.4197 91.957 65.0811 92.0524 64.7918 92.2433C64.5056 92.431 64.284 92.6772 64.127 92.9819C63.9732 93.2835 63.8962 93.6113 63.8962 93.9652V94.7731C63.8962 95.247 63.9793 95.6502 64.1455 95.9826C64.3148 96.315 64.5502 96.5689 64.8518 96.7443C65.1534 96.9167 65.5058 97.0028 65.909 97.0028C66.1706 97.0028 66.4091 96.9659 66.6246 96.892C66.84 96.8151 67.0262 96.7012 67.1831 96.5504C67.3401 96.3996 67.4601 96.2134 67.5432 95.9918L68.8497 96.2273C68.7451 96.612 68.5573 96.949 68.2865 97.2383C68.0187 97.5245 67.6817 97.7476 67.2755 97.9077C66.8723 98.0646 66.4122 98.1431 65.8952 98.1431ZM73.4558 98.1431C72.7695 98.1431 72.1786 97.9877 71.6831 97.6768C71.1906 97.3629 70.8121 96.9305 70.5474 96.3796C70.2827 95.8287 70.1504 95.1978 70.1504 94.4869C70.1504 93.7667 70.2858 93.1312 70.5566 92.5803C70.8275 92.0263 71.2091 91.5939 71.7015 91.283C72.194 90.9722 72.7741 90.8168 73.4419 90.8168C73.9805 90.8168 74.4606 90.9168 74.8823 91.1168C75.3039 91.3138 75.644 91.5908 75.9025 91.9478C76.1641 92.3048 76.3195 92.7218 76.3688 93.1989H75.0254C74.9515 92.8665 74.7823 92.5803 74.5176 92.3402C74.256 92.1001 73.9051 91.9801 73.465 91.9801C73.0803 91.9801 72.7433 92.0817 72.454 92.2848C72.1678 92.4848 71.9447 92.7711 71.7846 93.1435C71.6246 93.5128 71.5446 93.9498 71.5446 94.4545C71.5446 94.9716 71.623 95.4179 71.78 95.7933C71.937 96.1688 72.1586 96.4596 72.4448 96.6658C72.7341 96.872 73.0742 96.9751 73.465 96.9751C73.7266 96.9751 73.9636 96.9274 74.176 96.832C74.3914 96.7335 74.5714 96.5935 74.7161 96.4119C74.8638 96.2304 74.9669 96.0118 75.0254 95.7564H76.3688C76.3195 96.215 76.1703 96.6243 75.921 96.9844C75.6717 97.3445 75.3378 97.6276 74.9192 97.8338C74.5037 98.04 74.0159 98.1431 73.4558 98.1431ZM77.3082 92.1001V90.9091H83.2912V92.1001H80.9783V98H79.6303V92.1001H77.3082ZM86.1038 96.0657L89.2291 90.9091H90.7156V98H89.363V92.8388L86.2515 98H84.7512V90.9091H86.1038V96.0657ZM100.818 93.859V95.0547H96.9767V93.859H100.818ZM97.3645 90.9091V98H96.0119V90.9091H97.3645ZM101.782 90.9091V98H100.434V90.9091H101.782ZM105.693 98.157C105.243 98.157 104.837 98.0739 104.474 97.9077C104.111 97.7384 103.823 97.4937 103.611 97.1737C103.401 96.8536 103.297 96.4612 103.297 95.9964C103.297 95.5964 103.374 95.267 103.528 95.0085C103.681 94.75 103.889 94.5453 104.151 94.3945C104.412 94.2437 104.705 94.1299 105.028 94.0529C105.351 93.976 105.68 93.9175 106.016 93.8775C106.441 93.8282 106.785 93.7882 107.05 93.7575C107.315 93.7236 107.507 93.6697 107.627 93.5959C107.747 93.522 107.807 93.402 107.807 93.2358V93.2035C107.807 92.8003 107.693 92.4879 107.465 92.2663C107.241 92.0447 106.905 91.9339 106.459 91.9339C105.994 91.9339 105.628 92.037 105.36 92.2433C105.096 92.4464 104.912 92.6726 104.811 92.9219L103.514 92.6264C103.668 92.1955 103.892 91.8478 104.188 91.5831C104.486 91.3153 104.829 91.1214 105.217 91.0014C105.605 90.8783 106.013 90.8168 106.441 90.8168C106.724 90.8168 107.024 90.8506 107.341 90.9183C107.661 90.983 107.959 91.103 108.236 91.2784C108.516 91.4538 108.746 91.7047 108.924 92.0309C109.103 92.354 109.192 92.7741 109.192 93.2912V98H107.844V97.0305H107.789C107.699 97.209 107.565 97.3845 107.387 97.5568C107.208 97.7292 106.979 97.8723 106.699 97.9862C106.419 98.1 106.084 98.157 105.693 98.157ZM105.993 97.049C106.374 97.049 106.701 96.9736 106.971 96.8228C107.245 96.672 107.453 96.475 107.595 96.2319C107.739 95.9857 107.812 95.7225 107.812 95.4425V94.5284C107.762 94.5777 107.667 94.6238 107.525 94.6669C107.387 94.7069 107.228 94.7423 107.05 94.7731C106.871 94.8008 106.698 94.8269 106.528 94.8516C106.359 94.8731 106.217 94.8916 106.104 94.907C105.836 94.9408 105.591 94.9978 105.369 95.0778C105.151 95.1578 104.976 95.2732 104.843 95.424C104.714 95.5717 104.649 95.7687 104.649 96.0149C104.649 96.3565 104.776 96.6151 105.028 96.7905C105.28 96.9628 105.602 97.049 105.993 97.049ZM114.471 98V90.9091H115.851V93.8821H116.516L118.857 90.9091H120.565L117.818 94.3576L120.597 98H118.884L116.747 95.1655H115.851V98H114.471ZM123.733 98.157C123.283 98.157 122.877 98.0739 122.514 97.9077C122.151 97.7384 121.863 97.4937 121.651 97.1737C121.441 96.8536 121.337 96.4612 121.337 95.9964C121.337 95.5964 121.414 95.267 121.568 95.0085C121.721 94.75 121.929 94.5453 122.191 94.3945C122.452 94.2437 122.745 94.1299 123.068 94.0529C123.391 93.976 123.72 93.9175 124.056 93.8775C124.481 93.8282 124.825 93.7882 125.09 93.7575C125.355 93.7236 125.547 93.6697 125.667 93.5959C125.787 93.522 125.847 93.402 125.847 93.2358V93.2035C125.847 92.8003 125.733 92.4879 125.505 92.2663C125.281 92.0447 124.945 91.9339 124.499 91.9339C124.034 91.9339 123.668 92.037 123.4 92.2433C123.136 92.4464 122.953 92.6726 122.851 92.9219L121.554 92.6264C121.708 92.1955 121.932 91.8478 122.228 91.5831C122.526 91.3153 122.869 91.1214 123.257 91.0014C123.645 90.8783 124.053 90.8168 124.481 90.8168C124.764 90.8168 125.064 90.8506 125.381 90.9183C125.701 90.983 125.999 91.103 126.276 91.2784C126.556 91.4538 126.786 91.7047 126.964 92.0309C127.143 92.354 127.232 92.7741 127.232 93.2912V98H125.884V97.0305H125.829C125.739 97.209 125.605 97.3845 125.427 97.5568C125.248 97.7292 125.019 97.8723 124.739 97.9862C124.459 98.1 124.124 98.157 123.733 98.157ZM124.033 97.049C124.414 97.049 124.741 96.9736 125.011 96.8228C125.285 96.672 125.493 96.475 125.635 96.2319C125.779 95.9857 125.852 95.7225 125.852 95.4425V94.5284C125.802 94.5777 125.707 94.6238 125.565 94.6669C125.427 94.7069 125.268 94.7423 125.09 94.7731C124.911 94.8008 124.738 94.8269 124.568 94.8516C124.399 94.8731 124.257 94.8916 124.144 94.907C123.876 94.9408 123.631 94.9978 123.41 95.0778C123.191 95.1578 123.016 95.2732 122.883 95.424C122.754 95.5717 122.689 95.7687 122.689 96.0149C122.689 96.3565 122.816 96.6151 123.068 96.7905C123.32 96.9628 123.642 97.049 124.033 97.049ZM129.07 100.659V90.9091H130.419V92.0586H130.534C130.614 91.9109 130.729 91.7401 130.88 91.5462C131.031 91.3523 131.24 91.183 131.508 91.0384C131.776 90.8906 132.13 90.8168 132.57 90.8168C133.142 90.8168 133.653 90.9614 134.102 91.2507C134.552 91.54 134.904 91.957 135.16 92.5018C135.418 93.0465 135.547 93.7021 135.547 94.4684C135.547 95.2347 135.42 95.8918 135.164 96.4396C134.909 96.9844 134.558 97.4045 134.112 97.6999C133.665 97.9923 133.156 98.1385 132.584 98.1385C132.153 98.1385 131.8 98.0662 131.526 97.9215C131.256 97.7769 131.043 97.6076 130.889 97.4137C130.735 97.2198 130.617 97.0475 130.534 96.8967H130.451V100.659H129.07ZM130.423 94.4545C130.423 94.9531 130.495 95.3902 130.64 95.7656C130.785 96.1411 130.994 96.435 131.268 96.6474C131.542 96.8567 131.877 96.9613 132.274 96.9613C132.687 96.9613 133.031 96.852 133.308 96.6335C133.585 96.4119 133.795 96.1119 133.936 95.7333C134.081 95.3548 134.153 94.9285 134.153 94.4545C134.153 93.9867 134.082 93.5666 133.941 93.1942C133.802 92.8219 133.593 92.5279 133.313 92.3125C133.036 92.0971 132.69 91.9893 132.274 91.9893C131.874 91.9893 131.536 92.0924 131.259 92.2987C130.985 92.5049 130.777 92.7926 130.635 93.1619C130.494 93.5312 130.423 93.9621 130.423 94.4545ZM136.24 92.1001V90.9091H142.223V92.1001H139.91V98H138.562V92.1001H136.24ZM144.555 100.659C144.349 100.659 144.161 100.642 143.992 100.608C143.823 100.578 143.697 100.544 143.614 100.507L143.946 99.3757C144.198 99.4434 144.423 99.4727 144.62 99.4634C144.817 99.4542 144.991 99.3803 145.142 99.2418C145.295 99.1033 145.431 98.8771 145.548 98.5632L145.719 98.0923L143.124 90.9091H144.601L146.397 96.4119H146.471L148.267 90.9091H149.749L146.827 98.9464C146.691 99.3157 146.519 99.6281 146.31 99.8835C146.1 100.142 145.851 100.336 145.562 100.465C145.272 100.594 144.937 100.659 144.555 100.659Z" fill="white"/>
</g>
<defs>
<filter id="filter0_d_2_39" x="22" y="74" width="143" height="40" filterUnits="userSpaceOnUse" color-interpolation-filters="sRGB">
<feFlood flood-opacity="0" result="BackgroundImageFix"/>
<feColorMatrix in="SourceAlpha" type="matrix" values="0 0 0 0 0 0 0 0 0 0 0 0 0 0 0 0 0 0 127 0" result="hardAlpha"/>
<feOffset dy="1"/>
<feGaussianBlur stdDeviation="1"/>
<feComposite in2="hardAlpha" operator="out"/>
<feColorMatrix type="matrix" values="0 0 0 0 0 0 0 0 0 0 0 0 0 0 0 0 0 0 0.05 0"/>
<feBlend mode="normal" in2="BackgroundImageFix" result="effect1_dropShadow_2_39"/>
<feBlend mode="normal" in="SourceGraphic" in2="effect1_dropShadow_2_39" result="shape"/>
</filter>
</defs>
</svg>
