<svg width="20" height="20" viewBox="0 0 20 20" fill="none" xmlns="http://www.w3.org/2000/svg">
<path d="M12.5277 3.56416C13.1213 2.8739 13.524 1.94709 13.4178 1C12.549 1.04017 11.4887 1.53296 10.8749 2.22376C10.3237 2.81532 9.83592 3.78094 9.96309 4.68833C10.9384 4.76699 11.9128 4.23504 12.5277 3.56416Z" fill="black"/>
<path d="M13.4067 4.8655C11.9903 4.78705 10.7861 5.61293 10.1097 5.61293C9.43289 5.61293 8.39711 4.90503 7.27682 4.92411C5.8187 4.94402 4.46573 5.71058 3.7258 6.92977C2.20388 9.36876 3.32417 12.9866 4.80415 14.973C5.52287 15.9558 6.38904 17.0379 7.53036 16.999C8.60871 16.9596 9.03138 16.3497 10.3422 16.3497C11.652 16.3497 12.0327 16.999 13.1742 16.9793C14.358 16.9596 15.098 15.9961 15.8168 15.0124C16.6413 13.8921 16.9788 12.8104 17 12.751C16.9788 12.7313 14.7174 11.9247 14.6964 9.50599C14.675 7.48077 16.4719 6.51746 16.5564 6.45772C15.5417 5.06236 13.9563 4.90503 13.4067 4.8655Z" fill="black"/>
</svg>
