<svg width="12" height="12" viewBox="0 0 12 12" fill="none" xmlns="http://www.w3.org/2000/svg">
<path fill-rule="evenodd" clip-rule="evenodd" d="M1.52228 7.89749C1.91274 7.50691 2.54591 7.50681 2.93649 7.89728C3.74911 8.70965 4.85111 9.16602 6.00016 9.16602C7.1492 9.16602 8.25121 8.70965 9.06383 7.89728C9.45441 7.50681 10.0876 7.50691 10.478 7.89749C10.8685 8.28808 10.8684 8.92124 10.4778 9.31171C9.29015 10.499 7.67953 11.166 6.00016 11.166C4.32078 11.166 2.71017 10.499 1.52249 9.31171C1.13191 8.92124 1.13181 8.28808 1.52228 7.89749Z" fill="white"/>
<path d="M3 2.33398C3 3.16241 2.32843 3.83398 1.5 3.83398C0.671573 3.83398 0 3.16241 0 2.33398C0 1.50556 0.671573 0.833984 1.5 0.833984C2.32843 0.833984 3 1.50556 3 2.33398Z" fill="white"/>
<path d="M12 2.33398C12 3.16241 11.3284 3.83398 10.5 3.83398C9.67157 3.83398 9 3.16241 9 2.33398C9 1.50556 9.67157 0.833984 10.5 0.833984C11.3284 0.833984 12 1.50556 12 2.33398Z" fill="white"/>
</svg>
