<svg width="10" height="12" viewBox="0 0 10 12" fill="none" xmlns="http://www.w3.org/2000/svg">
<path d="M5.92163 7.48242H0V5.69531H5.87748C6.3521 5.69531 6.74209 5.61523 7.04746 5.45508C7.35651 5.29492 7.58462 5.07227 7.73179 4.78711C7.88263 4.50195 7.95622 4.16797 7.95254 3.78516C7.95622 3.41016 7.88263 3.07422 7.73179 2.77734C7.58462 2.47656 7.36019 2.24023 7.0585 2.06836C6.76049 1.89258 6.38153 1.80469 5.92163 1.80469H3.70309V12H1.66115V0H5.92163C6.79728 0 7.53863 0.167969 8.1457 0.503906C8.75276 0.835937 9.21266 1.28711 9.52539 1.85742C9.84179 2.42383 10 3.06055 10 3.76758C10 4.50195 9.83996 5.14844 9.51987 5.70703C9.19978 6.26172 8.7362 6.69727 8.12914 7.01367C7.52207 7.32617 6.78624 7.48242 5.92163 7.48242ZM6 9V10.453H0V9H6Z" fill="white"/>
</svg>
