<svg width="40" height="40" viewBox="0 0 40 40" fill="none" xmlns="http://www.w3.org/2000/svg">
<rect width="40" height="40" rx="20" fill="#16A34A"/>
<path d="M19.8817 29.6008C15.2676 29.6008 11.6 25.8831 11.6 21.326V13.5309C11.6 13.1711 11.9549 12.8114 12.3099 12.8114H14.4901C14.8451 12.8114 15.2 13.1711 15.2 13.5309V21.326C15.2 23.7245 17.5155 26.003 20 26.003C22.4845 26.003 24.8 23.7245 24.8 21.326V13.5203C24.8 13.1605 25.1549 12.8007 25.5099 12.8007L27.6901 12.8114C28.0451 12.8114 28.4 13.1711 28.4 13.5309V21.326C28.1634 25.8831 24.4958 29.6008 19.8817 29.6008Z" fill="white"/>
<path d="M22.4 21.206C22.4 22.5307 21.3255 23.6045 20 23.6045C18.6745 23.6045 17.6 22.5307 17.6 21.206C17.6 19.8814 18.6745 18.8075 20 18.8075C21.3255 18.8075 22.4 19.8814 22.4 21.206Z" fill="white"/>
</svg>
