<svg width="18" height="21" viewBox="0 0 18 21" fill="none" xmlns="http://www.w3.org/2000/svg">
<path fill-rule="evenodd" clip-rule="evenodd" d="M2.57143 9.1875V6.5625C2.57143 4.82202 3.24872 3.15282 4.45431 1.92211C5.6599 0.691404 7.29504 0 9 0C10.705 0 12.3401 0.691404 13.5457 1.92211C14.7513 3.15282 15.4286 4.82202 15.4286 6.5625V9.1875C16.1106 9.1875 16.7646 9.46406 17.2468 9.95635C17.7291 10.4486 18 11.1163 18 11.8125V18.375C18 19.0712 17.7291 19.7389 17.2468 20.2312C16.7646 20.7234 16.1106 21 15.4286 21H2.57143C1.88944 21 1.23539 20.7234 0.753154 20.2312C0.270917 19.7389 0 19.0712 0 18.375V11.8125C0 11.1163 0.270917 10.4486 0.753154 9.95635C1.23539 9.46406 1.88944 9.1875 2.57143 9.1875ZM12.8571 6.5625V9.1875H5.14286V6.5625C5.14286 5.51821 5.54923 4.51669 6.27259 3.77827C6.99594 3.03984 7.97702 2.625 9 2.625C10.023 2.625 11.0041 3.03984 11.7274 3.77827C12.4508 4.51669 12.8571 5.51821 12.8571 6.5625Z" fill="#16A34A"/>
</svg>
