<svg width="26" height="20" viewBox="0 0 26 20" fill="none" xmlns="http://www.w3.org/2000/svg">
<path fill-rule="evenodd" clip-rule="evenodd" d="M3.39922 0.400391C2.55053 0.400391 1.73659 0.737532 1.13648 1.33765C0.53636 1.93777 0.199219 2.7517 0.199219 3.60039V10.0004C0.199219 10.8491 0.53636 11.663 1.13648 12.2631C1.73659 12.8632 2.55053 13.2004 3.39922 13.2004V3.60039H19.3992C19.3992 2.7517 19.0621 1.93777 18.462 1.33765C17.8618 0.737532 17.0479 0.400391 16.1992 0.400391H3.39922ZM6.59922 10.0004C6.59922 9.1517 6.93636 8.33777 7.53648 7.73765C8.13659 7.13753 8.95053 6.80039 9.79922 6.80039H22.5992C23.4479 6.80039 24.2618 7.13753 24.862 7.73765C25.4621 8.33777 25.7992 9.1517 25.7992 10.0004V16.4004C25.7992 17.2491 25.4621 18.063 24.862 18.6631C24.2618 19.2632 23.4479 19.6004 22.5992 19.6004H9.79922C8.95053 19.6004 8.13659 19.2632 7.53648 18.6631C6.93636 18.063 6.59922 17.2491 6.59922 16.4004V10.0004ZM16.1992 16.4004C17.0479 16.4004 17.8618 16.0632 18.462 15.4631C19.0621 14.863 19.3992 14.0491 19.3992 13.2004C19.3992 12.3517 19.0621 11.5378 18.462 10.9376C17.8618 10.3375 17.0479 10.0004 16.1992 10.0004C15.3505 10.0004 14.5366 10.3375 13.9365 10.9376C13.3364 11.5378 12.9992 12.3517 12.9992 13.2004C12.9992 14.0491 13.3364 14.863 13.9365 15.4631C14.5366 16.0632 15.3505 16.4004 16.1992 16.4004Z" fill="#16A34A"/>
</svg>
