<svg width="101" height="22" viewBox="0 0 101 22" fill="none" xmlns="http://www.w3.org/2000/svg">
<path d="M34.8217 8.45494C34.8217 13.0346 31.7106 16.3857 27.4883 16.3857C25.2661 16.3857 23.4883 15.4921 22.3772 13.8166V20.7421C22.3772 21.0772 22.0439 21.4123 21.7106 21.4123H19.3772C19.0439 21.4123 18.7106 21.0772 18.7106 20.7421V1.41766C18.7106 1.08255 19.0439 0.747454 19.3772 0.747454H21.7106C22.0439 0.747454 22.3772 1.08255 22.3772 1.41766V2.98149C23.5994 1.30596 25.3772 0.412344 27.4883 0.412344C31.7106 0.524044 34.8217 3.8751 34.8217 8.45494ZM31.2661 8.45494C31.2661 5.88574 29.2661 3.87511 26.8217 3.87511C24.2661 3.87511 22.3772 5.88574 22.3772 8.45494C22.3772 11.024 24.3772 13.0346 26.8217 13.0346C29.3772 13.0346 31.2661 11.024 31.2661 8.45494ZM100.155 1.41766V15.3804C100.155 15.7155 99.8217 16.0506 99.4883 16.0506H97.155C96.8217 16.0506 96.4883 15.7155 96.4883 15.3804V13.8166C95.2661 15.4921 93.4883 16.3857 91.3772 16.3857C87.155 16.3857 84.0439 13.0346 84.0439 8.45494C84.0439 3.8751 87.155 0.524044 91.3772 0.524044C93.5995 0.524044 95.3772 1.41766 96.4883 3.09319V1.41766C96.4883 1.08255 96.8217 0.747454 97.155 0.747454H99.4883C99.9328 0.859154 100.155 1.08255 100.155 1.41766ZM96.5995 8.45494C96.5995 5.88574 94.5995 3.87511 92.155 3.87511C89.5995 3.87511 87.7106 5.88574 87.7106 8.45494C87.7106 11.024 89.7106 13.0346 92.155 13.0346C94.5995 13.0346 96.5995 11.024 96.5995 8.45494ZM80.7106 0.524044C79.2661 0.524044 78.0439 1.64106 78.0439 3.20489C78.0439 4.76872 79.155 5.88574 80.7106 5.88574C82.2661 5.88574 83.3772 4.65702 83.3772 3.20489C83.3772 1.75277 82.155 0.524044 80.7106 0.524044ZM76.0439 0.859154H73.7106C73.3772 0.859154 73.0439 1.19425 73.0439 1.52936V15.4921C73.0439 15.8272 73.3772 16.1623 73.7106 16.1623H76.0439C76.3772 16.1623 76.7105 15.8272 76.7105 15.4921V1.41766C76.7105 1.08255 76.3772 0.859154 76.0439 0.859154ZM53.2661 8.45494C53.2661 13.0346 50.155 16.3857 45.9328 16.3857C43.7106 16.3857 41.9328 15.4921 40.8217 13.8166V20.7421C40.8217 21.0772 40.4883 21.4123 40.155 21.4123H37.8217C37.4883 21.4123 37.155 21.0772 37.155 20.7421V1.41766C37.155 1.08255 37.4883 0.747454 37.8217 0.747454H40.155C40.4883 0.747454 40.8217 1.08255 40.8217 1.41766V2.98149C42.0439 1.30596 43.8217 0.412344 45.9328 0.412344C50.155 0.524044 53.2661 3.8751 53.2661 8.45494ZM49.7106 8.45494C49.7106 5.88574 47.7106 3.87511 45.2661 3.87511C42.7106 3.87511 40.8217 5.88574 40.8217 8.45494C40.8217 11.024 42.8217 13.0346 45.2661 13.0346C47.7106 13.0346 49.7106 11.024 49.7106 8.45494ZM70.9328 8.45494C70.9328 12.9229 67.3772 16.3857 62.9328 16.3857C58.3772 16.3857 54.9328 12.9229 54.9328 8.45494C54.9328 3.98681 58.4883 0.524044 62.9328 0.524044C67.2661 0.524044 70.9328 3.98681 70.9328 8.45494ZM67.2661 8.45494C67.2661 5.88574 65.2661 3.87511 62.8217 3.87511C60.2661 3.87511 58.3772 5.88574 58.3772 8.45494C58.3772 11.024 60.3772 13.0346 62.8217 13.0346C65.3772 13.0346 67.2661 11.024 67.2661 8.45494ZM7.93281 16.4974C3.59947 16.4974 0.155029 13.0346 0.155029 8.79004V1.52936C0.155029 1.19425 0.488363 0.859154 0.821696 0.859154H3.15503C3.48836 0.859154 3.8217 1.19425 3.8217 1.52936V8.79004C3.8217 11.024 5.71059 12.9229 8.04392 12.9229C10.3772 12.9229 12.2661 11.024 12.2661 8.79004V1.52936C12.2661 1.19425 12.5994 0.859154 12.9328 0.859154H15.2661C15.5994 0.859154 15.9328 1.19425 15.9328 1.52936V8.79004C15.7106 13.0346 12.2661 16.4974 7.93281 16.4974Z" fill="#111827"/>
<path d="M7.93302 5.88573C6.48858 5.88573 5.26636 7.00274 5.26636 8.56654C5.26636 10.0187 6.37747 11.2474 7.93302 11.2474C9.48858 11.2474 10.5997 10.0187 10.5997 8.56654C10.5997 7.00274 9.37747 5.88573 7.93302 5.88573Z" fill="#16A34A"/>
</svg>
