<svg width="100" height="22" viewBox="0 0 100 22" fill="none" xmlns="http://www.w3.org/2000/svg">
<path d="M34.6667 9.04255C34.6667 13.6223 31.5556 16.9734 27.3333 16.9734C25.1111 16.9734 23.3333 16.0798 22.2222 14.4043V21.3298C22.2222 21.6649 21.8889 22 21.5556 22H19.2222C18.8889 22 18.5556 21.6649 18.5556 21.3298V2.00532C18.5556 1.67021 18.8889 1.33511 19.2222 1.33511H21.5556C21.8889 1.33511 22.2222 1.67021 22.2222 2.00532V3.56915C23.4444 1.89362 25.2222 1 27.3333 1C31.5556 1.1117 34.6667 4.46276 34.6667 9.04255ZM31.1111 9.04255C31.1111 6.4734 29.1111 4.46277 26.6667 4.46277C24.1111 4.46277 22.2222 6.4734 22.2222 9.04255C22.2222 11.6117 24.2222 13.6223 26.6667 13.6223C29.2222 13.6223 31.1111 11.6117 31.1111 9.04255ZM100 2.00532V15.9681C100 16.3032 99.6667 16.6383 99.3333 16.6383H97C96.6667 16.6383 96.3333 16.3032 96.3333 15.9681V14.4043C95.1111 16.0798 93.3334 16.9734 91.2222 16.9734C87 16.9734 83.8889 13.6223 83.8889 9.04255C83.8889 4.46276 87 1.1117 91.2222 1.1117C93.4445 1.1117 95.2222 2.00532 96.3333 3.68085V2.00532C96.3333 1.67021 96.6667 1.33511 97 1.33511H99.3333C99.7778 1.44681 100 1.67021 100 2.00532ZM96.4445 9.04255C96.4445 6.4734 94.4445 4.46277 92 4.46277C89.4445 4.46277 87.5556 6.4734 87.5556 9.04255C87.5556 11.6117 89.5556 13.6223 92 13.6223C94.4445 13.6223 96.4445 11.6117 96.4445 9.04255ZM80.5556 1.1117C79.1111 1.1117 77.8889 2.22872 77.8889 3.79255C77.8889 5.35638 79 6.4734 80.5556 6.4734C82.1111 6.4734 83.2222 5.24468 83.2222 3.79255C83.2222 2.34043 82 1.1117 80.5556 1.1117ZM75.8889 1.44681H73.5556C73.2222 1.44681 72.8889 1.78191 72.8889 2.11702V16.0798C72.8889 16.4149 73.2222 16.75 73.5556 16.75H75.8889C76.2222 16.75 76.5555 16.4149 76.5555 16.0798V2.00532C76.5555 1.67021 76.2222 1.44681 75.8889 1.44681ZM53.1111 9.04255C53.1111 13.6223 50 16.9734 45.7778 16.9734C43.5556 16.9734 41.7778 16.0798 40.6667 14.4043V21.3298C40.6667 21.6649 40.3333 22 40 22H37.6667C37.3333 22 37 21.6649 37 21.3298V2.00532C37 1.67021 37.3333 1.33511 37.6667 1.33511H40C40.3333 1.33511 40.6667 1.67021 40.6667 2.00532V3.56915C41.8889 1.89362 43.6667 1 45.7778 1C50 1.1117 53.1111 4.46276 53.1111 9.04255ZM49.5556 9.04255C49.5556 6.4734 47.5556 4.46277 45.1111 4.46277C42.5556 4.46277 40.6667 6.4734 40.6667 9.04255C40.6667 11.6117 42.6667 13.6223 45.1111 13.6223C47.5556 13.6223 49.5556 11.6117 49.5556 9.04255ZM70.7778 9.04255C70.7778 13.5106 67.2222 16.9734 62.7778 16.9734C58.2222 16.9734 54.7778 13.5106 54.7778 9.04255C54.7778 4.57447 58.3333 1.1117 62.7778 1.1117C67.1111 1.1117 70.7778 4.57447 70.7778 9.04255ZM67.1111 9.04255C67.1111 6.4734 65.1111 4.46277 62.6667 4.46277C60.1111 4.46277 58.2222 6.4734 58.2222 9.04255C58.2222 11.6117 60.2222 13.6223 62.6667 13.6223C65.2222 13.6223 67.1111 11.6117 67.1111 9.04255ZM7.77778 17.0851C3.44444 17.0851 0 13.6223 0 9.37766V2.11702C0 1.78191 0.333334 1.44681 0.666667 1.44681H3C3.33333 1.44681 3.66667 1.78191 3.66667 2.11702V9.37766C3.66667 11.6117 5.55556 13.5106 7.88889 13.5106C10.2222 13.5106 12.1111 11.6117 12.1111 9.37766V2.11702C12.1111 1.78191 12.4444 1.44681 12.7778 1.44681H15.1111C15.4444 1.44681 15.7778 1.78191 15.7778 2.11702V9.37766C15.5556 13.6223 12.1111 17.0851 7.77778 17.0851Z" fill="#111827"/>
<path d="M7.77799 6.47339C6.33355 6.47339 5.11133 7.59041 5.11133 9.15424C5.11133 10.6064 6.22244 11.8351 7.77799 11.8351C9.33355 11.8351 10.4447 10.6064 10.4447 9.15424C10.4447 7.59041 9.22244 6.47339 7.77799 6.47339Z" fill="#16A34A"/>
</svg>
