<svg width="248" height="286" viewBox="0 0 248 286" fill="none" xmlns="http://www.w3.org/2000/svg">
<g filter="url(#filter0_i_1603_11733)">
<path d="M159.718 286C70.7324 286 0 213.15 0 123.85V-28.9C0 -35.95 6.84508 -43 13.6901 -43H61.6056C68.4507 -43 75.2958 -35.95 75.2958 -28.9V123.85C75.2958 170.85 114.085 210.8 162 210.8C209.915 210.8 248.704 170.85 248.704 123.85V-28.9C248.704 -35.95 255.549 -43 262.394 -43H310.31C317.155 -43 324 -35.95 324 -28.9V123.85C319.437 213.15 248.704 286 159.718 286Z" fill="#EBEFF2"/>
<path d="M159.718 62.7497C130.056 62.7497 104.958 86.2497 104.958 119.15C104.958 149.7 127.775 175.55 159.718 175.55C191.662 175.55 214.479 149.7 214.479 119.15C214.479 86.2497 189.38 62.7497 159.718 62.7497Z" fill="#EBEFF2"/>
</g>
<defs>
<filter id="filter0_i_1603_11733" x="0" y="-43" width="324" height="330" filterUnits="userSpaceOnUse" color-interpolation-filters="sRGB">
<feFlood flood-opacity="0" result="BackgroundImageFix"/>
<feBlend mode="normal" in="SourceGraphic" in2="BackgroundImageFix" result="shape"/>
<feColorMatrix in="SourceAlpha" type="matrix" values="0 0 0 0 0 0 0 0 0 0 0 0 0 0 0 0 0 0 127 0" result="hardAlpha"/>
<feOffset dy="2"/>
<feGaussianBlur stdDeviation="0.5"/>
<feComposite in2="hardAlpha" operator="arithmetic" k2="-1" k3="1"/>
<feColorMatrix type="matrix" values="0 0 0 0 0 0 0 0 0 0 0 0 0 0 0 0 0 0 0.05 0"/>
<feBlend mode="normal" in2="shape" result="effect1_innerShadow_1603_11733"/>
</filter>
</defs>
</svg>
