<svg width="0" height="0" class="hidden">
  <symbol xmlns="http://www.w3.org/2000/svg" viewBox="0 0 24 24" id="notification">
    <path fill-rule="evenodd" clip-rule="evenodd" d="M10.0908 3.09081C10.5972 2.58446 11.2839 2.3 12 2.3C12.7161 2.3 13.4028 2.58446 13.9092 3.09081C14.3835 3.56515 14.6631 4.19781 14.6966 4.86458C15.807 5.35302 16.7671 6.13519 17.4709 7.13084C18.2707 8.26247 18.7002 9.61422 18.7 11C18.7 11 18.7 11 18.7 11V14.158C18.7 14.3329 18.7344 14.5063 18.8013 14.6679C18.8682 14.8295 18.9663 14.9763 19.09 15.1C19.09 15.1 19.09 15.1 19.09 15.1L20.495 16.505C20.6952 16.7052 20.7551 17.0063 20.6467 17.2679C20.5384 17.5295 20.2831 17.7 20 17.7H15.7V18C15.7 18.9813 15.3102 19.9224 14.6163 20.6163C13.9224 21.3102 12.9813 21.7 12 21.7C11.0187 21.7 10.0776 21.3102 9.3837 20.6163C8.68982 19.9224 8.3 18.9813 8.3 18V17.7H4C3.71688 17.7 3.46163 17.5295 3.35328 17.2679C3.24494 17.0063 3.30483 16.7052 3.50503 16.505L4.91003 15.1C5.15976 14.8503 5.3 14.5113 5.3 14.159V11C5.3 8.25843 6.94711 5.90232 9.30339 4.86467C9.33683 4.19786 9.61645 3.56517 10.0908 3.09081ZM9.7 17.7V18C9.7 18.61 9.94232 19.195 10.3737 19.6263C10.805 20.0577 11.39 20.3 12 20.3C12.61 20.3 13.195 20.0577 13.6263 19.6263C14.0577 19.195 14.3 18.61 14.3 18V17.7H9.7ZM12 3.7C11.6552 3.7 11.3246 3.83696 11.0808 4.08076C10.837 4.32456 10.7 4.65522 10.7 5V5.341C10.7 5.63763 10.513 5.90205 10.2334 6.00095C8.17419 6.72918 6.7 8.6939 6.7 11V14.159C6.7 14.8827 6.41224 15.5777 5.89997 16.09L5.68995 16.3H18.3101L18.1 16.09C17.8463 15.8362 17.6451 15.535 17.5078 15.2035C17.3706 14.872 17.3 14.5168 17.3 14.158C17.3 14.158 17.3 14.158 17.3 14.158V11C17.3001 9.90368 16.9604 8.83419 16.3276 7.93893C15.6948 7.04368 14.8 6.3666 13.7665 6.00091C13.4869 5.90198 13.3 5.63759 13.3 5.341V5C13.3 4.65522 13.163 4.32456 12.9192 4.08076C12.6754 3.83696 12.3448 3.7 12 3.7Z"></path>
  </symbol>
  <symbol xmlns="http://www.w3.org/2000/svg" viewBox="0 0 20 20" id="plus">
    <path fill-rule="evenodd" clip-rule="evenodd" d="M10.0001 3.3C10.3867 3.3 10.7001 3.6134 10.7001 4V9.30008H16.0002C16.3868 9.30008 16.7002 9.61348 16.7002 10.0001C16.7002 10.3867 16.3868 10.7001 16.0002 10.7001H10.7001V16.0002C10.7001 16.3868 10.3867 16.7002 10.0001 16.7002C9.61348 16.7002 9.30008 16.3868 9.30008 16.0002V10.7001H4C3.6134 10.7001 3.3 10.3867 3.3 10.0001C3.3 9.61348 3.6134 9.30008 4 9.30008H9.30008V4C9.30008 3.6134 9.61348 3.3 10.0001 3.3Z"></path>
  </symbol>
  <symbol xmlns="http://www.w3.org/2000/svg" viewBox="0 0 24 24" id="search">
    <path fill-rule="evenodd" clip-rule="evenodd" d="M10.3333 5.2C8.97189 5.2 7.66621 5.74083 6.70352 6.70352C5.74083 7.66621 5.2 8.97189 5.2 10.3333C5.2 11.0075 5.33278 11.675 5.59075 12.2978C5.84873 12.9206 6.22684 13.4865 6.70352 13.9631C7.18019 14.4398 7.74609 14.8179 8.36889 15.0759C8.9917 15.3339 9.65921 15.4667 10.3333 15.4667C11.0075 15.4667 11.675 15.3339 12.2978 15.0759C12.9206 14.8179 13.4865 14.4398 13.9631 13.9631C14.4398 13.4865 14.8179 12.9206 15.0759 12.2978C15.3339 11.675 15.4667 11.0075 15.4667 10.3333C15.4667 8.97189 14.9258 7.66621 13.9631 6.70352C13.0005 5.74083 11.6948 5.2 10.3333 5.2ZM5.71357 5.71357C6.93881 4.48833 8.60059 3.8 10.3333 3.8C12.0661 3.8 13.7279 4.48833 14.9531 5.71357C16.1783 6.93881 16.8667 8.60059 16.8667 10.3333C16.8667 11.1913 16.6977 12.0409 16.3693 12.8335C16.1307 13.4097 15.8112 13.9477 15.4215 14.4315L19.995 19.005C20.2683 19.2784 20.2683 19.7216 19.995 19.995C19.7216 20.2683 19.2784 20.2683 19.005 19.995L14.4315 15.4215C13.9477 15.8112 13.4097 16.1307 12.8335 16.3693C12.0409 16.6977 11.1913 16.8667 10.3333 16.8667C9.47536 16.8667 8.6258 16.6977 7.83313 16.3693C7.04047 16.041 6.32024 15.5598 5.71357 14.9531C5.10689 14.3464 4.62565 13.6262 4.29732 12.8335C3.96899 12.0409 3.8 11.1913 3.8 10.3333C3.8 8.60059 4.48833 6.93881 5.71357 5.71357Z"></path>
  </symbol>
  <symbol xmlns="http://www.w3.org/2000/svg" viewBox="0 0 20 20" id="arrow-down">
    <path fill-rule="evenodd" clip-rule="evenodd" d="M4.50503 7.42299C4.77839 7.14963 5.22161 7.14963 5.49497 7.42299L9.99992 11.9279L14.5049 7.42299C14.7782 7.14963 15.2214 7.14963 15.4948 7.42299C15.7682 7.69636 15.7682 8.13958 15.4948 8.41294L10.4949 13.4129C10.2215 13.6862 9.77831 13.6862 9.50494 13.4129L4.50503 8.41294C4.23166 8.13958 4.23166 7.69636 4.50503 7.42299Z"></path>
  </symbol>
  <symbol xmlns="http://www.w3.org/2000/svg" viewBox="0 0 20 20" id="checked">
    <path fill-rule="evenodd" clip-rule="evenodd" d="M16.3283 5.33836C16.6017 5.61173 16.6017 6.05494 16.3283 6.32831L7.99497 14.6616C7.72161 14.935 7.27839 14.935 7.00503 14.6616L3.67169 11.3283C3.39832 11.0549 3.39832 10.6117 3.67169 10.3384C3.94506 10.065 4.38827 10.065 4.66164 10.3384L7.5 13.1767L15.3384 5.33836C15.6117 5.06499 16.0549 5.06499 16.3283 5.33836Z"></path>
  </symbol>
  <symbol xmlns="http://www.w3.org/2000/svg" viewBox="0 0 24 24" id="close">
    <path fill-rule="evenodd" clip-rule="evenodd" d="M4.50503 4.50503C4.7784 4.23166 5.22161 4.23166 5.49498 4.50503L12 11.0101L18.505 4.50503C18.7784 4.23166 19.2216 4.23166 19.495 4.50503C19.7683 4.7784 19.7683 5.22161 19.495 5.49498L12.99 12L19.495 18.505C19.7683 18.7784 19.7683 19.2216 19.495 19.495C19.2216 19.7683 18.7784 19.7683 18.505 19.495L12 12.99L5.49498 19.495C5.22161 19.7683 4.7784 19.7683 4.50503 19.495C4.23166 19.2216 4.23166 18.7784 4.50503 18.505L11.0101 12L4.50503 5.49498C4.23166 5.22161 4.23166 4.7784 4.50503 4.50503Z"></path>
  </symbol>
  <symbol xmlns="http://www.w3.org/2000/svg" viewBox="0 0 40 40" id="download-arrow">
    <path fill-rule="evenodd" clip-rule="evenodd" d="M20.4947 4.50503L32.1613 16.1717C32.4346 16.4451 32.4346 16.8883 32.1613 17.1617C31.8879 17.435 31.4447 17.435 31.1713 17.1617L20.6997 6.68996V35C20.6997 35.3866 20.3863 35.7 19.9997 35.7C19.6131 35.7 19.2997 35.3866 19.2997 35V6.68995L8.82799 17.1617C8.55462 17.435 8.1114 17.435 7.83804 17.1617C7.56467 16.8883 7.56467 16.4451 7.83804 16.1717L19.5047 4.50502C19.5063 4.5035 19.5078 4.50198 19.5093 4.50047C19.5754 4.43562 19.6511 4.3865 19.7318 4.35311C19.8143 4.31889 19.9048 4.3 19.9997 4.3C20.0946 4.3 20.1851 4.31889 20.2677 4.35311C20.3483 4.3865 20.424 4.43562 20.4901 4.50048C20.4916 4.50198 20.4932 4.5035 20.4947 4.50503Z"></path>
  </symbol>
  <symbol xmlns="http://www.w3.org/2000/svg" viewBox="0 0 24 24" id="login">
    <path fill-rule="evenodd" clip-rule="evenodd" d="M18 19.3C18.61 19.3 19.195 19.0577 19.6263 18.6263C20.0577 18.195 20.3 17.61 20.3 17L20.3 7C20.3 6.39 20.0577 5.80499 19.6263 5.37366C19.195 4.94232 18.61 4.7 18 4.7L11 4.7C10.39 4.7 9.80499 4.94232 9.37366 5.37365C8.94232 5.80499 8.7 6.39 8.7 7L8.7 8C8.7 8.3866 8.3866 8.7 8 8.7C7.6134 8.7 7.3 8.3866 7.3 8L7.3 7C7.3 6.0187 7.68982 5.07759 8.38371 4.3837C9.07759 3.68982 10.0187 3.3 11 3.3L18 3.3C18.9813 3.3 19.9224 3.68982 20.6163 4.38371C21.3102 5.07759 21.7 6.0187 21.7 7L21.7 17C21.7 17.9813 21.3102 18.9224 20.6163 19.6163C19.9224 20.3102 18.9813 20.7 18 20.7L11 20.7C10.0187 20.7 9.07759 20.3102 8.38371 19.6163C7.68982 18.9224 7.3 17.9813 7.3 17L7.3 16C7.3 15.6134 7.6134 15.3 8 15.3C8.3866 15.3 8.7 15.6134 8.7 16L8.7 17C8.7 17.61 8.94232 18.195 9.37366 18.6263C9.80499 19.0577 10.39 19.3 11 19.3L18 19.3ZM12.505 16.495C12.2317 16.2216 12.2317 15.7784 12.505 15.505L15.3101 12.7L3 12.7C2.6134 12.7 2.3 12.3866 2.3 12C2.3 11.6134 2.6134 11.3 3 11.3L15.3101 11.3L12.505 8.49498C12.2317 8.22161 12.2317 7.77839 12.505 7.50503C12.7784 7.23166 13.2216 7.23166 13.495 7.50503L17.495 11.505C17.5621 11.5721 17.6127 11.6495 17.6469 11.7321C17.6811 11.8146 17.7 11.9051 17.7 12C17.7 12.0949 17.6811 12.1854 17.6469 12.2679C17.6127 12.3505 17.5621 12.4279 17.495 12.495C17.4949 12.495 17.4949 12.495 17.4949 12.4951L13.495 16.495C13.2216 16.7683 12.7784 16.7683 12.505 16.495Z"></path>
  </symbol>
  <symbol fill="none" xmlns="http://www.w3.org/2000/svg" viewBox="0 0 20 20" id="map-marker">
    <path d="M14.7148 13.8808L11.179 17.4167C11.0244 17.5715 10.8407 17.6942 10.6386 17.778C10.4365 17.8618 10.2199 17.9049 10.0011 17.9049C9.78228 17.9049 9.56564 17.8618 9.36352 17.778C9.16141 17.6942 8.97779 17.5715 8.82315 17.4167L5.28649 13.8808C4.35417 12.9485 3.71927 11.7606 3.46206 10.4674C3.20485 9.17419 3.3369 7.83376 3.84149 6.61561C4.34608 5.39745 5.20057 4.35628 6.29689 3.62376C7.39321 2.89123 8.68213 2.50024 10.0007 2.50024C11.3192 2.50024 12.6081 2.89123 13.7044 3.62376C14.8007 4.35628 15.6552 5.39745 16.1598 6.61561C16.6644 7.83376 16.7965 9.17419 16.5392 10.4674C16.282 11.7606 15.6471 12.9485 14.7148 13.8808V13.8808Z" stroke="#9CA3AF" stroke-width="1.4" stroke-linecap="round" stroke-linejoin="round"></path>
    <path d="M12.5 9.16663C12.5 9.82967 12.2366 10.4656 11.7678 10.9344C11.2989 11.4032 10.663 11.6666 10 11.6666C9.33696 11.6666 8.70107 11.4032 8.23223 10.9344C7.76339 10.4656 7.5 9.82967 7.5 9.16663C7.5 8.50358 7.76339 7.8677 8.23223 7.39886C8.70107 6.93002 9.33696 6.66663 10 6.66663C10.663 6.66663 11.2989 6.93002 11.7678 7.39886C12.2366 7.8677 12.5 8.50358 12.5 9.16663V9.16663Z" stroke="#9CA3AF" stroke-width="1.4" stroke-linecap="round" stroke-linejoin="round"></path>
  </symbol>
</svg>