<svg width="0" height="0" class="hidden">
  <symbol xmlns="http://www.w3.org/2000/svg" viewBox="0 0 40 40" id="download-arrow">
    <path fill-rule="evenodd" clip-rule="evenodd" d="M20.4947 4.50503L32.1613 16.1717C32.4346 16.4451 32.4346 16.8883 32.1613 17.1617C31.8879 17.435 31.4447 17.435 31.1713 17.1617L20.6997 6.68996V35C20.6997 35.3866 20.3863 35.7 19.9997 35.7C19.6131 35.7 19.2997 35.3866 19.2997 35V6.68995L8.82799 17.1617C8.55462 17.435 8.1114 17.435 7.83804 17.1617C7.56467 16.8883 7.56467 16.4451 7.83804 16.1717L19.5047 4.50502C19.5063 4.5035 19.5078 4.50198 19.5093 4.50047C19.5754 4.43562 19.6511 4.3865 19.7318 4.35311C19.8143 4.31889 19.9048 4.3 19.9997 4.3C20.0946 4.3 20.1851 4.31889 20.2677 4.35311C20.3483 4.3865 20.424 4.43562 20.4901 4.50048C20.4916 4.50198 20.4932 4.5035 20.4947 4.50503Z"></path>
  </symbol>
  <symbol fill="none" xmlns="http://www.w3.org/2000/svg" viewBox="0 0 20 20" id="map-marker">
    <path d="M14.7148 13.8808L11.179 17.4167C11.0244 17.5715 10.8407 17.6942 10.6386 17.778C10.4365 17.8618 10.2199 17.9049 10.0011 17.9049C9.78228 17.9049 9.56564 17.8618 9.36352 17.778C9.16141 17.6942 8.97779 17.5715 8.82315 17.4167L5.28649 13.8808C4.35417 12.9485 3.71927 11.7606 3.46206 10.4674C3.20485 9.17419 3.3369 7.83376 3.84149 6.61561C4.34608 5.39745 5.20057 4.35628 6.29689 3.62376C7.39321 2.89123 8.68213 2.50024 10.0007 2.50024C11.3192 2.50024 12.6081 2.89123 13.7044 3.62376C14.8007 4.35628 15.6552 5.39745 16.1598 6.61561C16.6644 7.83376 16.7965 9.17419 16.5392 10.4674C16.282 11.7606 15.6471 12.9485 14.7148 13.8808V13.8808Z" stroke="#9CA3AF" stroke-width="1.4" stroke-linecap="round" stroke-linejoin="round"></path>
    <path d="M12.5 9.16663C12.5 9.82967 12.2366 10.4656 11.7678 10.9344C11.2989 11.4032 10.663 11.6666 10 11.6666C9.33696 11.6666 8.70107 11.4032 8.23223 10.9344C7.76339 10.4656 7.5 9.82967 7.5 9.16663C7.5 8.50358 7.76339 7.8677 8.23223 7.39886C8.70107 6.93002 9.33696 6.66663 10 6.66663C10.663 6.66663 11.2989 6.93002 11.7678 7.39886C12.2366 7.8677 12.5 8.50358 12.5 9.16663V9.16663Z" stroke="#9CA3AF" stroke-width="1.4" stroke-linecap="round" stroke-linejoin="round"></path>
  </symbol>
  <symbol xmlns="http://www.w3.org/2000/svg" viewBox="0 0 24 24" id="close">
    <path fill-rule="evenodd" clip-rule="evenodd" d="M4.50503 4.50503C4.7784 4.23166 5.22161 4.23166 5.49498 4.50503L12 11.0101L18.505 4.50503C18.7784 4.23166 19.2216 4.23166 19.495 4.50503C19.7683 4.7784 19.7683 5.22161 19.495 5.49498L12.99 12L19.495 18.505C19.7683 18.7784 19.7683 19.2216 19.495 19.495C19.2216 19.7683 18.7784 19.7683 18.505 19.495L12 12.99L5.49498 19.495C5.22161 19.7683 4.7784 19.7683 4.50503 19.495C4.23166 19.2216 4.23166 18.7784 4.50503 18.505L11.0101 12L4.50503 5.49498C4.23166 5.22161 4.23166 4.7784 4.50503 4.50503Z"></path>
  </symbol>
</svg>