<svg width="18" height="14" viewBox="0 0 18 14" fill="none" xmlns="http://www.w3.org/2000/svg">
<path fill-rule="evenodd" clip-rule="evenodd" d="M1.81274 5.90788C6.28665 4.02624 9.26997 2.78575 10.7627 2.1864C15.0247 0.475152 15.9103 0.177889 16.4875 0.168073C16.6144 0.165915 16.8983 0.196287 17.0822 0.340316C17.2374 0.46193 17.2801 0.626215 17.3006 0.741519C17.321 0.856823 17.3465 1.11949 17.3263 1.32473C17.0953 3.6673 16.0959 9.35211 15.5875 11.9758C15.3724 13.086 14.9488 13.4583 14.5387 13.4947C13.6475 13.5739 12.9707 12.9261 12.1076 12.3799C10.7568 11.5252 9.99376 10.9931 8.68265 10.1591C7.16744 9.19519 8.14969 8.66542 9.0132 7.79963C9.23919 7.57305 13.1659 4.1252 13.2419 3.81242C13.2514 3.77331 13.2603 3.62749 13.1705 3.5505C13.0808 3.47351 12.9483 3.49984 12.8528 3.52077C12.7173 3.55046 10.5595 4.92724 6.37938 7.65112C5.7669 8.05711 5.21213 8.25493 4.71508 8.24456C4.16711 8.23314 3.11306 7.94548 2.32947 7.6996C1.36838 7.39801 0.604515 7.23856 0.67103 6.72638C0.705675 6.4596 1.08624 6.18677 1.81274 5.90788Z" fill="#9CA3AF"/>
</svg>
