<svg width="24" height="24" viewBox="0 0 24 24" xmlns="http://www.w3.org/2000/svg"><path fill-rule="evenodd" clip-rule="evenodd" d="M3.51202 12C4.74752 15.4964 8.08323 18 12 18C15.9177 18 19.2525 15.4965 20.488 12C19.2525 8.50354 15.9177 6 12 6C8.08323 6 4.74752 8.50359 3.51202 12ZM1.50394 11.7004C2.90509 7.23851 7.07378 4 12 4C16.9273 4 21.0949 7.23856 22.4961 11.7004C22.5573 11.8954 22.5573 12.1046 22.4961 12.2996C21.0949 16.7614 16.9273 20 12 20C7.07378 20 2.90509 16.7615 1.50394 12.2996C1.4427 12.1046 1.4427 11.8954 1.50394 11.7004Z"/><path fill-rule="evenodd" clip-rule="evenodd" d="M12 14C13.1046 14 14 13.1046 14 12C14 10.8954 13.1046 10 12 10C10.8954 10 10 10.8954 10 12C10 13.1046 10.8954 14 12 14ZM12 16C14.2091 16 16 14.2091 16 12C16 9.79086 14.2091 8 12 8C9.79087 8 8 9.79086 8 12C8 14.2091 9.79087 16 12 16Z"/></svg>