<svg width="348" height="240" viewBox="0 0 348 240" fill="none" xmlns="http://www.w3.org/2000/svg">
<rect width="348" height="240" rx="16" fill="white"/>
<path fill-rule="evenodd" clip-rule="evenodd" d="M312.857 130.362C315.427 134.619 318.319 138.367 322.09 140.382C322.577 140.642 323.183 140.459 323.443 139.971C323.704 139.484 323.52 138.878 323.033 138.618C319.762 136.871 317.102 133.524 314.569 129.329C313.311 127.243 312.103 124.984 310.875 122.654C310.725 122.368 310.574 122.082 310.423 121.795C309.344 119.745 308.244 117.653 307.086 115.621C304.452 110.997 301.464 106.571 297.588 103.452C293.674 100.304 288.88 98.5108 282.734 99.1171C270.683 100.306 261.678 106.863 253.37 113.31C252.853 113.712 252.338 114.113 251.826 114.512C244.036 120.581 236.8 126.219 227.921 127.533C217.769 129.036 211.698 134.797 205.928 141.789C204.676 143.306 203.44 144.878 202.179 146.481C197.606 152.295 192.715 158.515 185.601 164.002C176.519 171.009 167.858 174.917 158.637 176.729C149.398 178.545 139.544 178.268 128.051 176.826C116.951 175.434 109.834 167.708 104.036 159.913C103.016 158.542 102.029 157.157 101.067 155.806C99.335 153.376 97.6839 151.06 96.0709 149.146C93.5678 146.176 90.8998 143.843 87.7406 143.509C81.8313 142.884 76.3562 146.338 71.3884 150.066C70.305 150.879 69.2582 151.695 68.2279 152.498C66.8238 153.593 65.4503 154.664 64.0565 155.67C61.6702 157.392 59.3963 158.79 57.1938 159.537C54.6458 160.401 52.5896 161.997 50.6631 163.807C49.824 164.595 48.9934 165.44 48.1566 166.291C48.0338 166.416 47.9109 166.541 47.7878 166.666C46.8195 167.65 45.8315 168.641 44.7667 169.604C40.5569 173.411 35.1146 176.819 25.4385 176.819C24.8863 176.819 24.4385 177.266 24.4385 177.819C24.4385 178.371 24.8863 178.819 25.4385 178.819C35.7125 178.819 41.6143 175.151 46.1082 171.087C47.2193 170.082 48.2421 169.055 49.2129 168.07C49.338 167.943 49.4621 167.816 49.5854 167.691C50.4247 166.837 51.2248 166.023 52.0326 165.265C53.8834 163.526 55.6901 162.159 57.8362 161.431C60.3278 160.586 62.7969 159.046 65.2269 157.292C66.6275 156.281 68.074 155.154 69.5183 154.029C70.5486 153.226 71.5778 152.424 72.5886 151.666C77.5957 147.909 82.4868 144.965 87.5304 145.498C89.8477 145.743 92.0694 147.502 94.5416 150.435C96.1078 152.293 97.6714 154.488 99.3637 156.864C100.336 158.229 101.35 159.653 102.431 161.107C108.27 168.956 115.823 177.309 127.802 178.811C139.389 180.264 149.484 180.566 159.022 178.691C168.578 176.813 177.52 172.762 186.823 165.586C194.153 159.931 199.239 153.461 203.828 147.624C205.067 146.048 206.27 144.517 207.471 143.062C213.143 136.187 218.808 130.904 228.214 129.512C237.637 128.117 245.278 122.157 252.95 116.172C253.499 115.744 254.047 115.317 254.596 114.89C262.913 108.435 271.511 102.234 282.93 101.107C288.519 100.556 292.799 102.167 296.334 105.011C299.907 107.885 302.744 112.039 305.348 116.611C306.488 118.612 307.572 120.671 308.652 122.724C308.804 123.012 308.955 123.299 309.106 123.586C310.334 125.915 311.565 128.221 312.857 130.362Z" fill="#E5E7EB"/>
<path fill-rule="evenodd" clip-rule="evenodd" d="M324 194L24 194L24 193L324 193L324 194Z" fill="#E5E7EB"/>
<path fill-rule="evenodd" clip-rule="evenodd" d="M25 176L25 194L24 194L24 176L25 176Z" fill="#E5E7EB"/>
<path fill-rule="evenodd" clip-rule="evenodd" d="M102 99L102 194L101 194L101 99L102 99Z" fill="#E5E7EB"/>
<path fill-rule="evenodd" clip-rule="evenodd" d="M243 93L243 194L242 194L242 93L243 93Z" fill="#E5E7EB"/>
<path fill-rule="evenodd" clip-rule="evenodd" d="M324 138L324 194L323 194L323 138L324 138Z" fill="#E5E7EB"/>
<path fill-rule="evenodd" clip-rule="evenodd" d="M232.603 79.6751C228.704 76.159 224.199 74.26 218.682 75.2716C213.077 76.2991 207.745 80.0297 202.542 84.9039C199.04 88.1854 195.68 91.8985 192.373 95.5539C190.76 97.3365 189.16 99.1053 187.562 100.804C182.756 105.91 177.942 110.406 173.055 112.216C170.574 113.135 168.041 113.377 165.48 112.638C162.931 111.902 160.451 110.224 158.015 107.477C148.705 96.9787 143.234 94.6896 137.759 94.3205C135.838 94.191 133.937 94.2947 131.808 94.4108C130.768 94.4676 129.673 94.5273 128.495 94.5642C124.961 94.6749 120.878 94.5611 115.778 93.4579C111.291 92.4871 107.332 94.6117 103.501 98.73C99.6643 102.855 96.1589 108.769 92.6192 114.892C92.3984 115.274 92.1774 115.657 91.9563 116.04C88.6631 121.745 85.3248 127.529 81.7043 131.874C77.8565 136.493 73.4678 139.759 68.2224 139.3C63.9317 138.925 60.348 141.057 57.0086 144.693C53.7893 148.199 50.9382 152.949 48.0247 157.803C47.9025 158.006 47.7802 158.21 47.6578 158.414C44.6499 163.422 41.5521 168.497 37.9597 172.053C34.3333 175.643 30.0718 177.809 24.7977 176.718C24.2568 176.606 23.9091 176.077 24.0209 175.536C24.1328 174.995 24.6619 174.647 25.2027 174.759C29.5895 175.666 33.2054 173.945 36.5527 170.632C39.9338 167.285 42.9057 162.441 45.9433 157.384C46.0806 157.155 46.2181 156.926 46.3557 156.697C49.2281 151.91 52.1744 147 55.5355 143.34C59.0726 139.488 63.2206 136.855 68.3967 137.308C72.618 137.677 76.4239 135.088 80.1677 130.594C83.6733 126.386 86.9297 120.746 90.2539 114.988C90.4649 114.623 90.6761 114.257 90.8877 113.891C94.4027 107.811 98.0179 101.688 102.037 97.3678C106.062 93.041 110.694 90.3117 116.201 91.5031C121.096 92.5621 125.008 92.6724 128.432 92.5651C129.496 92.5318 130.533 92.4756 131.548 92.4205C133.75 92.3011 135.85 92.1873 137.893 92.325C144.11 92.7441 150.031 95.4594 159.512 106.15C161.773 108.701 163.947 110.114 166.035 110.716C168.112 111.315 170.202 111.14 172.36 110.341C176.75 108.715 181.273 104.567 186.105 99.433C187.646 97.7961 189.216 96.0608 190.814 94.2951C194.153 90.6046 197.613 86.7811 201.175 83.4444C206.449 78.5038 212.132 74.439 218.321 73.3043C224.598 72.1537 229.707 74.3703 233.943 78.1897C238.143 81.9772 241.539 87.3826 244.488 92.7555C245.621 94.8178 246.681 96.8618 247.697 98.8208C249.367 102.039 250.917 105.029 252.473 107.494C253.714 109.462 254.899 110.992 256.066 111.973C257.219 112.943 258.257 113.3 259.274 113.143C262.603 112.629 265.65 114.698 268.359 117.638C271.105 120.62 273.761 124.776 276.319 129.052C277.073 130.311 277.818 131.581 278.556 132.839C280.346 135.889 282.095 138.87 283.83 141.476C285.052 143.31 286.245 144.926 287.415 146.221C288.591 147.523 289.7 148.452 290.739 148.968C291.818 149.502 292.753 149.705 293.602 149.691C294.454 149.677 295.281 149.443 296.142 149.017C297.663 148.265 299.159 146.994 300.979 145.447C301.295 145.18 301.619 144.904 301.956 144.621C306.453 140.838 312.457 136.341 323 136.341C323.553 136.341 324 136.788 324 137.341C324 137.893 323.553 138.341 323 138.341C313.155 138.341 307.603 142.483 303.243 146.151C302.929 146.415 302.618 146.68 302.31 146.942C300.508 148.477 298.79 149.939 297.029 150.81C295.968 151.335 294.849 151.671 293.635 151.691C292.42 151.711 291.171 151.414 289.851 150.759C288.492 150.086 287.186 148.952 285.931 147.562C284.669 146.164 283.414 144.459 282.166 142.585C280.397 139.928 278.601 136.868 276.799 133.797C276.067 132.55 275.335 131.302 274.602 130.078C272.042 125.799 269.479 121.806 266.888 118.993C264.258 116.139 261.848 114.769 259.58 115.12C257.798 115.395 256.196 114.696 254.778 113.504C253.374 112.323 252.058 110.585 250.781 108.561C249.188 106.036 247.562 102.904 245.856 99.6181C244.847 97.6739 243.81 95.6758 242.735 93.7179C239.801 88.3733 236.538 83.2231 232.603 79.6751Z" fill="#01BC14"/>
<path d="M68.399 139.156C49.3979 137.478 43.3909 180.978 24 176.929V194H324V138.18C303.538 138.18 300.807 155.688 291.178 150.869C281.548 146.049 271.433 112.91 260.199 114.663C248.965 116.416 242.8 69.9098 219.128 74.2914C195.456 78.673 178.033 128.718 159.176 107.248C140.319 85.7782 136.31 97.1067 116.249 92.7251C96.1883 88.3435 87.4001 140.833 68.399 139.156Z" fill="url(#paint0_linear_1413_14832)"/>
<path d="M288.63 32.5224L291.104 26.9087H292.138L289.073 33.9996H288.187L285.177 26.9087H286.192L288.63 32.5224ZM285.841 26.9087V33.9996H284.752V26.9087H285.841ZM291.418 33.9996V26.9087H292.508V33.9996H291.418Z" fill="#2563EB"/>
<path d="M296.589 34.1658C296.139 34.1658 295.731 34.0812 295.365 33.9119C294.999 33.7396 294.708 33.4918 294.493 33.1687C294.277 32.8424 294.17 32.4485 294.17 31.9869C294.17 31.5806 294.25 31.2513 294.41 30.9989C294.57 30.7435 294.784 30.5434 295.051 30.3988C295.319 30.2541 295.615 30.1464 295.938 30.0756C296.264 30.0018 296.592 29.9433 296.921 29.9002C297.352 29.8448 297.701 29.8033 297.969 29.7756C298.24 29.7448 298.437 29.694 298.56 29.6232C298.686 29.5524 298.749 29.4293 298.749 29.2539V29.217C298.749 28.7615 298.624 28.4076 298.375 28.1552C298.129 27.9028 297.755 27.7766 297.253 27.7766C296.733 27.7766 296.325 27.8905 296.03 28.1183C295.735 28.346 295.527 28.5891 295.407 28.8477L294.373 28.4783C294.557 28.0475 294.804 27.712 295.111 27.4719C295.422 27.2288 295.761 27.0595 296.127 26.9641C296.496 26.8656 296.859 26.8164 297.216 26.8164C297.444 26.8164 297.706 26.8441 298.001 26.8995C298.3 26.9518 298.588 27.0611 298.865 27.2273C299.145 27.3935 299.377 27.6443 299.562 27.9798C299.746 28.3152 299.839 28.7646 299.839 29.3278V33.9996H298.749V33.0394H298.694C298.62 33.1933 298.497 33.358 298.324 33.5334C298.152 33.7088 297.923 33.8581 297.637 33.9812C297.35 34.1043 297.001 34.1658 296.589 34.1658ZM296.755 33.1871C297.186 33.1871 297.549 33.1025 297.844 32.9332C298.143 32.764 298.367 32.5455 298.518 32.2777C298.672 32.0099 298.749 31.7283 298.749 31.4329V30.4357C298.703 30.4911 298.601 30.5419 298.444 30.5881C298.291 30.6312 298.112 30.6696 297.909 30.7035C297.709 30.7343 297.513 30.762 297.323 30.7866C297.135 30.8081 296.983 30.8266 296.866 30.842C296.582 30.8789 296.318 30.9389 296.072 31.022C295.828 31.102 295.631 31.2236 295.481 31.3867C295.333 31.5468 295.259 31.7653 295.259 32.0423C295.259 32.4208 295.399 32.707 295.679 32.9009C295.962 33.0917 296.321 33.1871 296.755 33.1871Z" fill="#2563EB"/>
<path d="M301.827 36.6587V26.9087H302.88V28.0352H303.009C303.089 27.912 303.2 27.7551 303.341 27.5643C303.486 27.3704 303.692 27.198 303.96 27.0472C304.231 26.8933 304.597 26.8164 305.059 26.8164C305.656 26.8164 306.182 26.9657 306.638 27.2642C307.093 27.5627 307.448 27.9859 307.704 28.5337C307.959 29.0816 308.087 29.7279 308.087 30.4727C308.087 31.2236 307.959 31.8745 307.704 32.4254C307.448 32.9732 307.095 33.398 306.642 33.6996C306.19 33.9981 305.668 34.1474 305.077 34.1474C304.622 34.1474 304.257 34.072 303.983 33.9212C303.709 33.7673 303.498 33.5934 303.351 33.3995C303.203 33.2025 303.089 33.0394 303.009 32.9102H302.917V36.6587H301.827ZM302.898 30.4542C302.898 30.9897 302.977 31.4621 303.134 31.8714C303.291 32.2777 303.52 32.5962 303.821 32.8271C304.123 33.0548 304.492 33.1687 304.929 33.1687C305.385 33.1687 305.765 33.0487 306.07 32.8086C306.377 32.5655 306.608 32.2392 306.762 31.8299C306.919 31.4175 306.998 30.9589 306.998 30.4542C306.998 29.9556 306.921 29.5063 306.767 29.1062C306.616 28.703 306.387 28.3845 306.079 28.1506C305.774 27.9136 305.391 27.7951 304.929 27.7951C304.486 27.7951 304.114 27.9074 303.812 28.1321C303.511 28.3537 303.283 28.6645 303.129 29.0646C302.975 29.4616 302.898 29.9248 302.898 30.4542Z" fill="#2563EB"/>
<path d="M308.822 27.9244V26.9087H314.584V27.9244H312.257V33.9996H311.167V27.9244H308.822Z" fill="#2563EB"/>
<path fill-rule="evenodd" clip-rule="evenodd" d="M169 114.278L169 112L171 112L171 114.278L169 114.278ZM169 123.389L169 118.833L171 118.833L171 123.389L169 123.389ZM169 132.5L169 127.944L171 127.944L171 132.5L169 132.5ZM169 141.611L169 137.056L171 137.056L171 141.611L169 141.611ZM169 150.722L169 146.167L171 146.167L171 150.722L169 150.722ZM169 159.833L169 155.278L171 155.278L171 159.833L169 159.833ZM169 168.944L169 164.389L171 164.389L171 168.944L169 168.944ZM169 178.056L169 173.5L171 173.5L171 178.056L169 178.056ZM169 187.167L169 182.611L171 182.611L171 187.167L169 187.167ZM169 194L169 191.722L171 191.722L171 194L169 194Z" fill="#01BC14"/>
<g filter="url(#filter0_dd_1413_14832)">
<path d="M164 112C164 108.686 166.686 106 170 106C173.314 106 176 108.686 176 112C176 115.314 173.314 118 170 118C166.686 118 164 115.314 164 112Z" fill="#01BC14"/>
</g>
<g filter="url(#filter1_dd_1413_14832)">
<path fill-rule="evenodd" clip-rule="evenodd" d="M166 112C166 114.209 167.791 116 170 116C172.209 116 174 114.209 174 112C174 109.791 172.209 108 170 108C167.791 108 166 109.791 166 112ZM170 106C166.686 106 164 108.686 164 112C164 115.314 166.686 118 170 118C173.314 118 176 115.314 176 112C176 108.686 173.314 106 170 106Z" fill="white"/>
</g>
<path d="M29.9891 216H28.9323V208.21H27.0743C26.6027 208.21 26.2235 208.282 25.9365 208.427C25.6496 208.569 25.4408 208.771 25.3101 209.032C25.1794 209.294 25.1141 209.599 25.1141 209.949C25.1141 210.298 25.178 210.599 25.3058 210.852C25.4365 211.102 25.6439 211.295 25.928 211.432C26.2149 211.568 26.5914 211.636 27.0573 211.636H29.4095V212.591H27.0232C26.347 212.591 25.7916 212.478 25.357 212.254C24.9223 212.027 24.5999 211.714 24.3896 211.316C24.1794 210.919 24.0743 210.463 24.0743 209.949C24.0743 209.434 24.1794 208.976 24.3896 208.572C24.5999 208.169 24.9237 207.852 25.3612 207.622C25.7987 207.389 26.3584 207.272 27.0402 207.272H29.9891V216ZM25.8811 212.079H27.0743L24.9607 216H23.7334L25.8811 212.079Z" fill="#9CA3AF"/>
<path d="M36.3524 212.267V213.204H32.7387V212.267H36.3524ZM32.9774 209.454V216H31.9717V209.454H32.9774ZM37.1194 209.454V216H36.1137V209.454H37.1194Z" fill="#9CA3AF"/>
<path d="M38.9561 216V209.454H41.6322C42.3367 209.454 42.8964 209.613 43.3112 209.932C43.7259 210.25 43.9333 210.67 43.9333 211.193C43.9333 211.591 43.8154 211.899 43.5796 212.118C43.3438 212.334 43.0413 212.48 42.672 212.557C42.9134 212.591 43.1478 212.676 43.3751 212.812C43.6052 212.949 43.7955 213.136 43.9461 213.375C44.0967 213.611 44.172 213.9 44.172 214.244C44.172 214.579 44.0867 214.879 43.9163 215.143C43.7458 215.407 43.5015 215.616 43.1833 215.77C42.8651 215.923 42.4845 216 42.0413 216H38.9561ZM39.9106 215.079H42.0413C42.3879 215.079 42.6592 214.997 42.8552 214.832C43.0512 214.667 43.1492 214.443 43.1492 214.159C43.1492 213.821 43.0512 213.555 42.8552 213.362C42.6592 213.166 42.3879 213.068 42.0413 213.068H39.9106V215.079ZM39.9106 212.199H41.6322C41.9021 212.199 42.1336 212.162 42.3268 212.088C42.52 212.011 42.6677 211.903 42.77 211.764C42.8751 211.622 42.9276 211.454 42.9276 211.261C42.9276 210.986 42.8126 210.77 42.5825 210.613C42.3524 210.454 42.0356 210.375 41.6322 210.375H39.9106V212.199Z" fill="#9CA3AF"/>
<path d="M94.0567 208.312H95.4374C96.0851 208.312 96.6604 208.457 97.1633 208.747C97.6661 209.037 98.061 209.44 98.3479 209.957C98.6349 210.474 98.7783 211.074 98.7783 211.756C98.7783 212.437 98.6349 213.038 98.3479 213.558C98.061 214.078 97.6661 214.484 97.1633 214.777C96.6604 215.069 96.0851 215.216 95.4374 215.216H94.0567C93.409 215.216 92.8337 215.071 92.3309 214.781C91.828 214.491 91.4331 214.088 91.1462 213.571C90.8593 213.054 90.7158 212.454 90.7158 211.773C90.7158 211.091 90.8593 210.49 91.1462 209.97C91.4331 209.45 91.828 209.044 92.3309 208.751C92.8337 208.459 93.409 208.312 94.0567 208.312ZM94.0567 209.25C93.5624 209.25 93.1448 209.354 92.8039 209.561C92.4658 209.768 92.2087 210.061 92.0326 210.439C91.8593 210.817 91.7726 211.261 91.7726 211.773C91.7726 212.278 91.8593 212.719 92.0326 213.094C92.2087 213.469 92.4658 213.76 92.8039 213.967C93.1448 214.175 93.5624 214.278 94.0567 214.278H95.4374C95.9317 214.278 96.3479 214.175 96.686 213.967C97.0269 213.76 97.284 213.467 97.4573 213.089C97.6334 212.711 97.7215 212.267 97.7215 211.756C97.7215 211.25 97.6334 210.809 97.4573 210.434C97.284 210.059 97.0269 209.768 96.686 209.561C96.3479 209.354 95.9317 209.25 95.4374 209.25H94.0567ZM95.284 207.119V216.358H94.2272V207.119H95.284Z" fill="#9CA3AF"/>
<path d="M103.157 216.136C102.526 216.136 101.982 215.997 101.525 215.719C101.07 215.437 100.719 215.045 100.472 214.542C100.228 214.037 100.106 213.449 100.106 212.778C100.106 212.108 100.228 211.517 100.472 211.006C100.719 210.491 101.063 210.091 101.503 209.804C101.947 209.514 102.464 209.369 103.055 209.369C103.396 209.369 103.732 209.426 104.065 209.54C104.397 209.653 104.699 209.838 104.972 210.094C105.245 210.346 105.462 210.682 105.624 211.099C105.786 211.517 105.867 212.031 105.867 212.642V213.068H100.822V212.199H104.844C104.844 211.829 104.771 211.5 104.623 211.21C104.478 210.92 104.271 210.692 104.001 210.524C103.734 210.356 103.418 210.273 103.055 210.273C102.654 210.273 102.307 210.372 102.015 210.571C101.725 210.767 101.502 211.023 101.346 211.338C101.19 211.653 101.111 211.991 101.111 212.352V212.932C101.111 213.426 101.197 213.845 101.367 214.189C101.54 214.53 101.78 214.79 102.087 214.969C102.394 215.145 102.751 215.233 103.157 215.233C103.421 215.233 103.66 215.196 103.873 215.122C104.089 215.045 104.275 214.932 104.431 214.781C104.587 214.628 104.708 214.437 104.793 214.21L105.765 214.483C105.663 214.812 105.491 215.102 105.249 215.352C105.008 215.599 104.709 215.792 104.354 215.932C103.999 216.068 103.6 216.136 103.157 216.136Z" fill="#9CA3AF"/>
<path d="M107.397 216V209.454H110.073C110.778 209.454 111.337 209.613 111.752 209.932C112.167 210.25 112.374 210.67 112.374 211.193C112.374 211.591 112.256 211.899 112.021 212.118C111.785 212.334 111.482 212.48 111.113 212.557C111.354 212.591 111.589 212.676 111.816 212.812C112.046 212.949 112.236 213.136 112.387 213.375C112.538 213.611 112.613 213.9 112.613 214.244C112.613 214.579 112.528 214.879 112.357 215.143C112.187 215.407 111.942 215.616 111.624 215.77C111.306 215.923 110.925 216 110.482 216H107.397ZM108.351 215.079H110.482C110.829 215.079 111.1 214.997 111.296 214.832C111.492 214.667 111.59 214.443 111.59 214.159C111.59 213.821 111.492 213.555 111.296 213.362C111.1 213.166 110.829 213.068 110.482 213.068H108.351V215.079ZM108.351 212.199H110.073C110.343 212.199 110.574 212.162 110.768 212.088C110.961 212.011 111.109 211.903 111.211 211.764C111.316 211.622 111.369 211.454 111.369 211.261C111.369 210.986 111.253 210.77 111.023 210.613C110.793 210.454 110.476 210.375 110.073 210.375H108.351V212.199Z" fill="#9CA3AF"/>
<path d="M159.066 96.9999V96.0454L162.019 92.9857C162.335 92.6533 162.595 92.3621 162.799 92.1121C163.006 91.8593 163.161 91.6192 163.264 91.392C163.366 91.1647 163.417 90.9232 163.417 90.6675C163.417 90.3778 163.349 90.1278 163.212 89.9175C163.076 89.7045 162.89 89.5411 162.654 89.4275C162.418 89.311 162.153 89.2528 161.857 89.2528C161.545 89.2528 161.272 89.3167 161.039 89.4445C160.806 89.5724 160.627 89.7528 160.502 89.9857C160.377 90.2187 160.315 90.4914 160.315 90.8039H159.058C159.058 90.2726 159.18 89.8081 159.424 89.4104C159.668 89.0127 160.004 88.7045 160.43 88.4857C160.856 88.2641 161.34 88.1533 161.883 88.1533C162.431 88.1533 162.914 88.2627 163.332 88.4814C163.752 88.6974 164.08 88.9928 164.316 89.3678C164.552 89.74 164.67 90.1604 164.67 90.6292C164.67 90.953 164.609 91.2698 164.487 91.5795C164.367 91.8891 164.158 92.2343 163.86 92.615C163.562 92.9928 163.147 93.4516 162.616 93.9914L160.881 95.8067V95.8707H164.81V96.9999H159.066Z" fill="#6B7280"/>
<path d="M169.306 97.1192C168.772 97.1192 168.292 97.017 167.866 96.8124C167.443 96.605 167.104 96.3209 166.852 95.9601C166.599 95.5993 166.464 95.1874 166.447 94.7243H167.725C167.756 95.0993 167.923 95.4076 168.224 95.6491C168.525 95.8905 168.886 96.0113 169.306 96.0113C169.641 96.0113 169.938 95.9346 170.197 95.7812C170.458 95.6249 170.663 95.4104 170.81 95.1377C170.961 94.865 171.036 94.5539 171.036 94.2045C171.036 93.8493 170.96 93.5326 170.806 93.2542C170.653 92.9758 170.441 92.757 170.171 92.5979C169.904 92.4388 169.597 92.3579 169.251 92.355C168.987 92.355 168.721 92.4005 168.454 92.4914C168.187 92.5823 167.971 92.7016 167.806 92.8493L166.6 92.6704L167.09 88.2726H171.889V89.4019H168.185L167.908 91.8437H167.96C168.13 91.6789 168.356 91.5411 168.637 91.4303C168.921 91.3195 169.225 91.2641 169.549 91.2641C170.08 91.2641 170.553 91.3905 170.968 91.6434C171.386 91.8962 171.714 92.2414 171.953 92.6789C172.194 93.1135 172.313 93.6135 172.31 94.1789C172.313 94.7442 172.185 95.2485 171.927 95.6917C171.671 96.1349 171.316 96.4843 170.862 96.74C170.41 96.9928 169.891 97.1192 169.306 97.1192Z" fill="#6B7280"/>
<path d="M176.905 97.1448C176.232 97.142 175.657 96.9644 175.179 96.6121C174.702 96.2599 174.337 95.7471 174.084 95.0738C173.831 94.4005 173.705 93.5894 173.705 92.6405C173.705 91.6945 173.831 90.8863 174.084 90.2158C174.34 89.5454 174.706 89.034 175.184 88.6817C175.664 88.3295 176.238 88.1533 176.905 88.1533C177.573 88.1533 178.145 88.3309 178.623 88.686C179.1 89.0383 179.465 89.5496 179.718 90.2201C179.973 90.8877 180.101 91.6945 180.101 92.6405C180.101 93.5922 179.975 94.4047 179.722 95.078C179.469 95.7485 179.104 96.2613 178.627 96.6164C178.15 96.9687 177.576 97.1448 176.905 97.1448ZM176.905 96.007C177.496 96.007 177.958 95.7187 178.29 95.142C178.625 94.5653 178.793 93.7314 178.793 92.6405C178.793 91.9161 178.716 91.3039 178.563 90.8039C178.412 90.301 178.195 89.9204 177.911 89.6618C177.63 89.4005 177.294 89.2698 176.905 89.2698C176.317 89.2698 175.856 89.5596 175.52 90.1391C175.185 90.7187 175.016 91.5525 175.013 92.6405C175.013 93.3678 175.089 93.9829 175.239 94.4857C175.392 94.9857 175.61 95.365 175.891 95.6235C176.172 95.8792 176.51 96.007 176.905 96.007Z" fill="#6B7280"/>
<path d="M161.057 207.272H162.318L165.284 214.517H165.386L168.352 207.272H169.613V216H168.625V209.369H168.54L165.812 216H164.858L162.131 209.369H162.045V216H161.057V207.272Z" fill="#9CA3AF"/>
<path d="M173.522 216.153C173.107 216.153 172.731 216.075 172.393 215.919C172.055 215.76 171.786 215.531 171.588 215.233C171.389 214.932 171.289 214.568 171.289 214.142C171.289 213.767 171.363 213.463 171.511 213.23C171.659 212.994 171.856 212.809 172.103 212.676C172.35 212.542 172.623 212.443 172.921 212.378C173.222 212.309 173.525 212.255 173.829 212.216C174.227 212.165 174.549 212.126 174.796 212.101C175.046 212.072 175.228 212.025 175.342 211.96C175.458 211.895 175.517 211.781 175.517 211.619V211.585C175.517 211.165 175.401 210.838 175.171 210.605C174.944 210.372 174.599 210.255 174.136 210.255C173.656 210.255 173.279 210.361 173.007 210.571C172.734 210.781 172.542 211.005 172.431 211.244L171.477 210.903C171.647 210.505 171.874 210.196 172.159 209.974C172.445 209.75 172.758 209.593 173.096 209.505C173.437 209.415 173.772 209.369 174.102 209.369C174.312 209.369 174.553 209.395 174.826 209.446C175.102 209.494 175.367 209.595 175.623 209.748C175.882 209.902 176.096 210.133 176.267 210.443C176.437 210.753 176.522 211.167 176.522 211.687V216H175.517V215.113H175.465C175.397 215.255 175.284 215.407 175.124 215.569C174.965 215.731 174.754 215.869 174.49 215.983C174.225 216.096 173.903 216.153 173.522 216.153ZM173.676 215.25C174.073 215.25 174.409 215.172 174.681 215.015C174.957 214.859 175.164 214.657 175.303 214.41C175.445 214.163 175.517 213.903 175.517 213.63V212.71C175.474 212.761 175.38 212.808 175.235 212.851C175.093 212.89 174.928 212.926 174.741 212.957C174.556 212.986 174.376 213.011 174.2 213.034C174.026 213.054 173.886 213.071 173.778 213.085C173.517 213.119 173.272 213.174 173.045 213.251C172.82 213.325 172.639 213.437 172.499 213.588C172.363 213.736 172.295 213.937 172.295 214.193C172.295 214.542 172.424 214.807 172.683 214.986C172.944 215.162 173.275 215.25 173.676 215.25Z" fill="#9CA3AF"/>
<path d="M178.358 218.454V209.454H179.329V210.494H179.449C179.523 210.38 179.625 210.236 179.756 210.059C179.889 209.88 180.079 209.721 180.327 209.582C180.577 209.44 180.915 209.369 181.341 209.369C181.892 209.369 182.378 209.507 182.798 209.782C183.219 210.058 183.547 210.449 183.782 210.954C184.018 211.46 184.136 212.057 184.136 212.744C184.136 213.437 184.018 214.038 183.782 214.547C183.547 215.052 183.22 215.444 182.802 215.723C182.385 215.998 181.903 216.136 181.358 216.136C180.937 216.136 180.601 216.066 180.348 215.927C180.095 215.785 179.9 215.625 179.764 215.446C179.628 215.264 179.523 215.113 179.449 214.994H179.363V218.454H178.358ZM179.346 212.727C179.346 213.221 179.419 213.657 179.564 214.035C179.709 214.41 179.92 214.704 180.199 214.917C180.477 215.128 180.818 215.233 181.221 215.233C181.642 215.233 181.993 215.122 182.274 214.9C182.558 214.676 182.771 214.375 182.913 213.997C183.058 213.616 183.131 213.193 183.131 212.727C183.131 212.267 183.059 211.852 182.917 211.483C182.778 211.111 182.567 210.816 182.282 210.601C182.001 210.382 181.648 210.272 181.221 210.272C180.812 210.272 180.469 210.376 180.19 210.584C179.912 210.788 179.702 211.075 179.559 211.444C179.417 211.811 179.346 212.238 179.346 212.727Z" fill="#9CA3AF"/>
<path d="M232.415 216H231.307L234.511 207.272H235.602L238.807 216H237.699L235.091 208.653H235.023L232.415 216ZM232.824 212.591H237.29V213.528H232.824V212.591Z" fill="#9CA3AF"/>
<path d="M240.03 216V209.454H245.177V216H244.172V210.392H241.035V216H240.03Z" fill="#9CA3AF"/>
<path d="M247.014 218.454V209.454H247.986V210.494H248.105C248.179 210.38 248.281 210.236 248.412 210.059C248.545 209.88 248.736 209.721 248.983 209.582C249.233 209.44 249.571 209.369 249.997 209.369C250.548 209.369 251.034 209.507 251.454 209.782C251.875 210.058 252.203 210.449 252.439 210.954C252.675 211.46 252.792 212.057 252.792 212.744C252.792 213.437 252.675 214.038 252.439 214.547C252.203 215.052 251.876 215.444 251.459 215.723C251.041 215.998 250.559 216.136 250.014 216.136C249.594 216.136 249.257 216.066 249.004 215.927C248.751 215.785 248.557 215.625 248.42 215.446C248.284 215.264 248.179 215.113 248.105 214.994H248.02V218.454H247.014ZM248.003 212.727C248.003 213.221 248.075 213.657 248.22 214.035C248.365 214.41 248.577 214.704 248.855 214.917C249.133 215.128 249.474 215.233 249.878 215.233C250.298 215.233 250.649 215.122 250.93 214.9C251.214 214.676 251.427 214.375 251.569 213.997C251.714 213.616 251.787 213.193 251.787 212.727C251.787 212.267 251.716 211.852 251.574 211.483C251.434 211.111 251.223 210.816 250.939 210.601C250.657 210.382 250.304 210.272 249.878 210.272C249.469 210.272 249.125 210.376 248.846 210.584C248.568 210.788 248.358 211.075 248.216 211.444C248.074 211.811 248.003 212.238 248.003 212.727Z" fill="#9CA3AF"/>
<path d="M301.057 207.272H302.318L305.284 214.517H305.386L308.352 207.272H309.613V216H308.625V209.369H308.54L305.812 216H304.858L302.131 209.369H302.045V216H301.057V207.272Z" fill="#9CA3AF"/>
<path d="M313.522 216.153C313.107 216.153 312.731 216.075 312.393 215.919C312.055 215.76 311.786 215.531 311.588 215.233C311.389 214.932 311.289 214.568 311.289 214.142C311.289 213.767 311.363 213.463 311.511 213.23C311.659 212.994 311.856 212.809 312.103 212.676C312.35 212.542 312.623 212.443 312.921 212.378C313.222 212.309 313.525 212.255 313.829 212.216C314.227 212.165 314.549 212.126 314.796 212.101C315.046 212.072 315.228 212.025 315.342 211.96C315.458 211.895 315.517 211.781 315.517 211.619V211.585C315.517 211.165 315.401 210.838 315.171 210.605C314.944 210.372 314.599 210.255 314.136 210.255C313.656 210.255 313.279 210.361 313.007 210.571C312.734 210.781 312.542 211.005 312.431 211.244L311.477 210.903C311.647 210.505 311.874 210.196 312.159 209.974C312.445 209.75 312.758 209.593 313.096 209.505C313.437 209.415 313.772 209.369 314.102 209.369C314.312 209.369 314.553 209.395 314.826 209.446C315.102 209.494 315.367 209.595 315.623 209.748C315.882 209.902 316.096 210.133 316.267 210.443C316.437 210.753 316.522 211.167 316.522 211.687V216H315.517V215.113H315.465C315.397 215.255 315.284 215.407 315.124 215.569C314.965 215.731 314.754 215.869 314.49 215.983C314.225 216.096 313.903 216.153 313.522 216.153ZM313.676 215.25C314.073 215.25 314.409 215.172 314.681 215.015C314.957 214.859 315.164 214.657 315.303 214.41C315.445 214.163 315.517 213.903 315.517 213.63V212.71C315.474 212.761 315.38 212.808 315.235 212.851C315.093 212.89 314.928 212.926 314.741 212.957C314.556 212.986 314.376 213.011 314.2 213.034C314.026 213.054 313.886 213.071 313.778 213.085C313.517 213.119 313.272 213.174 313.045 213.251C312.82 213.325 312.639 213.437 312.499 213.588C312.363 213.736 312.295 213.937 312.295 214.193C312.295 214.542 312.424 214.807 312.683 214.986C312.944 215.162 313.275 215.25 313.676 215.25Z" fill="#9CA3AF"/>
<path d="M319.363 214.517L322.517 209.454H323.676V216H322.67V210.937L319.534 216H318.358V209.454H319.363V214.517ZM321.852 207.272H322.79C322.79 207.733 322.631 208.109 322.312 208.402C321.994 208.694 321.562 208.841 321.017 208.841C320.48 208.841 320.052 208.694 319.734 208.402C319.419 208.109 319.261 207.733 319.261 207.272H320.199C320.199 207.494 320.26 207.689 320.382 207.856C320.507 208.024 320.719 208.108 321.017 208.108C321.315 208.108 321.528 208.024 321.656 207.856C321.787 207.689 321.852 207.494 321.852 207.272Z" fill="#9CA3AF"/>
<path d="M322 31L320 28L324 28L322 31Z" fill="#2563EB"/>
<path d="M23.4902 42.5087V36.8482H24.4632C24.79 36.5878 25.0953 36.2208 25.3794 35.7473C25.6635 35.2739 25.905 34.6252 26.1039 33.8013C26.3027 32.9775 26.44 31.9121 26.5158 30.6053L26.8993 24.4547H36.1962V36.8482H37.8155V42.4945H35.2871V39.0002H26.0186V42.5087H23.4902ZM27.5314 36.8482H33.6678V26.6635H29.2715L29.0442 30.6053C28.9827 31.5949 28.8832 32.4803 28.7459 33.2615C28.6086 34.0428 28.4358 34.7317 28.2275 35.3283C28.0191 35.9202 27.7871 36.4268 27.5314 36.8482Z" fill="#1E293B"/>
<path d="M44.6071 39.2132C43.5417 39.2132 42.6184 38.9789 41.8372 38.5101C41.0559 38.0414 40.4499 37.3856 40.019 36.5428C39.5929 35.7 39.3798 34.7151 39.3798 33.5882C39.3798 32.4614 39.5929 31.4741 40.019 30.6266C40.4499 29.7791 41.0559 29.1209 41.8372 28.6522C42.6184 28.1834 43.5417 27.949 44.6071 27.949C45.6724 27.949 46.5957 28.1834 47.377 28.6522C48.1582 29.1209 48.7619 29.7791 49.188 30.6266C49.6189 31.4741 49.8343 32.4614 49.8343 33.5882C49.8343 34.7151 49.6189 35.7 49.188 36.5428C48.7619 37.3856 48.1582 38.0414 47.377 38.5101C46.5957 38.9789 45.6724 39.2132 44.6071 39.2132ZM44.6213 37.1536C45.1989 37.1536 45.6819 36.995 46.0701 36.6777C46.4584 36.3558 46.7472 35.9249 46.9366 35.3851C47.1307 34.8453 47.2278 34.244 47.2278 33.5811C47.2278 32.9135 47.1307 32.3098 46.9366 31.7701C46.7472 31.2256 46.4584 30.7923 46.0701 30.4703C45.6819 30.1484 45.1989 29.9874 44.6213 29.9874C44.0294 29.9874 43.537 30.1484 43.144 30.4703C42.7557 30.7923 42.4645 31.2256 42.2704 31.7701C42.081 32.3098 41.9863 32.9135 41.9863 33.5811C41.9863 34.244 42.081 34.8453 42.2704 35.3851C42.4645 35.9249 42.7557 36.3558 43.144 36.6777C43.537 36.995 44.0294 37.1536 44.6213 37.1536Z" fill="#1E293B"/>
<path d="M59.5094 32.4803V34.5897H53.6998V32.4803H59.5094ZM54.4952 28.0911V39.0002H52.0165V28.0911H54.4952ZM61.1927 28.0911V39.0002H58.7211V28.0911H61.1927Z" fill="#1E293B"/>
<path d="M66.9331 39.2203C66.2418 39.2203 65.6191 39.0972 65.0652 38.851C64.5159 38.6001 64.0803 38.2308 63.7583 37.7431C63.4411 37.2554 63.2825 36.6541 63.2825 35.9391C63.2825 35.3236 63.3961 34.8146 63.6234 34.4121C63.8507 34.0096 64.1608 33.6877 64.5538 33.4462C64.9468 33.2047 65.3895 33.0224 65.8819 32.8993C66.3791 32.7715 66.8928 32.6792 67.4231 32.6223C68.0623 32.556 68.5808 32.4969 68.9785 32.4448C69.3762 32.388 69.6651 32.3027 69.845 32.1891C70.0297 32.0707 70.122 31.8884 70.122 31.6422V31.5996C70.122 31.0646 69.9634 30.6503 69.6461 30.3567C69.3289 30.0632 68.872 29.9164 68.2754 29.9164C67.6457 29.9164 67.1461 30.0537 66.7768 30.3283C66.4122 30.6029 66.166 30.9273 66.0382 31.3013L63.6376 30.9604C63.827 30.2975 64.1395 29.7435 64.5751 29.2985C65.0107 28.8487 65.5434 28.5125 66.1731 28.29C66.8029 28.0627 67.4989 27.949 68.2612 27.949C68.7868 27.949 69.31 28.0106 69.8308 28.1337C70.3516 28.2568 70.8275 28.4604 71.2583 28.7445C71.6892 29.0239 72.0349 29.405 72.2953 29.888C72.5604 30.3709 72.693 30.9746 72.693 31.699V39.0002H70.2214V37.5016H70.1362C69.9799 37.8046 69.7598 38.0887 69.4757 38.3539C69.1963 38.6143 68.8436 38.825 68.4174 38.986C67.996 39.1422 67.5012 39.2203 66.9331 39.2203ZM67.6007 37.3311C68.1168 37.3311 68.5642 37.2293 68.943 37.0257C69.3218 36.8174 69.613 36.5428 69.8166 36.2019C70.0249 35.861 70.1291 35.4893 70.1291 35.0868V33.8013C70.0486 33.8676 69.9113 33.9292 69.7172 33.986C69.5278 34.0428 69.3147 34.0925 69.0779 34.1351C68.8412 34.1777 68.6068 34.2156 68.3748 34.2488C68.1428 34.2819 67.9416 34.3103 67.7711 34.334C67.3876 34.3861 67.0443 34.4713 66.7413 34.5897C66.4383 34.708 66.1992 34.8738 66.024 35.0868C65.8488 35.2952 65.7612 35.565 65.7612 35.8965C65.7612 36.37 65.934 36.7275 66.2797 36.9689C66.6253 37.2104 67.0656 37.3311 67.6007 37.3311Z" fill="#1E293B"/>
<path d="M74.0566 30.2005V28.0911H83.6021V30.2005H80.0723V39.0002H77.5865V30.2005H74.0566Z" fill="#1E293B"/>
<path d="M89.9586 39.2132C88.8933 39.2132 87.97 38.9789 87.1887 38.5101C86.4075 38.0414 85.8014 37.3856 85.3706 36.5428C84.9444 35.7 84.7314 34.7151 84.7314 33.5882C84.7314 32.4614 84.9444 31.4741 85.3706 30.6266C85.8014 29.7791 86.4075 29.1209 87.1887 28.6522C87.97 28.1834 88.8933 27.949 89.9586 27.949C91.024 27.949 91.9473 28.1834 92.7285 28.6522C93.5098 29.1209 94.1135 29.7791 94.5396 30.6266C94.9705 31.4741 95.1859 32.4614 95.1859 33.5882C95.1859 34.7151 94.9705 35.7 94.5396 36.5428C94.1135 37.3856 93.5098 38.0414 92.7285 38.5101C91.9473 38.9789 91.024 39.2132 89.9586 39.2132ZM89.9728 37.1536C90.5505 37.1536 91.0334 36.995 91.4217 36.6777C91.8099 36.3558 92.0988 35.9249 92.2882 35.3851C92.4823 34.8453 92.5794 34.244 92.5794 33.5811C92.5794 32.9135 92.4823 32.3098 92.2882 31.7701C92.0988 31.2256 91.8099 30.7923 91.4217 30.4703C91.0334 30.1484 90.5505 29.9874 89.9728 29.9874C89.381 29.9874 88.8886 30.1484 88.4956 30.4703C88.1073 30.7923 87.8161 31.2256 87.622 31.7701C87.4326 32.3098 87.3379 32.9135 87.3379 33.5811C87.3379 34.244 87.4326 34.8453 87.622 35.3851C87.8161 35.9249 88.1073 36.3558 88.4956 36.6777C88.8886 36.995 89.381 37.1536 89.9728 37.1536Z" fill="#1E293B"/>
<path d="M97.3681 39.0002V28.0911H101.949C103.242 28.0911 104.262 28.3491 105.01 28.8652C105.763 29.3813 106.139 30.101 106.139 31.0243C106.139 31.6351 105.926 32.1346 105.5 32.5229C105.079 32.9064 104.503 33.1645 103.774 33.2971C104.347 33.3444 104.849 33.4888 105.28 33.7303C105.716 33.9718 106.057 34.289 106.303 34.682C106.549 35.075 106.672 35.5272 106.672 36.0385C106.672 36.6399 106.513 37.1631 106.196 37.6081C105.884 38.0485 105.427 38.3918 104.825 38.638C104.229 38.8794 103.504 39.0002 102.652 39.0002H97.3681ZM99.7757 36.976H102.652C103.126 36.976 103.497 36.8648 103.767 36.6422C104.037 36.415 104.172 36.1072 104.172 35.7189C104.172 35.2691 104.037 34.9164 103.767 34.6607C103.497 34.4003 103.126 34.2701 102.652 34.2701H99.7757V36.976ZM99.7757 32.6081H101.999C102.349 32.6081 102.65 32.5584 102.901 32.459C103.152 32.3548 103.343 32.2104 103.476 32.0257C103.609 31.8364 103.675 31.6114 103.675 31.351C103.675 30.977 103.521 30.6834 103.213 30.4703C102.91 30.2573 102.489 30.1507 101.949 30.1507H99.7757V32.6081Z" fill="#1E293B"/>
<path d="M110.378 39.1564C109.947 39.1564 109.577 39.0049 109.27 38.7019C108.962 38.3989 108.81 38.0295 108.815 37.5939C108.81 37.1678 108.962 36.8032 109.27 36.5002C109.577 36.1971 109.947 36.0456 110.378 36.0456C110.794 36.0456 111.157 36.1971 111.464 36.5002C111.777 36.8032 111.935 37.1678 111.94 37.5939C111.935 37.8828 111.86 38.1455 111.713 38.3823C111.571 38.619 111.381 38.8084 111.145 38.9505C110.913 39.0878 110.657 39.1564 110.378 39.1564ZM110.378 31.3723C109.947 31.3723 109.577 31.2208 109.27 30.9178C108.962 30.61 108.81 30.2407 108.815 29.8098C108.81 29.3837 108.962 29.0191 109.27 28.7161C109.577 28.4083 109.947 28.2544 110.378 28.2544C110.794 28.2544 111.157 28.4083 111.464 28.7161C111.777 29.0191 111.935 29.3837 111.94 29.8098C111.935 30.0939 111.86 30.3543 111.713 30.5911C111.571 30.8278 111.381 31.0172 111.145 31.1593C110.913 31.3013 110.657 31.3723 110.378 31.3723Z" fill="#1E293B"/>
<path d="M119.527 39.0002V37.0968L124.577 32.1465C125.06 31.6588 125.462 31.2256 125.784 30.8468C126.106 30.468 126.348 30.101 126.509 29.7459C126.67 29.3908 126.75 29.012 126.75 28.6096C126.75 28.1503 126.646 27.7573 126.438 27.4306C126.229 27.0991 125.943 26.8435 125.578 26.6635C125.214 26.4836 124.799 26.3936 124.335 26.3936C123.857 26.3936 123.438 26.4931 123.078 26.6919C122.718 26.8861 122.439 27.1631 122.24 27.5229C122.046 27.8828 121.949 28.3113 121.949 28.8084H119.442C119.442 27.8851 119.653 27.0826 120.074 26.4007C120.495 25.7189 121.075 25.191 121.814 24.8169C122.557 24.4429 123.41 24.2559 124.371 24.2559C125.346 24.2559 126.203 24.4382 126.942 24.8027C127.681 25.1673 128.253 25.6668 128.661 26.3013C129.073 26.9358 129.279 27.6602 129.279 28.4746C129.279 29.0191 129.174 29.5542 128.966 30.0797C128.758 30.6053 128.391 31.1877 127.865 31.8269C127.344 32.4661 126.613 33.2402 125.671 34.1493L123.164 36.699V36.7985H129.499V39.0002H119.527Z" fill="#1E293B"/>
<path d="M137.006 39.199C136.059 39.199 135.211 39.0215 134.463 38.6664C133.715 38.3065 133.121 37.8141 132.681 37.1891C132.245 36.5641 132.013 35.8491 131.985 35.0442H134.541C134.589 35.6408 134.847 36.1285 135.316 36.5073C135.784 36.8813 136.348 37.0684 137.006 37.0684C137.522 37.0684 137.981 36.95 138.384 36.7132C138.786 36.4765 139.103 36.1474 139.335 35.726C139.567 35.3046 139.681 34.824 139.676 34.2843C139.681 33.735 139.565 33.2473 139.328 32.8212C139.092 32.3951 138.767 32.0613 138.355 31.8198C137.943 31.5736 137.47 31.4505 136.935 31.4505C136.499 31.4457 136.071 31.5262 135.649 31.6919C135.228 31.8577 134.894 32.0755 134.648 32.3453L132.269 31.9547L133.029 24.4547H141.466V26.6564H135.209L134.79 30.513H134.875C135.145 30.1957 135.526 29.9329 136.019 29.7246C136.511 29.5115 137.051 29.405 137.638 29.405C138.519 29.405 139.305 29.6133 139.996 30.03C140.687 30.4419 141.232 31.0101 141.629 31.7346C142.027 32.459 142.226 33.2876 142.226 34.2203C142.226 35.1815 142.003 36.0385 141.558 36.7914C141.118 37.5395 140.505 38.129 139.719 38.5598C138.938 38.986 138.033 39.199 137.006 39.199Z" fill="#1E293B"/>
<path d="M149.982 39.2772C148.812 39.2772 147.808 38.9812 146.97 38.3894C146.137 37.7928 145.495 36.9334 145.046 35.8113C144.601 34.6844 144.378 33.3278 144.378 31.7417C144.383 30.1555 144.608 28.806 145.053 27.6934C145.503 26.5759 146.144 25.7237 146.977 25.1365C147.816 24.5494 148.817 24.2559 149.982 24.2559C151.146 24.2559 152.148 24.5494 152.986 25.1365C153.824 25.7237 154.466 26.5759 154.911 27.6934C155.361 28.8108 155.585 30.1602 155.585 31.7417C155.585 33.3326 155.361 34.6915 154.911 35.8184C154.466 36.9405 153.824 37.7975 152.986 38.3894C152.153 38.9812 151.151 39.2772 149.982 39.2772ZM149.982 37.0542C150.891 37.0542 151.608 36.6067 152.134 35.7118C152.664 34.8122 152.929 33.4888 152.929 31.7417C152.929 30.5864 152.808 29.6157 152.567 28.8297C152.325 28.0437 151.985 27.4519 151.544 27.0542C151.104 26.6517 150.583 26.4505 149.982 26.4505C149.077 26.4505 148.362 26.9003 147.837 27.7999C147.311 28.6948 147.046 30.0087 147.041 31.7417C147.037 32.9017 147.153 33.8771 147.389 34.6678C147.631 35.4585 147.972 36.0551 148.412 36.4576C148.852 36.8553 149.376 37.0542 149.982 37.0542Z" fill="#1E293B"/>
<path d="M28.7428 54.9558V55.9714H24.828V54.9558H28.7428ZM25.0866 51.9089V58.9998H23.9971V51.9089H25.0866ZM29.5738 51.9089V58.9998H28.4843V51.9089H29.5738Z" fill="#6B7280"/>
<path d="M33.6501 59.166C33.2008 59.166 32.793 59.0814 32.4268 58.9121C32.0605 58.7398 31.7697 58.492 31.5542 58.1689C31.3388 57.8426 31.2311 57.4487 31.2311 56.987C31.2311 56.5808 31.3111 56.2515 31.4711 55.9991C31.6312 55.7437 31.8451 55.5436 32.1128 55.399C32.3806 55.2543 32.676 55.1466 32.9992 55.0758C33.3254 55.002 33.6532 54.9435 33.9825 54.9004C34.4134 54.845 34.7627 54.8034 35.0305 54.7757C35.3013 54.745 35.4983 54.6942 35.6214 54.6234C35.7475 54.5526 35.8106 54.4295 35.8106 54.2541V54.2172C35.8106 53.7617 35.686 53.4077 35.4367 53.1554C35.1905 52.903 34.8166 52.7768 34.3149 52.7768C33.7948 52.7768 33.387 52.8907 33.0915 53.1184C32.7961 53.3462 32.5883 53.5893 32.4683 53.8478L31.4342 53.4785C31.6189 53.0476 31.8651 52.7122 32.1729 52.4721C32.4837 52.229 32.8222 52.0597 33.1885 51.9643C33.5578 51.8658 33.921 51.8166 34.278 51.8166C34.5057 51.8166 34.7673 51.8443 35.0628 51.8997C35.3613 51.952 35.6491 52.0613 35.926 52.2275C36.2061 52.3936 36.4385 52.6445 36.6231 52.9799C36.8078 53.3154 36.9001 53.7647 36.9001 54.3279V58.9998H35.8106V58.0396H35.7552C35.6814 58.1935 35.5583 58.3581 35.3859 58.5336C35.2136 58.709 34.9843 58.8583 34.6981 58.9814C34.4118 59.1045 34.0625 59.166 33.6501 59.166ZM33.8163 58.1873C34.2472 58.1873 34.6104 58.1027 34.9058 57.9334C35.2043 57.7641 35.429 57.5456 35.5798 57.2779C35.7337 57.0101 35.8106 56.7285 35.8106 56.4331V55.4359C35.7645 55.4913 35.6629 55.5421 35.5059 55.5882C35.3521 55.6313 35.1736 55.6698 34.9704 55.7037C34.7704 55.7344 34.575 55.7621 34.3841 55.7868C34.1964 55.8083 34.0441 55.8268 33.9271 55.8422C33.644 55.8791 33.3793 55.9391 33.1331 56.0222C32.8899 56.1022 32.693 56.2238 32.5422 56.3869C32.3944 56.5469 32.3206 56.7654 32.3206 57.0424C32.3206 57.421 32.4606 57.7072 32.7407 57.9011C33.0238 58.0919 33.3824 58.1873 33.8163 58.1873Z" fill="#6B7280"/>
<path d="M45.4256 59.1475C44.7608 59.1475 44.1884 58.9906 43.7083 58.6767C43.2282 58.3627 42.8588 57.9303 42.6003 57.3794C42.3418 56.8285 42.2125 56.1992 42.2125 55.4913C42.2125 54.7711 42.3449 54.1356 42.6096 53.5847C42.8773 53.0307 43.2497 52.5983 43.7267 52.2875C44.2069 51.9735 44.767 51.8166 45.4071 51.8166C45.9057 51.8166 46.3551 51.9089 46.7551 52.0936C47.1552 52.2782 47.483 52.5368 47.7385 52.8691C47.9939 53.2015 48.1524 53.5893 48.214 54.0325H47.1245C47.0414 53.7093 46.8567 53.4231 46.5705 53.1738C46.2873 52.9215 45.9057 52.7953 45.4256 52.7953C45.0009 52.7953 44.6285 52.9061 44.3084 53.1277C43.9914 53.3462 43.7437 53.6555 43.5652 54.0556C43.3897 54.4526 43.302 54.9189 43.302 55.4544C43.302 56.0022 43.3882 56.4792 43.5605 56.8855C43.736 57.2917 43.9822 57.6072 44.2992 57.8319C44.6193 58.0565 44.9947 58.1689 45.4256 58.1689C45.7087 58.1689 45.9657 58.1196 46.1966 58.0211C46.4274 57.9226 46.6228 57.7811 46.7828 57.5964C46.9429 57.4118 47.0568 57.1902 47.1245 56.9316H48.214C48.1524 57.3502 48.0001 57.7272 47.7569 58.0627C47.5169 58.3951 47.1983 58.6597 46.8013 58.8567C46.4074 59.0506 45.9488 59.1475 45.4256 59.1475Z" fill="#6B7280"/>
<path d="M50.5083 61.6589C50.3237 61.6589 50.159 61.6435 50.0144 61.6127C49.8697 61.5851 49.7697 61.5574 49.7143 61.5297L49.9913 60.5694C50.256 60.6371 50.4899 60.6618 50.693 60.6433C50.8961 60.6248 51.0762 60.534 51.2331 60.3709C51.3932 60.2109 51.5394 59.9508 51.6717 59.5907L51.8748 59.0368L49.2527 51.9089H50.4345L52.3919 57.5595H52.4657L54.4231 51.9089H55.6049L52.595 60.0339C52.4596 60.4002 52.2918 60.7033 52.0918 60.9434C51.8917 61.1865 51.6594 61.3665 51.3947 61.4835C51.1331 61.6004 50.8377 61.6589 50.5083 61.6589Z" fill="#6B7280"/>
<path d="M60.9208 57.5225L63.3952 51.9089H64.4293L61.364 58.9998H60.4776L57.4677 51.9089H58.4833L60.9208 57.5225ZM58.1325 51.9089V58.9998H57.043V51.9089H58.1325ZM63.7092 58.9998V51.9089H64.7987V58.9998H63.7092Z" fill="#6B7280"/>
<path d="M70.6708 57.5225L73.1452 51.9089H74.1793L71.114 58.9998H70.2276L67.2177 51.9089H68.2333L70.6708 57.5225ZM67.8825 51.9089V58.9998H66.793V51.9089H67.8825ZM73.4592 58.9998V51.9089H74.5487V58.9998H73.4592Z" fill="#6B7280"/>
<path d="M76.9908 61.6589C76.8061 61.6589 76.6415 61.6435 76.4968 61.6127C76.3522 61.5851 76.2521 61.5574 76.1967 61.5297L76.4737 60.5694C76.7384 60.6371 76.9723 60.6618 77.1754 60.6433C77.3786 60.6248 77.5586 60.534 77.7156 60.3709C77.8756 60.2109 78.0218 59.9508 78.1541 59.5907L78.3572 59.0368L75.7351 51.9089H76.9169L78.8743 57.5595H78.9482L80.9055 51.9089H82.0874L79.0774 60.0339C78.942 60.4002 78.7743 60.7033 78.5742 60.9434C78.3742 61.1865 78.1418 61.3665 77.8771 61.4835C77.6155 61.6004 77.3201 61.6589 76.9908 61.6589Z" fill="#6B7280"/>
<path d="M84.3194 59.0737C84.0917 59.0737 83.8962 58.9921 83.7331 58.829C83.57 58.6659 83.4885 58.4705 83.4885 58.2427C83.4885 58.015 83.57 57.8195 83.7331 57.6564C83.8962 57.4933 84.0917 57.4118 84.3194 57.4118C84.5472 57.4118 84.7426 57.4933 84.9057 57.6564C85.0688 57.8195 85.1504 58.015 85.1504 58.2427C85.1504 58.3935 85.1119 58.532 85.035 58.6582C84.9611 58.7844 84.8611 58.8859 84.7349 58.9629C84.6118 59.0368 84.4733 59.0737 84.3194 59.0737ZM84.3194 53.8109C84.0917 53.8109 83.8962 53.7293 83.7331 53.5662C83.57 53.4031 83.4885 53.2077 83.4885 52.9799C83.4885 52.7522 83.57 52.5568 83.7331 52.3936C83.8962 52.2305 84.0917 52.149 84.3194 52.149C84.5472 52.149 84.7426 52.2305 84.9057 52.3936C85.0688 52.5568 85.1504 52.7522 85.1504 52.9799C85.1504 53.1307 85.1119 53.2692 85.035 53.3954C84.9611 53.5216 84.8611 53.6232 84.7349 53.7001C84.6118 53.774 84.4733 53.8109 84.3194 53.8109Z" fill="#6B7280"/>
<path d="M94.0671 49.5453V58.9998H92.9222V50.7456H92.8668L90.5586 52.2782V51.1149L92.9222 49.5453H94.0671Z" fill="#6B7280"/>
<path d="M99.87 59.1291C99.1745 59.1291 98.582 58.9398 98.0927 58.5613C97.6033 58.1796 97.2294 57.6272 96.9709 56.9039C96.7124 56.1776 96.5831 55.3005 96.5831 54.2725C96.5831 53.2508 96.7124 52.3783 96.9709 51.655C97.2325 50.9287 97.608 50.3747 98.0973 49.9931C98.5897 49.6084 99.1806 49.416 99.87 49.416C100.559 49.416 101.149 49.6084 101.638 49.9931C102.131 50.3747 102.506 50.9287 102.765 51.655C103.026 52.3783 103.157 53.2508 103.157 54.2725C103.157 55.3005 103.028 56.1776 102.769 56.9039C102.511 57.6272 102.137 58.1796 101.647 58.5613C101.158 58.9398 100.566 59.1291 99.87 59.1291ZM99.87 58.1135C100.559 58.1135 101.095 57.7811 101.477 57.1163C101.858 56.4515 102.049 55.5036 102.049 54.2725C102.049 53.4539 101.961 52.7568 101.786 52.1813C101.614 51.6058 101.364 51.1672 101.038 50.8656C100.715 50.564 100.326 50.4132 99.87 50.4132C99.1868 50.4132 98.6528 50.7502 98.2681 51.4242C97.8834 52.0951 97.691 53.0446 97.691 54.2725C97.691 55.0912 97.7772 55.7868 97.9496 56.3592C98.1219 56.9316 98.3697 57.3671 98.6928 57.6657C99.0191 57.9642 99.4115 58.1135 99.87 58.1135Z" fill="#6B7280"/>
<path d="M111.651 59.1291C110.956 59.1291 110.363 58.9398 109.874 58.5613C109.385 58.1796 109.011 57.6272 108.752 56.9039C108.494 56.1776 108.364 55.3005 108.364 54.2725C108.364 53.2508 108.494 52.3783 108.752 51.655C109.014 50.9287 109.389 50.3747 109.879 49.9931C110.371 49.6084 110.962 49.416 111.651 49.416C112.341 49.416 112.93 49.6084 113.419 49.9931C113.912 50.3747 114.287 50.9287 114.546 51.655C114.807 52.3783 114.938 53.2508 114.938 54.2725C114.938 55.3005 114.809 56.1776 114.55 56.9039C114.292 57.6272 113.918 58.1796 113.429 58.5613C112.939 58.9398 112.347 59.1291 111.651 59.1291ZM111.651 58.1135C112.341 58.1135 112.876 57.7811 113.258 57.1163C113.639 56.4515 113.83 55.5036 113.83 54.2725C113.83 53.4539 113.743 52.7568 113.567 52.1813C113.395 51.6058 113.145 51.1672 112.819 50.8656C112.496 50.564 112.107 50.4132 111.651 50.4132C110.968 50.4132 110.434 50.7502 110.049 51.4242C109.665 52.0951 109.472 53.0446 109.472 54.2725C109.472 55.0912 109.558 55.7868 109.731 56.3592C109.903 56.9316 110.151 57.3671 110.474 57.6657C110.8 57.9642 111.193 58.1135 111.651 58.1135Z" fill="#6B7280"/>
<path d="M119.776 59.1291C119.081 59.1291 118.488 58.9398 117.999 58.5613C117.51 58.1796 117.136 57.6272 116.877 56.9039C116.619 56.1776 116.489 55.3005 116.489 54.2725C116.489 53.2508 116.619 52.3783 116.877 51.655C117.139 50.9287 117.514 50.3747 118.004 49.9931C118.496 49.6084 119.087 49.416 119.776 49.416C120.466 49.416 121.055 49.6084 121.544 49.9931C122.037 50.3747 122.412 50.9287 122.671 51.655C122.932 52.3783 123.063 53.2508 123.063 54.2725C123.063 55.3005 122.934 56.1776 122.675 56.9039C122.417 57.6272 122.043 58.1796 121.554 58.5613C121.064 58.9398 120.472 59.1291 119.776 59.1291ZM119.776 58.1135C120.466 58.1135 121.001 57.7811 121.383 57.1163C121.764 56.4515 121.955 55.5036 121.955 54.2725C121.955 53.4539 121.868 52.7568 121.692 52.1813C121.52 51.6058 121.27 51.1672 120.944 50.8656C120.621 50.564 120.232 50.4132 119.776 50.4132C119.093 50.4132 118.559 50.7502 118.174 51.4242C117.79 52.0951 117.597 53.0446 117.597 54.2725C117.597 55.0912 117.683 55.7868 117.856 56.3592C118.028 56.9316 118.276 57.3671 118.599 57.6657C118.925 57.9642 119.318 58.1135 119.776 58.1135Z" fill="#6B7280"/>
<path d="M127.901 59.1291C127.206 59.1291 126.613 58.9398 126.124 58.5613C125.635 58.1796 125.261 57.6272 125.002 56.9039C124.744 56.1776 124.614 55.3005 124.614 54.2725C124.614 53.2508 124.744 52.3783 125.002 51.655C125.264 50.9287 125.639 50.3747 126.129 49.9931C126.621 49.6084 127.212 49.416 127.901 49.416C128.591 49.416 129.18 49.6084 129.669 49.9931C130.162 50.3747 130.537 50.9287 130.796 51.655C131.057 52.3783 131.188 53.2508 131.188 54.2725C131.188 55.3005 131.059 56.1776 130.8 56.9039C130.542 57.6272 130.168 58.1796 129.679 58.5613C129.189 58.9398 128.597 59.1291 127.901 59.1291ZM127.901 58.1135C128.591 58.1135 129.126 57.7811 129.508 57.1163C129.889 56.4515 130.08 55.5036 130.08 54.2725C130.08 53.4539 129.993 52.7568 129.817 52.1813C129.645 51.6058 129.395 51.1672 129.069 50.8656C128.746 50.564 128.357 50.4132 127.901 50.4132C127.218 50.4132 126.684 50.7502 126.299 51.4242C125.915 52.0951 125.722 53.0446 125.722 54.2725C125.722 55.0912 125.808 55.7868 125.981 56.3592C126.153 56.9316 126.401 57.3671 126.724 57.6657C127.05 57.9642 127.443 58.1135 127.901 58.1135Z" fill="#6B7280"/>
<path d="M140.901 55.1589H136.1V54.1433H140.901C141.344 54.1433 141.711 54.0663 142 53.9125C142.289 53.7555 142.505 53.5431 142.646 53.2754C142.788 53.0046 142.859 52.6968 142.859 52.3521C142.859 52.0074 142.788 51.7012 142.646 51.4334C142.505 51.1626 142.289 50.9502 142 50.7963C141.711 50.6394 141.344 50.5609 140.901 50.5609H138.741V58.9998H137.596V49.5453H140.901C141.603 49.5453 142.182 49.673 142.637 49.9284C143.093 50.1839 143.431 50.524 143.653 50.9487C143.874 51.3734 143.985 51.8412 143.985 52.3521C143.985 52.863 143.874 53.3308 143.653 53.7555C143.431 54.1802 143.093 54.5203 142.637 54.7757C142.182 55.0312 141.603 55.1589 140.901 55.1589ZM140.827 56.0453V57.0609H136.1V56.0453H140.827Z" fill="#6B7280"/>
<defs>
<filter id="filter0_dd_1413_14832" x="158.667" y="103.333" width="22.6667" height="22.6667" filterUnits="userSpaceOnUse" color-interpolation-filters="sRGB">
<feFlood flood-opacity="0" result="BackgroundImageFix"/>
<feColorMatrix in="SourceAlpha" type="matrix" values="0 0 0 0 0 0 0 0 0 0 0 0 0 0 0 0 0 0 127 0" result="hardAlpha"/>
<feOffset dy="2.66667"/>
<feGaussianBlur stdDeviation="2.66667"/>
<feColorMatrix type="matrix" values="0 0 0 0 0.196487 0 0 0 0 0.196487 0 0 0 0 0.279476 0 0 0 0.06 0"/>
<feBlend mode="multiply" in2="BackgroundImageFix" result="effect1_dropShadow_1413_14832"/>
<feColorMatrix in="SourceAlpha" type="matrix" values="0 0 0 0 0 0 0 0 0 0 0 0 0 0 0 0 0 0 127 0" result="hardAlpha"/>
<feOffset dy="2.66667"/>
<feGaussianBlur stdDeviation="1.33333"/>
<feColorMatrix type="matrix" values="0 0 0 0 0.196487 0 0 0 0 0.196487 0 0 0 0 0.279476 0 0 0 0.06 0"/>
<feBlend mode="multiply" in2="effect1_dropShadow_1413_14832" result="effect2_dropShadow_1413_14832"/>
<feBlend mode="normal" in="SourceGraphic" in2="effect2_dropShadow_1413_14832" result="shape"/>
</filter>
<filter id="filter1_dd_1413_14832" x="158.667" y="103.333" width="22.6667" height="22.6667" filterUnits="userSpaceOnUse" color-interpolation-filters="sRGB">
<feFlood flood-opacity="0" result="BackgroundImageFix"/>
<feColorMatrix in="SourceAlpha" type="matrix" values="0 0 0 0 0 0 0 0 0 0 0 0 0 0 0 0 0 0 127 0" result="hardAlpha"/>
<feOffset dy="2.66667"/>
<feGaussianBlur stdDeviation="2.66667"/>
<feColorMatrix type="matrix" values="0 0 0 0 0.196487 0 0 0 0 0.196487 0 0 0 0 0.279476 0 0 0 0.06 0"/>
<feBlend mode="multiply" in2="BackgroundImageFix" result="effect1_dropShadow_1413_14832"/>
<feColorMatrix in="SourceAlpha" type="matrix" values="0 0 0 0 0 0 0 0 0 0 0 0 0 0 0 0 0 0 127 0" result="hardAlpha"/>
<feOffset dy="2.66667"/>
<feGaussianBlur stdDeviation="1.33333"/>
<feColorMatrix type="matrix" values="0 0 0 0 0.196487 0 0 0 0 0.196487 0 0 0 0 0.279476 0 0 0 0.06 0"/>
<feBlend mode="multiply" in2="effect1_dropShadow_1413_14832" result="effect2_dropShadow_1413_14832"/>
<feBlend mode="normal" in="SourceGraphic" in2="effect2_dropShadow_1413_14832" result="shape"/>
</filter>
<linearGradient id="paint0_linear_1413_14832" x1="115.053" y1="93.0795" x2="115.053" y2="195.506" gradientUnits="userSpaceOnUse">
<stop stop-color="#01BC14" stop-opacity="0.1"/>
<stop offset="0.998978" stop-color="#01BC14" stop-opacity="0"/>
</linearGradient>
</defs>
</svg>
