<svg width="20" height="20" viewBox="0 0 20 20" fill="none" xmlns="http://www.w3.org/2000/svg">
<path d="M9.90141 17C6.05634 17 3 13.902 3 10.1043V3.60844C3 3.30863 3.29577 3.00882 3.59155 3.00882H5.40845C5.70423 3.00882 6 3.30863 6 3.60844V10.1043C6 12.1031 7.92958 14.0019 10 14.0019C12.0704 14.0019 14 12.1031 14 10.1043V3.59959C14 3.29978 14.2958 2.99997 14.5915 2.99997L16.4085 3.00882C16.7042 3.00882 17 3.30863 17 3.60844V10.1043C16.8028 13.902 13.7465 17 9.90141 17Z" fill="white"/>
<path d="M12 10.0044C12 11.1082 11.1046 12.0031 10 12.0031C8.89543 12.0031 8 11.1082 8 10.0044C8 8.9005 8.89543 8.00563 10 8.00563C11.1046 8.00563 12 8.9005 12 10.0044Z" fill="white"/>
</svg>
